<?xml version="1.0" ?><!-- Uploaded to: SVG Repo, www.svgrepo.com, Generator: SVG Repo Mixer Tools -->
<svg width="800px" height="800px" viewBox="0 0 1000 1000" id="Layer_2" version="1.1" xml:space="preserve" xmlns="http://www.w3.org/2000/svg" xmlns:xlink="http://www.w3.org/1999/xlink"><path d="M656.83,648.96l-35.93-21.64l8.33-16.931c6.769-13.748,16.038-25.957,27.266-35.926L708.19,599.6  h44.25c-4.71-9.8-12.62-17.989-22.68-22.88l-48.581-23.619l0.001-0.001l27.12-23.43c7.09-6.13,11.2-15.27,11.2-24.93v-24.26  c0-4.881,1.05-9.7,3.08-14.091l23.79-51.58c3.18-6.88,2.45-15.06-1.89-21.19l-51.82-73.32c-3.31-4.689-8.36-7.66-13.89-8.18  l-46.36-4.31c-4.64-0.43-8.97-2.649-12.15-6.229l-0.422-0.475l24.586-11.348c11.753-5.423,20.726-15.614,24.618-27.961  l11.892-37.725c1.477-4.686,4.954-8.385,9.54-10.148l5.911-2.273c4.731,2.097,10.208,2.57,15.544,0.936l43.779-13.409  c11.768-3.605,18.387-16.066,14.782-27.835c-3.604-11.768-16.066-18.386-27.835-14.781l-43.779,13.408  c-7.133,2.185-12.368,7.626-14.587,14.191l-4.585,1.764c-13.162,5.063-23.143,15.68-27.382,29.129l-11.892,37.725  c-0.743,2.359-2.034,4.479-3.711,6.236l-5.257-42.98c9.108-6.323,15.077-16.853,15.077-28.781c0-19.342-15.68-35.021-35.021-35.021  s-35.021,15.68-35.021,35.021c0,15.98,10.708,29.451,25.337,33.654l6.421,52.503l-9.233,4.262L583.2,259.86  c-3.58-4.021-8.58-6.311-13.81-6.311H558.8v86.19c0,28.26-23,51.26-51.26,51.26h-15.08c-28.26,0-51.26-23-51.26-51.26v-86.19h-10.59  c-5.23,0-10.23,2.29-13.81,6.311l-15.822,17.811l-9.234-4.262l6.421-52.503c14.629-4.203,25.337-17.674,25.337-33.654  c0-19.342-15.68-35.021-35.021-35.021c-19.342,0-35.021,15.68-35.021,35.021c0,11.929,5.969,22.458,15.077,28.781l-5.257,42.98  c-1.676-1.758-2.967-3.877-3.711-6.236l-11.892-37.725c-4.239-13.449-14.22-24.066-27.382-29.129l-4.578-1.761  c-2.217-6.571-7.454-12.018-14.592-14.203l-43.817-13.421c-11.768-3.604-24.23,3.014-27.835,14.782l-0.006,0.018  c-3.604,11.769,3.014,24.23,14.782,27.835l43.817,13.421c5.342,1.636,10.823,1.16,15.557-0.941l5.901,2.27  c4.585,1.764,8.063,5.463,9.54,10.148l11.892,37.725c3.892,12.347,12.865,22.538,24.616,27.96l24.587,11.349l-0.422,0.475  c-3.18,3.58-7.51,5.8-12.15,6.229l-46.36,4.31c-5.53,0.52-10.58,3.49-13.89,8.18l-51.82,73.32c-4.34,6.13-5.07,14.31-1.89,21.19  l23.79,51.58c2.03,4.391,3.08,9.21,3.08,14.091v24.26c0,9.66,4.11,18.8,11.2,24.93l27.12,23.43l0.001,0.001L270.24,576.72  c-10.06,4.891-17.97,13.08-22.68,22.88h44.25l51.694-25.136c11.228,9.969,20.497,22.178,27.266,35.926l8.33,16.931l-35.93,21.64  v15.97c0,3.2-0.88,6.2-2.42,8.75c1.54,2.56,2.42,5.551,2.42,8.75v1.56l49.22-29.65l12.71,25.83c3.88,7.88,11.61,12.83,20.04,12.83  h149.72c8.43,0,16.16-4.95,20.04-12.83l12.71-25.83l49.22,29.65v-1.56c0-3.199,0.88-6.19,2.42-8.75c-1.54-2.55-2.42-5.55-2.42-8.75  V648.96z M452.88,515.49l47.26,24.25l47.27-24.25c4.17-2.15,9.3-0.5,11.44,3.68c2.14,4.17,0.5,9.3-3.68,11.44l-51.15,26.25  c-1.22,0.62-2.55,0.939-3.88,0.939c-1.33,0-2.66-0.319-3.88-0.939l-51.15-26.25c-4.17-2.141-5.82-7.271-3.68-11.44  C443.58,514.99,448.7,513.34,452.88,515.49z M432.09,486.14l-55.23-27.02c-12.7-6.21-22.76-16.74-28.39-29.71l-8.64-19.91  c-2.67-6.14,1.84-13,8.53-13h25.27c14.77,0,29.02,5.51,39.96,15.45l2.31,2.109c13.19,11.99,22.26,27.83,25.91,45.271l3.47,16.54  C446.87,483.45,439.05,489.54,432.09,486.14z M441.43,566.41c2.15-4.18,7.27-5.83,11.45-3.69l47.26,24.261l47.27-24.261  c4.18-2.14,9.3-0.489,11.44,3.69c2.14,4.17,0.5,9.3-3.68,11.439l-51.15,26.25c-1.22,0.62-2.55,0.94-3.88,0.94  c-1.33,0-2.66-0.32-3.88-0.94l-51.15-26.25C440.94,575.71,439.29,570.58,441.43,566.41z M556.97,623.84  c-0.53,0.49-1.13,0.91-1.8,1.25l-51.15,26.25c-1.22,0.62-2.55,0.94-3.88,0.94c-1.33,0-2.66-0.32-3.88-0.94l-51.15-26.25  c-0.71-0.37-1.35-0.82-1.91-1.35c-2.71-2.52-3.54-6.63-1.77-10.101c1.13-2.189,3.09-3.689,5.29-4.31c1.99-0.55,4.18-0.38,6.16,0.63  l47.26,24.26l47.27-24.26c1.9-0.97,3.99-1.16,5.91-0.691c2.31,0.57,4.36,2.091,5.53,4.37C560.65,617.15,559.78,621.33,556.97,623.84  z M568.2,486.14c-6.96,3.4-14.78-2.689-13.19-10.27l3.46-16.54c3.66-17.441,12.73-33.28,25.91-45.271l2.32-2.109  c10.93-9.94,25.18-15.45,39.96-15.45h25.26c6.7,0,11.2,6.86,8.54,13l-8.64,19.91c-5.63,12.97-15.7,23.5-28.39,29.71L568.2,486.14z" style="fill:#231F20;"/><path d="M299.408,616.601h-79.94c-14.782,0-26.765,11.983-26.765,26.765v21.569h30.047  c4.833,0,8.75,3.917,8.75,8.75c0,4.832-3.917,8.75-8.75,8.75h-30.047v41h30.047c4.833,0,8.75,3.917,8.75,8.75  c0,4.832-3.917,8.75-8.75,8.75h-30.047v41h30.047c4.833,0,8.75,3.917,8.75,8.75c0,4.832-3.917,8.75-8.75,8.75h-30.047v21.569  c0,14.781,11.983,26.765,26.765,26.765h79.94c14.782,0,26.765-11.983,26.765-26.765v-21.569H290.75c-4.832,0-8.75-3.918-8.75-8.75  c0-4.833,3.918-8.75,8.75-8.75h35.423v-41H290.75c-4.832,0-8.75-3.918-8.75-8.75c0-4.833,3.918-8.75,8.75-8.75h35.423v-41H290.75  c-4.832,0-8.75-3.918-8.75-8.75c0-4.833,3.918-8.75,8.75-8.75h35.423v-21.569C326.173,628.584,314.19,616.601,299.408,616.601z" style="fill:#231F20;"/><path d="M780.532,616.601h-79.94c-14.782,0-26.765,11.983-26.765,26.765v21.569h30.047  c4.832,0,8.75,3.917,8.75,8.75c0,4.832-3.918,8.75-8.75,8.75h-30.047v41h30.047c4.832,0,8.75,3.917,8.75,8.75  c0,4.832-3.918,8.75-8.75,8.75h-30.047v41h30.047c4.832,0,8.75,3.917,8.75,8.75c0,4.832-3.918,8.75-8.75,8.75h-30.047v21.569  c0,14.781,11.983,26.765,26.765,26.765h79.94c14.782,0,26.765-11.983,26.765-26.765v-21.569h-35.423c-4.833,0-8.75-3.918-8.75-8.75  c0-4.833,3.917-8.75,8.75-8.75h35.423v-41h-35.423c-4.833,0-8.75-3.918-8.75-8.75c0-4.833,3.917-8.75,8.75-8.75h35.423v-41h-35.423  c-4.833,0-8.75-3.918-8.75-8.75c0-4.833,3.917-8.75,8.75-8.75h35.423v-21.569C807.297,628.584,795.314,616.601,780.532,616.601z" style="fill:#231F20;"/><path d="M507.535,374c18.892,0,34.262-15.37,34.262-34.262v-86.185h-18.684h-46.226h-18.684v86.185  c0,18.892,15.37,34.262,34.262,34.262H507.535z" style="fill:#231F20;"/></svg>