<?xml version="1.0" ?><!DOCTYPE svg  PUBLIC '-//W3C//DTD SVG 1.1//EN'  'http://www.w3.org/Graphics/SVG/1.1/DTD/svg11.dtd'><!-- Uploaded to: SVG Repo, www.svgrepo.com, Generator: SVG Repo Mixer Tools -->
<svg width="800px" height="800px" viewBox="0 0 64 64" enable-background="new 0 0 64 64" id="Слой_3" version="1.1" xml:space="preserve" xmlns="http://www.w3.org/2000/svg" xmlns:xlink="http://www.w3.org/1999/xlink"><path d="  M48.539,25.643c0.492,0,0.889,0.397,0.889,0.888c0,0.491-0.396,0.889-0.889,0.889c-0.49,0-0.887-0.397-0.887-0.889" fill="none" stroke="#1B1D1E" stroke-linecap="round" stroke-linejoin="round" stroke-miterlimit="10" stroke-width="2.7"/><path d="  M25.625,39.723c-0.701,1.221-1.631,0.686-2.334,1.904c-0.701,1.221,0.229,1.756-0.475,2.977s-1.633,0.686-2.334,1.906" fill="none" stroke="#1B1D1E" stroke-linecap="round" stroke-linejoin="round" stroke-miterlimit="10" stroke-width="2.7"/><line fill="none" stroke="#1B1D1E" stroke-linecap="round" stroke-linejoin="round" stroke-miterlimit="10" stroke-width="2.7" x1="43.313" x2="39.947" y1="57.188" y2="55.076"/><line fill="none" stroke="#1B1D1E" stroke-linecap="round" stroke-linejoin="round" stroke-miterlimit="10" stroke-width="2.7" x1="14.16" x2="17.525" y1="12.083" y2="9.973"/><path d="  M52.412,8.641c-0.486,0.221-0.973,0.44-1.459,0.659" fill="none" stroke="#1B1D1E" stroke-linecap="round" stroke-linejoin="round" stroke-miterlimit="10" stroke-width="2.7"/><polyline fill="none" points="  30.768,17.708 35.586,26.166 38.338,22.431 43.072,21.755 39.26,14.338 " stroke="#1B1D1E" stroke-linecap="round" stroke-linejoin="round" stroke-miterlimit="10" stroke-width="2.7"/><polyline fill="none" points="  40.713,32 37.184,39.551 41.82,39.643 45.107,43.115 48.641,36.332 " stroke="#1B1D1E" stroke-linecap="round" stroke-linejoin="round" stroke-miterlimit="10" stroke-width="2.7"/><polyline fill="none" points="  19.019,21.998 27.465,29.005 27.734,22.408 " stroke="#1B1D1E" stroke-linecap="round" stroke-linejoin="round" stroke-miterlimit="10" stroke-width="2.7"/><polyline fill="none" points="  51.037,42.072 51.176,47.205 58.869,40.996 " stroke="#1B1D1E" stroke-linecap="round" stroke-linejoin="round" stroke-miterlimit="10" stroke-width="2.7"/><path d="  M45.037,15.047l7.006,4.229l-1.242-11.38l-9.088,5.143l0.27,0.163c-8.521,3.58-17.199,6.864-26.016,9.843" fill="none" stroke="#1B1D1E" stroke-linecap="round" stroke-linejoin="round" stroke-miterlimit="10" stroke-width="2.7"/><path d="  M60.803,41.771c-7.758-3.037-15.182-6.74-22.201-11.038" fill="none" stroke="#1B1D1E" stroke-linecap="round" stroke-linejoin="round" stroke-miterlimit="10" stroke-width="2.7"/><path d="  M3.484,26.701c1.685-0.35,3.413-0.719,3.758-0.826v-0.002l-0.385-1.784l9.037-1.463l1.773,10.384l-4.717-0.78l-3.748,2.735  L8.127,29.98" fill="none" stroke="#1B1D1E" stroke-linecap="round" stroke-linejoin="round" stroke-miterlimit="10" stroke-width="2.7"/></svg>