<?xml version="1.0" encoding="UTF-8"?>
<svg id="Layer_1" data-name="Layer 1" xmlns="http://www.w3.org/2000/svg" viewBox="0 0 250 250">
  <defs>
    <style>
      .cls-1 {
        fill: none;
        stroke: #000;
        stroke-miterlimit: 10;
        stroke-width: 7px;
      }
    </style>
  </defs>
  <path class="cls-1" d="M124.64,234.95l-.77-1.17c-9.35-14.22-21.31-28.79-32.88-42.89l-.15-.18c-7.88-9.59-16.81-20.45-24.41-30.76-18.29-24.79-26.44-43.12-26.44-59.42,0-46.86,38.13-84.99,84.99-84.99s85.03,38.13,85.03,84.99c0,22.53-15.17,45.87-37.94,73.99l-.72-.58,.72,.58c-4.22,5.21-8.72,10.62-12.69,15.39-11.96,14.37-24.29,29.19-33.95,43.87l-.77,1.17Zm.33-217.57c-45.84,0-83.14,37.3-83.14,83.14,0,15.88,8.04,33.87,26.08,58.32,7.57,10.26,16.49,21.11,24.35,30.68l.15,.18c11.29,13.75,22.95,27.95,32.23,41.88,9.6-14.38,21.63-28.84,33.27-42.83,4-4.8,8.5-10.21,12.71-15.41h0c22.53-27.81,37.53-50.84,37.53-72.82,0-45.85-37.31-83.14-83.18-83.14Z"/>
  <path class="cls-1" d="M167,152.79H86.89c-3.62,0-6.57-2.95-6.57-6.57s2.95-6.57,6.57-6.57h80.11c3.62,0,6.57,2.95,6.57,6.57s-2.95,6.57-6.57,6.57Zm-80.11-11.29c-2.6,0-4.72,2.12-4.72,4.72s2.12,4.72,4.72,4.72h80.11c2.6,0,4.72-2.12,4.72-4.72s-2.12-4.72-4.72-4.72H86.89Z"/>
  <path class="cls-1" d="M162.81,98.61H91.14v-14.41h71.67v14.41Zm-69.82-1.85h67.97v-10.72H92.99v10.72Z"/>
  <path class="cls-1" d="M126.98,141.5c-19.76,0-35.83-16.08-35.83-35.83v-8.9h71.67v8.9c0,19.76-16.08,35.83-35.83,35.83Zm-33.99-42.89v7.05c0,18.74,15.25,33.99,33.99,33.99s33.99-15.25,33.99-33.99v-7.05H92.99Z"/>
  <path class="cls-1" d="M155.69,126.86l-.65-1.73c.14-.05,14.49-5.56,20.34-17.37,1.2-2.43,1.36-4.24,.47-5.38-2.26-2.9-10.7-1.8-13.76-1.14l-.39-1.81c1.24-.27,12.23-2.52,15.61,1.81,1.37,1.75,1.28,4.22-.27,7.34-6.18,12.47-20.73,18.05-21.34,18.28Z"/>
  <path class="cls-1" d="M110.57,83.94h-1.85c0-3.67,1.06-6.49,3.15-8.38,3.2-2.89,7.59-2.48,7.78-2.46h24.33c.08,0,2.11,.1,3.45-1.17,.83-.79,1.26-1.98,1.26-3.53s-.42-2.74-1.26-3.54c-1.36-1.3-3.44-1.22-3.45-1.22h-37.74c-2.15-.06-6.17-1.53-6.17-6.71,0-1.62,.56-2.95,1.65-3.95,2.52-2.29,7.01-1.9,7.2-1.88h13.68c2.65,0,4.58-.63,5.71-1.86,1.24-1.34,1.13-2.97,1.12-3.04l1.84-.16c0,.1,.21,2.47-1.58,4.43-1.5,1.65-3.89,2.48-7.1,2.48h-13.77c-.12,0-3.96-.33-5.87,1.41-.7,.64-1.05,1.49-1.05,2.58,0,4.69,4.17,4.86,4.35,4.87h37.67c.06-.01,2.81-.13,4.76,1.72,1.23,1.16,1.85,2.81,1.85,4.89s-.62,3.74-1.85,4.89c-1.94,1.82-4.65,1.66-4.76,1.66h-24.36c-.13,0-3.88-.34-6.46,2-1.68,1.53-2.53,3.88-2.53,7Z"/>
</svg>