<?xml version="1.0" encoding="UTF-8"?>
<svg id="Layer_1" data-name="Layer 1" xmlns="http://www.w3.org/2000/svg" viewBox="0 0 250 250">
  <defs>
    <style>
      .cls-1 {
        fill: none;
        stroke: #000;
        stroke-miterlimit: 10;
        stroke-width: 7px;
      }
    </style>
  </defs>
  <path class="cls-1" d="M205.42,239.34H34.63c-7.53,0-13.65-6.12-13.65-13.65s6.12-13.65,13.65-13.65H205.42c7.53,0,13.65,6.12,13.65,13.65s-6.12,13.65-13.65,13.65Zm-170.8-24.07c-5.75,0-10.42,4.68-10.42,10.42s4.68,10.42,10.42,10.42H205.42c5.75,0,10.42-4.68,10.42-10.42s-4.68-10.42-10.42-10.42H34.63Z"/>
  <path class="cls-1" d="M194.49,123.84H45.65c-.89,0-1.61-.72-1.61-1.61v-26.79c0-.89,.72-1.61,1.61-1.61H194.49c.89,0,1.61,.72,1.61,1.61v26.79c0,.89-.72,1.61-1.61,1.61Zm-147.23-3.23H192.88v-23.56H47.26v23.56Z"/>
  <path class="cls-1" d="M120.02,215.27c-41.93,0-76.04-34.11-76.04-76.04v-17c0-.89,.72-1.61,1.61-1.61H194.45c.89,0,1.61,.72,1.61,1.61v17c0,41.93-34.11,76.04-76.04,76.04ZM47.22,123.84v15.39c0,40.15,32.66,72.81,72.81,72.81s72.81-32.66,72.81-72.81v-15.39H47.22Z"/>
  <path class="cls-1" d="M180.53,184.19c-.65,0-1.27-.4-1.51-1.05-.31-.83,.11-1.77,.94-2.08,.31-.12,31.02-11.89,43.56-37.2,2.63-5.31,2.95-9.3,.96-11.86-4.93-6.32-23.1-3.99-29.69-2.55-.87,.18-1.73-.36-1.92-1.23-.19-.87,.36-1.73,1.23-1.92,1.05-.23,25.73-5.49,32.92,3.72,2.83,3.62,2.62,8.76-.61,15.28-13.11,26.47-44.01,38.3-45.32,38.79-.19,.07-.38,.1-.57,.1Z"/>
  <path class="cls-1" d="M83.2,94.54c-.89,0-1.61-.72-1.61-1.61,0-7.72,2.22-13.64,6.61-17.6,6.7-6.05,15.92-5.19,16.31-5.14h51.9c.15,0,4.61,.22,7.58-2.59,1.86-1.75,2.8-4.38,2.8-7.8s-.94-6.03-2.8-7.81c-3.01-2.88-7.56-2.69-7.61-2.7H75.92c-4.45-.12-12.79-3.19-12.79-13.96,0-3.36,1.15-6.11,3.41-8.17,5.25-4.78,14.67-3.96,15.07-3.93h29.2c5.79,0,9.99-1.39,12.48-4.13,2.76-3.02,2.45-6.66,2.45-6.69-.08-.89,.57-1.68,1.46-1.76,.9-.08,1.68,.57,1.76,1.46,.02,.21,.43,5.1-3.28,9.17-3.13,3.43-8.13,5.17-14.87,5.17h-29.35c-.23-.02-8.57-.72-12.75,3.09-1.58,1.44-2.35,3.33-2.35,5.77,0,10.28,9.22,10.72,9.61,10.73h80.32c.15,0,5.86-.27,9.9,3.56,2.54,2.41,3.83,5.83,3.83,10.17s-1.29,7.78-3.84,10.17c-4.01,3.76-9.65,3.45-9.88,3.44h-51.96c-.24-.01-8.38-.75-14,4.34-3.66,3.32-5.52,8.43-5.52,15.18,0,.89-.72,1.61-1.61,1.61Z"/>
</svg>