<?xml version="1.0" encoding="UTF-8"?>
<svg id="Layer_1" data-name="Layer 1" xmlns="http://www.w3.org/2000/svg" viewBox="0 0 250 250">
  <defs>
    <style>
      .cls-1 {
        fill: none;
        stroke: #000;
        stroke-miterlimit: 10;
        stroke-width: 7px;
      }
    </style>
  </defs>
  <path class="cls-1" d="M111.67,199.05H57.58c-.71,0-1.28-.57-1.28-1.28v-23.5c0-6.56,5.34-11.9,11.9-11.9h32.84c6.56,0,11.9,5.34,11.9,11.9v23.5c0,.71-.57,1.28-1.28,1.28Zm-52.81-2.56h51.53v-22.22c0-5.15-4.19-9.34-9.34-9.34h-32.84c-5.15,0-9.34,4.19-9.34,9.34v22.22Z"/>
  <path class="cls-1" d="M192.27,199.05h-54.09c-.71,0-1.28-.57-1.28-1.28v-23.5c0-6.56,5.34-11.9,11.9-11.9h32.84c6.56,0,11.9,5.34,11.9,11.9v23.5c0,.71-.57,1.28-1.28,1.28Zm-52.81-2.56h51.53v-22.22c0-5.15-4.19-9.34-9.34-9.34h-32.84c-5.15,0-9.34,4.19-9.34,9.34v22.22Z"/>
  <path class="cls-1" d="M57.58,185.49H17.28c-.71,0-1.28-.57-1.28-1.28v-23.51c0-6.56,5.34-11.9,11.9-11.9H60.74c6.56,0,11.9,5.34,11.9,11.9v2.94c0,.71-.57,1.28-1.28,1.28h-3.16c-5.15,0-9.34,4.19-9.34,9.34v9.95c0,.71-.57,1.28-1.28,1.28Zm-39.02-2.56H56.3v-8.66c0-6.56,5.34-11.9,11.9-11.9h1.88v-1.66c0-5.15-4.19-9.34-9.34-9.34H27.9c-5.15,0-9.34,4.19-9.34,9.34v22.23Z"/>
  <path class="cls-1" d="M138.18,185.49h-26.52c-.71,0-1.28-.57-1.28-1.28v-9.94c0-5.15-4.19-9.34-9.34-9.34h-3.17c-.71,0-1.28-.57-1.28-1.28v-2.94c0-6.56,5.34-11.9,11.9-11.9h32.84c6.56,0,11.9,5.34,11.9,11.9v2.94c0,.71-.57,1.28-1.28,1.28h-3.16c-5.15,0-9.34,4.19-9.34,9.34v9.94c0,.71-.57,1.28-1.28,1.28Zm-25.24-2.56h23.96v-8.66c0-6.56,5.34-11.9,11.9-11.9h1.88v-1.66c0-5.15-4.19-9.34-9.34-9.34h-32.84c-5.15,0-9.34,4.19-9.34,9.34v1.66h1.89c6.56,0,11.9,5.34,11.9,11.9v8.66Z"/>
  <path class="cls-1" d="M232.72,185.49h-40.45c-.71,0-1.28-.57-1.28-1.28v-9.94c0-5.15-4.19-9.34-9.34-9.34h-3.01c-.71,0-1.28-.57-1.28-1.28v-2.94c0-6.56,5.34-11.9,11.9-11.9h32.84c6.56,0,11.9,5.34,11.9,11.9v23.5c0,.71-.57,1.28-1.28,1.28Zm-39.17-2.56h37.89v-22.22c0-5.15-4.19-9.34-9.34-9.34h-32.84c-5.15,0-9.34,4.19-9.34,9.34v1.66h1.73c6.56,0,11.9,5.34,11.9,11.9v8.66Z"/>
  <path class="cls-1" d="M42.26,116.4c-5.05,0-9.81-.92-11.78-3.6-2.19-2.98-.42-6.17,1-8.73,1.42-2.56,2.22-4.22,1.34-5.68-2.04-3.4-3.79-3.5-5.07-3.56-.22-.01-.42-.02-.6-.04-1.07-.12-2.23-.91-3.02-2.06-.99-1.44-1.94-4.09-.79-8.58,1.13-4.4,2.66-9.26,6.63-11.23,2.26-1.12,5.06-1.14,8.34-.06,.28-3.01,1.37-8.84,5.52-10.52,5.36-2.18,13.87,.59,16.31,4.24,.42,.63,1.03,1.38,1.68,2.17,2.64,3.21,6.25,7.61,4.32,12.56-1.21,3.11-4.18,5.56-6.57,7.53-1.38,1.14-3.48,2.86-3.37,3.52,.15,.31,1.47,.74,2.26,1,2.76,.91,7.37,2.43,6.31,8.5l-.15,.89c-.68,4.09-1.53,9.19-8.29,11.55-3.04,1.06-8.72,2.09-14.08,2.09Zm-8.41-41.78c-1.03,0-1.94,.2-2.73,.59-3,1.49-4.3,5.72-5.29,9.57-.96,3.74-.15,5.67,.41,6.48,.52,.75,1.08,.95,1.2,.97,.14,.02,.29,.02,.46,.03,1.53,.08,4.39,.23,7.13,4.8,1.7,2.83,.11,5.7-1.3,8.23-1.49,2.69-2.31,4.43-1.18,5.98,2.68,3.65,16.2,2.96,22.95,.61,5.32-1.86,5.92-5.42,6.6-9.55l.15-.91c.63-3.63-1.31-4.55-4.59-5.63-1.82-.6-3.7-1.22-3.99-3.04-.33-2.11,1.7-3.78,4.27-5.9,2.27-1.87,4.85-3.99,5.82-6.48,1.39-3.56-1.55-7.14-3.91-10.01-.69-.84-1.35-1.64-1.84-2.37-1.67-2.5-8.83-5.07-13.22-3.29-3.29,1.33-4.02,7.64-4.02,9.96,0,.43-.22,.83-.57,1.07-.36,.24-.81,.28-1.2,.11-1.94-.82-3.67-1.23-5.15-1.23Z"/>
  <path class="cls-1" d="M177.32,104.81c-.08,0-.16,0-.24-.02-.12-.02-12.39-2.53-11.55-18.05,.27-4.96,2.22-8.55,5.79-10.68,5.29-3.15,12.9-2.12,17.63-.45,.04-2.44,.57-6.51,3.3-9.43,2.31-2.48,5.69-3.6,10-3.36,4.55,.26,7.89,1.8,9.94,4.56,2.2,2.96,2.3,6.56,2.12,8.68,1.68-.09,4.25,.13,6.71,1.74,3.17,2.07,5.2,5.8,6.04,11.08,.67,4.23-.16,7.74-2.46,10.45-4.56,5.37-13.22,5.49-13.59,5.49h-33.68Zm.14-2.56h33.54c.07,0,7.86-.12,11.65-4.6,1.79-2.11,2.42-4.94,1.88-8.39-.71-4.51-2.35-7.65-4.88-9.31-3.06-2.02-6.5-1.18-6.53-1.17-.43,.11-.9-.01-1.22-.33-.32-.31-.45-.77-.35-1.21,.01-.05,1.13-4.93-1.43-8.36-1.58-2.11-4.28-3.3-8.02-3.51-3.51-.2-6.2,.65-7.97,2.54-3.25,3.47-2.56,9.41-2.55,9.47,.06,.46-.14,.92-.52,1.2-.38,.27-.88,.32-1.3,.12-4.13-1.96-12.19-3.39-17.13-.44-2.79,1.66-4.32,4.56-4.54,8.62-.69,12.64,8.21,15.11,9.37,15.37Z"/>
  <path class="cls-1" d="M44.76,131.1c-.71,0-1.28-.57-1.28-1.28v-14.77c0-.71,.57-1.28,1.28-1.28s1.28,.57,1.28,1.28v14.77c0,.71-.57,1.28-1.28,1.28Z"/>
  <path class="cls-1" d="M56.07,131.1c-.7,0-1.27-.57-1.28-1.27l-.15-16.72c0-.71,.56-1.29,1.27-1.29h.01c.7,0,1.27,.57,1.28,1.27l.15,16.72c0,.71-.56,1.29-1.27,1.29h-.01Z"/>
  <path class="cls-1" d="M196.38,66.16c-.71,0-1.28-.57-1.28-1.28v-11.37H57.13v11.04c0,.71-.57,1.28-1.28,1.28s-1.28-.57-1.28-1.28v-12.32c0-.71,.57-1.28,1.28-1.28H196.38c.71,0,1.28,.57,1.28,1.28v12.65c0,.71-.57,1.28-1.28,1.28Z"/>
  <path class="cls-1" d="M196.38,131.1H33.47c-.71,0-1.28-.57-1.28-1.28s.57-1.28,1.28-1.28H195.1v-25.01c0-.71,.57-1.28,1.28-1.28s1.28,.57,1.28,1.28v26.29c0,.71-.57,1.28-1.28,1.28Z"/>
  <path class="cls-1" d="M101.33,113.11c-.24,0-.47-.07-.68-.2-.37-.23-.6-.64-.6-1.08v-41.33c0-.44,.23-.85,.6-1.08,.37-.24,.84-.26,1.24-.07l43.03,20.67c.44,.21,.73,.66,.73,1.15s-.28,.94-.73,1.15l-43.03,20.67c-.18,.08-.37,.13-.55,.13Zm1.28-40.58v37.26l38.79-18.63-38.79-18.63Z"/>
</svg>