<?xml version="1.0" encoding="UTF-8"?>
<svg id="Layer_1" data-name="Layer 1" xmlns="http://www.w3.org/2000/svg" viewBox="0 0 250 250">
  <defs>
    <style>
      .cls-1 {
        fill: none;
        stroke: #000;
        stroke-miterlimit: 10;
        stroke-width: 7px;
      }
    </style>
  </defs>
  <path class="cls-1" d="M72.77,215.81c-.36,0-.72-.14-1-.42-.11-.12-11.25-11.71-1.03-25.55,.46-.62,1.34-.76,1.96-.29,.62,.46,.75,1.34,.29,1.96-8.78,11.88,.38,21.52,.77,21.92,.54,.55,.53,1.44-.02,1.98-.27,.27-.63,.4-.98,.4Z"/>
  <path class="cls-1" d="M33.52,189.55c-.29,0-.57-.09-.8-.25-.31-.22-.52-.55-.58-.93-.51-3.24,.19-9.92,6.52-12.07,5.89-2,10.31-3.14,11.59-3.46l24.43-22.89c.06-.06,.12-.1,.19-.15,.13-.09,3.34-2.3,3.37-7.02,.03-5.59,0-38.2,0-38.2,0-.12,.21-11.11,12.7-11.47,.68-.06,1.26,.44,1.41,1.09l7.67,33.99c.03,.12,.04,.25,.03,.37-.13,2.86-.84,17.22-1.64,19.5-.73,2.09-5.88,13.2-7.66,15.27-1.95,2.29-23.58,14-23.8,14.11-2.15,1.12-4.87,2.64-5.54,3.01-.8,.75-4.79,4.38-8.19,5.17-3.36,.77-18.76,3.78-19.41,3.91-.09,.02-.18,.03-.27,.03Zm43-37.48l-24.62,23.07c-.18,.17-.4,.28-.64,.34-.05,.01-4.96,1.18-11.7,3.47-4.14,1.41-4.75,5.35-4.75,7.52,4.1-.8,15.07-2.96,17.76-3.58,2.45-.57,5.89-3.5,7.01-4.58,.09-.08,.18-.16,.29-.22,0,0,3.27-1.83,5.76-3.14,4.3-2.26,21.59-11.93,22.97-13.45,1.36-1.58,6.33-12.04,7.14-14.37,.51-1.46,1.17-12.05,1.48-18.52l-7.36-32.64c-8.62,.85-8.83,8.28-8.83,8.61,0,.01,.03,32.62,0,38.21-.03,5.78-3.79,8.75-4.52,9.27Zm-25.58,22.05h0Z"/>
  <path class="cls-1" d="M216.53,189.55c-.12,0-.25-.02-.37-.05-.06-.01-5.71-1.54-12.91-2.33-7.19-.78-13.29-6.68-14.46-7.87-2.16-1.02-18.55-8.74-22.99-10.66-5.16-2.23-8.66-8.49-9.31-10.04-.08-.2-.27-.58-.51-1.1-1.34-2.83-4.49-9.44-5.17-13.99-.78-5.23-.92-14.49-.93-14.88,0-.11,.01-.23,.04-.34l7.48-32.04-21.9-5.14c-.75-.18-1.22-.93-1.04-1.68,.18-.75,.93-1.22,1.68-1.04l23.12,5.43c11.76,.29,12.23,8.51,12.38,11.22,.02,.31,.02,.56,.05,.74,.06,.16,.1,.33,.1,.5l.52,34.15c-.34,6.11,1.96,8.37,2.06,8.47l25.05,23.56c1.88,.06,7.87,.5,13.53,3.83,5.83,3.43,5.77,9.53,4.92,12.28-.19,.6-.74,.99-1.34,.99Zm-63.85-60.79c.02,1.3,.19,9.66,.89,14.33,.62,4.13,3.64,10.48,4.93,13.2,.28,.58,.48,1,.57,1.22,.53,1.25,3.58,6.71,7.84,8.55,4.78,2.07,22.56,10.45,23.31,10.81,.16,.08,.31,.18,.43,.31,.06,.06,6.12,6.46,12.9,7.2,5.29,.58,9.69,1.52,11.87,2.04,.19-1.91-.05-5.47-3.9-7.73-5.98-3.51-12.61-3.45-12.65-3.45-.37,.02-.72-.13-.99-.38l-25.44-23.93c-.11-.1-3.38-3.1-2.95-10.58l-.52-33.83c-.1-.36-.12-.78-.15-1.34-.16-2.81-.45-7.95-8.66-8.53l-7.5,32.1Z"/>
  <path class="cls-1" d="M90.97,95.91c-.65,0-1.24-.46-1.37-1.12-.15-.76,.34-1.5,1.09-1.65l23.4-4.75c.76-.16,1.5,.34,1.65,1.09,.15,.76-.34,1.5-1.09,1.65l-23.4,4.75c-.09,.02-.19,.03-.28,.03Z"/>
  <path class="cls-1" d="M149.33,157.45h-48.74c-.68,0-1.27-.49-1.38-1.16l-2.67-15.59c-.13-.76,.38-1.49,1.15-1.62,.77-.12,1.49,.38,1.62,1.15l2.47,14.43h46.44l2.61-11.64c.17-.75,.91-1.23,1.68-1.06,.75,.17,1.23,.92,1.06,1.68l-2.86,12.74c-.14,.64-.71,1.09-1.37,1.09Z"/>
  <path class="cls-1" d="M67.44,215.81c-.78-.03-7.2-.31-9.99-1.72-.89-.45-1.75-.85-2.77-1.32-1.97-.91-4.42-2.05-8.69-4.27-6.85-3.57-7.89-6.89-7.99-7.26-.93-7.18,8.71-13.29,13.93-15.55,4.48-1.94,41.22-12.29,48.03-14.21v-15.44c0-.77,.63-1.4,1.4-1.4s1.4,.63,1.4,1.4v16.51c0,.63-.42,1.18-1.02,1.35-.44,.12-44.03,12.34-48.69,14.37-5.04,2.18-12.77,7.42-12.31,12.3,.19,.44,1.41,2.77,6.55,5.45,4.21,2.19,6.63,3.31,8.57,4.21,1.04,.48,1.93,.9,2.85,1.36,1.9,.96,6.98,1.35,8.78,1.42h14.25s41.56-4.67,41.56-4.67c17.25-2.9,43.94-7.66,46.49-8.85,3.5-1.63,3.44-2.13,3.33-2.97-.13-.98-.16-1.22-3.02-1.79-.85-.17-2.07-.13-3.74-.08-3.96,.12-10.57,.34-22.62-1.85-.21-.05-2.07-.52-3.51,1.09-1.82,2.04-3.04,3.68-3.26,3.98-.42,.68-2.1,2.51-7.5,1.12-4.78-1.23-39.89-7.62-42.74-8.13l-23.85,1.95c-.76,.05-1.45-.51-1.51-1.28-.06-.77,.51-1.45,1.28-1.51l24.03-1.97c.12,0,.24,0,.36,.02,1.55,.28,38.06,6.91,43.12,8.21,2.99,.77,4.23,.3,4.46,.05,.09-.13,1.4-1.94,3.5-4.31,2.64-2.97,6.1-2,6.25-1.96,11.61,2.1,18.04,1.89,21.89,1.77,1.87-.06,3.21-.1,4.38,.13,3.41,.68,4.89,1.41,5.25,4.18,.36,2.88-1.3,4.18-4.93,5.87-3.7,1.72-42.83,8.33-47.28,9.08l-41.8,4.69h-14.46Z"/>
  <path class="cls-1" d="M174.56,198.5c-.53,0-1.05-.31-1.28-.83-.32-.71,0-1.53,.7-1.85,1.14-.52,7.01-3.01,10.09-1.67,.71,.31,1.04,1.13,.73,1.84s-1.13,1.03-1.84,.73c-1.44-.63-5.44,.59-7.82,1.66-.19,.08-.38,.12-.57,.12Z"/>
  <path class="cls-1" d="M79.78,227.24c-1.77,0-3.08-.56-3.89-1.67-1.87-2.55,.09-6.56,.18-6.72,.87-1.74,6.66-4.67,10.04-6.27,.7-.33,1.53-.03,1.87,.67,.33,.7,.03,1.54-.67,1.87-3.76,1.78-8.18,4.22-8.76,5.03-.52,1.05-.97,2.98-.4,3.77,.37,.5,1.38,.65,2.85,.42l6.5-1.04,22.26-5.18c.12-.03,.23-.04,.35-.04l65.25,1.69c.21,0,22.04,.35,28.42-6.84,6.38-7.19,6.66-11.91,6.67-11.95,.05-.41,.7-6.83-11.57-11.51-13.43-5.12-49.82-15.46-50.19-15.56-.6-.17-1.02-.72-1.02-1.35v-16.51c0-.77,.63-1.4,1.4-1.4s1.4,.63,1.4,1.4v15.45c6.03,1.72,37.13,10.67,49.4,15.35,14.54,5.54,13.42,14.03,13.36,14.39,0,.05-.21,5.5-7.36,13.55-7.23,8.15-29.63,7.8-30.58,7.79l-65.08-1.69-22.19,5.16-6.59,1.06c-.59,.1-1.15,.14-1.66,.14Z"/>
  <path class="cls-1" d="M149.07,173.95h-47.7c-.77,0-1.4-.63-1.4-1.4s.63-1.4,1.4-1.4h47.7c.77,0,1.4,.63,1.4,1.4s-.63,1.4-1.4,1.4Z"/>
  <path class="cls-1" d="M173.42,222.52c-.2,0-.4-.04-.59-.13-.7-.33-1.01-1.16-.68-1.86,6.37-13.76-2.04-18.33-2.4-18.52-.68-.36-.96-1.2-.6-1.89,.35-.68,1.19-.96,1.88-.61,.11,.06,11.22,5.9,3.67,22.2-.24,.51-.74,.81-1.27,.81Z"/>
  <path class="cls-1" d="M125.09,109.35c-6.69,0-12.13-5.44-12.13-12.12v-17.87c0-.77,.63-1.4,1.4-1.4s1.4,.63,1.4,1.4v17.87c0,5.14,4.18,9.32,9.32,9.32s9.32-4.18,9.32-9.32v-17.87c0-.77,.63-1.4,1.4-1.4s1.4,.63,1.4,1.4v17.87c0,6.68-5.44,12.12-12.12,12.12Z"/>
  <path class="cls-1" d="M125.35,85.05c-5.73,0-11.84-3.33-15.96-8.68-6.57-8.54-11.69-28.68-5.1-42.06,3.85-7.81,11.13-11.94,21.06-11.94s17.22,4.13,21.06,11.94c6.59,13.39,1.47,33.52-5.11,42.06-4.12,5.35-10.23,8.68-15.96,8.68Zm0-59.87c-8.92,0-15.16,3.49-18.55,10.37-6.02,12.23-1.17,31.33,4.81,39.11,4.3,5.59,9.92,7.58,13.74,7.58s9.43-1.99,13.73-7.58h0c5.98-7.78,10.83-26.88,4.81-39.11-3.39-6.88-9.63-10.37-18.55-10.37Z"/>
  <path class="cls-1" d="M147.93,53.87c-.48,0-.95-.25-1.21-.69-6.27-10.71-13.15-16.2-20.45-16.33-12.43-.3-22.28,15.16-22.38,15.31-.41,.65-1.28,.85-1.93,.43-.65-.41-.85-1.28-.44-1.93,.43-.68,10.67-16.62,24.49-16.62,.1,0,.2,0,.3,0,8.34,.14,16.02,6.1,22.83,17.71,.39,.67,.17,1.53-.5,1.92-.22,.13-.47,.19-.71,.19Z"/>
  <path class="cls-1" d="M138.65,28.75c-.27,0-.55-.08-.78-.24-3.31-2.22-7.52-3.34-12.52-3.34s-9.18,1.12-12.48,3.32c-.4,.27-.91,.31-1.36,.11s-.75-.61-.81-1.09c-.1-.75-.15-1.39-.15-2,0-8.17,6.65-14.82,14.82-14.82s14.82,6.65,14.82,14.82c0,.61-.05,1.23-.15,2.02-.06,.48-.37,.89-.81,1.09-.18,.08-.38,.12-.58,.12Zm-13.3-6.38c4.6,0,8.63,.88,12.03,2.61-.28-6.38-5.56-11.48-12.01-11.48s-11.71,5.09-12,11.46c3.38-1.72,7.4-2.59,11.98-2.59Z"/>
</svg>