<?xml version="1.0" encoding="UTF-8"?>
<svg id="Layer_1" data-name="Layer 1" xmlns="http://www.w3.org/2000/svg" viewBox="0 0 250 250">
  <defs>
    <style>
      .cls-1 {
        fill: none;
        stroke: #000;
        stroke-miterlimit: 10;
        stroke-width: 7px;
      }
    </style>
  </defs>
  <path class="cls-1" d="M181.01,201.47H69.05c-7.43,0-13.48-6.05-13.48-13.48V39.6c0-7.43,6.05-13.47,13.48-13.47h111.96c7.43,0,13.48,6.04,13.48,13.47V188c0,7.43-6.05,13.48-13.48,13.48ZM69.05,28.02c-6.39,0-11.59,5.2-11.59,11.59V188c0,6.39,5.2,11.59,11.59,11.59h111.96c6.39,0,11.59-5.2,11.59-11.59V39.6c0-6.39-5.2-11.59-11.59-11.59H69.05Z"/>
  <rect class="cls-1" x="56.51" y="61.22" width="137.03" height="1.89"/>
  <polygon class="cls-1" points="175.17 145.85 74.88 145.85 55.9 129.63 57.12 128.2 75.57 143.97 174.47 143.97 192.92 128.2 194.15 129.63 175.17 145.85"/>
  <path class="cls-1" d="M30.71,64.33h-1.89v-11.08c.28-9.86,9.87-9.97,9.97-9.97h17.72v1.89h-17.72c-.32,0-7.86,.13-8.08,8.11v11.06Z"/>
  <path class="cls-1" d="M37.77,100.54H21.48c-1.35,0-2.44-1.1-2.44-2.45v-31.75c0-1.35,1.1-2.45,2.44-2.45h16.29c1.35,0,2.45,1.1,2.45,2.45v31.75c0,1.35-1.1,2.45-2.45,2.45Zm-16.29-34.76c-.31,0-.56,.25-.56,.56v31.75c0,.32,.25,.56,.56,.56h16.29c.31,0,.56-.25,.56-.56v-31.75c0-.31-.25-.56-.56-.56H21.48Z"/>
  <path class="cls-1" d="M221.2,64.33h-1.89v-11.08c-.23-7.95-7.77-8.08-8.09-8.08h-17.71v-1.89h17.72c.1,0,9.69,.11,9.97,9.94v11.11Z"/>
  <path class="cls-1" d="M228.55,100.54h-16.29c-1.35,0-2.44-1.1-2.44-2.45v-31.75c0-1.35,1.1-2.45,2.44-2.45h16.29c1.35,0,2.45,1.1,2.45,2.45v31.75c0,1.35-1.1,2.45-2.45,2.45Zm-16.29-34.76c-.31,0-.56,.25-.56,.56v31.75c0,.32,.25,.56,.56,.56h16.29c.31,0,.56-.25,.56-.56v-31.75c0-.31-.25-.56-.56-.56h-16.29Z"/>
  <path class="cls-1" d="M143.54,181.09h-37.43c-1.35,0-2.45-1.1-2.45-2.45v-14.76c0-1.35,1.1-2.45,2.45-2.45h37.43c1.35,0,2.45,1.1,2.45,2.45v14.76c0,1.35-1.1,2.45-2.45,2.45Zm-37.43-17.77c-.31,0-.56,.25-.56,.56v14.76c0,.31,.25,.56,.56,.56h37.43c.31,0,.56-.25,.56-.56v-14.76c0-.31-.25-.56-.56-.56h-37.43Z"/>
  <path class="cls-1" d="M79.88,176.24c-3.42,0-6.21-2.78-6.21-6.21s2.78-6.21,6.21-6.21,6.21,2.78,6.21,6.21-2.78,6.21-6.21,6.21Zm0-10.53c-2.38,0-4.32,1.94-4.32,4.32s1.94,4.32,4.32,4.32,4.32-1.94,4.32-4.32-1.94-4.32-4.32-4.32Z"/>
  <path class="cls-1" d="M170.32,176.24c-3.42,0-6.21-2.78-6.21-6.21s2.78-6.21,6.21-6.21,6.21,2.78,6.21,6.21-2.78,6.21-6.21,6.21Zm0-10.53c-2.38,0-4.32,1.94-4.32,4.32s1.94,4.32,4.32,4.32,4.32-1.94,4.32-4.32-1.94-4.32-4.32-4.32Z"/>
  <path class="cls-1" d="M87.53,223.87h-15.58c-1.85,0-3.35-1.5-3.35-3.35v-20.93h22.27v20.93c0,1.85-1.5,3.35-3.35,3.35Zm-17.04-22.39v19.04c0,.81,.66,1.46,1.46,1.46h15.58c.81,0,1.46-.66,1.46-1.46v-19.04h-18.5Z"/>
  <path class="cls-1" d="M178.07,223.87h-15.58c-1.85,0-3.35-1.5-3.35-3.35v-20.93h22.27v20.93c0,1.85-1.5,3.35-3.35,3.35Zm-17.04-22.39v19.04c0,.81,.66,1.46,1.46,1.46h15.58c.81,0,1.46-.66,1.46-1.46v-19.04h-18.5Z"/>
  <rect class="cls-1" x="48.4" y="103.25" width="55.65" height="1.88" transform="translate(-51.31 84.15) rotate(-44.88)"/>
  <rect class="cls-1" x="130.83" y="86.02" width="69.22" height="1.88" transform="translate(-13.23 141.82) rotate(-44.79)"/>
  <rect class="cls-1" x="89.56" y="116.13" width="26.05" height="1.88" transform="translate(-52.86 108.94) rotate(-45.78)"/>
  <rect class="cls-1" x="133.05" y="72.19" width="30.61" height="1.88" transform="translate(-7.52 128.45) rotate(-45.78)"/>
  <path class="cls-1" d="M152.04,63.11h-54.06v-11.24c0-4.36,3.55-7.92,7.92-7.92h38.23c4.36,0,7.92,3.55,7.92,7.92v11.24Zm-52.17-1.89h50.29v-9.35c0-3.32-2.71-6.03-6.03-6.03h-38.23c-3.32,0-6.03,2.71-6.03,6.03v9.35Z"/>
</svg>