<?xml version="1.0" encoding="UTF-8"?>
<svg id="Layer_1" data-name="Layer 1" xmlns="http://www.w3.org/2000/svg" viewBox="0 0 250 250">
  <defs>
    <style>
      .cls-1 {
        fill: none;
        stroke: #000;
        stroke-miterlimit: 10;
        stroke-width: 7px;
      }
    </style>
  </defs>
  <path class="cls-1" d="M156.7,206.3h-49.15c-14.53,0-26.35-11.82-26.35-26.35s11.82-26.35,26.35-26.35h49.15v52.7Zm-49.15-50.83c-13.49,0-24.47,10.98-24.47,24.47s10.98,24.48,24.47,24.48h47.28v-48.95h-47.28Z"/>
  <path class="cls-1" d="M202.34,204.61H106.96c-13.6,0-24.66-11.06-24.66-24.66s11.06-24.66,24.66-24.66h95.38c13.6,0,24.66,11.06,24.66,24.66s-11.06,24.66-24.66,24.66Zm-95.38-47.44c-12.56,0-22.78,10.22-22.78,22.78s10.22,22.78,22.78,22.78h95.38c12.56,0,22.78-10.22,22.78-22.78s-10.22-22.78-22.78-22.78H106.96Z"/>
  <path class="cls-1" d="M189.89,137.95c-15.99,0-30.67-10.66-35.04-26.81-5.23-19.32,6.23-39.29,25.55-44.51,19.31-5.23,39.29,6.23,44.51,25.55h0c5.22,19.31-6.23,39.28-25.55,44.51-3.16,.86-6.34,1.26-9.47,1.26Zm-.03-70.71c-2.97,0-5.98,.39-8.98,1.2-18.31,4.96-29.18,23.89-24.22,42.21,4.96,18.31,23.9,29.18,42.21,24.22,18.31-4.96,29.18-23.9,24.22-42.21h0c-4.14-15.32-18.07-25.42-33.23-25.42Z"/>
  <rect class="cls-1" x="154.54" y="100.72" width="70.68" height="1.88" transform="translate(-19.95 53.1) rotate(-15.13)"/>
  <path class="cls-1" d="M49.37,159.16c-.34,0-.67,0-1.01-.02-7.04-.26-13.55-3.25-18.33-8.4-9.88-10.65-9.26-27.35,1.4-37.24l36.03-33.43,35.84,38.63-36.03,33.43c-4.9,4.55-11.22,7.02-17.89,7.02Zm-16.68-44.28c-9.89,9.18-10.47,24.69-1.3,34.59,4.44,4.79,10.49,7.56,17.03,7.8,6.56,.24,12.78-2.07,17.56-6.5l34.66-32.15-33.29-35.88-34.66,32.15Z"/>
  <path class="cls-1" d="M48.93,157.88c-.31,0-.63,0-.94-.02-6.58-.25-12.67-3.04-17.16-7.87-9.25-9.97-8.66-25.6,1.31-34.85L102.06,50.27c9.97-9.25,25.6-8.66,34.85,1.3,4.48,4.83,6.81,11.11,6.57,17.7-.25,6.58-3.04,12.67-7.87,17.15l-.64-.69,.64,.69-69.92,64.87c-4.6,4.27-10.51,6.59-16.75,6.59ZM118.82,45.58c-5.55,0-11.11,2.01-15.49,6.07L33.41,116.52c-9.21,8.55-9.75,22.99-1.21,32.2,4.14,4.46,9.77,7.05,15.85,7.27,6.08,.22,11.89-1.93,16.35-6.07l69.92-64.87c4.46-4.14,7.04-9.77,7.27-15.85,.23-6.08-1.93-11.89-6.07-16.35-4.48-4.83-10.59-7.28-16.71-7.28Z"/>
</svg>