<?xml version="1.0" encoding="UTF-8"?>
<svg id="Layer_1" data-name="Layer 1" xmlns="http://www.w3.org/2000/svg" viewBox="0 0 250 250">
  <defs>
    <style>
      .cls-1 {
        fill: none;
        stroke: #000;
        stroke-miterlimit: 10;
        stroke-width: 7px;
      }
    </style>
  </defs>
  <path class="cls-1" d="M60.89,111.85c-24.75,0-44.88-20.13-44.88-44.88S36.15,22.09,60.89,22.09s44.88,20.13,44.88,44.88-20.13,44.88-44.88,44.88Zm0-86.78c-23.11,0-41.9,18.8-41.9,41.9s18.8,41.9,41.9,41.9,41.9-18.8,41.9-41.9S84,25.07,60.89,25.07Z"/>
  <path class="cls-1" d="M60.89,227.91c-.82,0-1.49-.67-1.49-1.49V65.32c0-.82,.67-1.49,1.49-1.49s1.49,.67,1.49,1.49V226.42c0,.82-.67,1.49-1.49,1.49Z"/>
  <path class="cls-1" d="M60.77,92.39c-.38,0-.76-.14-1.04-.43l-15.47-15.26c-.59-.58-.59-1.52-.01-2.1s1.52-.59,2.1-.01l14.44,14.24,15.09-14.65c.59-.57,1.53-.56,2.1,.03,.57,.59,.56,1.53-.03,2.1l-16.13,15.67c-.29,.28-.66,.42-1.04,.42Z"/>
  <path class="cls-1" d="M223.51,227.91H14.76c-.82,0-1.49-.67-1.49-1.49s.67-1.49,1.49-1.49H223.51c.82,0,1.49,.67,1.49,1.49s-.67,1.49-1.49,1.49Z"/>
  <path class="cls-1" d="M220.92,176.59H119.16c-.82,0-1.49-.67-1.49-1.49V109c0-.82,.67-1.49,1.49-1.49h101.76c.82,0,1.49,.67,1.49,1.49v66.1c0,.82-.67,1.49-1.49,1.49Zm-100.27-2.98h98.79v-63.13H120.65v63.13Z"/>
  <path class="cls-1" d="M220.92,93.67H119.16c-.82,0-1.49-.67-1.49-1.49V53.04c0-.82,.67-1.49,1.49-1.49h101.76c.82,0,1.49,.67,1.49,1.49v39.14c0,.82-.67,1.49-1.49,1.49Zm-100.27-2.98h98.79V54.53H120.65v36.17Z"/>
  <path class="cls-1" d="M131.63,110.49c-.82,0-1.49-.67-1.49-1.49v-16.82c0-.82,.67-1.49,1.49-1.49s1.49,.67,1.49,1.49v16.82c0,.82-.67,1.49-1.49,1.49Z"/>
  <path class="cls-1" d="M208.4,110.49c-.82,0-1.49-.67-1.49-1.49v-16.82c0-.82,.67-1.49,1.49-1.49s1.49,.67,1.49,1.49v16.82c0,.82-.67,1.49-1.49,1.49Z"/>
  <path class="cls-1" d="M131.63,227.91c-.82,0-1.49-.67-1.49-1.49v-51.17c0-.82,.67-1.49,1.49-1.49s1.49,.67,1.49,1.49v51.17c0,.82-.67,1.49-1.49,1.49Z"/>
  <path class="cls-1" d="M208.4,227.91c-.82,0-1.49-.67-1.49-1.49v-51.17c0-.82,.67-1.49,1.49-1.49s1.49,.67,1.49,1.49v51.17c0,.82-.67,1.49-1.49,1.49Z"/>
  <path d="M134.27,82.19c-.38,0-.76-.15-1.05-.44-.58-.58-.58-1.52,0-2.1l7.17-7.18-7.35-7.35c-.58-.58-.58-1.52,0-2.1,.58-.58,1.52-.58,2.1,0l8.4,8.4c.58,.58,.58,1.52,0,2.1l-8.23,8.23c-.29,.29-.67,.44-1.05,.44Z"/>
  <path d="M194.22,68.15h-33.52c-.82,0-1.49-.67-1.49-1.49s.67-1.49,1.49-1.49h33.52c.82,0,1.49,.67,1.49,1.49s-.67,1.49-1.49,1.49Z"/>
  <path d="M208.79,79.99h-48.09c-.82,0-1.49-.67-1.49-1.49s.67-1.49,1.49-1.49h48.09c.82,0,1.49,.67,1.49,1.49s-.67,1.49-1.49,1.49Z"/>
  <path class="cls-1" d="M195.16,165.57c-6.62,0-12.39-4.43-14.17-10.7h-21.97c-1.79,6.27-7.56,10.7-14.16,10.7-8.12,0-14.73-6.61-14.73-14.73,0-3.07,.96-6.05,2.71-8.52-1.76-2.46-2.71-5.44-2.71-8.52,0-8.12,6.61-14.73,14.73-14.73,6.58,0,12.34,4.4,14.15,10.63h22c1.81-6.23,7.57-10.63,14.15-10.63,3.93,0,7.62,1.53,10.41,4.32,2.78,2.79,4.32,6.48,4.31,10.41,0,3.07-.96,6.05-2.71,8.52,1.76,2.47,2.71,5.45,2.71,8.52,0,8.12-6.61,14.73-14.73,14.73Zm-37.31-13.68h24.31c.71,0,1.32,.5,1.46,1.2,1.07,5.5,5.92,9.5,11.53,9.5,6.48,0,11.75-5.27,11.75-11.75,0-2.82-.95-5.43-2.75-7.56-.47-.56-.47-1.37,0-1.92,1.78-2.09,2.75-4.78,2.75-7.55h0c0-3.13-1.22-6.08-3.44-8.31-2.22-2.22-5.17-3.45-8.3-3.45-5.58,0-10.42,3.97-11.53,9.44-.14,.69-.75,1.19-1.46,1.19h-24.33c-.71,0-1.32-.5-1.46-1.19-1.1-5.47-5.94-9.44-11.52-9.44-6.48,0-11.75,5.27-11.75,11.75,0,2.82,.95,5.43,2.75,7.55,.47,.56,.47,1.37,0,1.93-1.8,2.13-2.75,4.74-2.75,7.56,0,6.48,5.27,11.75,11.75,11.75,5.59,0,10.44-4,11.52-9.5,.14-.7,.75-1.2,1.46-1.2Z"/>
</svg>