<?xml version="1.0" encoding="UTF-8"?>
<svg id="Layer_1" data-name="Layer 1" xmlns="http://www.w3.org/2000/svg" viewBox="0 0 250 250">
  <defs>
    <style>
      .cls-1 {
        fill: none;
        stroke: #000;
        stroke-miterlimit: 10;
        stroke-width: 7px;
      }
    </style>
  </defs>
  <polygon class="cls-1" points="76.59 145.38 74.53 145.38 74.53 87.07 178.46 69.69 178.46 102.55 176.4 102.55 176.4 72.12 76.59 88.82 76.59 145.38"/>
  <path class="cls-1" d="M217.02,151.13h-55.34c-13.76,0-24.95-11.19-24.95-24.96s11.19-24.95,24.95-24.95h55.34c13.76,0,24.96,11.19,24.96,24.95s-11.19,24.96-24.96,24.96Zm-55.34-47.85c-12.62,0-22.9,10.27-22.9,22.9s10.27,22.9,22.9,22.9h55.34c12.63,0,22.9-10.27,22.9-22.9s-10.27-22.9-22.9-22.9h-55.34Z"/>
  <path class="cls-1" d="M217.02,198.98h-70.92c-13.76,0-24.95-11.19-24.95-24.96s11.19-24.95,24.95-24.95h70.92c13.76,0,24.96,11.19,24.96,24.95s-11.19,24.96-24.96,24.96Zm-70.92-47.85c-12.62,0-22.9,10.27-22.9,22.9s10.27,22.9,22.9,22.9h70.92c12.63,0,22.9-10.27,22.9-22.9s-10.27-22.9-22.9-22.9h-70.92Z"/>
  <path class="cls-1" d="M242,214.8H122.15v-17.88h119.85v17.88Zm-117.79-2.06h115.74v-13.76H124.21v13.76Z"/>
  <rect class="cls-1" x="8.64" y="212.74" width="102.37" height="2.06"/>
  <polygon class="cls-1" points="178.47 230.38 27.84 230.38 20.26 214.21 22.13 213.33 29.15 228.32 176.41 228.32 176.41 213.77 178.47 213.77 178.47 230.38"/>
  <polygon class="cls-1" points="234.2 230.38 217.47 230.38 208.78 214.26 210.6 213.28 218.7 228.32 232.14 228.32 232.14 213.77 234.2 213.77 234.2 230.38"/>
  <path class="cls-1" d="M206.36,136.1h-39.67c-5.11,0-9.27-4.32-9.27-9.62s4.16-9.62,9.27-9.62h27v2.06h-27c-3.98,0-7.21,3.39-7.21,7.56s3.24,7.56,7.21,7.56h39.67c4.45,0,8.13-1.59,10.62-4.6,2.21-2.67,3.43-6.34,3.43-10.34,0-7.71-4.48-15.52-13.05-15.52v-2.06c9.81,0,15.11,9.06,15.11,17.57,0,4.48-1.39,8.62-3.91,11.66-2.9,3.5-7.12,5.35-12.21,5.35Z"/>
  <path class="cls-1" d="M198.47,183.24h-39.67c-5.11,0-9.27-4.27-9.27-9.52s4.16-9.51,9.27-9.51h27v2.06h-27c-3.98,0-7.21,3.34-7.21,7.45s3.24,7.46,7.21,7.46h39.67c4.45,0,8.13-1.57,10.63-4.54,2.21-2.63,3.43-6.25,3.43-10.2,0-7.61-4.48-15.31-13.05-15.31h-43.55v-2.06h43.55c9.81,0,15.11,8.95,15.11,17.37,0,4.43-1.39,8.52-3.91,11.52-2.9,3.45-7.12,5.28-12.2,5.28Z"/>
  <rect class="cls-1" x="90.28" y="99.21" width="2.06" height="31.5"/>
  <rect class="cls-1" x="130.05" y="213.77" width="2.06" height="15.58"/>
  <rect class="cls-1" x="125.75" y="55.89" width="2.06" height="23.49"/>
  <rect class="cls-1" x="90.28" y="138.58" width="2.06" height="7.87"/>
  <path class="cls-1" d="M125.84,68.85v-.35c-7.95-1.5-12.96-4.92-14.91-10.18-4.87-13.17,11.47-33.71,14.87-37.77,.02-.03,.11-.15,.32-.37l.8-.86,1.01,1.21c3.35,4,19.78,24.58,14.89,37.79-1.95,5.28-6.99,8.71-14.99,10.2l-.02,.25-.89-.09-1.07,.18Zm1.03-46.37c-4.22,5.17-18.27,23.6-14.01,35.12,1.73,4.67,6.44,7.7,14.01,8.99,7.57-1.29,12.28-4.32,14.01-9,4.28-11.58-9.89-30.09-14.01-35.12Z"/>
  <path class="cls-1" d="M53.31,214.82l-.16-.86c-3.54-19.51-.8-34.32,8.17-44.03,13.11-14.2,34.53-12.24,35.43-12.15l.71,.07,.18,.69c4.23,15.95,2.69,28.94-4.59,38.63-12.65,16.84-37.8,17.61-38.87,17.63l-.88,.02Zm40.25-55.1c-6.3,0-21.13,1.2-30.74,11.61-8.36,9.06-10.98,22.98-7.8,41.36,4.56-.3,25.64-2.45,36.39-16.78,6.76-9.01,8.25-21.17,4.42-36.15-.51-.03-1.29-.06-2.28-.06Z"/>
  <path class="cls-1" d="M53.87,214.76c-15.33-4.46-25.74-12.16-30.93-22.89-7.76-16.04-1.06-32.87-.77-33.58l.27-.65h.7c30.98,.49,37.35,14.74,37.61,15.35l-1.9,.8,.95-.4-.95,.41c-.06-.14-6.15-13.4-35.02-14.07-1.13,3.23-5.57,17.78,.97,31.27,4.93,10.17,14.9,17.51,29.64,21.79l-.58,1.98Z"/>
  <path class="cls-1" d="M78.87,160.58c-4.54-25.5-16.82-32.26-19.06-33.29-18.49,8.32-20.01,32.91-20.03,33.16l-2.06-.11c.01-.26,1.62-26.47,21.67-35.12l.37-.16,.38,.13c.63,.22,15.55,5.75,20.76,35.02l-2.03,.36Z"/>
  <rect class="cls-1" x="86.61" y="220.53" width="17.31" height="2.06" transform="translate(-145.66 210.62) rotate(-64.14)"/>
  <rect class="cls-1" x="141.78" y="220.53" width="17.31" height="2.06" transform="translate(-114.55 260.27) rotate(-64.14)"/>
</svg>