<?xml version="1.0" encoding="UTF-8"?>
<svg id="Layer_1" data-name="Layer 1" xmlns="http://www.w3.org/2000/svg" viewBox="0 0 250 250">
  <defs>
    <style>
      .cls-1 {
        fill: none;
        stroke: #000;
        stroke-miterlimit: 10;
        stroke-width: 7px;
      }
    </style>
  </defs>
  <path class="cls-1" d="M50.19,163.89c-7.02,0-12.73-5.71-12.73-12.73s5.71-12.73,12.73-12.73,12.73,5.71,12.73,12.73-5.71,12.73-12.73,12.73Zm0-22.83c-5.57,0-10.11,4.53-10.11,10.11s4.53,10.11,10.11,10.11,10.11-4.53,10.11-10.11-4.53-10.11-10.11-10.11Z"/>
  <path class="cls-1" d="M199.8,163.89c-7.02,0-12.73-5.71-12.73-12.73s5.71-12.73,12.73-12.73,12.73,5.71,12.73,12.73-5.71,12.73-12.73,12.73Zm0-22.83c-5.57,0-10.11,4.53-10.11,10.11s4.53,10.11,10.11,10.11,10.11-4.53,10.11-10.11-4.53-10.11-10.11-10.11Z"/>
  <path class="cls-1" d="M124.45,171.16c-11.03,0-20-8.97-20-20s8.97-20,20-20,20,8.97,20,20-8.97,20-20,20Zm0-37.38c-9.59,0-17.38,7.8-17.38,17.38s7.8,17.38,17.38,17.38,17.38-7.8,17.38-17.38-7.8-17.38-17.38-17.38Z"/>
  <path class="cls-1" d="M199.8,190.36c-21.61,0-39.2-17.58-39.2-39.19s17.58-39.2,39.2-39.2,39.2,17.58,39.2,39.2-17.58,39.19-39.2,39.19Zm0-75.77c-20.17,0-36.58,16.41-36.58,36.58s16.41,36.57,36.58,36.57,36.58-16.41,36.58-36.57-16.41-36.58-36.58-36.58Z"/>
  <path class="cls-1" d="M50.19,190.36c-21.61,0-39.19-17.58-39.19-39.19s17.58-39.2,39.19-39.2,39.2,17.58,39.2,39.2-17.58,39.19-39.2,39.19Zm0-75.77c-20.17,0-36.57,16.41-36.57,36.58s16.41,36.57,36.57,36.57,36.58-16.41,36.58-36.57-16.41-36.58-36.58-36.58Z"/>
  <path class="cls-1" d="M109.54,163.89H50.19c-.72,0-1.31-.59-1.31-1.31s.59-1.31,1.31-1.31h59.35c.72,0,1.31,.59,1.31,1.31s-.59,1.31-1.31,1.31Z"/>
  <path class="cls-1" d="M50.19,141.06c-.27,0-.53-.08-.77-.25-.59-.42-.72-1.24-.3-1.83l37.89-52.54c.25-.34,.64-.54,1.06-.54h83.57c.72,0,1.31,.59,1.31,1.31s-.59,1.31-1.31,1.31H88.75l-37.49,51.99c-.26,.35-.66,.54-1.06,.54Z"/>
  <path class="cls-1" d="M120.46,133.79c-.41,0-.82-.19-1.07-.56l-45.06-64.26c-.41-.59-.27-1.41,.32-1.83,.59-.41,1.41-.27,1.83,.32l45.06,64.26c.41,.59,.27,1.41-.32,1.83-.23,.16-.49,.24-.75,.24Z"/>
  <path class="cls-1" d="M102.28,81.52c-.72,0-1.31-.59-1.31-1.31v-10.68h-36.11c-.72,0-1.31-.59-1.31-1.31s.59-1.31,1.31-1.31h37.42c.72,0,1.31,.59,1.31,1.31v11.99c0,.72-.59,1.31-1.31,1.31Z"/>
  <path class="cls-1" d="M187.57,116.61c-.46,0-.9-.24-1.14-.66l-30.74-54.35c-.23-.41-.23-.9,0-1.3s.67-.65,1.13-.65h33.54c.14,0,3.93-.02,6.81,2.83,2.07,2.04,3.11,4.97,3.11,8.71,0,2.8-.97,5.1-2.87,6.84-4.61,4.22-13.13,3.52-13.49,3.49-.72-.06-1.25-.7-1.19-1.42,.06-.72,.69-1.25,1.42-1.19,.08,0,7.74,.62,11.5-2.82,1.36-1.24,2.01-2.85,2.01-4.91,0-3-.78-5.3-2.31-6.83-2.08-2.08-4.94-2.1-4.98-2.1h-31.31l29.63,52.4c.36,.63,.13,1.43-.5,1.78-.2,.12-.43,.17-.64,.17Z"/>
  <path class="cls-1" d="M133.63,135.33c-.36,0-.72-.15-.98-.44-.48-.54-.43-1.37,.11-1.85l42.9-38.26c.54-.48,1.37-.43,1.85,.11,.48,.54,.43,1.37-.11,1.85l-42.9,38.26c-.25,.22-.56,.33-.87,.33Z"/>
  <path class="cls-1" d="M145.7,184.21c-.44,0-.87-.22-1.11-.62l-10.29-16.59c-.38-.61-.19-1.42,.42-1.8,.61-.38,1.42-.19,1.8,.42l10.29,16.59c.38,.61,.19,1.42-.42,1.8-.21,.13-.45,.2-.69,.2Z"/>
  <path class="cls-1" d="M152.76,184.21h-13.41c-.72,0-1.31-.59-1.31-1.31s.59-1.31,1.31-1.31h13.41c.72,0,1.31,.59,1.31,1.31s-.59,1.31-1.31,1.31Z"/>
  <path class="cls-1" d="M152.76,184.21h-13.41c-.72,0-1.31-.59-1.31-1.31s.59-1.31,1.31-1.31h13.41c.72,0,1.31,.59,1.31,1.31s-.59,1.31-1.31,1.31Z"/>
</svg>