<?xml version="1.0" encoding="UTF-8"?>
<svg id="Layer_1" data-name="Layer 1" xmlns="http://www.w3.org/2000/svg" viewBox="0 0 250 250">
  <defs>
    <style>
      .cls-1 {
        fill: none;
        stroke: #000;
        stroke-miterlimit: 10;
        stroke-width: 7px;
      }
    </style>
  </defs>
  <path class="cls-1" d="M217.45,204.01h-54.96c-.37,0-.72-.15-.98-.41L68.42,107.17c-.11-.13-6.93-8.11,1.11-16.73,7.11-7.63,55.51-63.77,57.03-65.54,.37-.5,3.02-3.83,7.14-4.2,2.83-.26,5.62,.93,8.3,3.52,8.36,8.11,35.68,32.97,35.95,33.22,.24,.26,3.59,4.09,3.44,9.77-.12,4.74,.31,61.19,.38,70.4,4.87,.42,22.05,2.87,33.88,16.72,9.48,11.09,13.05,26.65,10.61,46.23,0,.34-.11,.88-.57,1.43-1.14,1.35-3.83,2.01-8.24,2.01Zm-54.38-2.72h54.38c4.6,0,5.85-.77,6.11-.99,2.35-18.83-1-33.7-9.97-44.2-12.85-15.04-33-15.85-33.21-15.86-.73-.02-1.31-.62-1.31-1.35-.02-2.72-.52-66.58-.39-71.76,.12-4.58-2.63-7.77-2.66-7.8-.17-.15-27.52-25.03-35.91-33.17-2.07-2.01-4.15-2.95-6.14-2.77-3.11,.27-5.22,3.11-5.24,3.14-.02,.03-.05,.06-.07,.09-.5,.58-49.91,57.91-57.13,65.66-6.34,6.8-1.31,12.79-1.09,13.05l92.64,95.95Zm60.49-.57h0s0,0,0,0Zm0,0h0s0,0,0,0ZM127.61,25.75h0Z"/>
  <path class="cls-1" d="M180.04,83.92c-.33,0-.66-.12-.92-.36L122.65,31.43c-.55-.51-.59-1.37-.08-1.92,.51-.55,1.37-.58,1.92-.08l56.47,52.13c.55,.51,.59,1.37,.08,1.92-.27,.29-.63,.44-1,.44Z"/>
  <path class="cls-1" d="M225.64,189.34h-56.69c-.37,0-.73-.15-.98-.42L72.63,88.88c-.52-.54-.5-1.4,.05-1.92,.54-.52,1.4-.5,1.92,.05l94.93,99.62h56.11c.75,0,1.36,.61,1.36,1.36s-.61,1.36-1.36,1.36Z"/>
  <path class="cls-1" d="M103.95,121.13c-.36,0-.72-.14-.99-.43-.52-.55-.49-1.41,.06-1.92,6-5.65,9.07-11.8,9.13-18.26,.1-10.57-7.9-18.53-7.98-18.61l-13.61-13.46c-.53-.53-.54-1.39-.01-1.92,.53-.53,1.39-.54,1.92-.01l13.61,13.45c.36,.35,8.9,8.86,8.79,20.58-.07,7.23-3.43,14.03-9.98,20.21-.26,.25-.6,.37-.93,.37Z"/>
  <path class="cls-1" d="M180.42,140.25h-23.14c-1.79,0-3.25-1.46-3.25-3.25v-10.24c0-1.79,1.46-3.25,3.25-3.25h22.77c.75,0,1.36,.61,1.36,1.36s-.61,1.36-1.36,1.36h-22.77c-.29,0-.54,.24-.54,.53v10.24c0,.29,.24,.53,.54,.53h23.14c.75,0,1.36,.61,1.36,1.36s-.61,1.36-1.36,1.36Z"/>
  <path class="cls-1" d="M180.42,112.05h-23.14c-1.79,0-3.25-1.46-3.25-3.25v-10.24c0-1.79,1.46-3.25,3.25-3.25h22.77c.75,0,1.36,.61,1.36,1.36s-.61,1.36-1.36,1.36h-22.77c-.29,0-.54,.24-.54,.53v10.24c0,.29,.24,.53,.54,.53h23.14c.75,0,1.36,.61,1.36,1.36s-.61,1.36-1.36,1.36Z"/>
  <path class="cls-1" d="M98.93,182.49H14.44c-.75,0-1.36-.61-1.36-1.36s.61-1.36,1.36-1.36H98.93c.75,0,1.36,.61,1.36,1.36s-.61,1.36-1.36,1.36Z"/>
  <path class="cls-1" d="M77.81,150.81H14.63c-.75,0-1.36-.61-1.36-1.36s.61-1.36,1.36-1.36h63.17c.75,0,1.36,.61,1.36,1.36s-.61,1.36-1.36,1.36Z"/>
  <path class="cls-1" d="M56.69,119.13H14.44c-.75,0-1.36-.61-1.36-1.36s.61-1.36,1.36-1.36H56.69c.75,0,1.36,.61,1.36,1.36s-.61,1.36-1.36,1.36Z"/>
</svg>