<?xml version="1.0" encoding="UTF-8"?>
<svg id="Layer_1" data-name="Layer 1" xmlns="http://www.w3.org/2000/svg" viewBox="0 0 250 250">
  <defs>
    <style>
      .cls-1 {
        fill: none;
        stroke: #000;
        stroke-miterlimit: 10;
        stroke-width: 7px;
      }
    </style>
  </defs>
  <path class="cls-1" d="M228.81,77.91H26.46c-.84,0-1.52-.68-1.52-1.52s.68-1.52,1.52-1.52H228.81c.84,0,1.52,.68,1.52,1.52s-.68,1.52-1.52,1.52Z"/>
  <path class="cls-1" d="M149.55,162.5h-.02c-.84-.01-1.51-.7-1.5-1.54,0-.44,.62-44.06,.02-54.64-.82-14.44,4.4-21.27,4.62-21.55,1.04-1.69,27.74-44.58,30.15-48.2l.65-.99c2.13-3.29,4.33-6.68,10.79-5.85,5.77,.76,7.69,6.44,7.9,9.33v37.33c0,.84-.68,1.52-1.51,1.52s-1.52-.68-1.52-1.52V39.17c-.02-.13-.51-5.81-5.26-6.43-4.56-.59-5.79,1.32-7.84,4.49l-.67,1.02c-2.39,3.58-29.92,47.81-30.19,48.25-.14,.19-4.82,6.44-4.07,19.64,.6,10.69,0,53.06-.02,54.85-.01,.83-.69,1.5-1.52,1.5Z"/>
  <path class="cls-1" d="M73.91,162.5h-.02c-.84-.01-1.51-.7-1.5-1.54,0-.44,.62-44.06,.02-54.64-.82-14.44,4.4-21.27,4.62-21.55,1.04-1.69,27.74-44.58,30.15-48.2l.65-.99c2.13-3.29,4.33-6.68,10.79-5.85,5.77,.76,7.69,6.44,7.9,9.33v37.33c0,.84-.68,1.52-1.51,1.52s-1.52-.68-1.52-1.52V39.17c-.02-.13-.51-5.81-5.26-6.43-4.56-.59-5.79,1.32-7.84,4.49l-.67,1.02c-2.39,3.58-29.92,47.81-30.19,48.25-.14,.19-4.82,6.44-4.07,19.64,.6,10.69,.01,53.06-.02,54.85-.01,.83-.69,1.5-1.52,1.5Z"/>
  <path class="cls-1" d="M149.75,112.58H74.2c-.84,0-1.52-.68-1.52-1.52s.68-1.52,1.52-1.52h75.55c.84,0,1.52,.68,1.52,1.52s-.68,1.52-1.52,1.52Z"/>
  <path class="cls-1" d="M149.75,142.12H74.2c-.84,0-1.52-.68-1.52-1.52s.68-1.52,1.52-1.52h75.55c.84,0,1.52,.68,1.52,1.52s-.68,1.52-1.52,1.52Z"/>
  <path class="cls-1" d="M41.89,160.59c-9.11,0-16.36-6.67-16.46-6.77-.61-.57-.64-1.53-.07-2.14,.57-.61,1.53-.64,2.15-.07,.58,.54,14.32,13.11,26.77,.06,.58-.61,1.54-.63,2.15-.05,.61,.58,.63,1.54,.05,2.15-4.89,5.12-9.97,6.83-14.58,6.83Z"/>
  <path class="cls-1" d="M215,160.6c-4.97,0-9.81-1.91-14.41-5.7-16.51-13.58-28.54-2.13-29.04-1.63-.6,.59-1.56,.58-2.15-.02-.59-.6-.58-1.55,.01-2.14,.14-.14,14.42-13.92,33.11,1.45,4.66,3.83,9.52,5.47,14.47,4.89,9.43-1.13,16.22-10.02,16.29-10.11,.5-.67,1.46-.81,2.13-.3,.67,.5,.81,1.45,.3,2.12-.31,.41-7.61,10.01-18.34,11.3-.79,.1-1.58,.14-2.36,.14Z"/>
  <path class="cls-1" d="M173.97,189.99c-8.41-.25-11.37-3.6-13.98-6.55-2.23-2.52-4.15-4.69-9.3-5.4-5.02-.69-7.89,1.95-11.22,5.02-3.32,3.06-7.04,6.48-13.31,6.89-.07,.01-.15,.02-.23,.03-.32,.01-.62,.02-.93,.02-.31,0-.61,0-.93-.02-.08,0-.15-.01-.23-.03-6.27-.41-9.99-3.84-13.31-6.89-3.33-3.07-6.2-5.72-11.22-5.02-5.15,.71-7.08,2.88-9.3,5.4-2.61,2.95-5.57,6.3-13.88,6.55-8.41-.25-11.37-3.6-13.98-6.55-2.23-2.52-4.15-4.69-9.3-5.4-5.02-.69-7.89,1.95-11.22,5.02-3.67,3.38-7.84,7.2-15.4,6.92-7.74-.3-11.8-6.08-11.97-6.32-.48-.69-.3-1.64,.39-2.11,.69-.48,1.64-.3,2.11,.39,.13,.19,3.4,4.77,9.58,5.01,6.33,.24,9.67-2.85,13.22-6.12,3.57-3.29,7.26-6.68,13.69-5.79,6.27,.86,8.87,3.8,11.16,6.4,2.52,2.85,4.7,5.32,11.7,5.53,6.9-.21,9.08-2.68,11.6-5.53,2.29-2.59,4.89-5.53,11.16-6.4,6.44-.88,10.13,2.51,13.7,5.79,3.28,3.02,6.4,5.89,11.82,6.12h1.17c5.43-.23,8.54-3.1,11.82-6.12,3.57-3.29,7.26-6.68,13.69-5.79,6.27,.86,8.87,3.8,11.16,6.4,2.52,2.85,4.7,5.32,11.7,5.53,6.91-.21,9.08-2.68,11.61-5.53,2.29-2.59,4.89-5.53,11.16-6.4,6.45-.88,10.13,2.51,13.7,5.79,3.55,3.27,6.9,6.35,13.22,6.12,6.18-.24,9.45-4.82,9.58-5.01,.48-.69,1.43-.86,2.11-.38,.69,.48,.86,1.42,.39,2.11-.17,.25-4.23,6.02-11.96,6.32-7.57,.28-11.73-3.54-15.4-6.92-3.33-3.07-6.21-5.72-11.22-5.02-5.15,.71-7.07,2.88-9.3,5.4-2.61,2.95-5.57,6.3-13.88,6.55Z"/>
  <path class="cls-1" d="M173.97,220.4c-8.41-.25-11.37-3.6-13.98-6.55-2.23-2.52-4.15-4.69-9.3-5.4-5.02-.7-7.89,1.95-11.22,5.02-3.32,3.06-7.04,6.48-13.31,6.89-.07,.01-.15,.02-.23,.03-.32,.01-.62,.01-.93,.02-.31,0-.61,0-.93-.02-.08,0-.15-.01-.23-.03-6.27-.41-9.99-3.84-13.31-6.89-3.33-3.07-6.2-5.72-11.22-5.02-5.15,.71-7.08,2.88-9.3,5.4-2.61,2.95-5.57,6.3-13.88,6.55-8.41-.25-11.37-3.6-13.98-6.55-2.23-2.52-4.15-4.69-9.3-5.4-5.02-.7-7.89,1.95-11.22,5.02-3.67,3.38-7.84,7.21-15.4,6.92-7.74-.3-11.8-6.08-11.97-6.32-.48-.69-.3-1.64,.39-2.11,.69-.48,1.64-.3,2.11,.39,.13,.19,3.4,4.77,9.58,5.01,6.33,.25,9.67-2.85,13.22-6.12,3.57-3.29,7.26-6.69,13.69-5.79,6.27,.86,8.87,3.8,11.16,6.4,2.52,2.85,4.7,5.32,11.7,5.53,6.9-.21,9.08-2.68,11.6-5.53,2.29-2.59,4.89-5.53,11.16-6.4,6.44-.88,10.13,2.51,13.7,5.79,3.28,3.02,6.4,5.89,11.82,6.12h1.17c5.43-.23,8.54-3.1,11.82-6.12,3.57-3.29,7.26-6.69,13.69-5.79,6.27,.86,8.87,3.8,11.16,6.4,2.52,2.85,4.7,5.32,11.7,5.53,6.91-.21,9.08-2.68,11.61-5.53,2.29-2.59,4.89-5.53,11.16-6.4,6.45-.89,10.13,2.51,13.7,5.79,3.55,3.27,6.9,6.37,13.22,6.12,6.18-.24,9.45-4.82,9.58-5.01,.48-.69,1.43-.86,2.11-.38,.69,.48,.86,1.42,.39,2.11-.17,.25-4.23,6.02-11.96,6.32-7.57,.28-11.73-3.54-15.4-6.92-3.33-3.07-6.21-5.72-11.22-5.02-5.15,.71-7.07,2.88-9.3,5.4-2.61,2.95-5.57,6.3-13.88,6.55Z"/>
  <path class="cls-1" d="M55.37,92.69H26.46c-.84,0-1.52-.68-1.52-1.52s.68-1.52,1.52-1.52h28.91c.84,0,1.52,.68,1.52,1.52s-.68,1.52-1.52,1.52Z"/>
  <path class="cls-1" d="M228.81,92.69h-42.93c-.84,0-1.52-.68-1.52-1.52s.68-1.52,1.52-1.52h42.93c.84,0,1.52,.68,1.52,1.52s-.68,1.52-1.52,1.52Z"/>
  <path class="cls-1" d="M177.58,92.69h-6.54c-.84,0-1.52-.68-1.52-1.52s.68-1.52,1.52-1.52h6.54c.84,0,1.52,.68,1.52,1.52s-.68,1.52-1.52,1.52Z"/>
</svg>