<?xml version="1.0" encoding="UTF-8"?>
<svg id="Layer_1" data-name="Layer 1" xmlns="http://www.w3.org/2000/svg" viewBox="0 0 250 250">
  <defs>
    <style>
      .cls-1 {
        fill: none;
        stroke: #000;
        stroke-miterlimit: 10;
        stroke-width: 7px;
      }
    </style>
  </defs>
  <path class="cls-1" d="M209.42,226c-.96,0-1.75-.78-1.75-1.75V27.49H42.33V224.25c0,.96-.78,1.75-1.75,1.75s-1.75-.78-1.75-1.75V25.74c0-.96,.78-1.75,1.75-1.75H209.42c.96,0,1.75,.78,1.75,1.75V224.25c0,.96-.78,1.75-1.75,1.75Z"/>
  <path class="cls-1" d="M209.42,36.86H40.58c-.96,0-1.75-.78-1.75-1.75s.78-1.75,1.75-1.75H209.42c.96,0,1.75,.78,1.75,1.75s-.78,1.75-1.75,1.75Z"/>
  <path class="cls-1" d="M85.22,66.62c-.96,0-1.75-.78-1.75-1.75v-29.76c0-.96,.78-1.75,1.75-1.75s1.75,.78,1.75,1.75v29.76c0,.96-.78,1.75-1.75,1.75Z"/>
  <path class="cls-1" d="M85.22,106.67c-12,0-21.77-9.77-21.77-21.77s9.77-21.77,21.77-21.77,21.77,9.77,21.77,21.77-9.77,21.77-21.77,21.77Zm0-40.05c-10.08,0-18.28,8.2-18.28,18.28s8.2,18.28,18.28,18.28,18.28-8.2,18.28-18.28-8.2-18.28-18.28-18.28Z"/>
  <path class="cls-1" d="M164.59,66.62c-.96,0-1.75-.78-1.75-1.75v-29.76c0-.96,.78-1.75,1.75-1.75s1.75,.78,1.75,1.75v29.76c0,.96-.78,1.75-1.75,1.75Z"/>
  <path class="cls-1" d="M164.59,106.67c-12,0-21.77-9.77-21.77-21.77s9.77-21.77,21.77-21.77,21.78,9.77,21.78,21.77-9.77,21.77-21.78,21.77Zm0-40.05c-10.08,0-18.28,8.2-18.28,18.28s8.2,18.28,18.28,18.28,18.28-8.2,18.28-18.28-8.2-18.28-18.28-18.28Z"/>
  <path class="cls-1" d="M50.5,226H30.66c-.96,0-1.75-.78-1.75-1.75s.78-1.75,1.75-1.75h19.84c.96,0,1.75,.78,1.75,1.75s-.78,1.75-1.75,1.75Z"/>
  <path class="cls-1" d="M219.34,226h-19.84c-.96,0-1.75-.78-1.75-1.75s.78-1.75,1.75-1.75h19.84c.96,0,1.75,.78,1.75,1.75s-.78,1.75-1.75,1.75Z"/>
</svg>