<?xml version="1.0" encoding="UTF-8"?>
<svg id="Layer_1" data-name="Layer 1" xmlns="http://www.w3.org/2000/svg" viewBox="0 0 250 250">
  <defs>
    <style>
      .cls-1 {
        fill: none;
        stroke: #000;
        stroke-miterlimit: 10;
        stroke-width: 7px;
      }
    </style>
  </defs>
  <path class="cls-1" d="M124.91,147.81c-36.16,0-65.58-29.41-65.58-65.57S88.75,16.67,124.91,16.67s65.57,29.41,65.57,65.57-29.41,65.57-65.57,65.57Zm0-129.1c-35.04,0-63.54,28.5-63.54,63.53s28.5,63.53,63.54,63.53,63.53-28.5,63.53-63.53-28.5-63.53-63.53-63.53Z"/>
  <path class="cls-1" d="M154.76,161.82h-59.64v-16.04h59.64v16.04Zm-57.6-2.04h55.57v-11.97h-55.57v11.97Z"/>
  <path class="cls-1" d="M128.62,90.36v-2.04c5.38,0,9.76-4.38,9.76-9.75s-4.38-9.75-9.76-9.75-9.75,4.38-9.75,9.75h-2.04c0-6.5,5.29-11.79,11.79-11.79s11.8,5.29,11.8,11.79-5.29,11.79-11.8,11.79Z"/>
  <path class="cls-1" d="M99.92,64.86v-2.04c5.38,0,9.76-4.38,9.76-9.75s-4.38-9.75-9.76-9.75-9.75,4.38-9.75,9.75h-2.04c0-6.5,5.29-11.79,11.79-11.79s11.8,5.29,11.8,11.79-5.29,11.79-11.8,11.79Z"/>
  <path class="cls-1" d="M132.13,54.08v-2.04c5.38,0,9.76-4.38,9.76-9.75s-4.38-9.75-9.76-9.75-9.75,4.38-9.75,9.75h-2.04c0-6.5,5.29-11.79,11.79-11.79s11.8,5.29,11.8,11.79-5.29,11.79-11.8,11.79Z"/>
  <path class="cls-1" d="M160.77,79.18v-2.04c5.38,0,9.76-4.38,9.76-9.75s-4.38-9.75-9.76-9.75-9.75,4.38-9.75,9.75h-2.04c0-6.5,5.29-11.79,11.79-11.79s11.8,5.29,11.8,11.79-5.29,11.79-11.8,11.79Z"/>
  <path class="cls-1" d="M157.21,114.99v-2.04c5.38,0,9.76-4.38,9.76-9.75s-4.38-9.75-9.76-9.75-9.75,4.38-9.75,9.75h-2.04c0-6.5,5.29-11.79,11.79-11.79s11.8,5.29,11.8,11.79-5.29,11.79-11.8,11.79Z"/>
  <rect class="cls-1" x="13.97" y="231.29" width="222.03" height="2.04"/>
  <path class="cls-1" d="M144.92,233.33H25.48l.39-1.31c6.32-21.27,30.72-36.12,59.33-36.12s53.01,14.85,59.33,36.12l.39,1.31Zm-116.69-2.04h113.93c-6.61-19.41-30.28-33.35-56.96-33.35s-50.35,13.95-56.96,33.35Z"/>
  <path class="cls-1" d="M224.51,233.32h-81.71l-.22-.73c-2.68-8.99-8.96-17.04-18.16-23.28l-1.24-.84,1.24-.84c11.16-7.57,25.5-11.74,40.37-11.74,28.61,0,53.01,14.85,59.33,36.12l.39,1.31Zm-80.2-2.04h77.44c-6.61-19.41-30.28-33.35-56.96-33.35-13.92,0-27.34,3.74-37.98,10.56,8.68,6.21,14.7,14.05,17.5,22.79Z"/>
  <path class="cls-1" d="M117.23,204.51l-2.01-.36c4.11-22.89-13.03-42.48-13.2-42.67l1.52-1.35c.18,.2,17.98,20.51,13.69,44.39Z"/>
  <path class="cls-1" d="M132.1,204.51c-4.29-23.88,13.51-44.18,13.69-44.39l1.52,1.35c-.17,.19-17.32,19.78-13.21,42.67l-2.01,.36Z"/>
</svg>