<?xml version="1.0" encoding="UTF-8"?>
<svg id="Layer_1" data-name="Layer 1" xmlns="http://www.w3.org/2000/svg" viewBox="0 0 250 250">
  <defs>
    <style>
      .cls-1 {
        fill: none;
        stroke: #000;
        stroke-miterlimit: 10;
        stroke-width: 7px;
      }
    </style>
  </defs>
  <path class="cls-1" d="M80.66,202.04H32.69V16.63h47.97V202.04Zm-45.74-2.24h43.5V18.87H34.92V199.8Z"/>
  <path class="cls-1" d="M147.29,202.04h-35.95V16.63h35.95V202.04Zm-33.71-2.24h31.48V18.87h-31.48V199.8Z"/>
  <path class="cls-1" d="M176.86,202.28L144.83,37.36l42.24-8.2,32.03,164.92-42.24,8.2Zm-29.41-163.15l31.18,160.53,37.84-7.35L185.3,31.78l-37.84,7.35Z"/>
  <path class="cls-1" d="M113.56,202.04h-35.15V42.24h35.15V202.04Zm-32.91-2.24h30.67V44.48h-30.67V199.8Z"/>
  <rect class="cls-1" x="33.82" y="140.89" width="45.74" height="2.24"/>
  <rect class="cls-1" x="33.82" y="75.55" width="45.74" height="2.24"/>
  <rect class="cls-1" x="33.82" y="54.01" width="45.74" height="2.24"/>
  <rect class="cls-1" x="33.82" y="162.33" width="45.74" height="2.24"/>
  <path class="cls-1" d="M56.35,129.2c-7.07,0-12.82-8.99-12.82-20.05s5.75-20.05,12.82-20.05,12.82,8.99,12.82,20.05-5.75,20.05-12.82,20.05Zm0-37.87c-5.84,0-10.58,7.99-10.58,17.82s4.75,17.82,10.58,17.82,10.58-7.99,10.58-17.82-4.75-17.82-10.58-17.82Z"/>
  <rect class="cls-1" x="85.73" y="140.89" width="20.51" height="2.24"/>
  <rect class="cls-1" x="85.73" y="160.07" width="20.51" height="2.24"/>
  <rect class="cls-1" x="119.08" y="140.89" width="20.51" height="2.24"/>
  <rect class="cls-1" x="119.08" y="160.07" width="20.51" height="2.24"/>
  <rect class="cls-1" x="170.61" y="161.12" width="40.79" height="2.24" transform="translate(-27.38 39.31) rotate(-10.97)"/>
  <rect class="cls-1" x="166.7" y="141.07" width="40.79" height="2.24" transform="translate(-23.64 38.2) rotate(-10.97)"/>
  <path class="cls-1" d="M234,233.36H16.04v-33.56H234v33.56Zm-215.72-2.24H231.76v-29.09H18.28v29.09Z"/>
</svg>