<?xml version="1.0" encoding="UTF-8"?>
<svg id="Layer_1" data-name="Layer 1" xmlns="http://www.w3.org/2000/svg" viewBox="0 0 250 250">
  <defs>
    <style>
      .cls-1 {
        fill: none;
        stroke: #000;
        stroke-miterlimit: 10;
        stroke-width: 7px;
      }
    </style>
  </defs>
  <path class="cls-1" d="M211.04,140.77l-39.51-64.16,29.07-18.54,40.41,64.3-29.96,18.39Zm-37.13-63.61l37.7,61.22,26.99-16.56-38.54-61.33-26.15,16.67Z"/>
  <path class="cls-1" d="M39.09,144.47l-30.07-17.85L51.1,57.18l30.01,18.16-42.02,69.13Zm-27.67-18.45l27.08,16.08,40.22-66.17-27.03-16.35L11.41,126.01Z"/>
  <path class="cls-1" d="M100.69,86.84h-27.06v-1.74h26.91c1.72-.59,16.46-5.4,25.05,.14l-.94,1.46c-8.22-5.3-23.51,.03-23.67,.09l-.29,.05Z"/>
  <path class="cls-1" d="M59.63,157.78c-.41,0-.83-.03-1.24-.08-2.58-.33-4.88-1.64-6.48-3.69-3.39-4.37-2.62-10.51,1.62-13.8l8.99-6.97c4.25-3.29,10.38-2.51,13.67,1.73,1.7,2.19,2.4,4.74,2.07,7.32-.33,2.58-1.64,4.88-3.69,6.48l-8.99,6.97c-1.72,1.34-3.8,2.05-5.95,2.05Zm8.82-24.83c-1.71,0-3.42,.55-4.86,1.66l-8.99,6.97c-3.48,2.71-4.12,7.74-1.42,11.23,1.41,1.82,3.3,2.9,5.42,3.17,2.12,.27,4.22-.31,5.91-1.62l8.99-6.97c1.69-1.31,2.77-3.2,3.03-5.32,.27-2.12-.31-4.22-1.62-5.91-1.64-2.12-4.05-3.22-6.47-3.22Z"/>
  <path class="cls-1" d="M71.94,171.27c-2.96,0-5.89-1.32-7.84-3.83l-.11-.15c-1.62-2.08-2.33-4.68-2-7.31,.33-2.63,1.67-4.97,3.76-6.59l15.52-12.04c4.32-3.35,10.56-2.56,13.91,1.76,1.73,2.23,2.44,4.83,2.11,7.45-.33,2.63-1.67,4.97-3.76,6.59l-15.52,12.03c-1.8,1.4-3.94,2.07-6.07,2.07Zm15.35-30.24c-1.74,0-3.49,.56-4.96,1.7l-15.52,12.04c-1.72,1.34-2.82,3.27-3.1,5.43-.27,2.17,.31,4.31,1.65,6.03l.11,.15c2.76,3.55,7.9,4.2,11.46,1.44l15.52-12.03c1.72-1.34,2.83-3.27,3.1-5.43,.27-2.17-.31-4.31-1.65-6.03-1.68-2.17-4.15-3.29-6.62-3.29Z"/>
  <path class="cls-1" d="M87.57,182.26c-2.99,0-5.95-1.33-7.92-3.87-1.64-2.11-2.35-4.73-2.02-7.38,.33-2.65,1.68-5.01,3.8-6.65l12.56-9.75c4.36-3.38,10.66-2.58,14.04,1.78,1.64,2.11,2.35,4.73,2.02,7.38-.34,2.65-1.68,5.01-3.79,6.65l-12.57,9.75c-1.82,1.41-3.98,2.09-6.12,2.09Zm12.54-28c-1.77,0-3.55,.56-5.05,1.73l-12.56,9.75c-1.75,1.35-2.86,3.3-3.14,5.49-.28,2.19,.32,4.36,1.67,6.1,2.79,3.6,7.99,4.26,11.59,1.47l12.57-9.75c1.74-1.35,2.86-3.3,3.13-5.49,.28-2.19-.31-4.36-1.67-6.1-1.63-2.1-4.07-3.2-6.54-3.2Z"/>
  <path class="cls-1" d="M105.74,191.25c-2.99,0-5.94-1.33-7.92-3.87-3.38-4.36-2.58-10.65,1.77-14.04l7.55-5.86c4.36-3.38,10.66-2.58,14.04,1.78,1.64,2.11,2.35,4.73,2.02,7.38-.34,2.65-1.68,5.01-3.79,6.65l-7.55,5.86c-1.82,1.41-3.98,2.1-6.12,2.1Zm7.53-24.11c-1.77,0-3.55,.56-5.05,1.73l-7.55,5.86c-3.6,2.79-4.26,8-1.47,11.6,2.79,3.6,8,4.25,11.59,1.46l7.55-5.86c1.74-1.35,2.86-3.3,3.13-5.49,.28-2.19-.31-4.36-1.67-6.1-1.63-2.1-4.07-3.2-6.54-3.2Z"/>
  <path class="cls-1" d="M137.17,192.59c-1.94,0-3.83-.6-5.44-1.76l-11.9-8.54,1.01-1.41,11.9,8.54c1.65,1.19,3.67,1.66,5.68,1.33,2.01-.33,3.77-1.42,4.96-3.08,2.45-3.42,1.66-8.19-1.75-10.64l-21.5-15.87,1.03-1.4,21.49,15.87c4.18,3,5.15,8.86,2.14,13.06-1.46,2.03-3.62,3.38-6.09,3.78-.51,.08-1.03,.13-1.54,.13Z"/>
  <path class="cls-1" d="M153.76,183.29c-2.09,0-4.13-.65-5.86-1.9l-12.77-9.17,1.01-1.41,12.77,9.17c1.79,1.29,3.97,1.81,6.12,1.48,2.15-.33,4.03-1.48,5.29-3.23,1.26-1.75,1.75-3.9,1.37-6.04-.37-2.15-1.56-4.05-3.35-5.33l-29.42-21.63,1.03-1.4,29.41,21.62c2.16,1.55,3.6,3.84,4.05,6.44,.45,2.61-.14,5.22-1.67,7.35-1.53,2.13-3.82,3.53-6.43,3.94-.51,.08-1.03,.12-1.54,.12Z"/>
  <path class="cls-1" d="M167.25,170.73c-2.09,0-4.13-.65-5.86-1.9l-12.77-9.16,1.01-1.41,12.77,9.17c1.79,1.29,3.97,1.82,6.12,1.48,2.15-.33,4.03-1.48,5.29-3.23,1.26-1.75,1.74-3.9,1.37-6.04-.37-2.15-1.56-4.04-3.35-5.33l-34.07-25.25,1.04-1.4,34.06,25.24c2.15,1.54,3.59,3.83,4.04,6.44,.45,2.61-.14,5.22-1.67,7.35-1.53,2.13-3.82,3.53-6.44,3.94-.51,.08-1.03,.12-1.54,.12Z"/>
  <path class="cls-1" d="M179.55,157.22c-2.03,0-4.09-.62-5.87-1.89l-12.77-9.17,1.01-1.41,12.77,9.17c3.69,2.65,8.81,1.86,11.42-1.76,2.6-3.62,1.71-8.72-1.99-11.37l-46.7-37.19c-2.6,1.28-14.41,6.42-31.24,3.22l-.18-.05c-.14-.06-3.53-1.53-4.46-4.6-.53-1.77-.14-3.66,1.17-5.63l.14-.21,.23-.1c.16-.07,16.37-7.43,23.77-12.5,5.52-3.78,16.8,.02,17.28,.18l15.91,5.41,16.53-5.41,.54,1.65-17.08,5.59-16.46-5.59c-.11-.04-10.93-3.68-15.73-.39-7.12,4.88-21.7,11.58-23.8,12.54-.9,1.43-1.18,2.76-.82,3.95,.62,2.07,2.94,3.26,3.4,3.47,18.02,3.4,30.37-3.25,30.49-3.32l.51-.28,.46,.36,47.1,37.51c4.44,3.19,5.51,9.38,2.35,13.78-1.9,2.65-4.91,4.05-7.98,4.05Z"/>
  <rect class="cls-1" x="48.32" y="131.6" width="1.74" height="11.83" transform="translate(-91.78 99.35) rotate(-55.17)"/>
  <rect class="cls-1" x="185.08" y="136.06" width="22.8" height="1.74" transform="translate(-41.4 164.62) rotate(-41.51)"/>
</svg>