<?xml version="1.0" encoding="UTF-8"?>
<svg id="Layer_1" data-name="Layer 1" xmlns="http://www.w3.org/2000/svg" viewBox="0 0 250 250">
  <defs>
    <style>
      .cls-1 {
        fill: none;
        stroke: #000;
        stroke-miterlimit: 10;
        stroke-width: 7px;
      }
    </style>
  </defs>
  <path class="cls-1" d="M227.54,163.71H22.47V25.37H227.54V163.71Zm-203.17-1.9H225.64V27.27H24.37V161.81Z"/>
  <path class="cls-1" d="M23.85,101.75l-.87-1.69c13.15-6.76,9.18-28.95,9.14-29.17l1.87-.35c.18,.97,4.27,23.81-10.14,31.21Z"/>
  <path class="cls-1" d="M24.97,54.69c-.52,0-1.04,0-1.57-.02l.05-1.9c10.55,.29,18.56-2.35,23.82-7.82,7.37-7.67,6.73-18.46,6.72-18.57l1.9-.13c.03,.47,.71,11.7-7.23,20-5.37,5.61-13.34,8.44-23.69,8.44Z"/>
  <path class="cls-1" d="M34.28,71.64c-6.47,0-10.99-1.26-11.1-1.29l.53-1.83c.23,.07,23.04,6.36,39.01-10.3,13.3-13.88,8.33-31.47,8.27-31.64l1.82-.54c.06,.19,5.35,18.8-8.72,33.5-9.52,9.93-21.33,12.1-29.81,12.1Z"/>
  <path class="cls-1" d="M73.69,54.96c-2.04,0-4.14-.09-6.3-.27l.16-1.89c40.04,3.35,56.47-26.62,56.63-26.92l1.68,.89c-.16,.3-15.44,28.19-52.17,28.19Z"/>
  <path class="cls-1" d="M23.76,120.86l-.71-1.76c33.17-13.43,23.27-48.36,22.83-49.84l1.82-.54c.11,.38,10.84,38.06-23.94,52.14Z"/>
  <path class="cls-1" d="M225.07,54.69c-10.35,0-18.32-2.84-23.69-8.44-7.95-8.29-7.27-19.52-7.23-20l1.9,.13c0,.11-.64,10.89,6.72,18.57,5.26,5.47,13.26,8.1,23.82,7.82l.05,1.9c-.53,.01-1.05,.02-1.57,.02Z"/>
  <path class="cls-1" d="M215.77,71.64c-8.48,0-20.29-2.16-29.81-12.1-14.08-14.69-8.78-33.31-8.72-33.5l1.82,.54c-.05,.18-5.02,17.76,8.27,31.64,15.99,16.69,38.78,10.37,39.01,10.3l.53,1.83c-.1,.03-4.63,1.29-11.1,1.29Z"/>
  <path class="cls-1" d="M176.35,54.96c-36.74,0-52.01-27.89-52.17-28.19l1.68-.89c.16,.3,16.63,30.26,56.63,26.92l.16,1.89c-2.16,.18-4.27,.27-6.3,.27Z"/>
  <path class="cls-1" d="M226.23,120.86c-34.78-14.08-24.05-51.76-23.94-52.14l1.82,.54c-.44,1.48-10.33,36.41,22.83,49.84l-.71,1.76Z"/>
  <path class="cls-1" d="M170.35,99.14H78.16v-28.4h92.19v28.4Zm-90.29-1.9h88.39v-24.6H80.06v24.6Z"/>
  <path class="cls-1" d="M170.35,146.53H78.16v-22.34h92.19v22.34Zm-90.29-1.9h88.39v-18.54H80.06v18.54Z"/>
  <rect class="cls-1" x="40.94" y="109.35" width="1.9" height="53.59" transform="translate(-15.2 5.64) rotate(-6.53)"/>
  <rect class="cls-1" x="180.98" y="135.19" width="53.59" height="1.9" transform="translate(48.96 327.15) rotate(-83.49)"/>
  <rect class="cls-1" x="43.38" y="144.63" width="163.31" height="1.9"/>
  <path class="cls-1" d="M46.43,197.65c-6.82,0-12.36-5.55-12.36-12.36s5.55-12.36,12.36-12.36,12.36,5.55,12.36,12.36-5.55,12.36-12.36,12.36Zm0-22.83c-5.77,0-10.46,4.69-10.46,10.46s4.69,10.46,10.46,10.46,10.46-4.69,10.46-10.46-4.69-10.46-10.46-10.46Z"/>
  <path class="cls-1" d="M67.95,224.63H25.19v-.95c0-11.79,9.59-21.38,21.38-21.38s21.38,9.59,21.38,21.38v.95Zm-40.84-1.9h38.91c-.5-10.3-9.03-18.53-19.45-18.53s-18.96,8.23-19.46,18.53Z"/>
  <path class="cls-1" d="M98.64,197.65c-6.82,0-12.36-5.55-12.36-12.36s5.55-12.36,12.36-12.36,12.36,5.55,12.36,12.36-5.55,12.36-12.36,12.36Zm0-22.83c-5.77,0-10.46,4.69-10.46,10.46s4.69,10.46,10.46,10.46,10.46-4.69,10.46-10.46-4.69-10.46-10.46-10.46Z"/>
  <path class="cls-1" d="M120.22,224.63h-42.76v-.95c0-11.79,9.59-21.38,21.38-21.38s21.38,9.59,21.38,21.38v.95Zm-40.84-1.9h38.91c-.5-10.3-9.04-18.53-19.46-18.53s-18.96,8.23-19.45,18.53Z"/>
  <path class="cls-1" d="M150.85,197.65c-6.82,0-12.36-5.55-12.36-12.36s5.55-12.36,12.36-12.36,12.36,5.55,12.36,12.36-5.55,12.36-12.36,12.36Zm0-22.83c-5.77,0-10.46,4.69-10.46,10.46s4.69,10.46,10.46,10.46,10.46-4.69,10.46-10.46-4.69-10.46-10.46-10.46Z"/>
  <path class="cls-1" d="M172.42,224.63h-42.76v-.95c0-11.79,9.59-21.38,21.38-21.38s21.38,9.59,21.38,21.38v.95Zm-40.84-1.9h38.91c-.5-10.3-9.03-18.53-19.45-18.53s-18.96,8.23-19.46,18.53Z"/>
  <path class="cls-1" d="M203.11,197.65c-6.82,0-12.36-5.55-12.36-12.36s5.55-12.36,12.36-12.36,12.36,5.55,12.36,12.36-5.55,12.36-12.36,12.36Zm0-22.83c-5.77,0-10.46,4.69-10.46,10.46s4.69,10.46,10.46,10.46,10.46-4.69,10.46-10.46-4.69-10.46-10.46-10.46Z"/>
  <path class="cls-1" d="M224.64,224.63h-42.76v-.95c0-11.79,9.59-21.38,21.38-21.38s21.38,9.59,21.38,21.38v.95Zm-40.84-1.9h38.91c-.5-10.3-9.04-18.53-19.46-18.53s-18.96,8.23-19.45,18.53Z"/>
  <rect class="cls-1" x="20.02" y="222.73" width="209.98" height="1.9"/>
</svg>