<?xml version="1.0" encoding="UTF-8"?>
<svg id="Layer_1" data-name="Layer 1" xmlns="http://www.w3.org/2000/svg" viewBox="0 0 250 250">
  <defs>
    <style>
      .cls-1 {
        fill: none;
        stroke: #000;
        stroke-miterlimit: 10;
        stroke-width: 7px;
      }
    </style>
  </defs>
  <path class="cls-1" d="M72.87,184.3h-21.28c-3.74,0-6.78-3.04-6.78-6.78V72.47c0-3.74,3.04-6.78,6.78-6.78h21.28v118.6Zm-21.28-116.89c-2.79,0-5.06,2.27-5.06,5.06v105.05c0,2.79,2.27,5.06,5.06,5.06h19.56V67.41h-19.56Z"/>
  <path class="cls-1" d="M46.53,169.51H30.41c-2.91,0-5.27-2.37-5.27-5.28V85.77c0-2.91,2.37-5.28,5.27-5.28h16.11v89.03ZM30.41,82.2c-1.96,0-3.56,1.6-3.56,3.56v78.47c0,1.96,1.6,3.56,3.56,3.56h14.4V82.2h-14.4Z"/>
  <path class="cls-1" d="M25.99,137.04c-6.61-.03-11.99-5.43-11.99-12.04s5.38-12.02,11.99-12.05v1.72c-5.66,.03-10.28,4.66-10.28,10.33s4.61,10.3,10.29,10.32v1.72Z"/>
  <path class="cls-1" d="M198.41,184.3h-21.28V65.7h21.28c3.74,0,6.78,3.04,6.78,6.78v105.05c0,3.74-3.04,6.78-6.78,6.78Zm-19.56-1.72h19.56c2.79,0,5.06-2.27,5.06-5.06V72.47c0-2.79-2.27-5.06-5.06-5.06h-19.56v115.17Z"/>
  <path class="cls-1" d="M219.58,169.51h-16.11V80.48h16.11c2.91,0,5.27,2.37,5.27,5.28v78.47c0,2.91-2.37,5.28-5.27,5.28Zm-14.4-1.72h14.4c1.96,0,3.56-1.6,3.56-3.56V85.76c0-1.96-1.6-3.56-3.56-3.56h-14.4v85.59Z"/>
  <path class="cls-1" d="M224.01,137.04v-1.72c5.66-.03,10.28-4.66,10.28-10.33s-4.61-10.3-10.29-10.32v-1.72c6.62,.03,12,5.43,12,12.04s-5.38,12.02-11.99,12.05Z"/>
  <path class="cls-1" d="M178.85,138.81H71.15v-27.61h107.7v27.61Zm-105.98-1.72h104.27v-24.18H72.87v24.18Z"/>
</svg>