<?xml version="1.0" encoding="iso-8859-1"?>
<!-- Uploaded to: SVG Repo, www.svgrepo.com, Generator: SVG Repo Mixer Tools -->
<svg fill="#000000" height="800px" width="800px" version="1.1" id="Layer_1" xmlns="http://www.w3.org/2000/svg" xmlns:xlink="http://www.w3.org/1999/xlink" 
	 viewBox="0 0 511.999 511.999" xml:space="preserve">
<g>
	<g>
		<path d="M462.294,269.365h-1.069c-4.427,0-8.017,3.588-8.017,8.017c0,4.428,3.589,8.017,8.017,8.017h1.069
			c4.427,0,8.017-3.588,8.017-8.017C470.311,272.953,466.722,269.365,462.294,269.365z"/>
	</g>
</g>
<g>
	<g>
		<path d="M402.436,277.916h-1.069c-4.427,0-8.017,3.588-8.017,8.017c0,4.428,3.589,8.017,8.017,8.017h1.069
			c4.427,0,8.017-3.588,8.017-8.017C410.452,281.504,406.863,277.916,402.436,277.916z"/>
	</g>
</g>
<g>
	<g>
		<path d="M462.294,346.326h-1.069c-4.427,0-8.017,3.588-8.017,8.017c0,4.428,3.589,8.017,8.017,8.017h1.069
			c4.427,0,8.017-3.588,8.017-8.017C470.311,349.914,466.722,346.326,462.294,346.326z"/>
	</g>
</g>
<g>
	<g>
		<path d="M393.884,406.185h-1.069c-4.427,0-8.017,3.588-8.017,8.017s3.589,8.017,8.017,8.017h1.069
			c4.427,0,8.017-3.588,8.017-8.017S398.312,406.185,393.884,406.185z"/>
	</g>
</g>
<g>
	<g>
		<path d="M410.987,337.775h-1.069c-4.427,0-8.017,3.588-8.017,8.017s3.589,8.017,8.017,8.017h1.069
			c4.427,0,8.017-3.588,8.017-8.017S415.414,337.775,410.987,337.775z"/>
	</g>
</g>
<g>
	<g>
		<path d="M308.372,363.429h-1.069c-4.427,0-8.017,3.588-8.017,8.017c0,4.429,3.589,8.017,8.017,8.017h1.069
			c4.427,0,8.017-3.588,8.017-8.017C316.389,367.017,312.799,363.429,308.372,363.429z"/>
	</g>
</g>
<g>
	<g>
		<path d="M308.372,440.39h-1.069c-4.427,0-8.017,3.588-8.017,8.017s3.589,8.017,8.017,8.017h1.069c4.427,0,8.017-3.588,8.017-8.017
			S312.799,440.39,308.372,440.39z"/>
	</g>
</g>
<g>
	<g>
		<path d="M171.552,414.736h-1.069c-4.427,0-8.017,3.588-8.017,8.017c0,4.428,3.589,8.017,8.017,8.017h1.069
			c4.427,0,8.017-3.588,8.017-8.017C179.569,418.324,175.979,414.736,171.552,414.736z"/>
	</g>
</g>
<g>
	<g>
		<path d="M111.693,457.492h-1.069c-4.427,0-8.017,3.588-8.017,8.017c0,4.428,3.589,8.017,8.017,8.017h1.069
			c4.427,0,8.017-3.588,8.017-8.017C119.71,461.081,116.12,457.492,111.693,457.492z"/>
	</g>
</g>
<g>
	<g>
		<path d="M231.411,423.287h-1.069c-4.427,0-8.017,3.588-8.017,8.017c0,4.428,3.589,8.017,8.017,8.017h1.069
			c4.427,0,8.017-3.588,8.017-8.017C239.427,426.876,235.838,423.287,231.411,423.287z"/>
	</g>
</g>
<g>
	<g>
		<path d="M453.743,440.39h-1.069c-4.427,0-8.017,3.588-8.017,8.017s3.589,8.017,8.017,8.017h1.069c4.427,0,8.017-3.588,8.017-8.017
			S458.171,440.39,453.743,440.39z"/>
	</g>
</g>
<g>
	<g>
		<path d="M479.397,200.955h-1.069c-4.427,0-8.017,3.588-8.017,8.017c0,4.428,3.589,8.017,8.017,8.017h1.069
			c4.427,0,8.017-3.588,8.017-8.017C487.414,204.543,483.824,200.955,479.397,200.955z"/>
	</g>
</g>
<g>
	<g>
		<path d="M462.294,269.365h-1.069c-4.427,0-8.017,3.588-8.017,8.017c0,4.428,3.589,8.017,8.017,8.017h1.069
			c4.427,0,8.017-3.588,8.017-8.017C470.311,272.953,466.722,269.365,462.294,269.365z"/>
	</g>
</g>
<g>
	<g>
		<path d="M402.436,277.916h-1.069c-4.427,0-8.017,3.588-8.017,8.017c0,4.428,3.589,8.017,8.017,8.017h1.069
			c4.427,0,8.017-3.588,8.017-8.017C410.452,281.504,406.863,277.916,402.436,277.916z"/>
	</g>
</g>
<g>
	<g>
		<path d="M462.294,346.326h-1.069c-4.427,0-8.017,3.588-8.017,8.017c0,4.428,3.589,8.017,8.017,8.017h1.069
			c4.427,0,8.017-3.588,8.017-8.017C470.311,349.914,466.722,346.326,462.294,346.326z"/>
	</g>
</g>
<g>
	<g>
		<path d="M393.884,406.185h-1.069c-4.427,0-8.017,3.588-8.017,8.017s3.589,8.017,8.017,8.017h1.069
			c4.427,0,8.017-3.588,8.017-8.017S398.312,406.185,393.884,406.185z"/>
	</g>
</g>
<g>
	<g>
		<path d="M410.987,337.775h-1.069c-4.427,0-8.017,3.588-8.017,8.017s3.589,8.017,8.017,8.017h1.069
			c4.427,0,8.017-3.588,8.017-8.017S415.414,337.775,410.987,337.775z"/>
	</g>
</g>
<g>
	<g>
		<path d="M308.372,363.429h-1.069c-4.427,0-8.017,3.588-8.017,8.017c0,4.429,3.589,8.017,8.017,8.017h1.069
			c4.427,0,8.017-3.588,8.017-8.017C316.389,367.017,312.799,363.429,308.372,363.429z"/>
	</g>
</g>
<g>
	<g>
		<path d="M308.372,440.39h-1.069c-4.427,0-8.017,3.588-8.017,8.017s3.589,8.017,8.017,8.017h1.069c4.427,0,8.017-3.588,8.017-8.017
			S312.799,440.39,308.372,440.39z"/>
	</g>
</g>
<g>
	<g>
		<path d="M171.552,414.736h-1.069c-4.427,0-8.017,3.588-8.017,8.017c0,4.428,3.589,8.017,8.017,8.017h1.069
			c4.427,0,8.017-3.588,8.017-8.017C179.569,418.324,175.979,414.736,171.552,414.736z"/>
	</g>
</g>
<g>
	<g>
		<path d="M111.693,457.492h-1.069c-4.427,0-8.017,3.588-8.017,8.017c0,4.428,3.589,8.017,8.017,8.017h1.069
			c4.427,0,8.017-3.588,8.017-8.017C119.71,461.081,116.12,457.492,111.693,457.492z"/>
	</g>
</g>
<g>
	<g>
		<path d="M231.411,423.287h-1.069c-4.427,0-8.017,3.588-8.017,8.017c0,4.428,3.589,8.017,8.017,8.017h1.069
			c4.427,0,8.017-3.588,8.017-8.017C239.427,426.876,235.838,423.287,231.411,423.287z"/>
	</g>
</g>
<g>
	<g>
		<path d="M453.743,440.39h-1.069c-4.427,0-8.017,3.588-8.017,8.017s3.589,8.017,8.017,8.017h1.069c4.427,0,8.017-3.588,8.017-8.017
			S458.171,440.39,453.743,440.39z"/>
	</g>
</g>
<g>
	<g>
		<path d="M479.397,200.955h-1.069c-4.427,0-8.017,3.588-8.017,8.017c0,4.428,3.589,8.017,8.017,8.017h1.069
			c4.427,0,8.017-3.588,8.017-8.017C487.414,204.543,483.824,200.955,479.397,200.955z"/>
	</g>
</g>
<g>
	<g>
		<path d="M509.028,117.229c-3.441-2.787-8.489-2.256-11.276,1.183c-29.676,36.637-62.355,70.934-97.436,102.337
			c2.728-4.619,4.666-9.723,5.704-15.146c2.364-12.362-0.226-24.906-7.294-35.319c-7.07-10.414-17.771-17.452-30.134-19.818
			c-7.48-1.43-15.026-1.036-22.127,1.056l75.884-51.511c7.441-5.052,12.47-12.698,14.16-21.532
			c1.69-8.833-0.161-17.796-5.212-25.237c-5.052-7.442-12.698-12.47-21.532-14.16c-8.832-1.692-17.795,0.161-25.237,5.213
			l-42.453,28.816c-7.441,5.052-12.47,12.698-14.16,21.531c-1.69,8.835,0.161,17.796,5.212,25.237
			c5.462,8.047,3.36,19.037-4.687,24.499L130.322,278.867c-8.045,5.448-19.024,3.346-24.483-4.697
			c-10.428-15.362-31.409-19.375-46.769-8.948l-42.451,28.817c-15.361,10.427-19.375,31.408-8.948,46.769
			c6.504,9.583,17.115,14.749,27.908,14.749c6.508,0,13.082-1.879,18.862-5.802l49.62-33.682
			c-5.309,13.906-3.991,30.102,4.985,43.325c7.069,10.414,17.771,17.452,30.134,19.818c2.018,0.386,4.04,0.629,6.059,0.753
			c-44.802,18.197-91.212,32.747-138.991,43.516c-4.208,0.949-6.952,5.21-6.089,9.433c0.887,4.34,5.295,7.181,9.615,6.208
			c108.504-24.458,210.107-68.002,301.987-129.424c14.614-9.77,29.13-20.109,43.144-30.733c3.528-2.674,4.22-7.703,1.546-11.231
			c-2.674-3.53-7.704-4.222-11.232-1.546c-13.762,10.432-28.017,20.586-42.368,30.18c-34.488,23.055-70.377,43.538-107.502,61.397
			l11.508-7.812c10.414-7.069,17.452-17.771,19.816-30.132c2.365-12.363-0.226-24.907-7.295-35.321
			c-8.977-13.222-23.541-20.425-38.426-20.623l109.342-74.223c-12.28,15.697-13.675,38.17-1.895,55.523
			c9.104,13.41,23.953,20.642,39.058,20.641c9.108,0,18.309-2.63,26.396-8.119l16.731-11.357c-2.636,2.894-2.831,7.353-0.275,10.469
			c1.585,1.934,3.885,2.934,6.205,2.934c1.787,0,3.587-0.595,5.077-1.817c46.985-38.516,90.26-82.061,128.625-129.423
			C512.998,125.064,512.468,120.016,509.028,117.229z M45.436,336.49c-8.046,5.46-19.036,3.361-24.497-4.686
			c-2.647-3.898-3.616-8.593-2.731-13.22c0.885-4.627,3.519-8.633,7.417-11.279l42.451-28.817c8.048-5.459,19.037-3.36,24.498,4.688
			c3.63,5.347,8.541,9.314,14.045,11.781L45.436,336.49z M178.568,338.775c-1.561,8.156-6.204,15.216-13.074,19.881
			c-6.87,4.663-15.146,6.375-23.302,4.813c-8.157-1.563-15.217-6.206-19.881-13.077c-9.628-14.182-5.922-33.554,8.262-43.182
			c14.183-9.628,33.555-5.922,43.182,8.262C178.418,322.344,180.128,330.619,178.568,338.775z M206.11,293.509
			c4.664,6.87,6.373,15.145,4.812,23.302c-1.56,8.156-6.203,15.216-13.074,19.881l-3.067,2.081
			c1.437-11.372-1.267-22.738-7.761-32.308c-6.686-9.849-16.476-16.353-27.185-19.12l3.092-2.099
			C177.109,275.62,196.482,279.325,206.11,293.509z M343.663,97.656c0.885-4.626,3.519-8.631,7.417-11.278l42.451-28.817
			c3.897-2.647,8.593-3.613,13.22-2.731c4.627,0.885,8.632,3.52,11.278,7.418c2.646,3.897,3.615,8.592,2.73,13.218
			c-0.885,4.627-3.519,8.633-7.417,11.279l-61.183,41.532c-0.261-6.028-2.136-12.055-5.766-17.403
			C343.747,106.979,342.778,102.283,343.663,97.656z M344.843,244.435c-14.182,9.628-33.555,5.921-43.182-8.262
			c-9.628-14.184-5.922-33.556,8.262-43.183c5.336-3.623,11.404-5.356,17.414-5.356c9.964,0,19.763,4.771,25.768,13.618
			C362.731,215.434,359.025,234.806,344.843,244.435z M390.272,202.59c-1.56,8.156-6.203,15.216-13.074,19.881l-3.092,2.099
			c1.383-10.974-1.049-22.474-7.736-32.324s-16.476-16.354-27.186-19.12l3.092-2.099c6.871-4.663,15.147-6.374,23.302-4.813
			c8.156,1.561,15.216,6.204,19.881,13.074C390.124,186.158,391.832,194.434,390.272,202.59z"/>
	</g>
</g>
<g>
	<g>
		<path d="M165.45,321.108c-6.52-9.603-19.637-12.115-29.241-5.593c-4.653,3.158-7.797,7.939-8.854,13.462
			c-1.057,5.523,0.1,11.127,3.259,15.779c4.067,5.991,10.702,9.223,17.45,9.223c4.069-0.002,8.178-1.176,11.792-3.629
			C169.461,343.829,171.97,330.712,165.45,321.108z M150.85,337.084c-1.108,0.754-2.442,1.03-3.76,0.776
			c-1.317-0.251-2.456-1.002-3.209-2.111c-0.753-1.108-1.028-2.445-0.777-3.762c0.251-1.316,1.002-2.456,2.11-3.208
			c0.862-0.586,1.842-0.866,2.811-0.866c1.609,0,3.191,0.771,4.16,2.199C153.738,332.404,153.141,335.53,150.85,337.084z"/>
	</g>
</g>
<g>
	<g>
		<path d="M344.799,206.887c-3.158-4.652-7.939-7.796-13.462-8.853c-5.52-1.053-11.126,0.103-15.779,3.26
			c-4.653,3.158-7.797,7.939-8.854,13.462c-1.057,5.523,0.1,11.127,3.259,15.779c3.159,4.653,7.939,7.797,13.462,8.854
			c1.334,0.254,2.671,0.381,4,0.381c4.174,0,8.251-1.245,11.78-3.641c4.652-3.158,7.796-7.939,8.853-13.462
			C349.115,217.144,347.958,211.54,344.799,206.887z M332.311,219.655c-0.252,1.316-1.002,2.455-2.11,3.209c0,0,0,0-0.001,0
			c-1.11,0.753-2.446,1.031-3.762,0.777c-1.316-0.251-2.455-1.002-3.209-2.111c-0.753-1.108-1.028-2.445-0.777-3.761
			c0.251-1.316,1.002-2.456,2.11-3.209c0.842-0.571,1.813-0.868,2.808-0.868c0.316,0,0.635,0.029,0.953,0.091
			c1.316,0.251,2.456,1.002,3.209,2.111C332.288,217.003,332.562,218.338,332.311,219.655z"/>
	</g>
</g>
</svg>