<?xml version="1.0" encoding="iso-8859-1"?>
<!-- Uploaded to: SVG Repo, www.svgrepo.com, Generator: SVG Repo Mixer Tools -->
<!DOCTYPE svg PUBLIC "-//W3C//DTD SVG 1.1//EN" "http://www.w3.org/Graphics/SVG/1.1/DTD/svg11.dtd">
<svg fill="#000000" height="800px" width="800px" version="1.1" id="Capa_1" xmlns="http://www.w3.org/2000/svg" xmlns:xlink="http://www.w3.org/1999/xlink" 
	 viewBox="0 0 101.676 101.676" xml:space="preserve">
<g>
	<path d="M88.845,24.214H61.841c-0.1,0-0.194,0.02-0.292,0.029c-0.097-0.01-0.192-0.029-0.292-0.029H44.428
		c-0.1,0-0.194,0.02-0.292,0.029c-0.097-0.01-0.192-0.029-0.292-0.029H16.841c-1.654,0-3,1.346-3,3v2.25c0,1.654,1.346,3,3,3h24.586
		v25.059l-5.465,12.659c-0.624,1.444-1.112,3.81-1.112,5.384v9.636c0,1.985,1.615,3.6,3.6,3.6h3.152c1.985,0,3.6-1.615,3.6-3.6
		v-9.636c0-1.287,0.467-3.356,1.02-4.519l4.852-10.204h1.855L52.566,71.71c-0.052,1.549,0.262,3.926,0.715,5.411l4.482,14.692
		c0.547,1.792,2.442,3.195,4.315,3.195h3.153c0.993,0,1.88-0.411,2.435-1.127c0.555-0.717,0.73-1.679,0.481-2.641l-4.095-15.802
		c-0.332-1.281-0.542-3.479-0.459-4.799l0.5-7.961c0.091-1.454,0.165-3.471,0.165-4.498c0-0.052-0.016-0.101-0.019-0.152
		c0.004-0.063,0.019-0.123,0.019-0.187V32.464h24.586c1.654,0,3-1.346,3-3v-2.25C91.845,25.56,90.499,24.214,88.845,24.214z"/>
	<path d="M52.843,21.672c5.975,0,10.835-4.861,10.835-10.836S58.818,0,52.843,0c-5.975,0-10.836,4.861-10.836,10.836
		S46.868,21.672,52.843,21.672z"/>
	<path d="M88.987,87.86l-19.687,9.158c-0.739,0.344-2.155,0.657-2.97,0.657h-1.073c-0.869,0-2.409-0.261-3.23-0.547l-12.482-4.35
		c-1.172-0.409-3.056-0.848-4.288-1l-33.182-4.09c-1.097-0.133-2.094,0.644-2.229,1.74c-0.135,1.096,0.644,2.094,1.74,2.229
		l33.183,4.09c0.944,0.116,2.561,0.493,3.459,0.807l12.483,4.351c1.259,0.438,3.214,0.77,4.547,0.77h1.073
		c1.393,0,3.395-0.443,4.657-1.03l19.687-9.158c1.001-0.466,1.436-1.656,0.97-2.657C91.178,87.829,89.989,87.395,88.987,87.86z"/>
</g>
</svg>