<?xml version="1.0" encoding="iso-8859-1"?>
<!-- Uploaded to: SVG Repo, www.svgrepo.com, Generator: SVG Repo Mixer Tools -->
<svg fill="#000000" height="800px" width="800px" version="1.1" id="Layer_1" xmlns="http://www.w3.org/2000/svg" xmlns:xlink="http://www.w3.org/1999/xlink" 
	 viewBox="0 0 512.016 512.016" xml:space="preserve">
<g>
	<g>
		<g>
			<path d="M106.683,192.008c23.573,0,42.667-19.093,42.667-42.667c0-23.573-19.093-42.667-42.667-42.667
				c-23.552,0-42.667,19.093-42.667,42.667C64.016,172.915,83.131,192.008,106.683,192.008z"/>
			<path d="M160.016,426.675H61.904L21.093,243.037c-1.28-5.76-6.976-9.301-12.736-8.107c-5.76,1.28-9.365,6.976-8.107,12.736
				l42.411,190.848v62.827c0,5.888,4.779,10.667,10.667,10.667s10.667-4.779,10.667-10.667v-53.333h64v53.333
				c0,5.888,4.779,10.667,10.667,10.667s10.667-4.779,10.667-10.667v-53.333h10.667c5.888,0,10.667-4.779,10.667-10.667
				C170.661,431.453,165.904,426.675,160.016,426.675z"/>
			<path d="M394.683,0.008c-64.704,0-117.333,52.629-117.333,117.333s52.629,117.333,117.333,117.333
				s117.333-52.629,117.333-117.333S459.387,0.008,394.683,0.008z M437.349,128.008h-42.667c-5.888,0-10.667-4.779-10.667-10.667
				v-64c0-5.888,4.779-10.667,10.667-10.667s10.667,4.779,10.667,10.667v53.333h32c5.888,0,10.667,4.779,10.667,10.667
				S443.237,128.008,437.349,128.008z"/>
			<path d="M224.016,341.341h-74.667v-85.333c0-23.531-19.136-42.667-42.667-42.667c-23.531,0-42.667,19.136-42.667,42.667v117.333
				c0,17.643,14.357,32,32,32h96v74.667c0,17.643,14.357,32,32,32s32-14.357,32-32V373.341
				C256.016,355.699,241.658,341.341,224.016,341.341z"/>
		</g>
	</g>
</g>
</svg>