<?xml version="1.0" encoding="UTF-8"?>
<!DOCTYPE svg PUBLIC "-//W3C//DTD SVG 1.1//EN" "http://www.w3.org/Graphics/SVG/1.1/DTD/svg11.dtd">
<!-- Creator: CorelDRAW 2020 (64-Bit) -->
<svg xmlns="http://www.w3.org/2000/svg" xml:space="preserve" width="39.2089mm" height="43.2269mm" version="1.1" style="shape-rendering:geometricPrecision; text-rendering:geometricPrecision; image-rendering:optimizeQuality; fill-rule:evenodd; clip-rule:evenodd"
viewBox="0 0 4462.49 4919.79"
 xmlns:xlink="http://www.w3.org/1999/xlink"
 xmlns:xodm="http://www.corel.com/coreldraw/odm/2003">
 <defs>
  <style type="text/css">
   <![CDATA[
    .fil1 {fill:#FEFEFE;fill-rule:nonzero}
    .fil4 {fill:#FAFDFC;fill-rule:nonzero}
    .fil5 {fill:#FBEE62;fill-rule:nonzero}
    .fil3 {fill:#39AAE1;fill-rule:nonzero}
    .fil2 {fill:#1B7ABE;fill-rule:nonzero}
    .fil0 {fill:url(#id0)}
   ]]>
  </style>
  <linearGradient id="id0" gradientUnits="userSpaceOnUse" x1="2152.52" y1="3329.41" x2="2152.52" y2="-856.07">
   <stop offset="0" style="stop-opacity:1; stop-color:#2F2B51"/>
   <stop offset="0.356863" style="stop-opacity:1; stop-color:#346A99"/>
   <stop offset="0.890196" style="stop-opacity:1; stop-color:#39AAE1"/>
   <stop offset="1" style="stop-opacity:1; stop-color:#39AAE1"/>
  </linearGradient>
 </defs>
 <g id="Layer_x0020_1">
  <metadata id="CorelCorpID_0Corel-Layer"/>
  <g id="_2145704170720">
   <path class="fil0" d="M2051.34 37.84c-320.61,235.54 -765.54,667.39 -765.54,667.39l0 0c-464.57,418.75 -981.53,1171.23 -981.53,1171.23l0 0 1223.6 -1033.82 896.46 772.08 -147.26 163.6 -755.73 -647.81 -1387.14 1158.21c-78.54,91.56 -98.15,190.1 -98.15,190.1l0 0c-189.78,896.76 431.86,1635.41 431.86,1635.41l0 0c667.41,811.35 1622.7,804.83 1622.7,804.83l0 0c988.04,26.15 1596.54,-641.26 1596.54,-641.26l0 0c695.22,-664.12 615.05,-1524.55 615.05,-1524.55l0 0c-52.33,-601.98 -536.54,-1203.92 -536.54,-1203.92l0 0c-580.69,-762.3 -1524.57,-1511.47 -1524.57,-1511.47l0 0c-30,-28.37 -61.08,-37.81 -89.18,-37.84l0 0c-56.25,0 -100.55,37.84 -100.55,37.84zm-107.96 1118.43l0 -114.06 240.45 0 0 318.96 -240.45 -204.9z"/>
   <g>
    <path class="fil1" d="M3607.86 2393.78l-39.86 -102.35 -40.3 102.35 80.16 0zm-2331.4 0l-39.7 -102.35 -40.19 102.35 79.89 0zm2357.51 67.4l-133.84 0 -34.44 86.91 -73.94 0 147.22 -361.08 62.63 0 142.24 361.08 -75 0 -34.86 -86.91zm-524.61 -131.76l14.43 0c16.3,0 34.61,-2.52 47.93,-12.25 10.14,-7.42 13.92,-17.09 13.92,-29.39 0,-8.56 -1.1,-19.69 -8.95,-24.87 -11.61,-7.43 -33.04,-8.54 -46.47,-8.54l-19.67 0c-0.64,18.21 -1.05,36.44 -1.2,54.68l0 20.36zm101.48 40.8c2.21,2.9 4.26,5.92 5.99,9.28 1.93,3.76 3.87,7.49 5.63,11.34l69.81 157.26 -78.67 0 -52.9 -123.44c-2.3,-5.09 -4.53,-10 -7.1,-14.92 -1.25,-2.61 -3.04,-4.95 -5.26,-6.79 -2.38,-2.19 -5.68,-3.51 -8.72,-4.59 -5.42,-1.68 -12.34,-2.01 -18.21,-2.01l-11.9 0c0.41,18.59 0.66,37.11 0.88,55.6 0.46,25.37 0.79,50.75 0.79,76.22l0 19.94 -71.63 0 0 -361.08 103.13 0c29.22,0 59.85,5.9 82.98,25.28 22.82,19.41 31.65,46.61 31.65,75.87 0,23.15 -7.36,44.19 -22.18,61.85 -6.68,8.46 -15.1,15.02 -24.28,20.22zm-468.16 -115.84l0 74.56 119.56 0 0 67.39 -119.56 0 0 84.24 131.52 0 0 67.51 -203 0 0 -361.08 169.84 0 0 67.38 -98.37 0zm-368.19 0l0 74.56 119.55 0 0 67.39 -119.55 0 0 84.24 131.43 0 0 67.51 -202.91 0 0 -361.08 169.76 0 0 67.38 -98.29 0zm-309.32 -67.38l71.5 0 0 255.26c0,28.34 -5.32,58.15 -23.43,80.65 -18.21,22.44 -44.25,31.13 -72.35,31.13 -4.45,0 -8.9,-0.4 -13.43,-0.89 -4.11,-0.43 -8.39,-1.32 -12.37,-2.15 -3.81,-1 -7.57,-2.05 -11.15,-3.4 -6.99,-2.87 -13.05,-7.63 -15.48,-15.02l-1.02 -3.27 1.02 -64.22 29.36 16.8c1.97,0.99 5.17,1.99 7.18,2.73 4.21,1.3 10.23,1.6 14.53,1.6 7.27,0 13.37,-1.75 18.04,-7.43 6.71,-7.9 7.6,-26.86 7.6,-36.52l0 -255.26zm-305.35 230.64l0 -230.64 71.11 0 0 361.08 -74.25 0 -131.72 -226.1 0 226.1 -71.03 0 0 -361.08 71.19 0 134.7 230.64zm-457.09 43.53l-133.79 0 -34.53 86.91 -73.92 0 147.32 -361.08 62.72 0 142.06 361.08 -74.88 0 -34.99 -86.91zm-465.78 -122.87l-84.14 209.78 -54.77 0 -88.09 -212.55 0 212.55 -71.22 0 0 -361.08 87.11 0 101.16 245.65 102 -245.65 79.12 0 0 361.08 -71.17 0 0 -209.78z"/>
    <path class="fil2" d="M3536.66 1647.45c0,0 183.22,22.91 340.23,-29.44 65.42,-9.81 143.94,-19.62 173.41,55.61 22.88,-52.34 78.53,-107.99 222.47,-130.86 98.15,-26.18 121.03,-26.18 189.73,-75.24 -32.71,65.44 -100.26,174.85 -261.71,179.94 -29.45,3.24 -114.5,32.71 -111.23,65.44 26.19,13.08 32.73,39.24 65.44,52.33 -39.25,16.35 -137.41,13.09 -155.41,0 -17.99,-13.09 -37.65,-36 -47.44,-45.8 36,0 91.61,-26.19 -19.63,-22.91 -111.23,3.27 -350.06,13.08 -395.85,-49.06z"/>
    <path class="fil3" d="M3340.21 1138.04c0,0 112.7,14.07 209.25,-18.1 40.23,-6.04 88.54,-12.09 106.67,34.2 14.07,-32.21 48.26,-66.43 136.78,-80.5 60.38,-16.08 74.45,-16.08 116.68,-46.27 -20.11,40.24 -61.64,107.52 -160.94,110.66 -18.1,2.03 -70.42,20.12 -68.42,40.23 16.1,8.06 20.13,24.16 40.27,32.2 -24.16,10.06 -84.53,8.05 -95.58,0 -11.05,-8.04 -23.14,-22.15 -29.15,-28.17 22.11,0 56.3,-16.1 -12.08,-14.09 -68.41,2.01 -215.3,8.04 -243.47,-30.17z"/>
    <path class="fil4" d="M2201.77 673.56c0,0 128.23,16.02 238.07,-20.62 45.81,-6.85 100.77,-13.73 121.38,38.92 16,-36.63 54.93,-75.54 155.65,-91.57 68.7,-18.3 84.71,-18.3 132.79,-52.66 -22.9,45.81 -70.17,122.37 -183.17,125.93 -20.57,2.3 -80.1,22.88 -77.84,45.78 18.35,9.15 22.91,27.47 45.81,36.64 -27.46,11.45 -96.16,9.15 -108.76,0 -12.59,-9.16 -26.33,-25.19 -33.18,-32.04 25.16,0 64.09,-18.35 -13.73,-16.05 -77.88,2.31 -244.96,9.16 -277.03,-34.33z"/>
    <path class="fil2" d="M3476.16 522.68c0,0 54.11,6.76 100.5,-8.7 19.28,-2.88 42.49,-5.8 51.18,16.43 6.77,-15.44 23.18,-31.88 65.72,-38.65 28.95,-7.74 35.7,-7.74 56.03,-22.24 -9.67,19.34 -29.61,51.64 -77.3,53.15 -8.7,0.99 -33.81,9.64 -32.84,19.31 7.71,3.88 9.64,11.62 19.33,15.47 -11.62,4.83 -40.6,3.87 -45.9,0 -5.33,-3.87 -11.13,-10.64 -14.01,-13.52 10.63,0 27.04,-7.75 -5.8,-6.76 -32.85,0.94 -103.38,3.87 -116.9,-14.5z"/>
    <path class="fil5" d="M1544.58 2626.06l0 664.53c-60.32,-179.65 -246.27,-263.11 -246.27,-263.11 -283.33,-124.81 -421.62,13.52 -421.62,13.52l0 -414.94 -337.32 0 0 1211.88c-6.74,44.79 40.49,53.05 67.46,66.54 197.3,60.53 464.29,75.88 572.29,79.73 -4.14,1.22 -8.22,2.37 -12.28,3.43 67.32,4.47 192.22,2.29 328.81,15.79 109.64,31.55 -155.13,11.26 -222.61,11.26 -67.45,0 -50.6,31.53 -27,38.25 -23.56,2.55 -65.58,-1.26 -117.26,-5.08 -40.71,-2.99 -87.4,-6.02 -135.72,-5.95 91.08,-11.02 -52.27,-29.47 -150.1,-33.97 57.34,-11.24 -67.46,-9 -146.72,-13.51 -67.46,13.51 -20.25,36.01 35.42,36.01 -32.04,20.25 48.91,31.54 111.3,31.54 -37.11,13.51 84.32,29.25 160.24,36.02 -42.18,17.98 202.39,20.22 277.1,20.22 -19.72,31.55 217.03,33.79 238.96,42.82 -227.66,-4.51 -236.12,15.75 -236.12,15.75 -11.79,38.29 16.88,33.78 16.88,33.78 0,0 301.89,-2.24 362.61,4.47 60.72,6.77 -6.76,20.28 -6.76,20.28 0,0 -214.16,-4.5 -268.16,-4.5 -52.27,22.54 3.39,35.77 3.39,35.77 0,0 141.65,11.52 185.5,9.24 -30.37,17.99 33.73,20.28 121.42,29.24 80.99,18.04 -3.35,31.55 -3.35,31.55 0,0 -202.38,4.5 -315.4,9.05 -111.31,11.23 -25.3,31.5 -25.3,31.5l592 22.49c0,0 -425.04,-2.26 -495.86,2.24 -116.39,29.25 40.47,40.52 40.47,40.52l1040.61 -2.21c0,0 -571.75,8.98 -650.99,15.76 -79.31,6.73 -50.6,33.77 -50.6,33.77 0,0 -166.98,0 -264.82,-2.24 -74.19,15.75 -13.46,38.24 -13.46,38.24 0,0 123.11,13.52 192.28,9.03 -50.6,24.78 -10.14,42.78 45.53,51.77 -188.92,0 -344.07,4.51 -389.59,9 -92.76,47.3 53.96,40.55 53.96,40.55 0,0 323.82,2.24 499.21,0 175.42,-2.29 52.3,-11.3 138.32,-31.55 60.7,-36 -123.15,-54.05 -212.51,-63.04 -87.69,-11.24 25.29,-22.49 32.05,-27 -21.94,-22.51 172.04,4.51 318.76,6.75 134.93,-6.75 96.13,11.24 64.09,22.49 -92.76,47.3 124.81,31.55 323.82,22.51 190.57,-22.51 6.75,-56.27 6.75,-56.27 0,0 -48.93,-8.98 111.3,-20.25 150.11,-18.04 -15.17,-13.52 97.82,-65.33 112.98,-51.77 -55.67,-45 -308.65,-42.75 -253,2.24 -158.52,-13.51 -96.13,-19.14 72.54,-10.16 26.14,-30.38 26.14,-30.38 0,0 -374.42,3.36 -574.24,-3.38 -161.93,-43.9 277.33,-37.46 360.89,-50.97 -58.14,-3.39 -363.45,-36.88 -451.98,-40.22 187,-31.75 -32.9,-54.06 -124,-54.06 -161.89,-6.74 -111.3,-40.49 0,-40.49 146.76,0 151.79,-20.3 70.85,-33.79 -128.98,-30.37 22.8,-37.16 174.58,-37.16 146.73,6.79 607.16,10.14 776.64,20.26 151.78,10.15 194.79,33.8 161.92,36.97 -129.02,13.3 -189.76,27.22 -333.96,30.6 -144.16,3.36 -113.8,20.22 -194.76,27.02 -144.24,6.74 -178.61,15.1 -43.32,32.02 157.04,4.88 119.2,32.13 98.95,28.77 -192.24,40.51 -66.99,39.93 -41.69,39.93 103.74,-16.86 585.58,7.33 585.58,7.33 121.44,13.53 -10.11,27.04 -10.11,27.04 0,0 -192.24,10.14 -288.39,10.14 -96.16,0 -43.01,30.38 -12.67,30.38 136.62,-3.37 371.91,-16.86 480.69,-23.66 187.21,-33.79 27.83,-50.65 -78.43,-47.26 68.32,-47.29 -37.95,-30.39 -225.16,-37.15 -187.2,-6.75 7.59,-54.04 62.2,-60.8 165.87,-16.88 550.03,-30.4 613.28,-43.9 103.71,-10.1 123.95,-27.04 106.24,-40.53 65.92,1.63 94.73,-7.74 102.6,-17.13 8.48,-10.05 -7.1,-20.13 -26.71,-16.63 -149.25,13.49 -470.56,33.76 -604.63,33.76 247.93,-20.27 42.99,-33.76 -80.94,-33.76 -212.52,-10.14 90.99,-56.88 125.62,-59.39 67.04,-4.78 107.37,-7.74 128.45,-9.73 165.7,-1.74 380.34,-43.49 461.01,-74.87 121.44,-47.24 91.08,-84.34 67.46,-111.33 -87.66,-50.6 -131.55,-43.84 -357.52,-53.97 -226,-10.1 -252.98,-114.68 -252.98,-114.68l317.07 0 228.84 0c48.25,0 88.71,-28.48 105.08,-43.84 119.32,-112.16 0,-344.07 0,-344.07 -161.91,-310.31 -462.13,-293.43 -462.13,-293.43 -350.8,0 -468.84,259.7 -468.84,259.7l0 -236.11 -330.57 0 0 603.77c-28.25,162.33 -198.99,138.32 -198.99,138.32 -114.72,-13.5 -111.33,-128.18 -111.33,-128.18l0 -607.15 -327.2 0 0 -374.46 -337.27 0zm1764.95 645.96c138.51,0 188.05,124.78 188.05,124.78l-376.1 0c42.13,-124.78 188.04,-124.78 188.04,-124.78zm-2468.26 247.08c0,-117.84 95.53,-213.34 213.35,-213.34 117.8,0 213.34,95.5 213.34,213.34 0,117.82 -95.55,213.35 -213.34,213.35 -117.82,0 -213.35,-95.53 -213.35,-213.35zm1037.23 156.03c23.6,178.77 104.58,249.57 104.58,249.57 0.85,1.1 1.83,2.13 2.77,3.19 -69.98,-17.33 -97.24,-19.04 -97.24,-19.04 0,0 -3.72,0.08 -10.11,0.22l0 -233.93zm-427.12 219.05c77.56,-71.61 93.2,-158.33 93.2,-158.33l0 172.42c-22.36,-3.56 -59.85,-9.17 -93.2,-14.09zm1395.18 -94.23c14.36,31.51 48.12,67.24 82.28,97.96 -32.11,-2.98 -80.15,-1.42 -80.76,-1.42 0,-32.48 -0.41,-66.67 -1.51,-96.54zm-300.19 94.44l0 30.23 -18.57 0c13.45,-17.46 18.57,-30.23 18.57,-30.23zm452.38 60.7c14.14,10.57 23.23,16.86 23.23,16.86 10.2,7.59 23.54,13.7 39.25,18.61 -0.08,0 -0.18,-0.05 -0.27,-0.05 -152.35,-0.61 -130.91,-29.86 -104.79,-26.47 21.69,-2 35.04,-5.13 42.58,-8.95z"/>
   </g>
  </g>
 </g>
</svg>
