<?xml version="1.0" encoding="utf-8"?>
<!-- Generator: Adobe Illustrator 27.0.0, SVG Export Plug-In . SVG Version: 6.00 Build 0)  -->
<svg version="1.1" id="Layer_1" xmlns:xodm="http://www.corel.com/coreldraw/odm/2003"
	 xmlns="http://www.w3.org/2000/svg" xmlns:xlink="http://www.w3.org/1999/xlink" x="0px" y="0px" viewBox="0 0 217.1 109.1"
	 style="enable-background:new 0 0 217.1 109.1;" xml:space="preserve">
<style type="text/css">
	.st0{fill:#808285;}
	.st1{fill:#D2232A;}
</style>
<g>
	<path class="st0" d="M26,37.1c-9,10.8-15.1,23-20,36c-1.1-0.8-0.6-1.5-0.4-2.2C9.5,59.1,15.3,48.2,22.5,38
		c6-8.5,12.6-16.5,20.4-23.4c4-3.5,8.5-6.3,13.1-8.7c2-1,4.4-1.7,6.8-1.6c1.2,0,2.5,0.2,3.7-0.6c0.9-0.6,1.8,0.4,2.8,0.7
		c3.6,1.1,6.2,3.3,7.6,6.9c1,2.5,0.3,4.9-0.6,7.2c-4.1,10.8-10.2,20.3-18.8,28c-2.2,2-4.5,3.9-7.6,4.5c4-3.9,8.3-7.6,11.6-12.1
		c3.3-4.6,6.7-9.1,8.3-14.7c-1.7,2.6-3.5,5.2-5.2,7.9c-4.4,6.7-9.5,12.8-15.9,17.7c-0.9,0.7-2.2,1.2-1.7,2.8c0.1,0.5-0.5,0.8-0.9,1
		c-2.4,1.3-6.7,0.2-8.3-2c-0.6-0.8-0.8-1.5-0.3-2.4c0.5-1,1.2-0.2,1.8-0.1c2.1,0.2,3.5-1.1,4.9-2.3c2.4-2,4.9-3.9,7.2-5.9
		c1.8-1.6,2.9-3.8,4.4-5.7c4.9-6,9.4-12.3,12.8-19.3c0.6-1.3,1.1-2.6,1.6-3.9c0.2-0.7,0.4-1.4-0.2-2c-0.6-0.6-1.2-0.1-1.8,0.1
		c-4.6,1.4-8.3,4.1-12.1,7c-12.3,9.4-21.3,21.7-30.3,33.9C19.1,59.9,14.1,70,11.3,81c-1.3,5.3-2,10.6-1,16c0.5,2.9,2.9,4.6,5.8,3.7
		c4.7-1.4,8.8-4.2,12.9-6.9c7-4.6,12.5-10.7,18-16.9c0.9-1,1.7-2,3.4-1.6c0.7,0.1,1.6-1.1,2.4-1.1c4.9-0.4,7.1-4.3,8.7-7.8
		c4.8-10.3,13-17.2,22.1-23.4c7.2-4.9,16.2-4.2,22.7,1.6c1.1,1,1.9,2.3,2.8,3.5c0.4,0.6,0.4,1.2-0.2,1.7c-0.5,0.4-1,0.5-1.6,0.2
		c-1-0.6-1.9-1.2-2.6-2.1c-1.4-1.6-3-2.1-5.1-1.4c-3.2,1-6.7,1.4-9.5,3.6c-9.8,7.5-18.5,16-25,26.6c-0.6,1.1-2,2.6-1.1,3.3
		c1.2,1,2-1,2.9-1.8c6-5.7,12.7-10.5,19.4-15.3c0.1-0.1,0.4-0.1,0.9-0.2c-1.1,1.9-2.4,3.1-3.9,4.1c-4.7,3.3-8.7,7.5-13.4,10.9
		c-0.8,0.6-1.4,1.2-1.3,2.3c2.2-0.6,23.7-18.8,24.4-20.6c-0.7-0.4-1,0.8-1.9,0.3c0.5-1.8,1.5-3.5,3.2-4.1c1.8-0.7,3.8-1.5,5.9,0.5
		c2.6,2.6,2.8,2.8,1.6,6.3c-1.2,3.6-3.1,6.7-5.4,9.6c-1.6,2.1-2.8,4.5-3.8,6.9c-0.2,0.4-0.8,0.8-0.2,1.3c0.4,0.4,0.9,0,1.4-0.2
		c4-2.1,7.1-5.4,10.8-8c2.1-1.4,3.5-3.3,5.1-5.1c0.6-0.7,1.3-1.2,2.4-0.8c1.4,0.5,2.1-0.9,3.1-1.5c0.6-0.4,1.2-1.2,1.8-0.4
		c0.4,0.6-0.6,1-1,1.4c-1,0.9-2.1,1.7-3.1,2.7c-0.5,0.5-1.7,0.8-1.1,1.7c0.6,0.8,1.6,1.1,2.7,0.8c0.6-0.1,1-0.9,2.2-0.4
		c-1.9,1.1-3.2,2.6-4.5,4c-4.7,5.1-10.3,9.1-16.1,12.9c-5.6,3.7-9.7-0.3-11.7-4.6c-1.5-3.2-0.1-6.1,0.8-9.1c0.4-1.3,1.7-3.1,1-3.6
		c-1.2-0.8-2.3,1.1-3.4,1.9c-1.2,1-2.3,2.1-3.9,2.5c-0.4,0.1-0.7,0.5-0.9,0.8c-2.5,4.6-7,7.1-10.8,10.4c-0.5,0.5-1.2,0.8-1.8,1.1
		c-3.6,1.8-6.5,0.9-8.4-2.7c-1.3-2.4-1.9-5-1.6-7.9c-2.7,2.7-4,6.2-6.2,9c-6.6,8.4-14,16-24.5,19.5c-4.4,1.4-8.8,1.2-13.2-1.1
		c-3.3-1.7-5.4-4-6.6-7.3c-0.2-0.5-0.4-1.1-0.4-1.6C4.7,88.8,4.8,83,6.1,77.3c1.4-6.1,4.2-11.7,6.7-17.4c3.4-7.7,8.1-14.7,13-21.5
		c0.2-0.3,0.3-0.6,0.5-0.9C26.4,37.5,26.3,37.4,26,37.1"/>
	<path class="st0" d="M200.1,69.5c0.9-0.3,1.4-0.9,2-1.5c0.3-0.3,0.8-0.6,0.2-1c-1.3-0.9-0.7-1.7,0.1-2.4c1.5-1.4,3-2.8,4.7-4.1
		c1.5-1.2,3.9-1,4.9,0.2c1.1,1.4,0.8,4-0.7,5.1c-3.6,2.7-6.9,5.6-9.9,9c-4.4,5-10,8.6-15.5,12.4c-4.7,3.3-8.6,0.9-11.2-3.3
		c-2.3-3.7-0.8-7.3,0.4-10.8c0.4-1,1.5-2.4,0.6-3.1c-1-0.7-1.8,0.9-2.7,1.5c-1.5,1.1-2.8,2.4-4.6,3.1c-0.2,0.1-0.5,0.3-0.6,0.5
		c-2.6,4.6-7.1,7.3-11,10.6c-1.2,1-2.6,1.8-4.2,2c-2,0.2-3.8-0.3-5-2.1c-2.9-4.4-3.5-9-0.8-13.7c6.2-11,14.2-20.5,24.7-27.9
		c3.9-2.7,8.1-4.5,13-4.2c5.6,0.3,10.3,2.7,13.7,7.2c0.5,0.7,1.8,1.7,0.5,2.7c-1.1,0.9-2.2,0.1-2.8-0.7c-2.6-3.6-5.9-2.6-9.4-2
		c-4.3,0.8-7.4,3.5-10.6,6.1c-8.8,7.1-16.4,15.2-21.9,25c-0.3,0.6-1.1,1.3-0.4,1.9c0.7,0.6,1.3-0.2,1.8-0.7
		c4.6-3.7,8.4-8.3,13.5-11.4c2.6-1.6,5.1-3.6,7.7-5.2c-0.4,1.6-1.7,2.6-2.9,3.6c-4.5,3.7-9,7.4-13.5,11.1c-0.2,0.2-0.5,0.4-0.6,0.6
		c-0.5,0.6-1.7,1.4-1.1,2c0.7,0.8,1.4-0.5,2-0.9c5.7-4.7,11.3-9.6,17.1-14.1c2-1.5,3.7-3.2,5.3-5c-0.6-1.1-1.5,0.6-1.9-0.4
		c-0.3-0.9,0.5-1.4,1-2c2.7-3.6,6.8-3.3,9.8-0.2c0.7,0.7,0.7,1.5,0.5,2.4c-0.8,3.7-2.2,7.1-4.6,10c-2.2,2.8-3.8,5.8-5.4,8.9
		c-0.2,0.4-0.7,0.9-0.2,1.3c0.5,0.5,1,0.1,1.5-0.2c3.6-2.1,6.9-4.8,10.1-7.5c1.6-1.3,3.7-1.9,4.5-4.2c0.2-0.6,1.1-0.9,1.6-0.7
		C200.6,68,199.5,68.8,200.1,69.5"/>
	<path class="st0" d="M131.5,66.4c0-2.1,0-4.3,0-6.4c0-0.6-0.1-1.4-0.9-1.6c-0.7-0.2-1,0.5-1.4,0.8c-1.7,1.5-3.4,3-5.1,4.5
		c-1,0.9-1.7,0.8-1.7-0.7c0-1.5-0.5-2.6-2.2-2.9c-0.5-0.1-1.1,0.1-1.3-0.5c-0.3-0.7,0.4-1.2,0.9-1.6c2.8-2.5,5.6-5,8.5-7.5
		c1.7-1.5,3.1-3.4,4.8-4.8c2.5-2.1,4.5-4.7,7.5-6.1c1.9-0.9,3.5-0.3,4.8,1c1.3,1.3,1.7,2.6,0.2,4.2c-4.7,5.1-5.8,11.5-5.9,18.2
		c-0.1,4.8,0.6,9.6,0.6,14.5c0,3.3-1.5,6-2.9,8.8c-0.4,0.9-1.4,1.5-2.4,1.7c-6.1,1.2-11.8,0.4-16.4-4.2c-1-1-1.7-2.3-2.4-3.5
		c-0.5-0.8-0.8-1.6,0-2.3c0.6-0.6,1.3-1.3,2.2-0.9c0.9,0.4,1.6,0.9,1.3,2.1c-0.2,1.1,0.5,1.5,1.5,1.7c4.3,0.9,9.2-2.4,10-6.7
		C131.6,71.6,131.4,69,131.5,66.4"/>
	<path class="st1" d="M202.5,26.7l-1.1-2.8l-1.1,2.8H202.5z M139.2,26.7l-1.1-2.8l-1.1,2.8H139.2z M203.2,28.6h-3.6l-0.9,2.4h-2
		l4-9.8h1.7l3.9,9.8h-2L203.2,28.6z M189,25h0.4c0.4,0,0.9-0.1,1.3-0.3c0.3-0.2,0.4-0.5,0.4-0.8c0-0.2,0-0.5-0.2-0.7
		c-0.3-0.2-0.9-0.2-1.3-0.2H189c0,0.5,0,1,0,1.5V25z M191.7,26.1c0.1,0.1,0.1,0.2,0.2,0.2c0,0.1,0.1,0.2,0.1,0.3l1.9,4.3h-2.1
		l-1.4-3.3c-0.1-0.1-0.1-0.3-0.2-0.4c0-0.1-0.1-0.1-0.1-0.2c-0.1-0.1-0.2-0.1-0.2-0.1c-0.1-0.1-0.3-0.1-0.5-0.1H189c0,0.5,0,1,0,1.5
		c0,0.7,0,1.4,0,2.1v0.5h-1.9v-9.8h2.8c0.8,0,1.6,0.2,2.2,0.7c0.6,0.5,0.9,1.3,0.9,2.1c0,0.6-0.2,1.2-0.6,1.7
		C192.2,25.8,192,26,191.7,26.1 M179,23v2h3.2v1.8H179v2.3h3.6v1.8h-5.5v-9.8h4.6V23H179z M169,23v2h3.2v1.8H169v2.3h3.6v1.8h-5.5
		v-9.8h4.6V23H169z M160.6,21.1h1.9v6.9c0,0.8-0.1,1.6-0.6,2.2c-0.5,0.6-1.2,0.8-2,0.8c-0.1,0-0.2,0-0.4,0c-0.1,0-0.2,0-0.3-0.1
		c-0.1,0-0.2-0.1-0.3-0.1c-0.2-0.1-0.4-0.2-0.4-0.4l0-0.1l0-1.7l0.8,0.5c0,0,0.1,0,0.2,0.1c0.1,0,0.3,0,0.4,0c0.2,0,0.4,0,0.5-0.2
		c0.2-0.2,0.2-0.7,0.2-1V21.1z M152.3,27.4v-6.3h1.9v9.8h-2l-3.6-6.1v6.1h-1.9v-9.8h1.9L152.3,27.4z M139.9,28.6h-3.6l-0.9,2.4h-2
		l4-9.8h1.7l3.9,9.8h-2L139.9,28.6z M127.3,25.2l-2.3,5.7h-1.5l-2.4-5.8v5.8h-1.9v-9.8h2.4l2.7,6.7l2.8-6.7h2.1v9.8h-1.9V25.2z"/>
</g>
</svg>
