<?xml version="1.0" encoding="utf-8"?>
<!-- Generator: Adobe Illustrator 27.0.0, SVG Export Plug-In . SVG Version: 6.00 Build 0)  -->
<svg version="1.1" id="Layer_1" xmlns:xodm="http://www.corel.com/coreldraw/odm/2003"
	 xmlns="http://www.w3.org/2000/svg" xmlns:xlink="http://www.w3.org/1999/xlink" x="0px" y="0px" viewBox="0 0 158 92.4"
	 style="enable-background:new 0 0 158 92.4;" xml:space="preserve">
<style type="text/css">
	.st0{fill:#E7B051;}
</style>
<g id="Layer_x0020_1">
	<g id="_2145704189872">
		<path class="st0" d="M0,74.3v-0.5h0.7c0.2,0,0.4-0.1,0.5-0.2c0.1-0.1,0.2-0.3,0.2-0.6v-8.5H0v-0.5h4.4L6.2,70l1.9-5.9h4.2v0.5
			h-1.3v9.2h1.3v0.5H7v-0.5h1.4v-9.1h0l-3,9.6H4.9l-3-9.7V73c0,0.3,0.1,0.5,0.2,0.6c0.1,0.1,0.3,0.2,0.6,0.2h0.7v0.5L0,74.3L0,74.3z
			"/>
		<path class="st0" d="M29.5,69.2c0,1.3,0,2.2,0.1,2.7c0,0.5,0.1,0.9,0.2,1.1c0.2,0.4,0.4,0.6,0.7,0.8c0.3,0.2,0.7,0.2,1.2,0.2
			c0.5,0,0.9-0.1,1.2-0.2c0.3-0.2,0.5-0.4,0.7-0.8c0.1-0.3,0.2-0.6,0.2-1.2c0-0.5,0.1-1.4,0.1-2.6c0-1.2,0-2.1-0.1-2.6
			c0-0.5-0.1-0.9-0.2-1.2c-0.2-0.4-0.4-0.6-0.7-0.8c-0.3-0.2-0.7-0.2-1.2-0.2c-0.5,0-0.9,0.1-1.2,0.2c-0.3,0.2-0.5,0.4-0.7,0.8
			c-0.1,0.2-0.2,0.6-0.2,1.1C29.5,67,29.5,67.9,29.5,69.2L29.5,69.2z M26.5,69.2c0-0.7,0.1-1.3,0.4-2c0.3-0.6,0.6-1.2,1.2-1.7
			c0.5-0.5,1.1-1,1.7-1.2c0.6-0.3,1.3-0.4,2-0.4c0.7,0,1.4,0.1,2,0.4c0.6,0.3,1.2,0.7,1.7,1.2c0.5,0.5,0.9,1.1,1.2,1.7
			c0.3,0.6,0.4,1.3,0.4,2c0,0.7-0.1,1.4-0.4,2c-0.3,0.6-0.7,1.2-1.2,1.7c-0.5,0.5-1.1,0.9-1.7,1.2c-0.6,0.3-1.3,0.4-2,0.4
			c-0.7,0-1.4-0.1-2-0.4c-0.6-0.3-1.2-0.7-1.7-1.2c-0.5-0.5-0.9-1.1-1.2-1.7C26.6,70.5,26.5,69.9,26.5,69.2z"/>
		<path class="st0" d="M51.3,74.3v-0.5h0.8c0.2,0,0.3,0,0.4-0.1c0.1-0.1,0.1-0.3,0.1-0.5v-8c0-0.2,0-0.4-0.1-0.4
			c-0.1-0.1-0.3-0.1-0.5-0.1h-0.6v-0.5h4.1l4.3,5.9v-4.6c0-0.3,0-0.5-0.1-0.6c-0.1-0.1-0.3-0.1-0.6-0.1h-0.7v-0.5h3.3v0.5H61
			c-0.3,0-0.4,0.1-0.5,0.2c-0.1,0.1-0.1,0.3-0.1,0.6v9.2h-0.4l-6.7-9.2v7.9c0,0.2,0.1,0.3,0.2,0.4c0.1,0.1,0.2,0.1,0.4,0.1h0.9v0.5
			L51.3,74.3L51.3,74.3z"/>
		<path class="st0" d="M78,70.9h2.8l-1.3-3.6L78,70.9z M75.3,74.3v-0.5h0.6c0.2,0,0.3-0.1,0.4-0.2c0.1-0.1,0.2-0.3,0.3-0.6l3.5-9.1
			h0.6l3.8,9.9h0.9v0.5h-4.9v-0.5h1.2l-0.9-2.4h-3.1l-0.7,1.7c0,0,0,0.1,0,0.1c0,0.1,0,0.1,0,0.2c0,0.1,0,0.2,0.1,0.2
			c0.1,0.1,0.2,0.1,0.3,0.1h0.9v0.5L75.3,74.3L75.3,74.3z"/>
		<path class="st0" d="M99.2,73.8h1.2v-9.2h-1.2v-0.5h5.7c1.2,0,2.1,0.2,2.7,0.6c0.6,0.4,0.9,0.9,0.9,1.7c0,0.7-0.3,1.3-0.9,1.7
			c-0.6,0.4-1.4,0.7-2.5,0.7v0.1c1.1,0.1,1.9,0.5,2.3,1c0.5,0.5,0.7,1.4,0.7,2.6c0,0.5,0,0.8,0.1,1c0.1,0.2,0.3,0.2,0.5,0.2
			c0.1,0,0.2,0,0.3,0c0.1,0,0.2-0.1,0.4-0.1l0.2,0.4c-0.3,0.1-0.7,0.3-1,0.3c-0.3,0.1-0.6,0.1-0.8,0.1c-0.4,0-0.8-0.1-1.2-0.2
			c-0.3-0.1-0.6-0.3-0.8-0.5c-0.4-0.4-0.6-1.3-0.7-2.5c0-0.2,0-0.3,0-0.4c0-0.7-0.2-1.2-0.5-1.5c-0.3-0.3-0.8-0.4-1.5-0.4h-0.3v4.7
			h1.3v0.5h-5.1L99.2,73.8L99.2,73.8z M102.9,68.5h1.3c0.6,0,1-0.1,1.2-0.4c0.2-0.2,0.3-0.8,0.3-1.5c0-1-0.1-1.6-0.3-1.8
			c-0.2-0.2-0.6-0.3-1.2-0.3h-1.3V68.5L102.9,68.5z"/>
		<path class="st0" d="M132.4,71.2v3.1h-0.5l-0.7-0.6c-0.3,0.3-0.7,0.5-1.1,0.6c-0.4,0.1-0.9,0.2-1.4,0.2c-0.7,0-1.3-0.1-1.9-0.4
			c-0.6-0.3-1.1-0.7-1.6-1.2c-0.5-0.5-0.9-1.1-1.1-1.7c-0.2-0.6-0.4-1.3-0.4-2c0-0.7,0.1-1.3,0.4-1.9c0.2-0.6,0.6-1.2,1.1-1.7
			c0.5-0.5,1-1,1.6-1.2c0.6-0.3,1.2-0.4,1.9-0.4c0.4,0,0.8,0.1,1.2,0.2c0.4,0.1,0.8,0.3,1.1,0.5l0.6-0.5h0.5l0.1,2.8h-0.5
			c-0.3-0.9-0.7-1.6-1.2-2c-0.5-0.4-1-0.6-1.7-0.6c-0.8,0-1.3,0.3-1.6,0.8c-0.3,0.5-0.4,1.8-0.4,3.9c0,1.1,0,1.9,0,2.4
			c0,0.5,0.1,0.9,0.1,1.2c0.1,0.5,0.3,0.9,0.6,1.1c0.3,0.2,0.7,0.3,1.2,0.3c0.7,0,1.4-0.3,1.9-0.8c0.6-0.5,0.9-1.2,1.1-2L132.4,71.2
			L132.4,71.2z"/>
		<polygon class="st0" points="146.9,74.3 146.9,73.8 148.2,73.8 148.2,64.5 146.9,64.5 146.9,64.1 152,64.1 152,64.5 150.7,64.5 
			150.7,68.7 154.2,68.7 154.2,64.5 152.9,64.5 152.9,64.1 158,64.1 158,64.5 156.7,64.5 156.7,73.8 158,73.8 158,74.3 152.9,74.3 
			152.9,73.8 154.2,73.8 154.2,69.3 150.7,69.3 150.7,73.8 152,73.8 152,74.3 		"/>
		<path class="st0" d="M57.8,12c0.4,0.7,1.2,1.4,1.6,2.1c0.5,0.9,0.2,1.9,0.1,2.7c0,0,0.1,0.4,0.3,0.7c0.1-0.8,0.2-1.6,0.4-2.5
			c0-0.7-0.3-1.2-0.4-1.3c-0.9-1-1.1-1.8-1-2.9c0-0.7,0.2-1.4,0.2-1.9c0.3,0.4,0.8,1,1.1,1.7c0.6,1,0.4,2,0.2,2.9
			c-0.1,0.2,0.1,0.5,0.1,0.9c0.3-0.9,0.5-1.8,0.8-2.7c-0.1-0.4-0.3-0.9-0.3-1.1c-0.2,0-0.3-0.1-0.4-0.3c-0.2-0.5,0.5-0.7,0.7-0.2
			c0.1,0.2,0,0.3,0,0.4c0.1,0.1,0.2,0.5,0.3,0.7c0.1-0.4,0.3-0.7,0.4-1.1c0-0.7,0-1.2,0.2-1.7c0.5-0.9,1.6-1.3,2.5-1.9
			c0,1.3,0,2.3-0.6,3c-0.3,0.3-0.7,0.5-1.2,0.7c-0.8,0.4-1.1,1.3-1.4,2.2c0.3-0.2,0.6-0.6,0.6-0.7c0.4-0.7,0.7-1.2,1.3-1.4
			c0.9-0.4,2.3-0.5,3.3-0.7c-0.4,0.6-1.2,1.8-1.9,2.3c-1,0.6-2.4,0.3-3.5,0.9c-0.1,0.4-0.3,0.8-0.4,1.3c0.2-0.2,0.5-0.3,0.6-0.4
			c0-0.4,0.5-0.8,0.8-0.3c0.3,0.4-0.2,0.9-0.6,0.6c-0.2,0.2-0.7,0.5-1,0.8c-0.2,1-0.4,2-0.5,2.9c0.3-0.1,0.5-0.5,0.5-0.6
			c0.1-0.9,0.3-1.6,0.8-2.1c0.6-0.7,1.4-0.9,2.5-1.5c-0.4,1.8-0.8,3.1-2.5,3.7c-0.3,0.1-0.8,0.6-1.3,1.1c0,0.8,0,1.7,0.2,2.6
			c0.7-1.1,0.3-2.4,1.5-3.2c0.8-0.5,1.8-1,2.6-1.4c-0.3,0.9-0.7,2.6-1.5,3.1c-0.8,0.8-1.9,1-2.5,1.9c0.1,0.7,0.4,1.7,0.6,2.5
			c0.1-0.3,0.4-0.7,0.4-0.8c-0.1-1.8,1-2.9,2.6-3.6c-0.1,1.6-0.2,3.3-1.8,3.9c-0.3,0.1-0.7,0.3-1.1,0.9c0.1,0.4,0.3,0.7,0.4,1.1
			c0-0.3,0-0.7,0.1-0.8c-0.1-0.1-0.2-0.3-0.2-0.5c0.1-0.5,0.8-0.2,0.8,0.3c0,0.2-0.2,0.3-0.3,0.3c-0.1,0.6-0.1,1.3,0.1,1.9
			c0.1-0.3,0.4-0.8,0.4-0.9c-0.2-1.8,1.2-2.8,2.5-3.5c0.1,1.7,0.1,3.1-1.7,3.8c-0.2,0.1-0.7,0.2-0.9,0.8c0.2,0.4,0.5,0.8,0.8,1.2
			c-0.1-0.4,0-0.8,0.1-1c-0.1-0.1-0.2-0.3-0.2-0.4c0.1-0.5,0.8-0.2,0.8,0.2c0,0.2-0.2,0.3-0.3,0.3c0,0.3-0.1,1.1,0,1.5
			c0.1,0.2,0.3,0.4,0.5,0.5c0.2-0.3,0.4-0.7,0.4-0.9c-0.1-1.8,0.9-2.9,2.4-3.3c0,1.6,0.3,3.6-1.5,3.8c-0.3,0-0.8,0.1-1.1,0.7
			c0.4,0.6,1.1,1.3,1.7,1.8c0.4-0.3,0.2-0.6,0.2-0.7c0-1.5,1.5-2.4,2.8-2.7c-0.1,1.5-0.1,3.1-1.8,3.3c-0.2,0-0.6-0.1-1,0.3
			c0.5,0.4,1,0.8,1.6,1.1c-0.1-0.2-0.1-0.4-0.1-0.6c-0.1-0.1-0.2-0.2-0.3-0.3c-0.1-0.4,0.6-0.5,0.7,0c0,0.2,0,0.3-0.2,0.3
			c0,0.2,0.1,0.5,0.2,0.8c0.2,0.1,0.4,0.2,0.6,0.3c0.2-0.2,0.2-0.6,0.2-0.7c-0.5-1.7,1.2-2.4,2.2-3c0.1,1.5,0.5,2.6-1.1,3.2
			c-0.1,0.1-0.4,0-0.6,0.2c-0.2,0.1-0.3,0.3-0.4,0.5c0.6,0.3,1.4,0.6,2,0.8c0.2-0.3,0.5-0.6,0.5-0.7c-0.3-1.3,0.8-2.2,2.3-2.6
			c-0.3,1.2-0.1,2.6-2,3c-0.2,0-0.4,0.4-0.5,0.5c2.7,0.6,11,2.6,13.3,3.6L84,38.7c-2.1-1-8.8-2.9-12.2-3.6c-0.2,0.3-0.1,0.8,0,0.9
			c1.3,1.4-0.1,2.7-1.1,3.8c-0.6-0.7-1.7-2.3-0.9-3.1c0.5-0.5,1.6-0.8,1.6-1.7c-0.3-0.1-0.8-0.2-1.1-0.3c-0.4,0.3-0.8,1-0.9,1.2
			c-0.2,0.8-0.4,1.3-0.8,1.6c-0.4,0.4-1,0.5-1.8,0.7c-0.5,0.1-1.2,0-1.9,0.1c0.4-1.2,0.7-2.1,1.5-2.6c1-0.7,1.9-0.2,2.9-0.5
			c0.3-0.1,0.5-0.4,0.8-0.6c-0.2-0.1-0.5-0.2-0.7-0.3c-0.4,0.1-0.8,0.2-1,0.3c0.1,0.2,0,0.3-0.2,0.4c-0.4,0.2-0.8-0.5-0.4-0.7
			c0.1-0.1,0.3,0,0.4,0.1c0.1-0.1,0.4-0.3,0.7-0.3c-0.1-0.1-0.3-0.1-0.4-0.2c-0.5,0.1-1,0.2-1.3,0.6c-1.3,1.6-3.9,0.9-5.8,0.5
			c1.3-1,2.7-2.6,4.9-1.7c0.2,0.1,0.5,0.4,0.9,0.4c0.2,0,0.6,0,0.9-0.1c-0.5-0.3-0.5-0.3-1-0.7c-0.4-0.2-1-0.3-1.3-0.3
			c0,0.2-0.2,0.3-0.4,0.3c-0.5-0.1-0.5-0.8,0-0.7c0.2,0,0.3,0.1,0.4,0.2c0.1,0,0.4,0,0.6,0.1c-0.2-0.1-0.3-0.3-0.5-0.4
			c-0.4,0-1.5,0.1-1.7,0.2c-1.6,1.4-3.9,0.6-5.8-0.3c1.6-1.2,3.1-2,5.2-0.8c0.2,0.1,0.6,0.4,1.1,0.5c0.2,0,0.6,0,0.9,0
			c-0.2-0.2-0.7-0.7-0.9-0.8c-0.4-0.2-0.8-0.3-1-0.3c-0.1,0.1-0.2,0.2-0.4,0.2c-0.5-0.1-0.4-0.9,0.1-0.7c0.2,0,0.3,0.2,0.3,0.3
			c0.1,0,0.3,0.1,0.5,0.1c-0.3-0.3-0.6-0.7-0.8-1c-0.4,0-0.9,0-1,0.1c-0.6,0.5-1.5,0.6-2.3,0.4c-1-0.3-2.3-0.8-3-1.2
			c1.4-0.8,2.9-1.3,4.6-0.2c0.1,0.1,0.5,0.4,0.7,0.5c0.2,0.1,0.4,0,0.7,0.1c-0.3-0.4-0.6-0.8-0.8-1.2c-0.4-0.2-1.2-0.6-1.4-0.6
			c-0.7,0-1.6,0.2-2.2,0c-1.1-0.3-1.4-1.2-3.1-1.7c1.4-0.1,3.2-0.9,4.4-0.1c0.3,0.2,0.7,0.6,1,1c0.2,0.2,0.5,0.7,1.1,0.9
			c0,0-0.9-1.9-1-2.1c-0.3-0.2-1.4-0.8-1.6-0.8c-0.8,0-1.5,0.2-2-0.1c-0.9-0.5-1.3-1.6-2.5-2.4c1.7,0.5,3.3-0.2,4.6,1.6
			c0.2,0.3,0.6,0.8,1.4,1.2c-0.1-0.3-0.2-0.7-0.3-1c-0.3-0.3-0.6-0.5-0.7-0.6c-0.1,0.1-0.3,0.1-0.5,0c-0.4-0.3,0-0.9,0.4-0.6
			c0.1,0.1,0.2,0.3,0.2,0.4c0.1,0.1,0.3,0.2,0.4,0.3c0-0.1-0.1-0.3-0.1-0.4c-0.2-0.2-1.1-0.9-1.3-0.9c-0.5,0-1-0.2-1.4-0.4
			c-1.1-0.6-1.7-2-2.2-3.1c1.9,0.3,2.6,0.7,3.1,1.3c0.3,0.4,0.4,1.1,0.8,1.7c0.2,0.3,0.5,0.5,0.9,0.7c-0.1-0.5-0.2-1.2-0.2-1.7
			c-0.3-0.4-0.8-0.8-0.9-0.9c-1.6-0.8-2.1-2.8-2.5-4.4c1.4,0.8,2.5,1.4,2.8,3c0.1,0.4,0.2,1.1,0.6,1.7c0-0.5-0.1-1.2,0-1.7
			c-0.1-0.3-0.3-1-0.4-1.1c-0.7-0.7-1.2-1.1-1.4-1.6C57.5,14.5,58.1,13.9,57.8,12L57.8,12z"/>
		<path class="st0" d="M100.2,12c-0.4,0.7-1.2,1.4-1.6,2.1c-0.5,0.9-0.2,1.9-0.1,2.7c0,0-0.1,0.4-0.3,0.7c-0.1-0.8-0.2-1.6-0.4-2.5
			c0-0.7,0.3-1.2,0.4-1.3c0.9-1,1.1-1.8,1-2.9c0-0.7-0.2-1.4-0.2-1.9c-0.3,0.4-0.8,1-1.1,1.7c-0.6,1-0.4,2-0.2,2.9
			c0.1,0.2-0.1,0.5-0.1,0.9c-0.3-0.9-0.5-1.8-0.8-2.7c0.1-0.4,0.3-0.9,0.4-1.1c0.2,0,0.3-0.1,0.4-0.3c0.2-0.5-0.5-0.7-0.7-0.2
			c-0.1,0.2,0,0.3,0,0.4c-0.1,0.1-0.2,0.5-0.3,0.7c-0.1-0.4-0.3-0.7-0.4-1.1c0-0.7,0-1.2-0.2-1.7c-0.5-0.9-1.6-1.3-2.5-1.9
			c0,1.3,0,2.3,0.6,3c0.3,0.3,0.7,0.5,1.2,0.7c0.8,0.4,1.1,1.3,1.4,2.2c-0.3-0.2-0.6-0.6-0.6-0.7c-0.4-0.7-0.7-1.2-1.3-1.4
			c-0.9-0.4-2.3-0.5-3.3-0.7c0.4,0.6,1.2,1.8,1.9,2.3c1,0.6,2.4,0.3,3.5,0.9c0.1,0.4,0.3,0.8,0.4,1.3c-0.2-0.2-0.5-0.3-0.6-0.4
			c0-0.4-0.5-0.8-0.8-0.3c-0.3,0.4,0.2,0.9,0.6,0.6c0.2,0.2,0.7,0.5,1,0.8c0.2,1,0.4,2,0.5,2.9c-0.3-0.1-0.5-0.5-0.5-0.6
			c-0.1-0.9-0.3-1.6-0.8-2.1c-0.6-0.7-1.4-0.9-2.5-1.5c0.4,1.8,0.8,3.1,2.5,3.7c0.3,0.1,0.8,0.6,1.3,1.1c0,0.8,0,1.7-0.1,2.6
			c-0.7-1.1-0.3-2.4-1.5-3.2c-0.8-0.5-1.8-1-2.6-1.4c0.3,0.9,0.7,2.6,1.5,3.1c0.8,0.8,1.9,1,2.5,1.9c-0.1,0.7-0.4,1.7-0.6,2.5
			c-0.1-0.3-0.4-0.7-0.4-0.8c0.1-1.8-1-2.9-2.6-3.6c0.1,1.6,0.2,3.3,1.8,3.9c0.3,0.1,0.7,0.3,1.1,0.9c-0.1,0.4-0.3,0.7-0.4,1.1
			c0-0.3,0-0.7-0.1-0.8c0.1-0.1,0.2-0.3,0.2-0.5c-0.1-0.5-0.8-0.2-0.8,0.3c0,0.2,0.2,0.3,0.3,0.3c0.1,0.6,0.1,1.3-0.1,1.9
			c-0.1-0.3-0.4-0.8-0.4-0.9c0.2-1.8-1.2-2.8-2.5-3.5c-0.1,1.7-0.1,3.1,1.7,3.8c0.2,0.1,0.7,0.2,0.9,0.8c-0.2,0.4-0.5,0.8-0.8,1.2
			c0.1-0.4,0-0.8-0.1-1c0.1-0.1,0.2-0.3,0.2-0.4c-0.1-0.5-0.8-0.2-0.8,0.2c0,0.2,0.2,0.3,0.3,0.3c0,0.3,0.1,1.1,0,1.5
			c-0.1,0.2-0.3,0.4-0.5,0.5c-0.2-0.3-0.4-0.7-0.4-0.9c0.1-1.8-0.9-2.9-2.4-3.3c0,1.6-0.3,3.6,1.5,3.8c0.3,0,0.8,0.1,1.1,0.7
			c-0.4,0.6-1.1,1.3-1.7,1.8c-0.4-0.3-0.2-0.6-0.2-0.7c0-1.5-1.5-2.4-2.8-2.7c0.1,1.5,0.1,3.1,1.8,3.3c0.2,0,0.6-0.1,1,0.3
			c-0.5,0.4-1,0.8-1.6,1.1c0.1-0.2,0.1-0.4,0.1-0.6c0.1-0.1,0.2-0.2,0.3-0.3c0.1-0.4-0.6-0.5-0.7,0c0,0.2,0,0.3,0.2,0.3
			c0,0.2-0.1,0.5-0.2,0.8c-0.2,0.1-0.4,0.2-0.6,0.3c-0.2-0.2-0.2-0.6-0.2-0.7c0.5-1.7-1.2-2.4-2.2-3c-0.1,1.5-0.5,2.6,1.1,3.2
			c0.1,0.1,0.4,0,0.6,0.2c0.2,0.1,0.3,0.3,0.4,0.5c-0.6,0.3-1.4,0.6-2,0.8c-0.2-0.3-0.5-0.6-0.5-0.7c0.3-1.3-0.8-2.2-2.3-2.6
			c0.3,1.2,0.1,2.6,2,3c0.2,0,0.4,0.4,0.5,0.5c-2.7,0.6-11,2.6-13.3,3.6l0.3,0.8c2.1-1,8.8-2.9,12.1-3.6c0.2,0.3,0.1,0.8,0,0.9
			c-1.3,1.4,0,2.7,1.1,3.8c0.6-0.7,1.7-2.3,0.9-3.1c-0.5-0.5-1.6-0.8-1.6-1.7c0.3-0.1,0.8-0.2,1.1-0.3c0.4,0.3,0.8,1,0.9,1.2
			c0.2,0.8,0.4,1.3,0.8,1.6c0.4,0.4,1,0.5,1.8,0.7c0.5,0.1,1.2,0,1.9,0.1c-0.4-1.2-0.7-2.1-1.5-2.6c-1-0.7-1.9-0.2-2.9-0.5
			c-0.3-0.1-0.5-0.4-0.8-0.6c0.2-0.1,0.5-0.2,0.7-0.3c0.4,0.1,0.8,0.2,1,0.3c-0.1,0.2,0,0.3,0.2,0.4c0.4,0.2,0.8-0.5,0.4-0.7
			c-0.1-0.1-0.3,0-0.4,0.1c-0.1-0.1-0.4-0.3-0.7-0.3c0.1-0.1,0.3-0.1,0.4-0.2c0.5,0.1,1,0.2,1.3,0.6c1.3,1.6,3.9,0.9,5.8,0.5
			c-1.3-1-2.7-2.6-4.9-1.7c-0.2,0.1-0.5,0.4-0.9,0.4c-0.2,0-0.6,0-0.9-0.1c0.5-0.3,0.5-0.3,1-0.7c0.4-0.2,1-0.3,1.3-0.3
			c0,0.2,0.2,0.3,0.4,0.3c0.5-0.1,0.5-0.8,0-0.7c-0.2,0-0.3,0.1-0.4,0.2c-0.1,0-0.4,0-0.6,0.1c0.2-0.1,0.3-0.3,0.5-0.4
			c0.4,0,1.5,0.1,1.7,0.2c1.6,1.4,3.9,0.6,5.8-0.3c-1.6-1.2-3.1-2-5.2-0.8c-0.2,0.1-0.6,0.4-1.1,0.5c-0.2,0-0.6,0-0.9,0
			c0.2-0.2,0.7-0.7,0.9-0.8c0.4-0.2,0.8-0.3,1-0.3c0.1,0.1,0.2,0.2,0.4,0.2c0.5-0.1,0.4-0.9-0.1-0.7c-0.2,0-0.3,0.2-0.3,0.3
			c-0.1,0-0.3,0.1-0.5,0.1c0.3-0.3,0.6-0.7,0.8-1c0.4,0,0.9,0,1,0.1c0.6,0.5,1.5,0.6,2.3,0.4c1-0.3,2.3-0.8,3-1.2
			c-1.4-0.8-2.9-1.3-4.6-0.2c-0.1,0.1-0.5,0.4-0.7,0.5c-0.2,0.1-0.4,0-0.7,0.1c0.3-0.4,0.6-0.8,0.8-1.2c0.4-0.2,1.2-0.6,1.4-0.6
			c0.7,0,1.6,0.2,2.2,0c1.1-0.3,1.4-1.2,3.1-1.7c-1.4-0.1-3.2-0.9-4.4-0.1c-0.3,0.2-0.7,0.6-1,1c-0.2,0.2-0.5,0.7-1.1,0.9
			c0,0,0.9-1.9,1-2.1c0.3-0.2,1.4-0.8,1.6-0.8c0.8,0,1.5,0.2,2-0.1c0.9-0.5,1.3-1.6,2.5-2.4c-1.7,0.5-3.3-0.2-4.6,1.6
			c-0.2,0.3-0.6,0.8-1.4,1.2c0.1-0.3,0.2-0.7,0.3-1c0.3-0.3,0.6-0.5,0.7-0.6c0.1,0.1,0.3,0.1,0.5,0c0.4-0.3,0-0.9-0.4-0.6
			c-0.1,0.1-0.2,0.3-0.2,0.4c-0.1,0.1-0.3,0.2-0.4,0.3c0-0.1,0.1-0.3,0.1-0.4c0.2-0.2,1.1-0.9,1.3-0.9c0.5,0,1-0.2,1.4-0.4
			c1.1-0.6,1.7-2,2.2-3.1c-1.9,0.3-2.6,0.7-3.1,1.3c-0.3,0.4-0.4,1.1-0.8,1.7c-0.2,0.3-0.5,0.5-0.9,0.7c0.1-0.5,0.2-1.2,0.2-1.7
			c0.3-0.4,0.8-0.8,0.9-0.9c1.6-0.8,2.1-2.8,2.5-4.4c-1.4,0.8-2.5,1.4-2.8,3c-0.1,0.4-0.2,1.1-0.6,1.7c0-0.5,0.1-1.2,0-1.7
			c0.1-0.3,0.3-1,0.4-1.1c0.7-0.7,1.2-1.1,1.4-1.6C100.4,14.5,99.9,13.9,100.2,12L100.2,12z"/>
		<path class="st0" d="M68.9,22.9h20v0.7h-20V22.9z M73.8,11.6c-0.2,0.1-0.5,0.1-0.7,0.2c-0.2,0.1-0.5,0.1-0.7,0.2
			c-0.2,0.1-0.4,0.1-0.6,0.2c-0.2,0.1-0.4,0.1-0.6,0.2v0.9c0.2-0.1,0.4-0.1,0.6-0.2c0.2,0,0.4-0.1,0.6-0.2c0.2-0.1,0.5-0.1,0.7-0.2
			c0.2-0.1,0.5-0.1,0.7-0.2C73.8,12.6,73.8,11.6,73.8,11.6z M73.8,13.4c-0.2,0.1-0.5,0.1-0.7,0.2c-0.2,0.1-0.5,0.1-0.7,0.2
			c-0.2,0-0.4,0.1-0.6,0.1c-0.2,0-0.4,0.1-0.6,0.1v0.9c0.2,0,0.4-0.1,0.6-0.1c0.2,0,0.4-0.1,0.6-0.1c0.2,0,0.5-0.1,0.7-0.1
			c0.2,0,0.5-0.1,0.7-0.1C73.8,14.3,73.8,13.4,73.8,13.4z M73.8,15.2c-0.2,0-0.5,0.1-0.7,0.1c-0.2,0-0.5,0.1-0.7,0.1
			c-0.2,0-0.4,0.1-0.6,0.1c-0.2,0-0.4,0.1-0.6,0.1v0.9c0.2,0,0.4-0.1,0.6-0.1c0.2,0,0.4-0.1,0.6-0.1c0.2,0,0.5-0.1,0.7-0.1
			c0.2,0,0.5-0.1,0.7-0.1C73.8,16.1,73.8,15.2,73.8,15.2z M73.8,16.9c-0.2,0-0.5,0.1-0.7,0.1c-0.2,0-0.5,0.1-0.7,0.1
			c-0.2,0-0.4,0.1-0.6,0.1c-0.2,0-0.4,0.1-0.6,0.1v0.9c0.2,0,0.4,0,0.6-0.1c0.2,0,0.4,0,0.6-0.1c0.2,0,0.5,0,0.7-0.1
			c0.2,0,0.5,0,0.7-0.1C73.8,17.9,73.8,16.9,73.8,16.9z M73.8,20.5c-0.2,0-0.5,0-0.7,0c-0.2,0-0.5,0-0.7,0c-0.2,0-0.4,0-0.6,0
			c-0.2,0-0.4,0-0.6,0v0.9h0.6h0.6h0.7h0.7C73.8,21.4,73.8,20.5,73.8,20.5z M73.8,18.7c-0.2,0-0.5,0-0.7,0.1c-0.2,0-0.5,0-0.7,0.1
			c-0.2,0-0.4,0-0.6,0.1c-0.2,0-0.4,0-0.6,0v0.9c0.2,0,0.4,0,0.6,0c0.2,0,0.4,0,0.6,0c0.2,0,0.5,0,0.7,0c0.2,0,0.5,0,0.7,0V18.7
			L73.8,18.7z M73.8,8.1v0.9c-0.2,0.1-0.5,0.2-0.7,0.2c-0.2,0.1-0.5,0.2-0.7,0.2c-0.2,0.1-0.4,0.1-0.6,0.2c-0.2,0.1-0.4,0.1-0.6,0.2
			V9.1c0.2-0.1,0.4-0.2,0.6-0.2c0.2-0.1,0.4-0.2,0.6-0.2c0.2-0.1,0.5-0.2,0.7-0.3C73.4,8.3,73.6,8.2,73.8,8.1L73.8,8.1z M82.8,2.9
			c-0.5,0.3-0.9,0.5-1.4,0.7l-0.8,0.4V5l0.8-0.4c0.5-0.2,0.9-0.5,1.4-0.7C82.8,3.8,82.8,2.9,82.8,2.9z M82.8,4.7
			c-0.5,0.2-0.9,0.5-1.4,0.7l-0.8,0.4v0.9l0.8-0.4c0.5-0.2,0.9-0.4,1.4-0.6V4.7L82.8,4.7z M82.8,6.4c-0.5,0.2-0.9,0.4-1.4,0.6
			l-0.8,0.4v0.9l0.8-0.3c0.5-0.2,0.9-0.4,1.4-0.6V6.4L82.8,6.4z M82.8,8.2c-0.5,0.2-0.9,0.4-1.4,0.5L80.6,9v0.9l0.8-0.3
			c0.5-0.2,0.9-0.3,1.4-0.5V8.2L82.8,8.2z M82.8,10c-0.5,0.2-0.9,0.3-1.4,0.5l-0.8,0.3v0.9l0.8-0.3c0.5-0.1,0.9-0.3,1.4-0.4V10
			L82.8,10z M82.8,11.7c-0.5,0.1-0.9,0.3-1.4,0.4l-0.8,0.2v0.9l0.8-0.2c0.5-0.1,0.9-0.2,1.4-0.3V11.7L82.8,11.7z M82.8,13.5
			c-0.5,0.1-0.9,0.2-1.4,0.3L80.6,14v0.9l0.8-0.2c0.5-0.1,0.9-0.2,1.4-0.3V13.5z M82.8,15.3c-0.5,0.1-0.9,0.2-1.4,0.2l-0.8,0.2v0.9
			l0.8-0.1c0.5-0.1,0.9-0.1,1.4-0.2C82.8,16.2,82.8,15.3,82.8,15.3z M82.8,17c-0.5,0.1-0.9,0.1-1.4,0.2l-0.8,0.1v0.9l0.8-0.1
			c0.5,0,0.9-0.1,1.4-0.1V17L82.8,17z M82.8,20.5c-0.5,0-0.9,0-1.4,0l-0.8,0v0.9h0.8h1.4C82.8,21.5,82.8,20.5,82.8,20.5z M82.8,18.8
			c-0.5,0-0.9,0.1-1.4,0.1L80.6,19v0.9l0.8,0c0.5,0,0.9,0,1.4-0.1V18.8z M76,9.3c0.2,0.1,0.4,0.1,0.6,0.2c0.2,0.1,0.4,0.1,0.7,0.2
			l0.1,0V8.7l-0.1,0c-0.2-0.1-0.4-0.1-0.7-0.2c-0.2-0.1-0.4-0.1-0.6-0.2V9.3z M76,11c0.2,0,0.4,0.1,0.6,0.1c0.2,0,0.4,0.1,0.7,0.1
			l0.1,0v-0.9l-0.1,0c-0.2-0.1-0.4-0.1-0.7-0.2c-0.2,0-0.4-0.1-0.6-0.1C76,10.1,76,11,76,11z M76,12.7c0.2,0,0.4,0.1,0.6,0.1
			c0.2,0,0.4,0.1,0.7,0.1l0.1,0v-0.9l-0.1,0c-0.2,0-0.4-0.1-0.7-0.1L76,11.8V12.7z M76,14.5c0.2,0,0.4,0.1,0.6,0.1
			c0.2,0,0.4,0.1,0.7,0.1l0.1,0v-0.9l-0.1,0c-0.2,0-0.4-0.1-0.7-0.1c-0.2,0-0.4-0.1-0.6-0.1V14.5L76,14.5z M76,16.2l0.6,0.1
			c0.2,0,0.4,0.1,0.7,0.1l0.1,0v-0.9l-0.1,0c-0.2,0-0.4-0.1-0.7-0.1c-0.2,0-0.4-0.1-0.6-0.1V16.2L76,16.2z M76,17.9
			c0.2,0,0.4,0,0.6,0c0.2,0,0.4,0,0.7,0l0.1,0v-0.9l-0.1,0c-0.2,0-0.4,0-0.7-0.1c-0.2,0-0.4,0-0.6-0.1V17.9L76,17.9z M76,19.7
			c0.2,0,0.4,0,0.6,0c0.2,0,0.4,0,0.7,0l0.1,0v-0.9l-0.1,0c-0.2,0-0.4,0-0.7,0c-0.2,0-0.4,0-0.6,0V19.7L76,19.7z M76,21.4h0.6h0.7
			h0.1v-0.9l-0.1,0c-0.2,0-0.4,0-0.7,0c-0.2,0-0.4,0-0.6,0V21.4L76,21.4z M84.7,21.4v1.2h-0.8V1.1l-4.1,2.3v19.2H79h0h-0.8V7.4
			l-2.7-1v16.2h-0.8v-16l-4.3,1.7v14.3h-0.8V8V7.7l0.3-0.1l5.1-2l0.6,0l3.2,1.2l0.2,0.1V3.2V2.9l0.2-0.1l4.7-2.6L84.3,0l0.4,0.2
			l3.4,1.9l0.2,0.1v0.2v20.1h-0.8V2.7l-2.8-1.6v1.9l0.9,0.5C86,3.8,86.4,4,86.8,4.2v0.9c-0.4-0.2-0.8-0.4-1.3-0.6L84.7,4v0.8
			l0.9,0.4c0.4,0.2,0.9,0.4,1.3,0.6v0.9c-0.4-0.2-0.8-0.4-1.3-0.6l-0.9-0.4v0.8l0.9,0.4c0.4,0.2,0.9,0.4,1.3,0.6v0.9
			C86.4,8.2,86,8,85.6,7.8l-0.9-0.3v0.8l0.9,0.3C86,8.8,86.4,9,86.8,9.1V10c-0.4-0.1-0.8-0.3-1.3-0.5l-0.9-0.3V10l0.9,0.3
			c0.4,0.1,0.9,0.3,1.3,0.4v0.9c-0.4-0.1-0.8-0.3-1.3-0.4L84.7,11v0.8l0.9,0.2c0.4,0.1,0.9,0.2,1.3,0.4v0.9
			c-0.4-0.1-0.8-0.2-1.3-0.3l-0.9-0.2v0.8l0.9,0.2c0.4,0.1,0.9,0.2,1.3,0.3v0.9c-0.4-0.1-0.8-0.2-1.3-0.3l-0.9-0.2v0.8l0.9,0.1
			c0.4,0.1,0.9,0.2,1.3,0.2v0.9c-0.4-0.1-0.8-0.1-1.3-0.2l-0.9-0.1V17l0.9,0.1c0.4,0.1,0.9,0.1,1.3,0.2v0.9c-0.4,0-0.8-0.1-1.3-0.1
			l-0.9-0.1v0.8l0.9,0.1c0.4,0,0.9,0.1,1.3,0.1v0.9c-0.4,0-0.8,0-1.3-0.1l-0.9,0v0.8l0.9,0c0.4,0,0.9,0,1.3,0v0.9h-1.3L84.7,21.4
			L84.7,21.4z M73.8,9.9c-0.2,0.1-0.5,0.1-0.7,0.2c-0.2,0.1-0.5,0.2-0.7,0.2c-0.2,0.1-0.4,0.1-0.6,0.2c-0.2,0.1-0.4,0.1-0.6,0.2v0.9
			c0.2-0.1,0.4-0.1,0.6-0.2c0.2-0.1,0.4-0.1,0.6-0.2c0.2-0.1,0.5-0.1,0.7-0.2c0.2-0.1,0.5-0.1,0.7-0.2V9.9z"/>
		<polygon class="st0" points="31.3,52.8 31.3,48.1 29.7,51.5 28.9,51.5 27.3,48.1 27.3,52.8 26.2,52.8 26.2,45.8 27.3,45.8 
			29.3,50.1 31.3,45.8 32.4,45.8 32.4,52.8 		"/>
		<path class="st0" d="M44.5,47.4l-1.1,3.1h2.2L44.5,47.4L44.5,47.4z M46.3,52.8l-0.5-1.4h-2.8l-0.5,1.4h-1.1l2.6-7h0.9l2.6,7H46.3
			L46.3,52.8z"/>
		<polygon class="st0" points="60.9,52.8 57.6,47.9 57.6,52.8 56.5,52.8 56.5,45.8 57.5,45.8 60.8,50.7 60.8,45.8 61.8,45.8 
			61.8,52.8 		"/>
		<path class="st0" d="M75,50.6c0,0.4-0.1,0.7-0.2,1c-0.1,0.3-0.3,0.5-0.5,0.7c-0.2,0.2-0.5,0.3-0.7,0.4c-0.3,0.1-0.6,0.2-0.9,0.2
			c-0.4,0-0.7-0.1-0.9-0.2c-0.3-0.1-0.5-0.3-0.8-0.5l0.7-0.7c0.1,0.1,0.3,0.2,0.4,0.3c0.1,0.1,0.3,0.1,0.6,0.1
			c0.4,0,0.7-0.1,0.9-0.4c0.2-0.2,0.3-0.6,0.3-1v-4.7H75L75,50.6L75,50.6z"/>
		<polygon class="st0" points="84.8,52.8 84.8,45.8 89.3,45.8 89.3,46.7 85.9,46.7 85.9,48.8 88.8,48.8 88.8,49.7 85.9,49.7 
			85.9,51.8 89.3,51.8 89.3,52.8 		"/>
		<polygon class="st0" points="98.9,52.8 98.9,45.8 103.3,45.8 103.3,46.7 99.9,46.7 99.9,48.8 102.8,48.8 102.8,49.7 99.9,49.7 
			99.9,51.8 103.3,51.8 103.3,52.8 		"/>
		<path class="st0" d="M116.7,47.8c0-0.3-0.1-0.6-0.3-0.8c-0.2-0.2-0.5-0.3-0.9-0.3H114v2.2h1.6c0.4,0,0.6-0.1,0.9-0.3
			C116.6,48.5,116.7,48.2,116.7,47.8z M116.8,52.8l-1.5-3H114v3h-1.1v-7h2.7c0.3,0,0.6,0.1,0.9,0.2c0.3,0.1,0.5,0.2,0.7,0.4
			c0.2,0.2,0.3,0.4,0.4,0.7c0.1,0.3,0.2,0.5,0.2,0.8c0,0.5-0.1,0.9-0.4,1.2c-0.3,0.3-0.6,0.5-1,0.6l1.6,3.1L116.8,52.8L116.8,52.8z"
			/>
		<path class="st0" d="M129.6,47.4l-1.1,3.1h2.2L129.6,47.4L129.6,47.4z M131.5,52.8l-0.5-1.4h-2.8l-0.5,1.4h-1.1l2.6-7h0.9l2.6,7
			H131.5L131.5,52.8z"/>
		<polygon class="st0" points="18.2,92.3 18.2,84.8 19.3,84.8 19.3,91.3 22.9,91.3 22.9,92.3 		"/>
		<polygon class="st0" points="26.9,84.8 28.1,84.8 28.1,92.3 26.9,92.3 		"/>
		<polygon class="st0" points="35.2,92.3 34.3,92.3 31.9,84.8 33,84.8 34.8,90.3 36.5,84.8 37.7,84.8 		"/>
		<polygon class="st0" points="41.5,92.3 41.5,84.8 46.3,84.8 46.3,85.9 42.6,85.9 42.6,88.1 45.7,88.1 45.7,89.1 42.6,89.1 
			42.6,91.3 46.3,91.3 46.3,92.3 		"/>
		<polygon class="st0" points="55.8,92.3 55.8,84.8 57,84.8 57,91.3 60.6,91.3 60.6,92.3 		"/>
		<polygon class="st0" points="64.6,84.8 65.7,84.8 65.7,92.3 64.6,92.3 		"/>
		<polygon class="st0" points="75,92.3 72.8,88.6 71.6,90.2 71.6,92.3 70.4,92.3 70.4,84.8 71.6,84.8 71.6,88.6 74.6,84.8 76,84.8 
			73.6,87.8 76.3,92.3 		"/>
		<polygon class="st0" points="80.1,92.3 80.1,84.8 84.9,84.8 84.9,85.9 81.3,85.9 81.3,88.1 84.4,88.1 84.4,89.1 81.3,89.1 
			81.3,91.3 84.9,91.3 84.9,92.3 		"/>
		<path class="st0" d="M98.8,92.3l-0.5-1.5h-3l-0.5,1.5h-1.2l2.8-7.5h0.9l2.8,7.5H98.8L98.8,92.3z M96.8,86.5l-1.2,3.3H98L96.8,86.5
			z"/>
		<polygon class="st0" points="113.6,92.3 111.5,88.6 110.2,90.2 110.2,92.3 109.1,92.3 109.1,84.8 110.2,84.8 110.2,88.6 
			113.3,84.8 114.7,84.8 112.2,87.8 114.9,92.3 		"/>
		<polygon class="st0" points="118.7,84.8 119.9,84.8 119.9,92.3 118.7,92.3 		"/>
		<polygon class="st0" points="129.2,92.3 125.7,87.1 125.7,92.3 124.6,92.3 124.6,84.8 125.6,84.8 129.1,90.1 129.1,84.8 
			130.2,84.8 130.2,92.3 		"/>
		<path class="st0" d="M139.4,91.6c-0.6,0.6-1.3,0.9-2.1,0.9c-0.8,0-1.5-0.3-2-0.8c-0.7-0.7-0.7-1.6-0.7-3c0-1.4,0-2.3,0.7-3
			c0.5-0.5,1.2-0.8,2-0.8c1.6,0,2.5,1,2.7,2.3h-1.1c-0.2-0.8-0.7-1.3-1.6-1.3c-0.4,0-0.8,0.2-1.1,0.5c-0.4,0.4-0.5,0.8-0.5,2.3
			c0,1.5,0.1,1.9,0.5,2.3c0.3,0.3,0.7,0.5,1.1,0.5c0.5,0,0.9-0.2,1.2-0.5c0.3-0.3,0.4-0.7,0.4-1.2v-0.4h-1.6v-1h2.7v1.2
			C140.1,90.4,139.9,91,139.4,91.6L139.4,91.6z"/>
	</g>
</g>
</svg>
