<?xml version="1.0" encoding="UTF-8"?>
<!DOCTYPE svg PUBLIC "-//W3C//DTD SVG 1.1//EN" "http://www.w3.org/Graphics/SVG/1.1/DTD/svg11.dtd">
<!-- Creator: CorelDRAW 2020 (64-Bit) -->
<svg xmlns="http://www.w3.org/2000/svg" xml:space="preserve" width="53.1009mm" height="60.6781mm" version="1.1" style="shape-rendering:geometricPrecision; text-rendering:geometricPrecision; image-rendering:optimizeQuality; fill-rule:evenodd; clip-rule:evenodd"
viewBox="0 0 1524.95 1742.55"
 xmlns:xlink="http://www.w3.org/1999/xlink"
 xmlns:xodm="http://www.corel.com/coreldraw/odm/2003">
 <defs>
  <style type="text/css">
   <![CDATA[
    .fil0 {fill:#22408C;fill-rule:nonzero}
    .fil2 {fill:#231F20;fill-rule:nonzero}
    .fil1 {fill:#DC1E3D;fill-rule:nonzero}
   ]]>
  </style>
 </defs>
 <g id="Layer_x0020_1">
  <metadata id="CorelCorpID_0Corel-Layer"/>
  <g id="_2145739431152">
   <polygon class="fil0" points="303.11,551.73 138.92,0 0.01,0 0.01,820.94 123.74,820.94 123.74,295.25 293.94,820.94 426.84,820.94 426.84,0 303.11,0 "/>
   <polygon class="fil0" points="500.57,820.94 852.77,820.94 852.77,696.56 624.3,696.56 624.3,472.67 791.23,472.67 791.23,348.28 624.3,348.28 624.3,124.39 852.77,124.39 852.77,0 500.57,0 "/>
   <polygon class="fil0" points="1401.22,0 1401.22,575.11 1287.54,349.26 1225.68,349.58 1163.81,349.26 1050.13,575.11 1050.13,0.66 926.41,0 926.41,820.94 1050.13,820.94 1225.68,472.65 1401.22,820.94 1524.95,820.94 1524.95,0.66 "/>
   <polygon class="fil0" points="193.6,1105.18 115.72,854.84 -0,854.84 140.75,1260.39 140.75,1552.44 245.89,1552.44 245.89,1260.39 387.19,854.84 270.93,854.84 "/>
   <path class="fil0" d="M567.74 846.49c-45.62,0 -84.75,16.23 -117.38,48.68 -32.64,32.45 -48.95,71.86 -48.95,118.21l0 380.51c0,45.99 16.13,85.3 48.4,117.94 32.27,32.64 71.57,48.96 117.94,48.96 45.98,0 85.29,-16.23 117.93,-48.68 32.63,-32.45 48.96,-71.85 48.96,-118.22l0 -380.51c0,-45.97 -16.23,-85.29 -48.67,-117.94 -32.46,-32.62 -71.86,-48.95 -118.22,-48.95z"/>
   <path class="fil0" d="M1024.85 1125.21c0,16.7 -5.85,30.97 -17.53,42.83 -11.68,11.87 -25.87,17.8 -42.56,17.8l-63.41 0 0 -223.08 63.41 0c40.06,0 60.09,20.22 60.09,60.64l0 101.81zm102.35 -2.22l0 -101.25c0,-50.43 -12.06,-89.75 -36.16,-117.94 -27.45,-32.27 -70.46,-48.4 -129.06,-48.4l-165.77 0 0 697.05 105.14 0 0 -262.58 60.64 0 9.45 0 63.75 262.58 113.7 0 -77.88 -304.31c37.45,-34.11 56.19,-75.83 56.19,-125.16z"/>
   <polygon class="fil0" points="1524.92,854.84 1419.78,854.84 1307.53,1075.28 1307.53,854.84 1202.4,854.84 1202.4,1552.44 1307.53,1552.44 1307.53,1332 1419.78,1552.44 1524.92,1552.44 1347.31,1203.64 "/>
   <path class="fil1" d="M549.8 1061.36c-0.21,2.64 -0.39,4.97 -0.61,7.8 -3.92,0.66 -7.86,1.35 -11.82,1.98 -5.78,0.92 -11.57,1.76 -17.33,2.75 -1.7,0.28 -2.61,-0.07 -3.85,-1.49 -2.17,-2.47 -4.69,-4.98 -7.59,-6.38 -4.65,-2.24 -4.32,-5.9 -4.32,-10.19 15.32,1.86 30.31,3.69 45.53,5.54zm3.03 23.42c-0.35,4.03 -1.06,8.04 -1.59,12.07 -0.67,5.13 -0.97,10.21 1.07,15.17 0.26,0.63 0.07,1.63 -0.26,2.27 -2.88,5.48 -5.84,10.92 -8.77,16.37 -5.02,-4.42 -9.9,-8.77 -14.85,-13.05 -1.23,-1.04 -1.68,-2.05 -1.37,-3.69 0.67,-3.64 1.06,-7.33 1.63,-10.97 0.54,-3.46 -0.47,-6.32 -3.01,-8.73 -3.69,-3.47 -5.84,-7.71 -6.17,-13.11 1.2,-0.08 2.23,-0.21 3.27,-0.21 8.83,-0.01 17.67,-0.01 26.5,0.01 3.07,0 3.84,0.68 3.54,3.88zm-155.43 -279c0.74,0.53 1.66,1.29 1.81,2.07 0.69,3.61 1.13,7.25 1.66,10.8 -2.13,0.89 -3.96,1.47 -5.61,2.38 -2.84,1.57 -3.07,3.36 -0.96,5.76 0.63,0.72 1.54,1.29 1.91,2.11 1.84,4.08 5.45,5.04 9.34,5.6 1.71,0.25 3.42,0.55 5.21,0.83 -1.67,6.78 0.06,12.05 4.93,16.28 2.07,1.8 4.22,3.52 6.31,5.3 0.68,0.57 1.3,1.21 2.23,2.1 -1.03,0.46 -1.63,0.82 -2.27,0.97 -6.32,1.56 -8.6,5.31 -6.6,11.31 0.54,1.6 0.52,2.8 -0.18,4.35 -1.7,3.75 -1.09,5.69 2.2,8.44 1.34,1.11 2.69,2.21 4.1,3.37 -3.41,2.07 -4.61,4.48 -3.65,7.45 0.4,1.21 1.31,2.25 1.96,3.38 1.53,2.69 3.57,5.22 4.45,8.1 1.43,4.66 2.08,9.55 3.18,14.9 -3.41,-0.13 -4.06,1.77 -4,4.16 0.1,4.18 0.09,8.38 0.52,12.53 0.14,1.32 1.27,3.01 2.42,3.64 1.77,0.97 2.18,2.24 2.49,3.98 0.81,4.46 1.54,8.97 2.83,13.31 0.72,2.4 1.98,5.3 3.92,6.56 4.12,2.67 4.53,6.36 4.57,10.5 0.02,1.44 0.03,2.87 0.12,4.3 0.78,12.77 1.31,25.56 2.44,38.3 1.42,15.72 5.86,30.71 12.39,45.08 0.92,2.04 1.53,4.28 1.88,6.48 0.7,4.6 0.81,9.3 1.77,13.83 0.82,3.94 0.87,7.42 -1.49,10.88 -1.4,2.05 -2.32,4.44 -3.39,6.72 -7.12,15.3 -14.02,30.68 -16.16,47.68 -1.58,12.59 -1.23,25.07 2.54,37.28 2.54,8.22 7.7,12.09 16.31,12.62 2.22,0.14 4.46,0.02 7.05,0.02 -0.58,1.52 -1.06,2.59 -1.39,3.71 -0.96,3.32 -2.21,6.61 -2.72,9.99 -0.74,4.91 1.89,7.37 6.89,6.99 1.51,-0.11 3.01,-0.41 4.99,-0.7 0.82,3.06 2.15,5.88 2.21,8.74 0.12,5.48 -0.57,10.98 -0.75,16.48 -0.36,10.64 -0.57,21.27 -0.91,31.91 -0.13,4.03 1.02,7.46 3.65,10.55 3.54,4.2 6.63,8.81 10.37,12.83 5.56,5.97 8.93,12.79 10.26,20.83 0.47,2.81 0.63,4.95 -1.76,6.96 -1.34,1.11 -2.27,2.75 -3.27,4.24 -6.78,10 -11.04,21.16 -14.82,32.52 -4.49,13.49 -9.41,26.86 -10.69,41.19 -0.83,9.41 0.57,18.4 4.84,26.82 4.11,8.12 10.34,13.05 20.02,12.15 0.18,-0.02 0.38,0.23 0.76,0.49 -0.29,1.19 -0.56,2.46 -0.91,3.7 -2.98,10.21 -5.89,20.44 -8.99,30.62 -4.59,15.05 -7.73,30.34 -8.02,46.14 -0.04,2.37 0.14,4.68 0.63,6.91 27.16,19.01 58.4,28.57 93.77,28.57 45.97,0 85.3,-16.22 117.94,-48.68 32.63,-32.45 48.95,-71.85 48.95,-118.21l0 -112.87c-0.26,-0.58 -0.65,-1.03 -0.83,-1.71 -1.44,-5.43 -3.31,-10.73 -4.9,-16.12 -5.93,-20.05 -15.57,-38.25 -27.43,-55.36 -3.82,-5.52 -9.1,-8.27 -15.66,-8.85 -0.69,-0.06 -1.38,-0.18 -2.2,-0.3 0,-1.21 -0.02,-2.26 0,-3.3 0.1,-4.04 -0.4,-4.73 -4.3,-5.71 -0.69,-0.17 -1.38,-0.45 -2.09,-0.51 -3.42,-0.28 -5.38,-2.29 -6.41,-5.39 -2.2,-6.57 -4.37,-13.15 -6.59,-19.7 -0.96,-2.87 -1.53,-5.58 -0.4,-8.67 0.73,-2.02 0.32,-4.46 0.45,-6.71 0.12,-2.11 0.67,-4.29 0.32,-6.31 -1.57,-8.83 -3.12,-17.67 -5.22,-26.37 -2.63,-10.96 -3.52,-21.9 -1.55,-33.04 0.28,-1.6 0.55,-3.21 0.83,-4.84 20.12,-2.32 39.92,-4.59 59.71,-6.87 0,-0.22 -0.01,-0.46 -0.01,-0.68 -20.21,-1.48 -40.42,-2.96 -60.55,-4.43 -1.05,-2.94 -1.96,-5.5 -3,-8.4 16.57,-7.99 33.04,-15.92 49.5,-23.86 -1.03,-0.47 -1.84,-0.34 -2.61,-0.15 -17.18,4.18 -34.36,8.4 -51.55,12.53 -1.19,0.28 -2.9,0.57 -3.69,-0.03 -3.47,-2.64 -6.7,-5.6 -10.09,-8.52 8.62,-13.34 17.14,-26.54 25.66,-39.73 -0.2,-0.17 -0.4,-0.34 -0.6,-0.52 -1.42,1.19 -2.85,2.38 -4.24,3.6 -10.52,9.23 -21.08,18.41 -31.51,27.74 -2.19,1.97 -4.1,2.67 -7.02,1.68 -3.26,-1.09 -6.73,-1.75 -10.16,-2.1 -2.5,-0.24 -3.71,-1.21 -4.66,-3.49 -5.86,-14.01 -11.86,-27.95 -17.83,-41.91 -0.52,-1.21 -1.11,-2.39 -1.67,-3.58 -0.26,0.09 -0.53,0.19 -0.79,0.28 1.85,16.3 3.7,32.59 5.5,48.56 -4.7,1.46 -8.76,2.48 -12.63,4.01 -2.36,0.92 -4.16,0.76 -6.35,-0.43 -16.94,-9.14 -33.93,-18.18 -50.91,-27.23 -0.99,-0.53 -2.05,-0.95 -3.07,-1.43 -0.12,0.19 -0.24,0.39 -0.37,0.59 15.02,12.65 30.04,25.31 44.97,37.87 -2.14,2.77 -4.14,5.01 -5.7,7.53 -1.16,1.88 -2.48,2.49 -4.64,2.48 -14.36,-0.06 -28.7,0 -43.06,0.01 -1.16,0 -2.34,-0.13 -3.73,-0.2 -0.26,-2.43 -0.57,-4.67 -0.75,-6.92 -1.02,-12.56 -3.31,-24.86 -7.62,-36.76 -3.59,-9.89 -7.33,-19.71 -10.55,-29.72 -4.56,-14.24 -8.26,-28.73 -10.15,-43.59 -0.75,-5.86 -1.61,-11.72 -0.06,-17.78 0.94,-3.69 0.63,-7.9 0.03,-11.75 -2.21,-14.2 -7.53,-27.12 -16.69,-38.34 -1.37,-1.67 -2.26,-11.38 -1.19,-13.12 0.3,-0.49 0.84,-0.84 1.34,-1.16 2.92,-1.96 3.92,-4.72 3.41,-8.09 -0.43,-2.81 -0.95,-5.6 -1.48,-8.64 1.59,-0.37 3.08,-0.73 4.58,-1.06 4.55,-1.01 9.1,-1.99 13.65,-3.01 3.24,-0.73 5.86,-2.35 6.64,-5.78 0.74,-3.37 -0.7,-6.01 -3.31,-8.17 -0.71,-0.59 -1.45,-1.69 -1.4,-2.5 0.32,-5.26 0.66,-10.5 5.6,-14.02 1.81,-1.3 3.2,-3.21 4.73,-4.89 0.6,-0.65 1.05,-1.43 1.75,-2.42 -3.43,0.2 -6.4,0.38 -9.38,0.55 -1.54,0.08 -2.67,-0.34 -3.4,-1.96 -1.32,-2.9 -3.77,-4.53 -6.81,-5.35 -3.69,-1 -7.37,-2.04 -11.05,-3.07 -2,-0.56 -3.98,-1.15 -6.3,-1.82 1.41,-1.55 2.47,-2.67 3.49,-3.84 4.17,-4.81 6.73,-10.31 5.74,-16.76 -0.51,-3.37 0.2,-5.84 2.27,-8.5 3.01,-3.85 6.05,-7.97 5.91,-13.18 -0.18,-6.65 1.74,-12.73 4.02,-18.79 0.3,-0.81 0.47,-1.66 0.77,-2.73 -9.54,3.67 -11.96,6.39 -14.36,15.75 -0.72,2.79 -1.94,5.3 -4.12,7.53 0.26,-6.33 0.53,-12.38 0.79,-18.42 -5.71,4.2 -7.55,10.71 -11.81,15.98l0 -9.58c-1.56,2.73 -2.69,4.69 -3.8,6.67 -1.82,3.27 -4.55,5.43 -7.98,6.89 -2.28,0.97 -4.07,1.13 -5.3,-1.51 -0.42,-0.91 -1.23,-1.64 -2.02,-2.64 -1.78,3.75 -3.45,7.14 -5.02,10.58 -1.57,3.48 -3.25,6.94 -4.49,10.54 -2.26,6.59 -1.87,12.94 2.42,18.74 0.88,1.19 1.51,2.56 2.46,4.2 -1.63,0.19 -2.67,0.33 -3.7,0.45 -5.71,0.58 -11.43,1.11 -17.12,1.75 -4.71,0.54 -4.95,0.74 -5.51,5.34 -0.22,1.83 -0.84,3.2 -2.48,4.04 -2.59,1.32 -5.21,2.6 -8.14,4.07 0.98,0.72 1.88,1.42 2.83,2.07 2.46,1.69 4.97,3.32 7.39,5.07z"/>
   <path class="fil2" d="M551.32 1689.63l-20.64 51.46 -13.45 0 -21.6 -52.13 0 52.13 -17.47 0 0 -88.57 21.37 0 24.81 60.27 25.01 -60.27 19.42 0 0 88.57 -17.47 0 0 -51.46zm114.25 30.15l-32.81 0 -8.47 21.31 -18.14 0 36.14 -88.57 15.39 0 34.84 88.57 -18.37 0 -8.58 -21.31zm112.12 -10.68l0 -56.58 17.45 0 0 88.57 -18.22 0 -32.31 -55.45 0 55.45 -17.43 0 0 -88.57 17.47 0 33.04 56.58zm74.89 -56.58l17.55 0 0 62.61c0,6.96 -1.31,14.26 -5.76,19.8 -4.47,5.49 -10.85,7.63 -17.74,7.63 -1.11,0 -2.19,-0.09 -3.3,-0.21 -1,-0.11 -2.05,-0.32 -3.03,-0.53 -0.94,-0.25 -1.86,-0.51 -2.74,-0.84 -1.71,-0.7 -3.21,-1.86 -3.8,-3.7l-0.24 -0.79 0.24 -15.75 7.2 4.12c0.48,0.24 1.27,0.49 1.76,0.67 1.04,0.32 2.5,0.4 3.56,0.4 1.78,0 3.27,-0.43 4.43,-1.84 1.64,-1.94 1.86,-6.57 1.86,-8.95l0 -62.61zm75.88 16.53l0 18.29 29.32 0 0 16.52 -29.32 0 0 20.67 32.24 0 0 16.55 -49.77 0 0 -88.57 41.65 0 0 16.53 -24.11 0zm90.31 0l0 18.29 29.32 0 0 16.52 -29.32 0 0 20.67 32.26 0 0 16.55 -49.79 0 0 -88.57 41.66 0 0 16.53 -24.13 0zm114.84 28.41c0.54,0.72 1.04,1.46 1.47,2.28 0.47,0.91 0.95,1.84 1.37,2.78l17.14 38.57 -19.3 0 -12.98 -30.27c-0.57,-1.25 -1.11,-2.45 -1.74,-3.66 -0.31,-0.65 -0.75,-1.22 -1.29,-1.66 -0.59,-0.54 -1.4,-0.86 -2.15,-1.13 -1.32,-0.41 -3.02,-0.51 -4.47,-0.51l-2.91 0c0.1,4.56 0.15,9.11 0.2,13.65 0.12,6.22 0.2,12.44 0.2,18.68l0 4.89 -17.58 0 0 -88.57 25.3 0c7.17,0 14.68,1.45 20.36,6.2 5.59,4.76 7.76,11.43 7.76,18.61 0,5.68 -1.79,10.84 -5.44,15.17 -1.63,2.08 -3.7,3.68 -5.94,4.95zm-24.89 -10l3.55 0c3.98,0 8.48,-0.63 11.75,-3.01 2.49,-1.81 3.41,-4.2 3.41,-7.21 0,-2.11 -0.28,-4.83 -2.2,-6.1 -2.85,-1.84 -8.1,-2.1 -11.39,-2.1l-4.84 0c-0.14,4.47 -0.24,8.94 -0.28,13.41l0 5zm128.69 32.32l-32.84 0 -8.45 21.31 -18.14 0 36.1 -88.57 15.38 0 34.88 88.57 -18.4 0 -8.54 -21.31zm-578.27 -16.53l-9.74 -25.12 -9.85 25.12 19.58 0zm571.86 0l-9.78 -25.12 -9.89 25.12 19.67 0z"/>
   <path class="fil2" d="M294.2 1723.19c-2.85,1.83 -8.11,2.1 -11.4,2.1l-4.79 0c-0.03,-2.35 -0.03,-4.7 -0.08,-7.05 -0.04,-3.78 -0.1,-7.57 -0.17,-11.36l3.47 0c3.98,0 8.48,0.62 11.75,3.01 2.48,1.81 3.41,4.18 3.41,7.2 0,2.1 -0.27,4.82 -2.2,6.1zm-11.4 -53.41c3.29,0 8.55,0.26 11.4,2.09 1.92,1.28 2.2,4 2.2,6.11 0,3.01 -0.93,5.39 -3.41,7.21 -3.27,2.38 -7.77,3 -11.75,3l-3.47 0c0.07,-3.79 0.13,-7.58 0.17,-11.35 0.05,-2.35 0.05,-4.7 0.08,-7.05l4.79 0zm20.74 27.75c1.86,-1.17 3.6,-2.53 4.99,-4.3 3.64,-4.34 5.44,-9.49 5.44,-15.17 0,-7.19 -2.17,-13.85 -7.76,-18.61 -5.67,-4.75 -13.18,-6.2 -20.36,-6.2l-7.71 0 -17.58 0 0 88.57 17.58 0 7.71 0c7.18,0 14.69,-1.45 20.36,-6.2 5.59,-4.76 7.76,-11.43 7.76,-18.61 0,-5.67 -1.8,-10.84 -5.44,-15.17 -1.39,-1.75 -3.12,-3.12 -4.99,-4.3z"/>
   <polygon class="fil2" points="392.97,1653.25 375.49,1653.25 362.68,1684.23 349.76,1653.25 332.39,1653.25 353.99,1701.14 353.99,1741.74 371.37,1741.74 371.37,1701.14 "/>
  </g>
 </g>
</svg>
