<?xml version="1.0" encoding="UTF-8"?>
<!DOCTYPE svg PUBLIC "-//W3C//DTD SVG 1.1//EN" "http://www.w3.org/Graphics/SVG/1.1/DTD/svg11.dtd">
<!-- Creator: CorelDRAW 2020 (64-Bit) -->
<svg xmlns="http://www.w3.org/2000/svg" xml:space="preserve" width="42.7439mm" height="35.3309mm" version="1.1" style="shape-rendering:geometricPrecision; text-rendering:geometricPrecision; image-rendering:optimizeQuality; fill-rule:evenodd; clip-rule:evenodd"
viewBox="0 0 1008.04 833.22"
 xmlns:xlink="http://www.w3.org/1999/xlink"
 xmlns:xodm="http://www.corel.com/coreldraw/odm/2003">
 <defs>
  <style type="text/css">
   <![CDATA[
    .fil9 {fill:white}
    .fil2 {fill:url(#id0)}
    .fil6 {fill:url(#id1)}
    .fil3 {fill:url(#id2)}
    .fil5 {fill:url(#id3)}
    .fil1 {fill:url(#id4)}
    .fil8 {fill:url(#id5)}
    .fil7 {fill:url(#id6)}
    .fil4 {fill:url(#id7)}
    .fil0 {fill:url(#id8)}
   ]]>
  </style>
  <linearGradient id="id0" gradientUnits="userSpaceOnUse" x1="299.46" y1="650.32" x2="505.56" y2="484.06">
   <stop offset="0" style="stop-opacity:1; stop-color:#603813"/>
   <stop offset="1" style="stop-opacity:1; stop-color:#A87C4F"/>
  </linearGradient>
  <linearGradient id="id1" gradientUnits="userSpaceOnUse" xlink:href="#id0" x1="585.75" y1="561.34" x2="713.55" y2="456.81">
  </linearGradient>
  <linearGradient id="id2" gradientUnits="userSpaceOnUse" xlink:href="#id0" x1="371.99" y1="625.87" x2="539.78" y2="489.07">
  </linearGradient>
  <linearGradient id="id3" gradientUnits="userSpaceOnUse" xlink:href="#id0" x1="440.94" y1="593.14" x2="595.86" y2="465.71">
  </linearGradient>
  <linearGradient id="id4" gradientUnits="userSpaceOnUse" xlink:href="#id0" x1="192.14" y1="668.66" x2="446.32" y2="463.55">
  </linearGradient>
  <linearGradient id="id5" gradientUnits="userSpaceOnUse" xlink:href="#id0" x1="712.46" y1="531.13" x2="789.6" y2="466.77">
  </linearGradient>
  <linearGradient id="id6" gradientUnits="userSpaceOnUse" xlink:href="#id0" x1="-248.16" y1="788.7" x2="1062.09" y2="1148.96">
  </linearGradient>
  <linearGradient id="id7" gradientUnits="userSpaceOnUse" xlink:href="#id0" x1="646.26" y1="561.71" x2="774.65" y2="458.71">
  </linearGradient>
  <linearGradient id="id8" gradientUnits="userSpaceOnUse" xlink:href="#id0" x1="466.64" y1="1168.76" x2="765.62" y2="929.07">
  </linearGradient>
 </defs>
 <g id="Layer_x0020_1">
  <metadata id="CorelCorpID_0Corel-Layer"/>
  <g id="_2145995219360">
   <path class="fil0" d="M99.33 785.98l-19.79 0 0 46.58 20.67 0c2.5,0 4.81,-0.28 6.89,-0.86 2.07,-0.58 3.87,-1.41 5.35,-2.5 1.5,-1.09 2.63,-2.44 3.42,-4.02 0.79,-1.6 1.2,-3.4 1.2,-5.39 0,-1.6 -0.28,-3.01 -0.79,-4.25 -0.53,-1.24 -1.24,-2.31 -2.14,-3.19 -0.87,-0.9 -1.92,-1.67 -3.14,-2.31 -1.22,-0.64 -2.53,-1.16 -3.89,-1.56 0.92,-0.38 1.82,-0.9 2.7,-1.5 0.86,-0.6 1.64,-1.35 2.35,-2.22 0.7,-0.88 1.26,-1.91 1.69,-3.06 0.43,-1.16 0.64,-2.5 0.64,-4.07 0,-1.77 -0.36,-3.38 -1.07,-4.81 -0.71,-1.46 -1.73,-2.68 -3.06,-3.66 -1.33,-1 -2.93,-1.77 -4.77,-2.33 -1.86,-0.56 -3.96,-0.84 -6.25,-0.84zm373.65 47.24l0.4 0c2.35,-0.02 4.5,-0.36 6.49,-1.03 2.03,-0.68 3.79,-1.73 5.22,-3.12 1.43,-1.41 2.57,-3.14 3.36,-5.22 0.79,-2.1 1.2,-4.55 1.2,-7.4l0 -30.46 -10.5 0 0 30.02c0,2.7 -0.56,4.66 -1.67,5.88 -1.11,1.22 -2.63,1.82 -4.6,1.82 -1.63,0 -3.12,-0.41 -4.49,-1.22 -1.35,-0.83 -2.7,-1.97 -4.02,-3.42l-6.44 7.19c1.59,1.91 3.62,3.53 6.08,4.92 2.42,1.34 5.42,2.03 8.99,2.05zm-374.44 -26.48l-13.73 0 0 -16.09 14.12 0c3.31,0 5.86,0.68 7.64,2.08 1.75,1.37 2.65,3.25 2.65,5.6 0,2.76 -1,4.86 -2.97,6.27 -2.01,1.44 -4.58,2.14 -7.7,2.14zm1.86 21.16l-15.59 0 0 -16.5 14.65 0c4.09,0 7.15,0.71 9.24,2.12 2.08,1.39 3.1,3.38 3.1,5.97 0,2.68 -1.01,4.75 -3.04,6.2 -2.05,1.48 -4.83,2.21 -8.37,2.21zm66.52 -13.84l19.36 -28.07 -6.12 0 -15.81 23.3 -15.66 -23.3 -6.4 0 19.36 28.15 0 18.42 5.26 0 0 -18.51zm114.84 18.51l0 -46.58 -11.04 0 -12.24 19.71 -12.26 -19.71 -11.04 0 0 46.58 10.12 0 0 -30.21 12.96 19.7 0.28 0 13.11 -19.9 0 30.4 10.1 0zm78.04 0l-19.96 -46.92 -9.44 0 -19.96 46.92 10.44 0 4.25 -10.44 19.71 0 4.25 10.44 10.7 0zm-18.63 -19.49l-12.37 0 6.18 -15.11 6.19 15.11zm88.72 19.49l0 -46.58 -10.12 0 0 28.67 -21.82 -28.67 -9.45 0 0 46.58 10.12 0 0 -29.61 22.55 29.61 8.73 0zm127.1 0l0 -9.11 -25.29 0 0 -9.78 21.95 0 0 -9.11 -21.95 0 0 -9.45 24.95 0 0 -9.11 -35.06 0 0 46.58 35.41 0zm66.09 0l0 -9.11 -25.29 0 0 -9.78 21.95 0 0 -9.11 -21.95 0 0 -9.45 24.94 0 0 -9.11 -35.07 0 0 46.58 35.41 0zm70.94 0l-11.38 -16.63c2.98,-1.11 5.37,-2.87 7.21,-5.24 1.84,-2.38 2.76,-5.43 2.76,-9.2l0 -0.15c0,-4.83 -1.54,-8.6 -4.62,-11.29 -3.08,-2.72 -7.38,-4.07 -12.94,-4.07l-21.29 0 0 46.58 10.25 0 0 -14.91 8.04 0 9.99 14.91 11.98 0zm-11.78 -30.53c0,1.99 -0.67,3.58 -2.04,4.77 -1.34,1.2 -3.27,1.8 -5.82,1.8l-10.37 0 0 -13.37 10.18 0c2.52,0 4.49,0.56 5.92,1.67 1.41,1.11 2.12,2.78 2.12,4.99l0 0.15zm86.52 30.53l-19.96 -46.92 -9.43 0 -19.96 46.92 10.44 0 4.26 -10.44 19.7 0 4.26 10.44 10.7 0zm-18.64 -19.49l-12.37 0 6.19 -15.11 6.18 15.11z"/>
   <path class="fil1" d="M70.15 265.46c0.02,-4.78 -1.23,-9.13 1.12,-13.21 0.2,-0.35 0.25,-0.83 0.24,-1.24 -0.33,-10.26 2.67,-20.15 3.43,-30.31 0.54,-7.17 2.39,-14.24 3.66,-21.35 0.17,-0.94 0.72,-1.95 0.51,-2.79 -1.45,-6.06 1.82,-11.72 1.41,-17.71 -0.13,-1.86 0.39,-3.81 0.89,-5.65 2.62,-9.54 1.18,-18.72 -2.37,-27.7 -0.84,-2.13 -0.17,-2.61 1.92,-2.43 4.9,0.41 5.18,0.16 5.44,-4.8 0.42,-7.86 1.16,-15.67 2.91,-23.36 0.38,-1.66 0.57,-3.39 2.7,-3.86 1.42,-0.32 1.12,-1.6 1.28,-2.6 1.08,-6.8 0.33,-13.76 2.42,-20.51 3.41,-10.96 5.9,-22.19 7.27,-33.58 1.06,-8.82 2.2,-17.67 1.77,-26.61 -0.19,-4.15 1.46,-8.14 1.11,-12.33 -0.4,-4.83 1.46,-9.37 1.97,-14.09 0.19,-1.83 0.97,-1.5 2,-0.49 2.81,2.73 4.27,5.81 5.08,9.86 2.01,10.04 0.39,20.17 1.55,30.18 0.12,1.07 0.14,2.11 0.83,3.01 0.57,0.74 0.78,1.76 0.2,2.39 -3.62,3.91 -0.48,6.83 1.47,9.8 1.21,1.84 2.81,3.4 4.48,4.91 3.6,3.25 5.72,7.62 7.22,12.12 1.12,3.35 2.48,6.74 2.14,10.49 -0.21,2.37 2.28,4.45 0.93,7.09 -0.15,0.3 0.46,1.22 0.92,1.55 4.13,2.86 3.23,6.88 2.21,10.65 -0.83,3.06 -0.78,5.76 0.84,8.47 0.36,0.61 0.89,1.62 0.64,2.04 -1.91,3.25 1.04,5.35 1.87,7.86 0.65,1.93 -0.63,3.24 -0.67,4.89 -0.03,1.77 -0.81,2.89 -2.98,2.86 -1.58,-0.02 -1.59,1.49 -1.37,2.68 0.25,1.29 1.04,2.32 2.46,1.66 2.4,-1.12 2.4,0.7 2.29,1.94 -0.27,3.27 -0.86,6.51 -1.28,9.77 -0.27,2.1 -1.89,1.62 -3.19,1.68 -1.19,0.06 -2.56,-0.09 -2.78,1.45 -0.25,1.73 1.33,1.61 2.38,1.9 1.67,0.47 3.54,0.75 3.12,3.16 -0.42,2.38 -2.18,2.2 -3.97,1.83 -1.93,-0.39 -2.77,0.46 -2.81,2.38 -0.05,2.07 -0.9,4.18 0.57,6.16 0.3,0.4 0.18,1.29 -0.03,1.84 -0.72,1.86 -0.77,3.3 1.61,3.9 1.27,0.32 1.19,1.36 0.83,2.33 -0.36,0.96 -0.56,2.04 -1.98,2.16 -2.73,0.22 -4.43,2.62 -3.25,5.02 3.83,7.8 4.89,16.59 8.85,24.36 1.22,2.39 1.38,5.32 2.07,7.99 3.13,12.22 5.87,24.58 6.97,37.1 0.61,6.92 1.42,13.69 3.6,20.18 2.12,6.31 3.36,12.87 5.85,19.07 1.92,4.79 3.28,9.8 4.86,14.72 0.58,1.83 1.09,3.69 0.16,5.59 -0.13,0.26 -0.23,0.75 -0.08,0.92 3.18,3.74 2.36,8.58 2.62,12.73 0.38,6.03 3.14,12.56 -1.3,18.35 -0.47,0.61 -0.67,1.43 -0.27,2.12 1.57,2.7 0.41,4.8 -1.35,6.82 -0.75,0.85 -1.25,2.14 -0.8,2.96 1.97,3.66 -0.86,7.12 -0.2,10.69 0.15,0.83 -0.61,1.65 -1.37,1.24 -2.51,-1.35 -2.34,0.57 -2.94,2.01 -1.39,3.35 -0.45,7.17 -2.5,10.45 -0.88,1.41 0.57,2.45 2.31,2.37 0.86,-0.04 2.51,-0.34 1.83,1.07 -0.62,1.3 0.69,4.38 -2.45,3.79 -2.82,-0.54 -2.93,0.86 -2.48,2.82 0.8,3.42 2.31,6.6 3.59,9.86 3.61,9.18 7.15,18.39 10.56,27.64 0.91,2.47 1.37,5.13 1.83,7.73 0.46,2.59 0.26,5.3 1.82,7.66 0.37,0.56 0.49,1.47 0.37,2.16 -0.9,5.09 0.46,10.07 1.09,15 0.43,3.33 2.14,6.48 2.01,10.09 -0.07,1.79 0.15,3.63 -0.38,5.35 -0.7,2.24 -0.87,4.3 0.42,6.4 0.77,1.26 0.43,2.37 -0.83,3.29 -1.17,0.87 -2.08,2.19 -1.25,3.59 1.2,2.04 0.78,3.73 -0.27,5.6 -1.09,1.94 -1.16,3.92 -0.24,6.1 0.91,2.17 0.17,4.42 -0.13,6.74 -0.58,4.5 -2.62,8.89 -1.69,13.53 0.36,1.81 0.4,3.04 -1.3,4.38 -2.95,2.31 -2.89,5.19 -0.23,9.36 0.53,0.83 1.3,1.47 0.43,2.48 -3.55,4.14 -3.37,8.41 -0.54,12.84 0.5,0.79 0.72,1.77 0.98,2.69 0.11,0.37 0.05,1.12 -0.03,1.14 -4.06,0.74 -3.1,4.59 -4.13,7.03 -1.92,4.51 -3.9,9.04 -5.82,13.54 -1.59,3.72 -6.13,5.25 -9.85,6.95 -4.12,1.88 -7.74,0.45 -11.66,-1.56 -6.25,-3.22 -7.39,-4.31 -7.24,3.86 0.08,4.66 0.76,9.53 -0.07,13.94 -1.16,6.07 0.81,12.24 -1.38,18.13 -0.53,1.43 0.85,2.54 0.84,3.96 -0.04,4.04 -0.15,8.08 -1.08,12.04 -0.38,1.6 -0.65,2 -2.49,0.92 -7.49,-4.4 -4.44,-11.06 -3.77,-17.01 0.78,-6.98 0.76,-13.91 0.22,-20.86 -0.09,-1.19 -0.72,-2.6 -1.57,-3.42 -7.96,-7.63 -11.55,-17.8 -16.12,-27.39 -0.73,-1.53 -1.52,-3.11 -3.34,-2.83 -1.8,0.27 -1.97,1.97 -1.8,3.56 0.11,0.99 -0.3,1.8 -1.29,1.87 -2.05,0.14 -4.13,-0.02 -5.43,-1.91 -0.9,-1.31 -1.57,-2.78 -2.3,-4.19 -3.43,-6.6 -7.61,-12.74 -11.59,-19 -2.11,-3.32 -3.74,-6.86 -4.35,-10.84 -1.21,-7.81 -5.16,-14.8 -7,-22.43 -2.15,-8.87 -3.36,-17.82 -4,-26.95 -0.63,-8.92 2.5,-17.6 1.07,-26.49 -0.16,-1.01 0.08,-2.16 0.41,-3.15 1.31,-3.92 0.58,-7.95 0.88,-11.89 0.82,-10.42 -0.88,-20.86 0.79,-31.24 1.11,-6.93 2.67,-13.74 4.37,-20.53 2.98,-11.98 4.68,-24.02 5.24,-36.44 0.77,-17.01 0.24,-34.02 1.22,-51 0.27,-4.77 0.82,-9.52 1.06,-14.3 0.32,-6.36 -0.25,-12.76 0.63,-19.09 0.66,-4.74 0.43,-9.63 2.4,-14.16 0.68,-1.57 0.2,-3.05 -1.53,-3.64 -1.87,-0.64 -2.73,0.53 -3.16,2.17 -1.19,4.5 -2.47,8.99 -3.53,13.52 -0.42,1.78 -1.33,3.02 -3.2,4.48zm30.97 285.2l0 0c-0.1,-0.48 -0.14,-1.13 -0.36,-1.71 -2.65,-6.79 -5.13,-13.64 -7.05,-20.68 -0.36,-1.29 -1.19,-2.49 -1.97,-3.62 -1,-1.46 -2.37,-1.28 -3.59,-0.31 -1.23,0.97 -0.85,2.14 0.16,2.97 1.04,0.86 1.67,2.22 1.2,3.07 -1.98,3.5 -0.26,6.27 1.33,9.14 0.05,0.09 0.03,0.21 0.05,0.31 1.22,4.85 3.34,9.16 7.26,12.44 0.67,0.57 1.23,1.26 2.19,0.8 0.98,-0.47 0.63,-1.46 0.78,-2.42zm21.79 -33.44l0 0c-1.24,0.16 -2.28,0.37 -3.34,0.42 -5.82,0.33 -6.28,0.96 -4.9,6.8 0.05,0.21 0.14,0.41 0.15,0.62 0.31,3.93 3.32,7.29 2.42,11.49 -0.04,0.18 0.3,0.59 0.53,0.67 0.48,0.16 0.83,-0.19 0.91,-0.63 0.77,-4.04 3.32,-7.37 4.36,-11.31 0.26,-0.98 0.64,-1.93 1.79,-2.45 1.22,-0.55 2.66,-1.33 1.97,-3.09 -0.7,-1.79 -2.35,-2.3 -3.91,-2.51zm-48.86 -76.66l0 0c0.03,1.42 0.38,2.58 2.1,2.57 1.17,-0 1.37,-0.83 1.25,-1.75 -0.17,-1.24 -0.18,-2.79 -1.76,-3 -1.45,-0.2 -1.52,1.12 -1.59,2.19zm0.82 -12.95l0 0c-1.15,0.25 -1.38,1.17 -1.27,2.12 0.09,0.79 0.36,1.88 1.36,1.8 1.28,-0.1 1.49,-1.31 1.5,-2.36 0.01,-0.95 -0.56,-1.52 -1.59,-1.57l0 0z"/>
   <path class="fil2" d="M228.63 585.9c0.23,-7.79 -0.33,-15.59 0.48,-23.36 0.16,-1.57 -0.44,-2.87 -1.75,-3.79 -2.82,-1.97 -3.56,-4.46 -2.1,-7.64 0.47,-1.01 0.64,-2.16 0.95,-3.25 1.52,-5.42 0.73,-6.43 -4.7,-7.95 -15.03,-4.2 -17.17,-7.34 -18.39,-22.59 -0.97,-12.12 -0.84,-24.4 -2.58,-36.43 -1.9,-13.13 -2.13,-26.27 -2.4,-39.45 -0.13,-6.48 -2.67,-12.54 -3.65,-18.91 -1.42,-9.25 -3.26,-18.39 -3.42,-27.83 -0.2,-11.9 -1.01,-23.79 -1.01,-35.71 -0,-11.74 6.89,-8.69 6.93,-20.43 0,-2.03 -0.16,-4.06 -0.23,-6.08 -0.05,-1.33 0.16,-2.81 1.68,-2.86 3.01,-0.09 -0.77,-16.06 2.31,-15.06 3.69,1.2 5.55,-0.46 5.39,-4.46 -0.41,-10.15 -5.09,-22.03 -3.66,-32 2.72,-18.99 4.6,-38.04 5.71,-57.17 0.66,-11.48 5.86,-21.26 6.95,-32.72 0.67,-7.07 0.36,-14.28 2.08,-21.18 1.69,-6.77 4.45,-13.23 8.69,-18.88 1.13,-1.51 2.58,-2.79 4.75,-2.91 2.32,-0.13 2.99,-1.71 2.79,-3.8 -1.15,-11.56 0.04,-23.11 -0.08,-34.66 -0.03,-3.02 1.69,-5.33 2.43,-8.02 0.26,-0.94 1.13,-1.35 2.16,-1.25 2.28,0.24 3.06,-0.92 2.85,-3.04 -0.2,-1.96 0.03,-3.65 2.5,-3.97 2.53,-0.33 4.02,0.78 4.9,3.11 0.82,2.16 1.05,4.41 0.98,6.65 -0.19,5.96 0.79,11.87 1.27,17.76 0.39,4.76 1.15,9.56 1.25,14.38 0.08,3.68 -0.13,7.38 -0.2,11.07 -0.02,1.17 -0.3,2.15 -1.41,2.87 -0.49,0.32 -1,1.18 -0.91,1.7 1.39,8.16 -1.82,15.88 -2.23,23.86 -0.1,2.05 -0.17,4.04 0.52,6.01 1.37,3.9 0.9,8.05 1.56,12.05 0.32,1.94 0.79,3.71 1.66,5.41 1.69,3.27 2.12,6.75 2.62,10.38 0.61,4.46 1.04,9.2 3.64,13.16 0.9,1.37 0.53,2.84 0.9,4.23 2.31,8.75 3.46,17.65 4.23,26.67 0.44,5.06 2.68,9.97 4.09,14.95 1.62,5.73 2.87,11.58 4.88,17.16 2.95,8.18 3.99,16.77 5.92,25.16 1.3,5.66 1.91,11.53 1.18,17.47 -0.42,3.37 0.93,6.75 0.01,10.3 -0.6,2.31 -2.89,4.7 -0.53,7.53 0.54,0.65 -1.24,1.54 -2.45,1.55 -2.45,0 -2.01,1.15 -0.96,2.49 0.62,0.8 1.21,1.68 1.98,2.31 2.37,1.96 2.94,3.5 -0.5,5.01 -1.63,0.71 -1.28,2.19 -0.16,3.37 2.42,2.54 1.91,5.44 1.36,8.54 -0.58,3.26 -1.53,6.44 -1.51,9.89 0.03,3.48 -0.23,7.24 -4.14,9.32 -1.35,0.72 -1.83,2.66 0.06,3.06 3.45,0.72 2.51,3.34 2.07,4.9 -0.49,1.75 -0.79,3.47 -1,5.24 -0.25,2.15 -0.72,4.15 -2.16,5.94 -2.18,2.71 -2.01,6.13 -2.11,9.34 -0.1,3.23 0.35,6.48 -0.25,9.7 -0.18,0.93 -0.01,1.91 0.69,2.53 1.88,1.66 1.75,3.85 1.6,5.97 -0.59,8.25 -0.08,16.85 -3.24,24.53 -2.85,6.94 -2.57,14.81 -7.21,21.22 -2.16,2.99 -1.92,7.45 -0.89,10.85 1.88,6.2 0.74,12.27 0.6,18.39 -0.06,2.71 -0.77,5.56 0.04,8.1 2.85,8.93 -1.5,16.48 -4.74,24.02 -1.21,2.83 -3.54,5.5 -5.26,8.33 -1.75,2.87 -2.91,5.72 -2.67,9.19 0.58,8.6 -1.69,16.98 -2.44,25.48 -0.53,5.93 -0.94,12.08 -2.4,17.99 -0.21,0.86 -0.34,1.88 -0.88,2.5 -2.56,2.96 -2.33,6.42 -2.06,9.92 0.1,1.35 0.26,2.7 0.28,4.05 0.03,2.94 -1.83,4.32 -4.41,4.65 -2.48,0.32 -4.05,-1.03 -4.62,-3.48 -1.25,-5.41 -1.51,-10.93 -1.61,-16.45 -0.09,-4.97 -0.02,-9.95 -0.02,-14.91l0 0z"/>
   <path class="fil3" d="M338.74 524.43c-0.19,1.25 -0.36,2.48 -0.55,3.7 -0.49,3.18 0.15,6.49 -0.11,9.48 -0.53,6.34 1.66,12.65 -0.12,18.91 -0.22,0.77 -0.29,1.76 -1.01,2.06 -6.57,2.72 -3.87,8.43 -4,13.01 -0.08,3.09 1.12,6.2 1.48,9.33 0.33,2.84 1.07,5.84 -1.93,8.04 -1.13,0.83 -0.31,2.36 -0.28,3.56 0.14,5.74 -1.17,7.56 -6.25,8.76 -1.75,0.42 -2.65,0.06 -3.16,-1.85 -1.8,-6.76 -3.1,-13.6 -3.57,-20.58 -0.13,-1.92 -0.14,-3.84 -0.27,-5.75 -0.4,-5.93 -0.98,-11.11 -8.2,-13.72 -5.9,-2.13 -9.65,-7.6 -11.2,-14.05 -1.15,-4.78 -3.12,-9.07 -6.46,-12.85 -3.27,-3.69 -3.99,-8.14 -3.51,-13.25 0.91,-9.66 0.75,-19.42 -1.15,-29 -1.39,-7.02 -2.38,-14.07 -1.87,-21.18 0.84,-11.57 -2.16,-22.58 -4.13,-33.78 -1.85,-10.48 -1.17,-20.97 2.67,-30.97 3.02,-7.86 4.76,-15.95 5.87,-24.22 2.65,-19.62 2.32,-39.38 2.62,-59.11 0.31,-20.72 1.47,-41.43 1.04,-62.15 -0.22,-10.6 1.87,-21.08 1.31,-31.71 -0.17,-3.31 -1.48,-6.37 -1.47,-9.68 0,-1.74 0.26,-3.16 1.99,-3.89 3.62,-1.53 4.22,-4.69 4.36,-8.07 0.32,-8.02 1.34,-15.91 4.31,-23.45 0.33,-0.83 0.84,-1.77 0.72,-2.58 -0.72,-5.29 2.58,-6.97 6.83,-7.88 2.02,-0.43 3.38,-1.43 3.95,-3.62 0.79,-3.01 3.6,-2.9 5.57,-2.23 2.9,0.99 5.55,3.33 6.01,6.33 0.52,3.37 1.39,6.87 0.46,10.41 -0.54,2.08 -0.18,4.22 1.76,5.44 5.98,3.77 8.15,9.27 8.26,16.1 0.06,3.61 0.13,7.08 -1.14,10.57 -0.49,1.33 0.37,3.11 0.21,4.63 -0.34,3.14 1.08,6.16 -0.92,9.6 -1.05,1.8 0.09,5.82 0.66,8.72 1.93,9.84 6.31,19.01 8.21,28.86 1.47,7.6 3.23,15.13 3.87,22.93 0.62,7.6 3.25,15.08 3.6,22.67 0.59,12.85 2.85,25.63 2.24,38.46 -0.51,10.71 -1.15,21.5 -3.77,32.03 -1.19,4.8 -1.52,9.81 -2.08,14.72 -0.92,8.05 -3.55,15.72 -4.59,23.72 -0.18,1.34 -0.04,2.78 -0.41,3.99 -1.23,4.05 -1.76,8.32 -3.29,12.22 -0.85,2.17 -1.14,5.77 0.63,7.49 1.26,1.22 0.95,2.74 -0.5,3.72 -1.23,0.83 -1.69,1.72 -1,3.11 0.19,0.39 0.37,0.9 0.28,1.3 -1.82,8.11 -1.49,16.39 -1.99,24.61 -0.15,2.47 -0.49,4.93 -0.67,7.4 -0.15,2 -0.77,3.72 -2.34,5.07 -1.1,0.95 -2.06,2.56 -0.69,3.44 2.2,1.41 2.02,3.15 2.06,5.28 0.06,2.91 0.14,5.84 0.6,8.76 0.35,2.22 -0.86,4.19 -2.96,5.25 -1.14,0.58 -2.14,1.02 -1.22,2.45 0.7,1.07 0.83,3.23 3.05,1.73 1.25,-0.85 1.25,0.29 1.34,1 0.31,2.23 0.55,4.48 0.82,6.72l0 0z"/>
   <path class="fil4" d="M582.37 515.95c0.19,-5.76 -0.27,-11.53 0.6,-17.27 0.21,-1.43 0.08,-2.53 -1.73,-3.08 -4.55,-1.39 -6.53,-3.99 -6.15,-8.76 0.53,-6.55 0.29,-13.1 0.56,-19.64 0.11,-2.6 -0.34,-4.98 -1.6,-7.14 -3.52,-6.05 -4.17,-12.51 -4.15,-19.43 0.03,-9.76 2.78,-18.91 4.61,-28.29 1.2,-6.13 2.61,-12.22 3.08,-18.53 0.7,-9.32 3.21,-18.36 5.89,-27.34 2.83,-9.49 4.98,-19.18 7.84,-28.66 3.06,-10.13 4.03,-20.61 6.02,-30.92 1.02,-5.28 2.98,-10.31 4.76,-15.38 1.33,-3.81 1.02,-8.05 3.29,-11.64 1.29,-2.04 2.3,-3.69 5.24,-2.95 2.42,0.61 2.8,-1.23 3.08,-3.28 0.77,-5.78 1.02,-11.67 3.12,-17.21 0.32,-0.83 0.34,-1.87 1.46,-2.06 1.29,-0.23 1.62,0.83 2.24,1.65 1.79,2.36 1.44,4.96 0.84,7.48 -1.01,4.22 0,8.56 -1.01,12.78 -0.16,0.65 0.26,1.59 0.7,2.19 3.94,5.37 4.43,11.28 3.23,17.64 -1.31,7.01 -0.13,14.18 -1.08,21.25 -0.35,2.62 -2.08,5.41 0.17,8.02 -3.94,3.03 -0.07,5.83 0.06,8.75 0.21,4.67 0.25,9.39 0.45,14.08 0.18,4.2 0.02,8.41 0.51,12.67 0.42,3.62 0.54,7.45 1.09,11.21 0.8,5.44 3.1,10.56 3.07,16.18 -0.02,4.34 0.94,8.7 -0.48,12.97 -0.43,1.28 -0.22,2.41 1.02,2.78 1.56,0.45 1.83,-0.86 1.94,-2.05 1.03,-10 2.39,-19.96 3.03,-30.01 0.37,-5.92 1.35,-11.84 3.43,-17.51 1.36,-3.7 1.49,-7.7 2.42,-11.53 1.9,-7.87 3.08,-15.92 4.79,-23.84 1.11,-5.17 0.61,-10.35 0.73,-15.53 0.04,-1.94 -1.37,-2.98 -2.46,-4.25 -3.99,-4.63 -2.07,-10.09 3.89,-11.21 1.1,-0.21 1.25,0.72 1.65,1.34 0.74,1.14 1.42,2.58 3.04,2.24 1.87,-0.41 1.6,-2.19 1.81,-3.61 0.25,-1.78 0.58,-3.55 0.75,-5.34 0.25,-2.57 2.29,-3.09 4.11,-3.07 1.78,0.02 2.05,1.92 2.05,3.38 -0.01,5.71 0.93,11.38 0.33,17.14 -0.3,2.84 0.22,5.91 1.01,8.7 1.36,4.76 0.82,9.9 3.04,14.47 0.56,1.16 0.38,2.47 0.17,3.68 -1.09,5.97 -1.03,12.05 -1.83,18.07 -0.91,6.83 -2.06,13.69 -3.05,20.49 -0.51,3.51 0.37,7.65 -2.25,10.84 -0.19,0.23 -0.31,0.74 -0.18,0.96 3.13,5.37 -0.87,11.31 1.32,16.7 1.36,3.35 0.94,7.02 2.32,10.4 0.84,2.06 0.75,4.63 0.63,6.94 -0.64,12.18 -2.28,24.23 -5.08,36.11 -0.44,1.86 -0.3,4.31 -3.23,4.86 -1.06,0.2 -0.58,1.78 -0.61,2.75 -0.12,5.63 0.66,11.32 -0.69,16.87 -1.79,7.36 -4.19,14.49 -8.8,20.66 -0.21,0.27 -0.39,0.64 -0.67,0.75 -4.8,1.88 -4.14,5.93 -4.08,9.85 0.08,4.75 -0.03,9.49 -0.09,14.24 -0.01,1.01 -0.04,2.08 -0.36,3.01 -0.63,1.86 -1.54,3.65 -3.95,3.5 -2.22,-0.14 -3,-1.98 -3.39,-3.71 -0.37,-1.61 -0.3,-3.38 -0.13,-5.05 0.56,-5.41 0.41,-10.84 0.49,-16.26 0.01,-0.88 0.18,-2.2 -0.3,-2.59 -2.91,-2.33 -4.16,-5.21 -3.7,-8.89 0.02,-0.19 -0.13,-0.54 -0.27,-0.58 -4.59,-1.23 -2.22,-4.68 -1.95,-7.06 0.53,-4.69 1.68,-9.31 2.6,-13.95 0.15,-0.77 0.19,-1.98 0.65,-2.2 7.04,-3.37 5.57,-9.61 4.87,-15.22 -0.99,-7.88 -1.55,-15.92 -5.04,-23.29 -0.68,-1.43 0.13,-2.85 0.52,-4.26 0.45,-1.65 -0.11,-3.06 -1.9,-3.34 -1.96,-0.3 -3.93,0.13 -5.01,1.98 -0.54,0.92 0.39,1.67 1.25,2.07 2.19,1.01 1.77,2.18 0.38,3.61 -1.41,1.46 -2.54,3.09 -2.74,5.24 -0.04,0.53 -0.52,1.19 -0.02,1.54 3.07,2.2 1.07,3.99 -0.11,6.21 -0.87,1.65 -2.74,3.51 -0.74,5.85 0.58,0.67 -0.7,1.17 -1.44,1.35 -1.04,0.26 -2.13,0.61 -2.2,1.79 -0.09,1.87 0.78,4.11 -2.35,4.34 -0.09,0 -0.37,1.29 -0.13,1.49 3.68,3.2 2.28,6.94 0.51,10.1 -1.86,3.33 -1.94,7.03 -3.28,10.43 -3.23,8.24 -8.03,15.35 -14.66,21.21 -1.08,0.95 -2.38,2.05 -3.7,2.26 -3.16,0.48 -3.41,2.29 -3.37,4.95 0.13,8.02 0.03,16.05 -0.01,24.07 -0,1.24 -0.04,2.5 -0.23,3.72 -0.37,2.37 -1.6,4.18 -4.2,3.93 -2.48,-0.24 -2.23,-2.47 -2.25,-4.24 -0.05,-4.52 -0.02,-9.04 -0.02,-13.56zm7.07 -108.56l0 0c0.04,1.08 0.06,2.66 1.62,2.64 1.92,-0.03 3.34,-1.34 3.57,-3.33 0.19,-1.63 -1.14,-2.47 -2.5,-2.62 -2.17,-0.23 -2.31,1.63 -2.7,3.31zm2.21 -8.95l0 0c0.15,1.27 -0.09,3.1 2.1,2.95 2.02,-0.14 2.33,-1.76 2.39,-3.45 0.05,-1.62 -0.29,-3.11 -2.2,-3.1 -2.19,0.02 -2.15,1.87 -2.29,3.59zm-4.01 68.99l0 0c-0.51,-2 -0.98,-4.15 -3.57,-4.71 -0.74,-0.16 -1.01,0.23 -1,0.92 0.02,0.87 3.11,5.57 3.63,5.46 0.82,-0.17 0.96,-0.84 0.94,-1.67zm34.66 -63l0 0c0.98,-0.14 1.9,-0.56 1.81,-1.84 -0.08,-1.14 -0.88,-1.83 -1.98,-1.94 -1.13,-0.11 -2.07,0.41 -2.11,1.64 -0.04,1.33 0.88,1.97 2.27,2.14zm-24.87 -15.39l0 0c0.06,-1.04 0.06,-2.21 -1.25,-2.33 -1.22,-0.11 -1.77,0.83 -1.71,1.99 0.05,1.08 -0.06,2.49 1.49,2.54 1.33,0.04 1.4,-1.17 1.48,-2.2zm-6.79 26.63l0 0c1.06,-0.1 1.55,-0.79 1.44,-1.83 -0.12,-1.13 -0.72,-1.9 -2,-1.79 -1.1,0.08 -1.66,0.8 -1.54,1.81 0.12,1.11 0.81,1.84 2.11,1.81zm39.45 57.19l0 0c0.84,-1.87 1.43,-3.14 2,-4.44 0.29,-0.66 0.38,-1.38 -0.44,-1.68 -0.82,-0.29 -1.24,0.38 -1.51,0.99 -0.64,1.47 -0.43,2.96 -0.05,5.13l0 0z"/>
   <path class="fil5" d="M409.94 464.47c0.83,3.97 1.6,7.5 -1.93,10.69 -2.52,2.27 -2.65,5.59 -2.72,9.04 -0.1,4.94 2.51,9.49 1.57,14.45 -0.06,0.31 -0.03,0.83 0.16,0.97 3.42,2.53 2.11,5.93 1.74,9.16 -0.1,0.85 0.54,1.52 0.6,2.23 0.16,2.02 1.42,4.31 -1.75,5.58 -1.91,0.77 -1.15,2.77 -0.3,4.08 2.18,3.37 3.14,6.95 2.67,10.94 -0.1,0.9 0.08,1.8 0.76,2.52 1.73,1.83 1.68,3.88 0.53,5.91 -0.43,0.75 -5.92,-0.41 -6.65,-1.57 -1.37,-2.18 -3.5,-2.26 -5.62,-2.43 -2.7,-0.21 -4.35,1.25 -3.71,3.82 0.97,3.87 0.37,7.66 -0.12,11.41 -0.74,5.63 -0.06,11.2 0.08,16.8 0.04,1.6 -0.27,2.58 -1.96,2.9 -1.74,0.33 -2.44,-0.7 -3.01,-2.05 -1.8,-4.27 -1.62,-8.84 -1.68,-13.27 -0.08,-6.4 0.75,-12.79 2.26,-19.04 0.58,-2.4 -0.25,-3.82 -2.65,-4.63 -2.83,-0.95 -3.82,-3.16 -4.48,-6.1 -1.03,-4.54 -1.11,-9.2 -2.81,-13.72 -1.49,-3.97 -1.6,-8.49 -2.89,-12.73 -2.25,-7.42 -5.5,-14.45 -7.92,-21.81 -1.81,-5.51 -2.65,-11.12 -3.79,-16.7 -1.16,-5.72 -1.73,-11.56 -2.5,-17.36 -0.44,-3.34 -2.82,-5.85 -3.6,-9.07 -1.82,-7.52 -0.78,-14.8 1.64,-21.95 2.42,-7.14 5.63,-14.04 7.06,-21.48 0.87,-4.53 1.21,-9.16 1.73,-13.75 1.95,-17.17 5.04,-34.08 10.86,-50.43 5.05,-14.2 5.88,-28.84 4.42,-43.76 -0.92,-9.44 -0.54,-18.95 1.46,-28.22 1.47,-6.82 3.42,-13.57 3.96,-20.53 0.64,-8.32 1.46,-16.63 2.14,-24.95 1.21,-14.95 3.26,-29.81 7.86,-44.19 0.34,-1.07 0.74,-1.87 1.91,-2.07 3.08,-0.54 7.15,2.7 8.12,5.69 2.32,7.12 2.67,14.49 1.86,21.69 -1.05,9.33 1,18.45 0.6,27.7 -0.42,9.84 1.44,19.6 1.25,29.48 -0.07,4.04 2,8.03 2.16,12.27 0.08,2.15 0.29,4.31 -0.06,6.4 -0.72,4.28 2.51,7.92 1.67,12.23 -1.77,9.16 2.29,18.18 0.77,27.39 -0.74,4.52 -1.1,9.16 -1.11,13.74 -0.02,7.04 -1.26,14.73 1.11,20.96 2.65,7 -1.24,12.05 -1.68,17.99 -0.17,2.38 -0.76,4.47 0.79,6.71 2.7,3.88 2.29,7.99 -0.92,11.24 -1.53,1.55 -1.14,3 0.28,4.03 2.85,2.04 2.16,4.18 0.36,6.26 -1.54,1.77 -1.41,3.49 -1.01,5.64 1.6,8.63 4.44,17.1 5.26,25.76 0.76,7.93 2.16,16.06 0.41,24.15 -0.51,2.38 0.46,4.8 0.11,7.35 -0.63,4.55 -1.59,9.02 -2.41,13.52 -0.34,1.88 -0.98,2.87 -3.09,1.33 -2.79,-2.05 -5.87,-3.71 -8.74,-5.67 -1.83,-1.25 -3.14,-0.95 -4.18,0.89 -0.87,1.54 -1.05,3.31 -0.76,4.95 0.4,2.27 2.16,2.37 3.91,1.56 0.74,-0.34 1.26,-1.16 2.02,-1.91l0 0z"/>
   <path class="fil6" d="M533.7 502.47c-1.77,-0.53 -1.86,0.94 -1.65,2.77 1.18,10.45 1.2,20.96 1.31,31.46 0.03,2.4 -0.84,4.26 -2.87,5.36 -1.19,0.64 -2.59,1.59 -4.09,0.59 -1.36,-0.9 -0.58,-2.19 -0.56,-3.38 0.09,-6.44 0.38,-12.9 0.01,-19.32 -0.29,-5.13 0.8,-10.11 0.82,-15.19 0,-2.89 -0.61,-5.36 -1.81,-8.03 -1.76,-3.93 -1.11,-8.44 -1.64,-12.69 -0.9,-7.29 -1.83,-14.58 -1.32,-21.96 0.08,-1.19 -0.24,-2.28 -1.12,-3.08 -3.93,-3.57 -3.68,-8.36 -3.38,-12.91 0.16,-2.36 0.25,-4.62 0.09,-6.99 -0.4,-6.05 -0.25,-12.14 0.44,-18.17 0.24,-2.1 -0.55,-3.99 -0.44,-6.03 0.39,-7.63 0.41,-15.3 1.13,-22.89 0.66,-6.92 2.5,-13.73 3.03,-20.64 0.85,-11.02 3.14,-21.76 7.89,-31.56 3.33,-6.87 1.87,-13.68 2.62,-20.48 0.63,-5.75 1.74,-11.35 3.56,-16.83 2.45,-7.36 3.98,-14.92 5.16,-22.59 0.52,-3.41 0.62,-7.16 4.62,-9.45 2,-1.15 4.86,-3.7 1.99,-7.29 -1.11,-1.39 0.06,-3.45 0.85,-5.03 2.44,-4.94 4.74,-9.97 7.52,-14.7 1.9,-3.23 0.98,-6.46 0.54,-9.49 -0.92,-6.37 0.05,-12.86 -1.59,-19.18 -0.37,-1.42 -2.79,-3.8 0.84,-4.89 5.74,-1.72 7.66,-1.27 9.45,2.42 2.09,4.33 2.18,9.16 3.45,13.7 0.57,2.06 0.96,4.16 1.4,6.26 0.35,1.66 0.82,3.34 -1.09,4.52 -1.12,0.69 -1.03,1.62 -0.2,2.56 2.65,2.98 2.16,6.6 2.17,10.18 0.02,6.03 0.37,12.07 0.4,18.1 0.01,3.02 -0.54,6.04 -0.56,9.07 -0.04,5.5 0.35,10.87 1.68,16.35 2.24,9.27 1,18.77 0.2,28.24 -1.05,12.36 -4.2,24.43 -4.6,36.9 -0.16,4.97 -0.96,10.06 -1.55,15.06 -0.44,3.67 -1.11,7.44 -0.8,11.43 0.4,5.18 -0.68,10.76 -2.27,15.97 -0.37,1.23 -0.93,2.54 -2.23,3.29 -0.58,0.34 -1.29,1.26 -0.92,1.64 3.97,3.98 -1.82,7.81 -0.13,12.13 0.68,1.74 -1.58,5.27 -2.59,7.89 -3.5,9.09 -4.46,18.68 -6.67,28.02 -1,4.2 -0.87,7.96 -0.01,12.07 1.08,5.15 -1.03,9.99 -2.6,14.81 -1.51,4.68 -3.94,9.11 -3.98,14.21 -0.01,0.82 -0.3,1.83 -0.99,2.05 -2.14,0.7 -3.03,2.55 -4.29,4.1 -1.13,1.4 -2.6,2.14 -5.21,1.65zm2.32 -33.59l0 0c0,4.27 -0.01,8.54 0.01,12.81 0,0.99 -0.19,2.34 1.06,2.52 1.13,0.16 1.14,-1.28 1.43,-2.02 1.88,-4.85 2.18,-10.03 2.21,-15.1 0.07,-10.04 1.68,-19.92 2.48,-29.88 0.34,-4.19 1.6,-8.32 2.17,-12.48 1.21,-8.77 2.16,-17.57 4.56,-26.14 0.99,-3.55 1.15,-7.08 -0.16,-10.59 -0.46,-1.22 -1.54,-2.32 -2.21,-0.59 -0.88,2.28 -2.56,4.16 -2.83,6.79 -0.6,5.79 -0.91,11.73 -2.51,17.26 -1.84,6.34 -2.72,12.79 -3.38,19.22 -0.7,6.92 -0.77,13.86 -3.44,20.42 -0.16,0.39 -0.19,0.94 -0.05,1.33 1.97,5.42 0.27,10.97 0.66,16.44zm9.99 -178.6l0 0c0.06,0.96 0.06,1.3 0.11,1.64 0.15,1.05 -0.36,2.59 1.06,2.89 1.62,0.35 1.94,-1.32 2.35,-2.39 0.99,-2.62 2.17,-5.25 2.61,-7.99 0.56,-3.54 1.97,-6.96 1.76,-10.62 -0.04,-0.66 0.02,-1.44 -0.8,-1.68 -0.82,-0.24 -1.14,0.36 -1.47,1 -0.97,1.91 -1.31,4.37 -4.24,4.55 -0.56,0.04 -0.65,0.94 -0.23,1.4 1.6,1.78 0.8,3.37 0.07,5.27 -0.79,2.04 -0.92,4.34 -1.22,5.93zm10.73 -21.38l0 0c-0.33,-0.8 -0.26,-2.09 -1.59,-2.04 -0.88,0.03 -1.22,0.88 -1.16,1.71 0.07,0.91 0.39,1.84 1.45,1.91 0.92,0.07 1.34,-0.6 1.3,-1.58l0 0z"/>
   <path class="fil7" d="M843.94 624.93c-0.1,-6.14 -0.6,-12.06 -5.05,-17.02 -1.91,-2.13 -0.66,-3.82 2.31,-4.61 6.96,-1.84 13.19,-0.31 19.23,3.27 2.19,1.3 4.79,1.92 7.25,2.74 3.84,1.28 4.95,3.52 3.89,7.26 -1.01,3.56 -1.52,7.24 -1.57,10.96 -0.04,3.22 0.06,6.44 -0.03,9.66 -0.03,1.33 -0.84,2.86 0.55,3.78 1.55,1.04 3.19,0.26 4.5,-0.69 5.02,-3.64 9.78,-7.6 13.56,-12.56 3.42,-4.49 7.21,-8.69 8.62,-14.55 0.7,-2.91 3.78,-4.27 6.97,-3.57 5.08,1.1 10.18,2.37 14.57,5.25 3.24,2.12 5.37,4.95 4.29,9.38 -0.73,2.99 -0.17,6.16 -0.34,9.26 -0.83,15.33 -4.91,29.91 -9.28,44.5 -11.04,36.87 -58.8,140.07 -89.88,147.53 -3.35,0.81 -6.53,2.64 -10.08,2.76 -1.69,0.06 -2.76,-0.74 -3.55,-2.19 -0.82,-1.5 0.42,-2.17 0.99,-3.21 3.12,-5.74 6.34,-11.45 9.12,-17.35 5.66,-12.04 12.91,-23.16 19.46,-34.68 9.96,-17.52 23.51,-40.21 31.55,-58.51 4.03,-9.17 7.53,-18.52 10.98,-27.9 3.24,-8.82 6.09,-17.78 9.07,-26.7 0.59,-1.76 1.17,-3.55 1.51,-5.37 0.3,-1.65 0.99,-3.73 -0.94,-4.71 -2.01,-1.01 -2.58,1.24 -3.67,2.27 -26.68,32.47 -40.67,16.37 -43.68,-18.31 -0.35,-2.19 -0.25,-4.46 -0.35,-6.69zm-90.4 -212.02c-0.12,-0.2 -0.14,-0.53 -0.22,-0.8 -0.1,-0.33 -0.01,-0.56 -0.1,-0.89 -0.12,-0.42 -0.37,-1.02 -0.64,-1.45 -0.42,0.05 -0.78,0.17 -0.73,0.55 0.04,0.3 0.39,0.32 0.5,0.6 0.1,0.28 0.03,0.54 -0.14,0.76 0.22,-0 0.44,0.01 0.6,0.2 0.38,0.45 0.47,1.05 0.1,1.5 -0.15,0.18 -0.43,0.12 -0.49,0.35 -0.05,0.19 0.04,0.33 0.17,0.49 0.21,0.25 0.62,-0.06 0.82,0.2 0.17,0.22 -0.13,0.5 0.07,0.69 0.19,0.18 0.41,0.09 0.67,0.07 0.54,-0.05 1,-0.18 1.23,-0.68 -0.67,-0.55 -1.66,-0.75 -2.31,-0.89 0.15,-0.24 0.29,-0.5 0.47,-0.7zm-20.9 -62.55l0 0c-0.29,0.06 -0.6,0.2 -0.83,0.33 -0.36,0.22 -0.36,0.89 -0.36,1.42 0.34,-0.61 0.74,-1.19 1.18,-1.75zm-1.38 13.88l0 0 -0.95 0c0.22,0.12 0.46,0.2 0.74,0.15l0.22 -0.15zm-2.62 32.1l0 0c0.22,-0.02 0.45,-0.06 0.61,0.09 0.36,0.33 0.14,0.76 0.32,1.23 0.1,0.28 0.02,0.66 0.31,0.7 0.21,0.03 0.39,-0.07 0.48,-0.26 0.09,-0.18 0.03,-0.33 -0.06,-0.51 -0.13,-0.24 -0.54,-0.09 -0.61,-0.36 -0.1,-0.34 0.63,-0.29 0.63,-0.65 0,-0.25 -0.15,-0.37 -0.31,-0.56 -0.2,-0.24 -0.45,-0.23 -0.65,-0.47 -0.17,-0.19 -0.33,-0.32 -0.32,-0.58 0.03,-0.4 0.85,-0.1 0.89,-0.5 0.05,-0.46 -0.65,-0.62 -1.08,-0.47 -0.49,0.18 -0.22,0.77 -0.35,1.28 0.09,0.39 0.2,0.77 0.12,1.05zm6.68 7.44l0 0c-0.33,0.07 -0.6,0.21 -0.74,0.42 -0.25,0.39 -0.58,0.98 -0.16,1.16 0.31,0.13 0.5,-0.51 0.81,-0.35 0.43,0.62 -0.17,0.98 0.1,1.23 0.31,0.29 0.72,-0.17 0.95,-0.53 0.21,-0.32 -0.09,-0.67 0.14,-0.97 0.17,-0.23 0.41,-0.19 0.61,-0.39 0.34,-0.34 -0.16,-0.58 -0.84,-0.62 -0.32,0.12 -0.56,0.11 -0.87,0.04zm18.44 6.13l0 0c0.01,0.2 -0.04,0.41 0.08,0.62 0.2,0.35 0.3,0.81 0.7,0.78 0.23,-0.01 0.32,-0.21 0.36,-0.45 -0.48,-0.18 -0.75,-0.68 -1.14,-0.95zm4.92 3.01l0 0c-0.33,0.5 0.16,0.55 0.68,0.69 -0.29,-0.18 -0.53,-0.42 -0.68,-0.69zm15.41 6.35l0 0c0.08,0.22 0.19,0.44 0.31,0.66l0.62 -0.34 -0.27 -0.46 -0.66 0.14zm2.83 1.19l0 0c-0.25,-0.3 -0.47,-0.45 -0.51,-0.73 -0.13,-0.61 -0.26,-0.92 -0.54,-0.74 -0.27,0.18 -0.06,0.55 -0.28,0.8 -0.41,0.22 -0.56,0.3 -0.57,0.5 -0.01,0.32 0.31,0.38 0.57,0.54 0.48,-0.06 0.91,-0.19 1.33,-0.37zm-3.77 -0.51l0 0c0.41,0.25 0.65,0.22 0.9,0.13 -0.26,-0.38 -0.39,-0.56 -0.68,-0.58 -0.23,0.17 -0.22,0.3 -0.21,0.45zm-23.51 -81.69l0 0c-0.4,0 -0.85,-0.13 -1.02,0.23 -0.17,0.34 0.3,0.62 0.64,0.77 0.3,-0.07 0.49,-0.23 0.75,-0.3 -0.01,-0.3 -0.13,-0.51 -0.37,-0.7zm-2.04 -2.21l0 0c-0.09,-0.21 0.1,-0.43 -0.06,-0.59 -0.15,-0.14 -0.31,-0.12 -0.51,-0.08 -0.32,0.07 -0.25,0.57 -0.57,0.62 -0.27,0.04 -0.38,-0.36 -0.64,-0.28 -0.25,0.08 -0.28,0.31 -0.38,0.55 -0.22,0.5 -0.32,0.96 0,1.41 0.44,0.61 1.7,0.72 1.94,0 0.07,-0.24 -0.12,-0.42 0,-0.64 0.9,-0.65 3.04,0.91 2.81,0 -0.09,-0.34 -0.24,-0.53 -0.51,-0.76 -0.32,0.13 -0.43,0.36 -0.71,0.41 -0.58,0.11 -1.14,-0.09 -1.36,-0.64zm3.31 -3.18l0 0c0.24,0.2 0.49,0.34 0.8,0.26l-0.8 -0.26zm5.6 -5.8l0 0c0.27,-0.06 0.49,-0.18 0.54,-0.43 0.04,-0.19 -0.05,-0.39 -0.21,-0.57 -0.17,0.19 -0.31,0.4 -0.33,0.7l0 0.3zm3.09 -3.27l0 0c0.44,0.44 0.86,1.12 1.08,1.32 0.19,-0.64 -0.31,-0.83 -0.45,-1.22 -0.21,-0.01 -0.43,-0.02 -0.63,-0.1zm21.26 -5.54l0 0 -0.46 -0.15c0.29,0.31 0.39,0.38 0.49,0.42l-0.03 -0.28zm3.71 -1.9l0 0c0.14,0.5 0.24,0.6 0.37,0.74 0.18,-0.05 0.4,-0.05 0.47,-0.24 0.15,-0.36 -0.46,-0.34 -0.85,-0.5zm154.98 -6.28l0 0c-0.4,0.17 -1.01,0.14 -0.87,0.52 0.07,0.18 0.3,0.19 0.49,0.24 0.37,-0.5 0.37,-0.63 0.38,-0.75zm-0.38 1.37l0 0c-0.55,0.46 -0.98,0.81 -1.43,1.2 0.39,0.03 0.89,-0.09 1.3,-0.17l0.13 -1.03zm4.17 0.56l0 0c0.37,0.02 0.43,-0.06 0.46,-0.15l-0.46 0.15zm21.7 5.66l0 0c-0.21,0.08 -0.43,0.09 -0.65,0.1 -0.15,0.4 -0.65,0.59 -0.64,1.08 0.42,-0.04 0.84,-0.74 1.29,-1.18zm3.16 3.34l0 0c-0.02,-0.62 -0.17,-0.83 -0.34,-1.02 -0.16,0.19 -0.25,0.38 -0.21,0.58 0.06,0.26 0.27,0.38 0.55,0.44zm5.72 5.92l0 0 -0.82 0.27c0.32,0.08 0.58,-0.07 0.82,-0.27zm3.38 3.25l0 0c-0.23,0.56 -0.8,0.77 -1.39,0.65 -0.28,-0.05 -0.4,-0.29 -0.51,-0.53 -0.49,0.34 -0.63,0.53 -0.73,0.87 -0.23,0.93 1.95,-0.66 2.56,-0.2 0.43,0.42 0.23,0.61 0.31,0.85 0.24,0.73 1.52,0.62 1.97,0 0.33,-0.46 0.23,-0.92 0,-1.44 -0.11,-0.25 -0.13,-0.49 -0.39,-0.56 -0.27,-0.08 -0.38,0.32 -0.65,0.28 -0.33,-0.05 -0.26,-0.56 -0.59,-0.63 -0.2,-0.04 -0.37,-0.05 -0.52,0.09 -0.17,0.16 0.03,0.39 -0.06,0.61zm-2.08 2.25l0 0c-0.24,0.19 -0.36,0.41 -0.37,0.71 0.26,0.08 0.45,0.24 0.76,0.31 0.35,-0.15 0.83,-0.44 0.65,-0.78 -0.18,-0.37 -0.63,-0.24 -1.04,-0.24zm-163.62 -6.24l0 0c-0.5,0.29 -1.11,0.04 -1.43,0.34 0.43,0.22 0.61,0.5 0.74,0.94 0.29,0.51 0.58,0.58 0.85,0.61 0.4,0.04 0.62,-0.15 1.03,-0.17 -0.45,-0.13 -1.01,-0.12 -0.97,-0.62 0.02,-0.29 0.15,-0.5 0.35,-0.66 -0.21,-0.14 -0.43,-0.27 -0.55,-0.45zm79.58 78.32l0 0c0.33,-0.12 0.38,-0.47 0.71,-0.59 0.36,-0.14 0.62,0.28 0.98,0.13 0.38,-0.15 0.39,-0.67 0.25,-1.05 -0.14,-0.36 -0.63,-0.17 -1,-0.03 -0.32,0.12 -0.25,0.56 -0.58,0.68 -0.4,0.16 -0.68,-0.02 -1.1,0.05 -0.27,0.27 -0.61,0.7 -0.33,0.96 0.3,0.28 0.67,0 1.06,-0.15zm28.19 17.64l0 0c0.49,-0.09 1,-0.09 0.76,-0.54 -0.13,-0.23 -0.3,-0.32 -0.56,-0.38 -0.33,-0.07 -0.57,0.01 -0.84,0.22 -0.19,0.16 -0.32,0.28 -0.35,0.52 -0.06,0.48 0.51,0.25 0.99,0.17zm6.53 0.36l0 0c-0.33,-0.5 -0.19,-1.09 0.24,-1.52 0.42,-0.42 1.07,0.16 1.49,-0.26 0.29,-0.7 -0.08,-0.65 -0.22,-0.88 -0.24,-0.41 0.28,-0.79 0.06,-1.21 -0.41,-0.82 -1.36,0.79 -1.68,1.64 -0.13,0.33 -0.05,0.57 -0.18,0.9 -0.17,0.43 -0.2,1.01 -0.66,0.97 -0.25,-0.02 -0.29,-0.29 -0.54,-0.36 -0.74,-0.21 -1.37,0.91 -1.11,1.63 0.2,0.53 0.64,0.71 1.19,0.8 0.26,0.05 0.48,0.16 0.68,-0.01 0.21,-0.17 -0.05,-0.49 0.13,-0.7 0.22,-0.25 0.61,0.1 0.85,-0.13 0.15,-0.14 0.25,-0.28 0.22,-0.48 -0.04,-0.24 -0.33,-0.2 -0.47,-0.4zm-0.57 -3.53l0 0c-0.26,0.3 -0.58,0.57 -0.94,0.78 -0.23,0.34 -0.14,0.47 0.03,0.49 0.41,0.07 0.55,-0.39 0.78,-0.73 0.12,-0.17 0.11,-0.36 0.12,-0.54zm0.74 -1.69l0 0c-0.02,0.4 -0.15,0.79 -0.35,1.15 0.21,-0.06 0.46,-0.05 0.6,-0.26 0.2,-0.29 0.02,-0.65 -0.25,-0.89zm25.14 -1.45l0 0c-0.13,-0.45 -0.17,-0.46 -0.22,-0.46 -0.29,0.02 -0.44,0.21 -0.61,0.44 0.17,0.24 0.42,0.27 0.6,0.16l0.23 -0.14zm-155.02 -60.62l0 0c-0.08,-0.33 -0.11,-0.83 -0.37,-0.86 0.25,-0.22 0.52,-0.5 0.62,-0.71 0.23,-0.5 0.2,-0.85 0.15,-1.4 -0.2,-1.85 -4.44,2.51 -3.01,3.7 0.32,0.27 0.69,0.15 0.95,0.48 0.54,0.71 -2.03,1.69 -1.17,1.96 0.26,0.08 0.82,-0.24 0.69,0 -0.97,0.79 -0.7,1.68 -0.31,2.46 0.86,1.77 4.86,-1.29 4.86,-1.29 -0.43,-1.64 0.17,-5.62 -1.5,-4.68 -0.79,0.44 -0.95,2.78 -1.28,1.93 -0.23,-0.59 0.54,-0.97 0.39,-1.59zm65.06 47.92l0 0c-0.28,-0.1 -0.45,-0.33 -0.56,-0.63 -0.45,-0.14 -0.4,-0.42 -0.6,-0.57 -0.62,-0.45 -1.6,0.39 -1.6,1.16 0,0.56 0.36,0.87 0.84,1.16 0.23,0.14 0.39,0.31 0.65,0.23 0.26,-0.09 0.12,-0.48 0.36,-0.61 0.3,-0.16 0.54,0.3 0.85,0.17 0.42,-0.61 0.13,-0.69 0.06,-0.91zm2.66 -1.45l0 0c-0.2,0.1 -0.36,0.24 -0.52,0.4 0.27,-0.12 0.44,-0.14 0.51,-0.33l0.01 -0.06zm-8.4 5.37l0 0c-0.81,0.33 -1.21,0.56 -1.92,0.53 -0.9,-0.04 -1.3,-1.38 -2.11,-0.97 -0.5,0.25 -0.25,1.1 -0.8,1.21 -0.54,0.1 -0.68,-0.51 -1.08,-0.87 -0.35,0.04 -0.68,0.14 -0.92,0.47 -0.43,0.6 0.38,1.66 -0.33,1.88 -0.56,0.17 -1,-0.2 -1.34,-0.67 -0.16,-0.23 -0.25,-0.38 -0.27,-0.66 -0.02,-0.55 1.24,-0.64 0.91,-1.08 -0.2,-0.27 -0.71,0.07 -0.82,-0.25 -3.42,0.48 -6.16,6.6 -6.08,10.78 6.41,-0.3 12.21,-7.96 18.75,-4.29 0.73,0.41 0.96,1.04 1.79,1.19 0.34,0.06 0.55,0.06 0.9,0 1.95,-0.35 -1.92,-3.49 -0.69,-5.05 0.27,-0.35 0.47,-0.52 0.84,-0.77 2.25,-1.5 -1.21,6.32 1.46,6.78 2.43,0.42 3.71,-2.33 4.18,-4.76 -0.25,0.12 -0.46,0.12 -0.56,-0.15 -0.18,-0.49 0.42,-0.78 0.33,-1.29 -0.05,-0.27 -0.12,-0.42 -0.26,-0.66 -0.56,-0.22 -0.57,-0.25 -0.5,-0.28 -1.1,0.01 -3.08,2.44 -3.29,1.18 -0.19,-1.15 2.92,-1.62 1.95,-2.27 -0.28,-0.19 -0.53,-0.08 -0.82,-0.25 -0.59,-0.37 0.26,-0.53 1.13,-0.82 0.12,-0.9 0.67,-1.89 1.37,-1.79 -0.32,-0.66 -0.92,0.79 -1.58,0.67 -1.03,-0.18 1.31,-2.16 1.08,-2.77 -0.76,-0.21 -1.01,-0.12 -1.36,0.06 -0.87,0.44 -0.24,1.82 -1.12,2.25 -0.4,0.19 -0.72,0 -1.13,0.19 -1.18,0.53 0.11,2.7 -1.11,3.13 -0.28,0.1 -0.48,0.02 -0.75,0.12 -0.81,0.32 -0.3,2.04 -1.16,1.9 -0.42,-0.07 -0.6,-0.31 -0.88,-0.63 -0.46,-0.52 0.08,-1.5 -0.59,-1.68 -0.51,-0.14 -0.73,0.63 -1.25,0.54 -0.29,-0.05 -0.51,-0.11 -0.68,-0.35 -0.33,-0.5 0.87,-0.58 1.01,-1.16 0.08,-0.35 0.1,-0.59 -0.04,-0.93 -0.39,-0.98 -1.35,2.24 -2.18,1.58l-0.08 -0.06zm33.88 0.98l0 0 0.67 -0.59c-0,-0.7 0.46,-1.1 1.05,-1.21 0.79,-0.54 1.27,-1.05 1.68,-1.53 -0.51,0.13 -1.17,0.47 -1.57,0.74 -0.29,0.2 -0.37,0.43 -0.67,0.63 -0.38,0.25 -0.75,0.71 -1.09,0.42 -0.2,-0.16 -0.07,-0.41 -0.24,-0.61 -0.49,-0.6 -1.65,-0.04 -1.84,0.71 -0.14,0.54 0.12,0.94 0.51,1.34 0.19,0.19 0.3,0.41 0.57,0.39 0.28,-0.02 0.24,-0.43 0.51,-0.5l0.42 0.21zm-11.97 -2.41l0 0c-0.47,0.18 -0.93,0.4 -1.37,0.65 0.55,0.33 0.96,0.81 1.27,0.47 0.23,-0.25 0.28,-0.49 0.23,-0.82l-0.13 -0.3zm6.82 0.97l0 0c-0.38,0.32 -1.05,-0.46 -1.75,-0.92 -0.56,0.3 -0.76,1.13 -1.25,0.86 -0.23,-0.13 -0.3,-0.3 -0.39,-0.54l-0.8 0.41c-0.06,0.67 -0.21,1.28 -0.82,1.58 -0.85,0.43 -1.69,-0.36 -2.43,0.24 -0.15,0.38 -0.22,0.63 -0.33,0.88 -0.04,0.43 -0.06,0.84 -0.48,0.85 -0.53,0.62 -0.81,1.23 -1.37,1.05 -0.26,-0.08 -0.38,-0.23 -0.54,-0.45 -0.36,-0.47 0.12,-1.01 -0.23,-1.48 -0.61,-0.83 0.14,2.41 -0.88,2.5 -0.64,0.05 -0.79,-0.8 -1.44,-0.81 -3.38,4.16 -5.33,9.46 -5.4,11.76l1.01 0.95c7.49,-4.5 13.99,-8.9 18.78,-12.61 -0.25,0.12 -0.49,0.28 -0.76,0.15 -0.27,-0.12 -0.47,-0.23 -0.56,-0.52 -0.2,-0.56 0.99,-0.33 1.27,-0.86 0.17,-0.32 0.25,-0.54 0.21,-0.9 -0.12,-1.04 -1.89,1.81 -2.52,0.96 -0.18,-0.24 -0.28,-0.42 -0.28,-0.72 0.01,-0.72 1.27,-0.21 1.66,-0.82 0.26,-0.41 0.43,-0.75 0.27,-1.21 -0.12,-0.33 -0.6,-0.33 -0.97,-0.39zm-0.69 -1.65l0 0c0.12,0.32 0.52,0.57 0.73,0.85 0.08,-0.37 -0.01,-0.54 -0.18,-0.73 -0.17,-0.2 -0.35,-0.21 -0.55,-0.13zm-8.78 -1.4l0 0c-0.36,0.3 -0.72,0.58 -1.08,0.83 0.57,0.09 0.96,-0.34 1.08,-0.83zm-46.25 7.49l0 0c0.28,0.58 0.69,0.72 1.19,0.68 -0.33,-0.46 -0.47,-0.55 -0.72,-0.67 -0.17,-0.08 -0.33,-0.08 -0.47,-0.02zm6.45 -6.92l0 0c-0.24,0.17 -0.44,0.32 -0.57,0.49 0.17,-0.04 0.35,-0.06 0.55,-0.02 0.51,0.11 0.93,0.37 1.25,0.72l0.17 -0.44c-0.35,-0.22 -0.53,-0.41 -0.66,-0.61 -0.24,0.01 -0.49,-0.03 -0.74,-0.13zm-3.52 -1.55l0 0c-0.27,0.07 -0.21,0.53 0,0.97 0.07,-0.3 0.04,-0.59 0,-0.97zm57.79 9.38l0 0c-0.32,1.01 -0.52,2.01 -0.6,2.85 1.53,0.01 3.99,0.19 6.16,-0.02 0.03,-0.27 -0,-0.44 -0.08,-0.7 -0.44,-1.46 -4.05,1.4 -3.9,-0.11 0.12,-1.16 3.25,-0.8 2.48,-1.68 -0.22,-0.25 -0.5,-0.21 -0.73,-0.46 -0.82,-0.88 2.34,-0.03 2.88,-1.1 0.15,-0.3 0.31,-0.5 0.23,-0.82 -0.16,-0.66 -1.1,0.58 -1.72,0.29 -1.08,-0.51 2.64,-2.11 1.57,-2.62 -0.4,-0.19 -0.7,-0.16 -1.13,-0.07 -0.96,0.2 -0.71,1.7 -1.66,1.88 -0.44,0.08 -0.7,-0.18 -1.14,-0.11 -1.28,0.2 -0.59,2.64 -1.88,2.74 -0.19,0.01 -0.32,-0.03 -0.47,-0.06zm-68.37 -0.97l0 0c-0.24,-0.39 -0.41,-1.02 -0.63,-1.65 -0.03,0.29 -0.1,0.52 -0.37,0.56 -0.25,0.04 -0.36,-0.22 -0.61,-0.23 -0.77,-0.04 -1.13,1.2 -0.71,1.84 0.3,0.47 0.78,0.54 1.34,0.51 0.27,-0.01 0.5,0.05 0.67,-0.16 0.17,-0.22 -0.17,-0.47 -0.03,-0.71l0.35 -0.16zm3.33 1.58l0 0c-0.03,-1.13 -0.03,-2.33 -0.33,-2.86 -0.19,0.13 -0.39,0.23 -0.54,0.46 -0.52,0.8 0.57,1.61 0.87,2.4zm-36.39 12.65l0 0c0.32,0 0.52,-0.27 0.67,-0.64 -0.48,-0.46 -0.57,-0.47 -0.67,-0.46l0 1.1zm11.28 -5.49l0 0 -0.11 0.5c-0.03,0.21 -0.01,0.33 -0.03,0.54 0.24,-0.18 0.6,-0.27 0.54,-0.62l-0.41 -0.42zm2.66 -1.61l0 0c-0.16,0.26 -0.3,0.51 -0.56,0.38 -0.21,-0.11 -0.17,-0.34 -0.33,-0.5 -0.62,-0.62 -1.3,0.37 -1.65,1.38 0.47,0.14 1.48,0.69 1.93,0.34 0.53,-0.4 1.19,-1.26 0.61,-1.6zm11.21 -4.48l0 0c-0.22,0.44 -0.45,0.88 -0.67,1.28 -0.13,1.3 2.25,2.1 1.84,3.59 -0.25,0.92 -1.4,1.02 -1.45,1.97 -0.03,0.75 1.22,1.18 0.75,1.75 -0.37,0.45 -0.94,0.38 -1.48,0.16 -0.25,-0.1 -0.42,-0.18 -0.58,-0.4 -0.32,-0.46 0.69,-1.21 0.17,-1.4 -0.32,-0.12 -0.56,0.44 -0.82,0.23 -0.24,-0.18 -0.14,-0.47 -0.08,-0.76 0.14,-0.62 1.35,-0.34 1.29,-0.97 -0.03,-0.33 -0.18,-0.54 -0.46,-0.73 -0.65,-0.43 -1.18,0.56 -1.57,1.23 -0.42,0.71 0.3,1.49 -0.26,2.1 -0.29,0.31 -1.07,0.14 -0.95,0.55 0.08,0.27 0.51,0.14 0.58,0.4 0.06,0.24 -0.08,0.4 -0.23,0.6 -0.52,0.69 -1.88,0.05 -2.08,-0.8 -0.1,-0.44 0,-0.76 0.25,-1.14 0.16,-0.25 0.4,-0.27 0.56,-0.52 0.54,-0.79 0.39,-2.05 -0.5,-2.4 -0.26,-0.09 -0.43,-0.13 -0.7,-0.08 -0.84,0.14 -0.58,1.21 -0.79,2.04 -0.14,0.6 0.26,1.18 -0.23,1.56 -0.27,0.21 -0.5,0.25 -0.83,0.23 -0.88,-0.05 -0.23,-1.72 -1.06,-2.01 -0.26,-0.09 -0.46,-0.2 -0.71,-0.08 -0.25,0.11 -0.29,0.33 -0.41,0.58 -0.22,0.51 0.56,1.37 0,1.42 -0.48,0.05 -0.27,-0.82 -0.71,-1 -0.24,-0.1 -0.42,-0.17 -0.66,-0.07 -0.25,0.11 -0.34,0.31 -0.41,0.58 -0.07,0.32 0.17,0.48 0.19,0.81 0.11,1.29 -0.48,2.68 -1.77,2.81 -0.83,0.08 -1.14,-0.64 -1.13,-1.57 -0.16,0.11 -0.36,0.18 -0.6,0.19 -0.95,0.05 -2.39,-0.61 -1.96,-1.45 0.35,-0.67 1.29,0.07 1.9,-0.37 0.93,-0.67 1.61,-2.11 0.74,-2.85 -0.29,-0.24 -0.53,-0.36 -0.87,-0.39 -0.06,0.33 -0.07,0.7 -0.07,1.08 0.01,0.67 0.74,1.04 0.47,1.65 -0.37,0.85 -0.65,-2.25 -1.49,-1.86 -0.43,0.72 0.57,1.87 -0.1,2.16 -0.27,0.12 -0.47,0.13 -0.76,0.07 -0.71,-0.13 -0.37,-1.65 -1.08,-1.51 -0.54,0.11 -0.7,0.62 -0.81,1.16 -0.21,1 1.59,1.09 1.57,2.12 -0.01,0.57 0,1.16 -0.52,1.36 -0.38,0.14 -0.66,-0.01 -1.02,-0.21 -0.97,-0.52 0.4,-2.29 -0.6,-2.75 -1.08,-0.5 -1.98,0.67 -2.5,1.75 0.48,1.68 -1.5,4.29 0.29,4.87 13,4.19 21.64,6.03 21.64,6.03 0,0 13.37,-11.37 11.96,-20.53 -0.04,-0.27 -0.06,-0.59 -0.08,-0.92 -0.29,0.43 -0.51,0.47 -0.68,0.71 -0.5,0.7 0.85,1.87 0.06,2.23 -0.38,0.17 -0.68,0.06 -1.08,-0.05 -0.67,-0.19 -0.75,-1.3 -1.42,-1.09 -0.51,0.16 -0.27,0.92 -0.75,1.13 -0.28,0.12 -0.49,0.19 -0.76,0.07 -0.55,-0.23 0.42,-0.96 0.22,-1.52 -0.12,-0.34 -0.24,-0.55 -0.53,-0.76 -0.86,-0.61 0.08,2.61 -0.97,2.52 -0.3,-0.03 -0.5,-0.07 -0.72,-0.28 -0.53,-0.49 0.69,-1.08 0.5,-1.78 -0.13,-0.47 -0.27,-0.82 -0.71,-1.01 -0.57,-0.24 -1.15,1.04 -1.49,0.53 -0.16,-0.25 0.12,-0.53 -0.07,-0.76 -0.16,-0.19 -0.35,-0.22 -0.6,-0.23 -0.7,-0.02 -0.48,1 -0.64,1.68 -0.13,0.55 0.35,1.26 -0.18,1.44 -0.26,0.09 -0.45,0.01 -0.7,-0.08 -0.9,-0.34 0.34,-2.79 -0.54,-2.41l-0.18 0.09zm1.66 -3.41l0 0 -0.54 1.09c0.82,-0.36 1.3,-0.49 0.97,-0.86l-0.43 -0.23zm4.5 -2.81l0 0c-0.19,-0.14 -0.37,-0.24 -0.54,-0.32 -0.12,0.55 -0.03,1.1 0.36,1.06 0.27,-0.02 0.38,-0.23 0.47,-0.49l-0.28 -0.25zm66.66 5.75l0 0c-0.78,1.09 -1.52,2.11 -1.72,3.28 0.43,0.09 0.74,0.33 0.74,0.33 0.89,-1.41 0.92,-2.3 0.97,-3.6zm8.96 1.85l0 0c-5.52,0.1 -10.24,2.36 -11.35,9.7 3.37,-1.73 6.93,-3.07 10.44,-4.48l2.67 -3.96c-0.54,-0.86 -2.25,0.56 -2.33,-0.33 -0.05,-0.43 0.39,-0.59 0.58,-0.93zm-60.33 1.09l0 0c-1.22,0.2 -2.29,0.75 -2.85,1.43 0.61,0.42 0.97,0.69 1.57,0.69 0.61,0 1.07,-0.38 1.28,-0.89l0 -1.23zm25.55 0.92l0 0c-4.84,-2.77 -14.81,2.19 -20.1,3.01 -0.92,2.41 -2.77,4.89 -2.7,7.56 4.27,-0.62 33.4,-0.27 25,-11.01l-2.21 0.43zm22.74 2.46l0 0c-4.62,1.68 -9.24,3.39 -13.67,5.54 3.25,1.06 6.85,1.93 10.28,1.9 1.04,-2.1 3.48,-5.05 3.39,-7.43zm-52.54 0.77l0 0c0.19,1.65 0.44,3.15 1.15,4.51 0.71,-1.36 1.2,-2.81 1.69,-4.16 -0.3,-0.37 -1.44,-0.44 -2.84,-0.35zm-4.85 2.09l0 0c-1.17,1.25 -2.19,2.66 -3.14,4.08l0 1.53 4.28 -0.01c0.35,-1.75 -0.53,-4.01 -1.14,-5.6zm50 6.49l0 0c-6.11,-1.56 -14.23,-2.87 -14.23,6.01 4.87,0.23 10.2,-3.63 14.23,-6.01zm-17.69 -0.15l0 0c-5.54,-1.17 -14.27,2.7 -20.23,1.88 -3.18,4.17 -6.55,8.28 -9.44,12.66 3.96,2.05 28.41,-7.42 29.67,-14.55zm-34.98 3.13l0 0c-1.03,-0.04 -3.9,1.2 -3.85,2.35l0 1.91c2.58,-0.53 4.56,-1.59 6.19,-2.72l0 -1.54 -2.34 0zm24.1 10.71l0 0c-7.83,1.67 -14.06,5.93 -22.41,5.93 -5.22,0 -16.75,26.36 -10.79,36.99 8.87,-1.01 17.77,-23.25 21.19,-30.11 2.7,-5.43 8.44,-8.12 12.01,-12.81zm60.84 -138.4l0 0 0.59 -0.4c-0.24,0.11 -0.47,0.2 -0.59,0.4zm-1.72 1.24l0 0 0.61 -0.44c-0.57,-0.15 -0.54,0.19 -0.61,0.44zm-1.4 1.2l0 0c0.21,-0.26 0.44,-0.5 0.72,-0.7 -0.24,-0.28 0.03,-0.9 -0.3,-1 -0.45,-0.14 -0.58,0.55 -0.64,1.01 -0.03,0.22 0.07,0.46 0.22,0.69zm-8.06 0.83l0 0 0.11 0.85c0.48,-0.58 0.41,-0.78 0.23,-0.89l-0.33 0.04zm-9.64 0.27l0 0c0.23,-0.23 0.23,-0.75 0.17,-1.34 -0.18,0.48 -0.27,0.95 -0.17,1.34zm-47.05 18.76l0 0c0.54,0.33 0.57,0.2 0.44,0.08 -0.13,-0.12 -0.28,-0.11 -0.44,-0.08zm-12.82 -9.69l0 0c0.55,-0.09 0.8,-0.47 0.89,-0.99 -0.45,-0.06 -1.02,0.08 -1.46,-0.04l0.57 1.03zm-15.44 12.34l0 0c0.78,0.5 1.24,0.56 1.65,0.33 0.24,-0.13 0.37,-0.25 0.52,-0.48 0.01,-0.21 -0.03,-0.42 -0.17,-0.63 -0.52,-0.16 -1.36,0.13 -2.26,0.49l0.26 0.3zm-2.32 0.78l0 0c0.27,0.24 0.57,0.33 0.9,0.21 -0.21,-0.14 -0.45,-0.26 -0.64,-0.41l-0.26 0.2zm-1.41 -2.64l0 0 0.36 0.88c0.24,-0.22 0.21,-0.33 0.19,-0.46 -0.09,-0.39 0.16,-0.73 0.52,-0.95 -0.49,-0.19 -0.51,0.52 -0.89,0.53l-0.17 -0zm-10.44 -1.16l0 0c0.12,0.18 0.25,0.34 0.39,0.47 -0.02,-0.21 -0.06,-0.44 0.14,-0.48 0.28,-0.06 0.34,0.37 0.63,0.37 0.21,-0 0.36,-0.03 0.48,-0.2 0.13,-0.18 0.13,-0.39 0,-0.56 -0.19,-0.25 -0.48,0.02 -0.78,0.06 -0.34,0.05 -0.58,0.26 -0.85,0.34zm108.21 100.68l0 0 -1.98 0.54c0.34,0.21 0.71,0.36 0.99,0.24 0.36,-0.16 0.79,-0.47 0.99,-0.78zm41.89 -10.37l0 0c0.42,0.19 0.86,0.31 1.36,0.38 0.27,-0.17 0.59,-0.23 0.58,-0.55 -0.39,-0.37 -0.48,-0.4 -0.58,-0.51 -0.21,-0.25 0,-0.63 -0.28,-0.81 -0.29,-0.19 -0.43,0.13 -0.59,0.49 -0.01,0.55 -0.24,0.7 -0.53,0.78l0.04 0.23zm2.88 -1.22l0 0 -0.68 -0.14 -0.28 0.47 0.63 0.34c0.12,-0.22 0.24,-0.45 0.33,-0.67zm15.73 -6.48l0 0c-0.16,0.28 -0.39,0.52 -0.69,0.7 0.54,-0.14 1.04,-0.2 0.76,-0.61l-0.07 -0.09zm5.02 -3.07l0 0c-0.39,0.28 -0.67,0.79 -1.16,0.98 0.03,0.24 0.13,0.45 0.37,0.46 0.41,0.03 0.52,-0.44 0.71,-0.79 0.12,-0.21 0.06,-0.43 0.08,-0.64zm18.83 -6.26l0 0c-0.31,0.06 -0.56,0.08 -0.89,-0.05 -0.69,0.04 -1.2,0.28 -0.85,0.64 0.2,0.2 0.45,0.16 0.62,0.39 0.23,0.32 -0.08,0.67 0.14,1 0.24,0.36 0.65,0.83 0.97,0.54 0.28,-0.26 -0.33,-0.62 -0.16,-0.96 0.57,-0.47 0.77,0.19 1.09,0.06 0.43,-0.18 0.09,-0.79 -0.16,-1.18 -0.14,-0.22 -0.42,-0.36 -0.76,-0.43zm6.82 -7.6l0 0c-0.08,-0.28 0.03,-0.67 0.12,-1.07 -0.12,-0.52 0.15,-1.12 -0.35,-1.31 -0.45,-0.16 -1.16,0.01 -1.11,0.48 0.04,0.4 0.88,0.1 0.91,0.5 0.02,0.27 -0.15,0.39 -0.32,0.59 -0.21,0.24 -0.46,0.23 -0.67,0.47 -0.16,0.2 -0.32,0.32 -0.32,0.57 0,0.37 0.75,0.31 0.65,0.66 -0.08,0.28 -0.5,0.12 -0.63,0.37 -0.1,0.18 -0.15,0.33 -0.06,0.51 0.1,0.2 0.28,0.31 0.5,0.28 0.3,-0.05 0.21,-0.43 0.33,-0.72 0.17,-0.48 -0.05,-0.92 0.33,-1.26 0.16,-0.15 0.41,-0.12 0.62,-0.09zm-2.67 -32.78l0 0c0.5,0.2 0.75,0.12 0.97,0l-0.97 0zm-1.41 -14.17l0 0c0.45,0.58 0.85,1.17 1.21,1.79 0,-0.54 -0,-1.22 -0.37,-1.45 -0.23,-0.14 -0.54,-0.28 -0.84,-0.34zm-206.64 -25.94l0 0c-0.27,-0.56 -0.54,-0.79 -0.73,-1l-0.27 0.81c0.35,0.08 0.7,0.16 1,0.19zm134.27 -16.18l0 0c0.16,0.05 0.31,0.14 0.45,0.29 0.34,0.35 0.25,0.9 0.14,1.43 1.2,-0.16 3.12,-1.41 3.01,-0.3 -0.12,1.16 -3.24,0.8 -2.47,1.68 0.33,-0.07 0.53,-0.32 0.89,-0.43 1.52,-0.47 2.82,-0.28 4.06,0.3 0.32,-0.53 0.47,-1.31 1.02,-1.06 0.38,0.17 0.5,0.46 0.69,0.83 0.19,0.39 -0.03,0.85 -0.09,1.23l0.72 0.56c0.28,-0.11 0.55,-0.33 0.85,-0.19 0.27,0.12 0.47,0.23 0.57,0.52 0.1,0.3 -0.18,0.37 -0.51,0.46 0.19,0.18 0.36,0.36 0.51,0.54 0.41,-0.32 0.8,-0.52 1.04,-0.21 0.18,0.24 0.28,0.42 0.28,0.72 -0,0.34 -0.29,0.41 -0.63,0.44 0.29,0.45 0.58,0.92 1,1.45l0.6 0.79c0.43,-0.62 0.3,-0.84 0.48,-1.06 0.18,-0.22 0.39,-0.28 0.68,-0.3 0.89,-0.08 -0.03,1.63 0.68,2.18 0.46,-0.76 0.27,-2.02 1.23,-2.5 0.85,-0.42 1.69,0.36 2.43,-0.24 0.58,-0.48 0.06,-1.7 0.81,-1.73 0.58,-0.03 0.92,0.44 1.12,1 0.07,0.19 0.12,0.34 0.11,0.51 0.13,-0.08 0.29,-0.1 0.47,-0.12 0.71,-0.07 0.27,1.02 0.43,1.73 0.17,-0.37 0.54,-0.36 0.93,-0.24 0.17,-0.29 0.38,-0.29 0.63,-0.31 0.38,-0.04 0.67,0.23 0.84,0.59 0.05,-0.72 -1.18,-0.89 -0.83,-1.34 0.25,-0.32 0.63,-0.27 1.03,-0.17 0.3,0.07 0.54,0.23 0.71,0.45 0.41,-0.25 0.83,-0.17 1.34,-0.07 1.37,0.28 -0.98,1.44 -1.97,2.78 0.37,0.03 0.8,-0 0.9,0.35 0.11,0.4 -0.47,0.63 -0.81,0.88 0.29,0.04 0.42,0.09 0.54,0.17 0.21,-0.23 0.43,-0.43 0.7,-0.41 0.5,-0.03 0.62,-0.14 0.77,0.04 0.18,0.21 0.2,0.41 0.17,0.69 0.98,-0.17 -0.08,-0.98 0.21,-1.58 0.45,-0.92 2.6,0.51 2.57,-0.51 -0.01,-0.58 -0.7,-0.65 -0.86,-1.2 -0.11,-0.42 -0.18,-0.72 0,-1.11 0.4,-0.85 2.36,0.93 2.4,0 0.03,-0.58 -1.21,-0.75 -0.86,-1.2 0.25,-0.32 0.64,-0.27 1.03,-0.17 0.72,0.17 1.11,0.89 0.99,1.63 -0.13,0.74 -1.68,0.47 -1.5,1.2 0.16,0.62 1.32,0.06 1.5,0.69 0.13,0.47 -0.68,0.7 -0.96,1 0.14,0.16 0.19,0.34 0.24,0.58 0.21,0.14 0.45,0.15 0.72,0.13 0.62,-0.04 0.8,-1.5 1.2,-1.03 0.18,0.21 0.2,0.41 0.17,0.69 -0.05,0.61 -1.34,0.43 -1.2,1.03 0.1,0.42 0.46,0.53 0.86,0.68 0.95,0.37 1.58,-1.63 2.4,-1.03 0.27,0.2 0.52,0.35 0.52,0.68 0,0.33 -0.67,0.39 -0.52,0.69 0.13,0.24 0.42,0.22 0.69,0.17 0.56,-0.1 0.48,-0.8 0.51,-1.37 0.03,-0.55 -0.39,-0.83 -0.34,-1.37 0.02,-0.27 0,-0.46 0.17,-0.68 0.31,-0.42 0.92,-0.5 1.33,-0.17 0.23,0.19 0.29,0.39 0.34,0.68 0.1,0.59 -0.78,0.78 -0.68,1.37 0.15,0.9 2.46,-0.19 2.22,0.68 -0.09,0.33 -0.52,0.35 -0.51,0.69 0.01,0.54 0.83,0.09 1.37,0.17 2,0.32 6.46,0.5 5.78,1.39 0.98,0.35 0.6,1.13 1.11,1.52 0.21,0.16 0.39,0.25 0.6,0.3 -0.27,-1.67 0.92,-2.85 2.4,-3.21 0.57,-0.14 1.16,-0.47 1.5,0 0.17,0.22 0.17,0.41 0.17,0.68 0.01,0.58 -0.69,0.74 -0.68,1.33 0.01,1.03 1.3,-2.03 2.18,-1.5 0.55,0.33 0.17,1.11 0.69,1.5 0.34,0.25 0.61,0.34 1.03,0.34 0.42,0 0.62,-0.43 1.03,-0.34 0.76,0.17 -1.19,0.95 -1.03,1.71 0.18,0.88 2.29,0.17 2.06,1.03 -0.14,0.5 -0.8,0.39 -1.03,0.86 -0.12,0.25 -0.15,0.41 -0.17,0.68 -0.11,1.52 4.28,0.14 3.6,1.5 -0.53,1.04 -3.32,-0.41 -2.91,0.69 0.12,0.31 0.39,0.37 0.51,0.68 0.45,1.12 -2.2,-0.81 -3.09,0 -0.25,0.23 -0.47,0.36 -0.51,0.69 -0.09,0.68 1.24,-0.15 1.71,0.34 0.23,0.05 0.37,0.07 0.52,0.21 0.29,0.29 0.3,0.59 0.34,0.99 0.44,0.08 0.59,0.42 1.03,0.51 1.26,0.27 1.49,-2.25 2.74,-1.88 0.29,0.08 0.39,0.27 0.68,0.34 0.84,0.22 1.44,-1.47 2.05,-0.86 0.3,0.3 0.3,0.61 0.34,1.03 0.06,0.69 -0.95,1.17 -0.52,1.71 0.33,0.42 0.96,-0.08 1.33,0.3 0.21,0.21 0.35,0.39 0.34,0.68 -0.03,0.6 -1.04,-0.04 -1.5,0.35 -0.28,0.23 -0.42,0.42 -0.51,0.77 -0.26,1.02 2.41,-1.01 2.7,0 0.08,0.29 0.11,0.49 0,0.77 -0.27,0.67 -1.26,-0.25 -1.84,0.17 -0.39,0.29 -0.67,0.55 -0.69,1.03 -0.02,0.61 1.38,0.69 1.03,1.2 -0.17,0.24 -0.54,0.08 -0.69,0.34 -0.12,0.22 -0.08,0.4 0,0.64 0.22,0.61 0.98,0.17 1.64,0.03 0.24,-0.44 0.38,-0.95 0.84,-0.8 0.53,0.28 0.63,0.31 0.72,0.43 0.18,0.21 0.17,0.41 0.17,0.69 -0.24,0.58 -0.27,0.73 -0.38,0.9 -0.31,0.46 -1.38,-0.21 -1.37,0.34 0,0.23 0.28,0.31 0.43,0.45l0.47 0.03c1.69,0.1 1.4,-2.88 3.08,-3.04 0.95,-0.09 1.45,0.94 2.35,0.64 0.71,-0.24 0.67,-1.57 1.37,-1.33 0.55,0.19 0.7,0.75 0.68,1.33 -0,0.28 -0.02,0.46 -0.17,0.69 -0.3,0.46 -1.37,-0.21 -1.37,0.34 0,0.33 0.61,0.36 0.51,0.68 -0.09,0.29 -0.39,0.3 -0.69,0.34 -0.62,0.09 -0.8,-1.14 -1.37,-0.86 -0.3,0.15 -0.44,0.36 -0.51,0.69 -0.17,0.76 0.94,0.9 1.71,1.03 0.81,0.13 1.28,-0.82 2.05,-0.51 0.4,0.16 0.52,0.94 0.86,0.68 0.22,-0.17 -0.05,-0.53 0.17,-0.68 0.2,-0.15 0.4,-0.07 0.64,0 0.83,0.24 0.72,1.74 0,2.23 -0.37,0.26 -0.71,0.27 -1.16,0.17 -0.29,-0.07 -0.39,-0.27 -0.68,-0.34 -0.93,-0.22 -2.05,0.37 -2.05,1.33 0,0.27 0.03,0.45 0.17,0.68 0.43,0.74 1.34,0.11 2.18,0 0.61,-0.08 1.02,-0.66 1.54,-0.34 0.29,0.17 0.41,0.37 0.51,0.68 0.27,0.84 -1.53,0.83 -1.5,1.71 0.01,0.28 -0.02,0.49 0.17,0.68 0.2,0.2 0.41,0.16 0.69,0.17 0.55,0.03 1.08,-1.01 1.33,-0.51 0.21,0.43 -0.67,0.55 -0.68,1.03 -0,0.26 -0.01,0.46 0.17,0.64 0.19,0.2 0.41,0.21 0.68,0.17 0.32,-0.04 0.4,-0.33 0.68,-0.47 1.17,-0.56 2.67,-0.51 3.25,0.64 0.75,1.47 -2.15,2.16 -3.77,1.88 -0.42,-0.07 -0.66,-0.56 -1.03,-0.34 -0.24,0.15 -0.15,0.44 -0.31,0.65 0.27,0.53 0.5,1.07 0.68,1.63 0.77,-0.31 0.85,-1.12 1.52,-1.09 0.83,0.04 -1.32,1.14 -1.3,1.83 0.71,0.81 1.56,-1.06 2.16,-0.46 0.21,0.21 0.29,0.39 0.34,0.68 0.12,0.71 -1.41,0.93 -1.03,1.54 0.29,0.47 0.83,0.44 1.37,0.35 1.01,-0.17 0.45,-1.88 1.42,-2.23 0.53,-0.19 1.08,-0.42 1.46,0 0.27,0.31 0.22,0.62 0.17,1.03 -0.13,1.09 -2.28,0.45 -2.36,1.54 -0.08,1.19 1.34,1.61 2.53,1.71 0.67,0.06 1.07,-0.58 1.71,-0.34 0.4,0.14 0.68,0.29 0.86,0.68 0.35,0.77 -1.38,0.83 -1.37,1.67 0,0.72 0.97,0.82 1.03,1.54 0.02,0.29 -0.04,0.56 -0.17,0.81l-3.71 0c-1.23,-0.7 -2.06,-0.54 -2.82,0 -0.14,0.26 -0.16,0.43 -0.2,0.59 0.32,0.23 0.44,0.86 0.75,0.63 0.22,-0.17 -0.05,-0.52 0.17,-0.69 0.2,-0.15 0.4,-0.07 0.64,0 0.83,0.24 0.72,1.74 0,2.23 -0.38,0.26 -0.71,0.28 -1.16,0.17 -0.29,-0.07 -0.4,-0.28 -0.69,-0.34 -0.93,-0.22 -2.05,0.37 -2.05,1.33 0,0.27 0.03,0.45 0.17,0.68 0.43,0.73 1.33,0.1 2.18,0 0.61,-0.08 1.01,-0.66 1.54,-0.34 0.29,0.17 0.41,0.36 0.51,0.68 0.27,0.84 -1.53,0.82 -1.5,1.71 0,0.27 -0.03,0.49 0.17,0.68 0.19,0.19 0.41,0.16 0.69,0.17 0.55,0.02 1.08,-1.01 1.33,-0.51 0.21,0.43 -0.67,0.54 -0.68,1.03 -0.01,0.26 -0.01,0.46 0.17,0.64 0.19,0.2 0.41,0.21 0.69,0.17 0.32,-0.05 0.39,-0.33 0.68,-0.47 1.17,-0.56 2.67,-0.51 3.25,0.64 0.74,1.46 -2.15,2.16 -3.76,1.88 -0.42,-0.07 -0.67,-0.56 -1.03,-0.34 -0.26,0.15 -0.13,0.47 -0.34,0.69 -0.59,0.59 0.07,-1.62 -0.64,-2.06 -0.57,-0.35 -1.6,-0.66 -1.71,0 -0.05,0.27 0.18,0.41 0.17,0.69 -0.01,0.36 -0.29,0.5 -0.34,0.86 -0.14,0.86 0.16,1.54 0.86,2.05 0.8,0.58 1.62,0.37 2.53,0 0.62,-0.25 0.7,-1.06 1.37,-1.03 0.85,0.04 -1.43,1.2 -1.3,1.88 0.25,-0 0.5,0.05 0.74,0.15 0.48,-0.33 1.01,-1.07 1.41,-0.66 0.21,0.21 0.29,0.39 0.34,0.69 0.06,0.33 -0.24,0.55 -0.54,0.76 0.38,0.31 0.75,0.68 1.13,1.04 0.68,-0.39 0.29,-1.83 1.17,-2.14 0.54,-0.19 1.08,-0.43 1.46,0 0.27,0.3 0.22,0.62 0.17,1.03 -0.13,1.09 -2.28,0.45 -2.35,1.54l0.45 0.4c0.49,0.42 0.93,0.81 1.33,1.2 0.25,0.05 0.51,0.09 0.75,0.11 0.68,0.06 1.07,-0.57 1.71,-0.34 0.4,0.15 0.68,0.3 0.86,0.68 0.35,0.77 -1.37,0.83 -1.37,1.67 0.01,0.72 0.97,0.82 1.03,1.54 0.02,0.29 -0.04,0.57 -0.17,0.81l-0.8 0c0.05,1.36 -0.23,2.82 -0.81,4.02l1.83 1.01c0.26,0.64 0.52,0.64 0.62,0.9 0.1,0.27 0.04,0.48 -0.07,0.75 -0.37,0.81 -1.43,-0.81 -2.24,-0.46 -0.27,0.12 -0.46,0.19 -0.63,0.43 -0.35,0.51 0.87,1.26 0.32,1.54 -0.48,0.25 -0.84,-1.06 -1.2,-0.66 -0.2,0.21 -0.17,0.45 -0.14,0.74 0.08,0.71 1.31,0.45 1.44,1.15 0.1,0.58 -0.2,0.95 -0.58,1.39 -1.16,1.36 -0.63,-3.34 -2.3,-3.97 -0.26,-0.1 -0.41,-0.22 -0.68,-0.18 -0.68,0.1 0.37,1.18 0,1.76 -0.33,0.52 -1.36,0.13 -1.39,0.75 -0.03,0.67 1.19,0.13 1.58,0.68 0.59,0.84 -1.7,2.03 -0.79,2.5 0.51,0.26 0.9,-0.3 1.46,-0.17 0.42,0.1 0.72,0.19 0.97,0.54 0.55,0.76 -1.96,1.61 -1.16,2.1 0.49,0.3 1.24,-0.7 1.46,-0.17 0.16,0.38 -0.08,0.68 -0.35,0.98 -0.5,0.55 -1.32,0.54 -1.9,0.07 -0.58,-0.47 0.4,-1.7 -0.32,-1.89 -0.62,-0.17 -0.7,1.13 -1.33,0.98 -0.64,-0.15 -0.07,-1.6 -0.72,-1.53 -0.4,0.04 -0.61,0.33 -0.78,0.69 -0.26,0.56 0.92,1.42 0.32,1.55 -0.27,0.05 -0.45,-0.03 -0.68,-0.18 -0.51,-0.34 0.27,-1.38 -0.32,-1.55 -0.41,-0.12 -0.68,0.14 -1.01,0.42 -0.79,0.65 0.67,2.18 -0.26,2.6 -0.3,0.14 -0.56,0.28 -0.85,0.12 -0.29,-0.16 -0.02,-0.78 -0.35,-0.78 -0.27,-0 -0.4,0.26 -0.48,0.51 -0.18,0.54 0.47,0.81 0.95,1.11 0.47,0.29 0.9,0.06 1.36,0.37 0.23,0.15 0.4,0.23 0.52,0.48 0.22,0.48 -0.01,1.05 -0.49,1.25 -0.28,0.11 -0.49,0.06 -0.77,-0.04 -0.56,-0.2 -0.3,-1.06 -0.86,-1.26 -0.86,-0.3 -1.03,2.25 -1.68,1.61 -0.24,-0.23 -0.06,-0.62 -0.35,-0.78 -0.47,-0.25 -0.48,0.7 -0.82,1.12 -1.37,1.75 -4.03,6.17 -4.09,3.95 -0.02,-0.63 0.67,-1.08 0.3,-1.6 -0.5,-0.7 -1.54,0.13 -2.03,0.84 -0.23,0.33 -0.17,0.62 -0.35,0.98 -0.82,1.62 1.13,-5.26 -0.57,-4.63 -0.42,0.16 -0.88,0.21 -0.95,0.65 -0.05,0.33 0.36,0.45 0.35,0.78 -0.02,0.33 -0.16,0.53 -0.42,0.75 -0.42,0.37 -0.95,-0.11 -1.43,0.19 -1.1,0.69 -0.26,2.65 0.92,3.2 0.7,0.33 1.26,-0.34 2,-0.07 1.42,0.53 1.87,2.14 1.47,3.61 -0.16,0.56 -0.15,1.24 -0.73,1.31 -0.27,0.03 -0.44,-0.05 -0.68,-0.18 -0.51,-0.27 -0.32,-0.97 -0.83,-1.24 -0.91,-0.49 1.15,2.12 0.25,2.64 -0.55,0.32 -1.06,-0.39 -1.64,-0.13 -0.39,0.17 -0.59,0.36 -0.8,0.73 -0.21,0.37 0.08,0.75 -0.2,1.07 -0.52,0.58 -0.26,-1.5 -1,-1.73 -0.86,-0.26 -1.25,1.93 -1.89,1.3 -0.37,-0.37 0.04,-0.88 -0.25,-1.31 -0.16,-0.22 -0.29,-0.33 -0.52,-0.48 -1.27,-0.83 -2.2,3.68 -3.05,2.42 -0.66,-0.96 1.96,-2.7 0.81,-2.88 -0.33,-0.05 -0.52,0.16 -0.85,0.12 -1.19,-0.15 1.77,-1.53 1.49,-2.7 -0.07,-0.33 -0.08,-0.58 -0.35,-0.78 -0.55,-0.41 -0.47,1.16 -1.13,1.33 -1.15,0.31 0.67,-3.31 -0.49,-3.01 -0.2,0.05 -0.36,0.13 -0.49,0.23 0.07,0.55 0,1.04 -0.42,1.49 0.07,0.55 0.28,1.04 -0.07,1.46 -0.28,0.34 -0.65,0.31 -0.95,0.65 -0.85,0.97 1.24,2.4 0.32,3.31 -0.21,0.21 -0.43,0.22 -0.63,0.43 -0.6,0.63 0.59,1.97 -0.25,2.21 -0.4,0.12 -0.68,-0.03 -1.06,-0.2 -0.64,-0.28 -0.56,-1.39 -1.25,-1.28 -0.53,0.09 -0.4,0.87 -0.91,1.02 -0.29,0.08 -0.51,0.12 -0.76,-0.03 -0.51,-0.31 0.54,-0.89 0.42,-1.48 -0.07,-0.36 -0.16,-0.57 -0.42,-0.82 -0.77,-0.72 -0.28,2.6 -1.31,2.36 -0.29,-0.07 -0.49,-0.14 -0.67,-0.37 -0.46,-0.56 0.83,-0.98 0.74,-1.69 -0.06,-0.48 -0.15,-0.85 -0.57,-1.1 -0.53,-0.32 -1.28,0.87 -1.54,0.31 -0.13,-0.27 0.19,-0.51 0.03,-0.76 -0.13,-0.21 -0.32,-0.27 -0.56,-0.31 -0.34,-0.06 -0.5,0.16 -0.59,0.47 1.44,1.76 0.32,2.58 -1.74,3.04 0.42,0.59 0.77,1.19 0.48,1.86 -0.38,0.87 -1.53,0.81 -1.71,1.75 -0.13,0.73 1.04,1.34 0.5,1.84 -0.43,0.39 -0.99,0.25 -1.5,-0.04 -0.24,-0.14 -0.39,-0.24 -0.51,-0.48 -0.25,-0.49 0.85,-1.11 0.37,-1.37 -0.29,-0.16 -0.62,0.36 -0.85,0.12 -0.2,-0.22 -0.07,-0.49 0.03,-0.77 0.22,-0.59 1.38,-0.16 1.41,-0.78 0.02,-0.34 -0.1,-0.56 -0.35,-0.78 -0.58,-0.52 -1.25,0.39 -1.73,1 -0.51,0.65 0.09,1.52 -0.55,2.05 -0.33,0.27 -1.08,-0.01 -1.02,0.42 0.04,0.27 0.49,0.21 0.52,0.48 0.03,0.25 -0.13,0.38 -0.31,0.56 -0.62,0.61 -1.87,-0.21 -1.95,-1.08 -0.04,-0.45 0.11,-0.75 0.41,-1.09 0.2,-0.22 0.43,-0.21 0.63,-0.44 0.64,-0.7 0.67,-1.98 -0.16,-2.44l-0.92 -0.14c-0.6,0.21 -0.54,1.17 -0.82,1.87 -0.23,0.57 0.08,1.21 -0.45,1.52 -0.29,0.16 -0.52,0.18 -0.85,0.12 -0.87,-0.17 0.02,-1.74 -0.77,-2.14 -0.24,-0.13 -0.42,-0.26 -0.68,-0.18 -0.27,0.08 -0.34,0.28 -0.48,0.52 -0.29,0.47 0.36,1.44 -0.2,1.41 -0.48,-0.03 -0.15,-0.85 -0.56,-1.1 -0.22,-0.13 -0.4,-0.23 -0.64,-0.16 -0.34,0.52 -0.42,0.61 -0.52,0.68 -0,0.22 0.13,0.4 0.11,0.66 -0.07,1.29 -0.84,2.58 -2.14,2.54 -1.43,-0.05 -1.01,-2.25 -0.19,-3.66l-1.33 0.38c0.19,0.32 0.32,0.58 0.26,0.97 -0.13,0.92 -2.53,-0.2 -2.29,0.7 0.14,0.56 1.37,0.36 1.17,0.9 -0.14,0.38 -0.53,0.44 -0.93,0.46 -0.51,0.03 -0.94,-0.23 -1.2,-0.64 -0.5,0.12 -0.76,-0.08 -1.09,-0.32 -0.3,-0.22 -0.32,-0.54 -0.24,-0.89l-1.38 0.31c-0.32,0.54 -0.34,0.43 -0.28,0.06l-1.28 0.22c-0.03,0.2 -0.11,0.38 -0.29,0.54 0.37,0.4 0.94,-0.08 1.58,0.21 1.37,0.65 1.69,2.3 1.16,3.72 -0.2,0.55 -0.25,1.22 -0.84,1.24 -0.27,0.01 -0.43,-0.09 -0.66,-0.24 -0.49,-0.32 -0.23,-0.99 -0.72,-1.31 -0.86,-0.57 0.96,2.21 0.03,2.65 -0.58,0.27 -1.02,-0.48 -1.62,-0.27 -0.4,0.14 -0.62,0.31 -0.86,0.66 -0.24,0.35 0.01,0.75 -0.29,1.04 -0.57,0.54 -0.12,-1.52 -0.85,-1.81 -0.83,-0.34 -1.41,1.81 -2,1.13 -0.34,-0.4 0.12,-0.88 -0.14,-1.33 -0.13,-0.24 -0.25,-0.36 -0.47,-0.53 -1.19,-0.94 -2.51,3.47 -3.25,2.14 -0.57,-1.02 2.19,-2.52 1.06,-2.8 -0.32,-0.08 -0.53,0.11 -0.86,0.04 -1.17,-0.25 1.9,-1.37 1.72,-2.55 -0.05,-0.33 -0.03,-0.59 -0.28,-0.81 -0.51,-0.45 -0.57,1.11 -1.25,1.23 -1.17,0.21 0.95,-3.24 -0.22,-3.04 -0.44,0.08 -0.66,0.27 -0.96,0.59 -0.67,0.72 0.4,1.79 -0.29,2.49 -0.31,0.32 -0.67,0.26 -1,0.57 -0.93,0.9 1.03,2.5 0.03,3.33 -0.23,0.19 -0.44,0.18 -0.67,0.37 -0.65,0.57 0.41,2.01 -0.44,2.18 -0.41,0.08 -0.67,-0.09 -1.04,-0.29 -0.61,-0.34 -0.44,-1.44 -1.13,-1.38 -0.53,0.04 -0.47,0.84 -0.99,0.93 -0.29,0.05 -0.52,0.08 -0.76,-0.1 -0.49,-0.35 0.62,-0.83 0.55,-1.43 -0.04,-0.36 -0.11,-0.59 -0.35,-0.86 -0.71,-0.79 -0.51,2.56 -1.51,2.23 -0.29,-0.09 -0.47,-0.18 -0.64,-0.43 -0.41,-0.6 0.91,-0.9 0.88,-1.62 -0.02,-0.48 -0.08,-0.86 -0.47,-1.14 -0.5,-0.36 -1.35,0.76 -1.57,0.18 -0.1,-0.28 0.24,-0.5 0.1,-0.76 -0.12,-0.23 -0.29,-0.3 -0.53,-0.36 -0.68,-0.17 -0.69,0.86 -1,1.49 -0.25,0.51 0.06,1.31 -0.51,1.37 -0.27,0.03 -0.44,-0.09 -0.67,-0.24 -0.8,-0.54 0.96,-2.64 0.01,-2.47 -0.48,0.09 -0.66,0.42 -0.96,0.8 -1.03,1.34 1.6,2.77 0.8,4.25 -0.45,0.84 -1.59,0.68 -1.85,1.59 -0.2,0.71 0.92,1.42 0.33,1.88 -0.46,0.36 -1,0.16 -1.48,-0.17 -0.23,-0.16 -0.37,-0.27 -0.47,-0.53 -0.21,-0.51 0.94,-1.02 0.48,-1.33 -0.28,-0.19 -0.65,0.3 -0.86,0.04 -0.19,-0.23 -0.03,-0.49 0.1,-0.76 0.27,-0.57 1.39,-0.03 1.47,-0.66 0.05,-0.33 -0.05,-0.56 -0.28,-0.8 -0.54,-0.57 -1.28,0.28 -1.81,0.84 -0.56,0.6 -0.04,1.52 -0.72,1.99 -0.35,0.25 -1.07,-0.1 -1.05,0.33 0.02,0.28 0.46,0.25 0.47,0.53 0.01,0.25 -0.17,0.37 -0.36,0.53 -0.67,0.56 -1.85,-0.37 -1.85,-1.25 -0,-0.46 0.17,-0.74 0.51,-1.05 0.22,-0.2 0.45,-0.17 0.66,-0.37 0.71,-0.64 0.84,-1.91 0.05,-2.45 -0.23,-0.15 -0.39,-0.22 -0.67,-0.24 -0.85,-0.06 -0.84,1.05 -1.22,1.81 -0.28,0.55 -0.02,1.21 -0.58,1.47 -0.3,0.14 -0.54,0.14 -0.86,0.04 -0.85,-0.25 0.17,-1.73 -0.58,-2.2 -0.23,-0.14 -0.39,-0.29 -0.66,-0.24 -0.27,0.05 -0.36,0.25 -0.53,0.47 -0.33,0.45 0.23,1.46 -0.31,1.39 -0.48,-0.07 -0.08,-0.86 -0.47,-1.14 -0.21,-0.15 -0.37,-0.26 -0.63,-0.22 -0.27,0.05 -0.4,0.23 -0.53,0.47 -0.14,0.29 0.05,0.51 0,0.83 -0.18,1.28 -1.07,2.5 -2.35,2.34 -1.63,-0.2 -0.59,-2.99 0.55,-4.18 0.29,-0.31 0.83,-0.24 0.86,-0.67 -0.64,0.06 -1.27,0.22 -1.92,0.38 0.03,0.17 0,0.34 -0.13,0.52l-1.41 -0.15c-0.32,0.12 -0.42,0.13 -0.52,0.12l-1.65 0.37c0.33,0.34 0.63,0.69 0.51,1.15 -0.14,0.55 -0.25,1.13 -0.81,1.21 -0.4,0.05 -0.64,-0.17 -0.95,-0.43 -0.48,-0.42 -0.1,-1.07 0.13,-1.68l-3.2 0.69c-0.06,0.35 -0.08,0.69 -0.41,0.93 -0.35,0.25 -0.62,0.4 -1.05,0.33 -0.4,-0.07 -0.4,-0.45 -0.36,-0.87 -20.83,4.39 -44.47,9.3 -46.31,31.58 -7.14,0.03 -27.84,39.33 -28.43,46.96 -0.38,4.91 0.14,9.86 -0,14.78 53.98,8.49 101.71,23.26 139.61,42.26 8.12,3.58 16.25,7.22 24.58,10.37 1.54,0.58 4.48,0.79 3.83,2.91 -0.6,1.92 -3.31,1.17 -5.15,0.74 -2.15,-0.5 -4.34,-1.81 -5.99,0.98 -0.19,0.33 -1.06,0.47 -1.55,0.38 -178.94,-79.1 -330.32,-57.61 -598.12,25.75 -2.9,0.9 -2.14,3.54 -1.9,5.12 5.03,33.43 -7.36,97.17 -16.5,129.11 -0.91,3.18 -2.15,6.38 -3.51,9.44 -0.83,1.85 -5.32,4.95 -8.06,3.99 -2.71,-0.95 -7.78,-0.6 -7.93,-4.49 -1.4,-36.59 6.78,-86.01 6.62,-131.66 -0,-2.07 -0.57,-3.04 -3.04,-2.65 -77.94,12.33 -232.58,72.12 -303.41,26.39 -6.85,-4.42 -13.32,-9.4 -19.15,-14.93 -8.13,-7.69 -13.52,-17.43 -16.26,-28.4 -0.53,-2.13 -0.63,-4.84 1.13,-6.37 2.06,-1.78 4.5,-0.67 6.58,0.7 4.75,3.14 8.78,6.84 11.75,11.91 3.1,5.28 7.79,9.36 12.94,12.68 62.86,40.5 340.16,-48.35 433.19,-65.65 3.04,-0.56 3.31,-3.63 2.51,-6.17 -2.57,-8.09 -0.49,-16.05 0.64,-24.03 0.47,-3.34 0.92,-6.69 1.53,-10 0.32,-1.74 -0.14,-2.14 -1.89,-2.05 -5.26,0.28 -4.72,-0.03 -6.74,-4.79 -1.49,-3.55 -2.96,-7.73 -7.99,-8.71 -4.88,-0.96 -7.36,-6.33 -5.65,-11.07 0.11,-0.31 0.33,-0.81 0.21,-0.95 -3.11,-3.37 -0.92,-7.95 -2.86,-11.8 -1.7,-3.39 -2.3,-7.57 -2.47,-11.44 -0.2,-4.69 -1.2,-9.42 -0.19,-14.13 0.07,-0.33 0.19,-0.76 0.05,-1 -2.41,-4.08 -1.04,-8.48 -1.14,-12.76 -0.04,-1.83 -0.23,-3.6 -2.42,-4.37 -1.45,-0.52 -0.92,-1.87 -0.8,-2.95 0.95,-8.74 2.61,-17.4 4.71,-25.87 2.39,-9.68 2.71,-19.54 4.13,-29.3 0.51,-3.54 -0.41,-7.16 0.08,-10.8 1.01,-7.61 2.52,-15.09 4.41,-22.52 1.08,-4.24 1.34,-8.69 2.2,-12.99 1.72,-8.63 2.95,-17.39 5.08,-25.87 1.71,-6.78 1.57,-13.61 2.85,-20.32 0.26,-1.35 0.53,-2.66 1.29,-3.82 0.66,-1 0.99,-2.12 0.67,-3.23 -1.79,-6.1 0.37,-12.08 0.6,-18.11 0.08,-2.06 -0.39,-3.99 -0.48,-5.98 -0.28,-6.37 1.09,-12.59 1.38,-18.9 0.1,-2.11 1.11,-2.67 3.14,-2.22 5.13,1.12 5.73,0 5.73,-5.19 0,-8.25 -1.84,-16.28 -2.18,-24.47 -0.11,-2.57 -0.72,-5.12 -1.06,-7.68 -0.3,-2.25 -0.86,-4.57 2.29,-5.46 3.15,-0.89 6.44,-0 7.7,2.52 1.69,3.37 2.47,7.05 2.63,10.77 0.35,8.29 0.44,16.59 0.67,24.89 0.13,4.54 -1,8.95 -1.38,13.4 -0.42,5.01 -0.76,10.24 1.62,15.21 1.96,4.11 4.23,8.21 4.43,12.96 0.07,1.53 0.63,2.85 1.75,3.91 6.6,6.3 7.09,9.29 3.5,17.82 -0.84,2.01 -1,4.37 -1.19,6.59 -0.88,10.18 -2.95,20.24 -3.62,30.41 -0.46,7.01 0.31,14.12 2.82,20.93 2.85,7.73 4.79,15.91 5.06,23.99 0.29,8.3 1.99,16.7 0.08,25.05 -0.54,2.35 0.5,4.71 0.92,6.93 0.95,5.09 -0.88,10.32 1.29,15.3 0.8,1.83 0.14,3.77 -1.15,5.39 -1.21,1.52 -1.61,3.47 0.19,4.42 3.7,1.97 2.77,5.42 2.81,8.28 0.04,3.32 -1.18,6.4 -3.45,9.24 -2.07,2.58 -3,6.02 -2.98,9.5 0.01,1.24 0.37,2.53 0.16,3.71 -2.28,12.59 -0.26,25.43 -2.14,38.03 -0.6,4.01 -1.53,7.95 -3.28,11.66 -2.37,5.02 -4.97,6.66 -10.43,5.91 -2.5,-0.34 -3.37,0.15 -3.38,2.85 -0.08,11.53 0.42,23.05 -0.39,34.57 -0.17,2.29 0.61,3.33 2.96,2.09 0.3,-0.16 0.64,-0.44 0.92,-0.4 5.72,0.75 10.78,-2.71 16.46,-2.54 3.82,0.11 7.5,-0.7 11.06,-2.54 86.01,-24.59 171.58,-32.03 248.44,-27.14 -0.68,-0.44 -1.06,-1.02 -0.6,-1.63 0.75,-1.02 2.21,-0.83 3.24,-0.09 0.26,0.18 0.28,0.46 0.58,0.56 0.26,0.08 0.47,0.11 0.69,-0.05 0.2,-0.15 0.23,-0.34 0.27,-0.59 0.06,-0.47 -0.77,-0.72 -0.5,-1.1 0.32,-0.44 0.66,0.64 1.2,0.71 0.27,0.03 0.47,0.1 0.69,-0.05 0.22,-0.16 0.22,-0.37 0.28,-0.63 0.17,-0.85 -1.57,-1.12 -1.17,-1.89 0.15,-0.29 0.3,-0.46 0.61,-0.58 0.56,-0.22 0.85,0.41 1.43,0.58 0.8,0.24 1.57,1 2.1,0.36 0.17,-0.21 0.24,-0.37 0.28,-0.63 0.16,-0.92 -0.83,-1.68 -1.77,-1.61 -0.29,0.02 -0.42,0.2 -0.71,0.22 -0.45,0.03 -0.77,-0.04 -1.08,-0.35 -0.61,-0.59 -0.48,-2.05 0.36,-2.14 0.24,-0.03 0.45,-0.07 0.62,0.1 0.19,0.19 -0.13,0.49 0.05,0.69 0.28,0.31 0.52,-0.43 0.93,-0.52 0.79,-0.17 1.09,0.82 1.9,0.83 0.76,0.01 1.86,0.05 1.82,-0.71 -0.02,-0.33 -0.12,-0.55 -0.38,-0.74 -0.5,-0.36 -0.88,0.8 -1.46,0.6 -0.28,-0.09 -0.56,-0.15 -0.6,-0.44 -0.04,-0.32 0.54,-0.25 0.6,-0.58 0.1,-0.53 -1.04,-0.06 -1.26,-0.55 -0.11,-0.24 -0.09,-0.42 -0.06,-0.69 0.09,-0.57 0.32,-1.08 0.88,-1.17 0.72,-0.11 0.46,1.16 1.1,1.5 0.82,0.44 1.47,-0.47 2.37,-0.23 1.59,0.43 0.84,3.26 2.48,3.43 0.47,0.05 0.83,0.15 1.21,-0.13 0.76,-0.55 -1.92,-0.73 -1.76,-1.66 0.04,-0.27 0.07,-0.46 0.28,-0.63 0.42,-0.36 0.77,0.4 1.3,0.56 0.66,0.2 1.4,0.89 1.74,0.29 0.12,-0.21 0.18,-0.39 0.1,-0.62 -0.1,-0.27 -0.48,-0.18 -0.6,-0.44 -0.26,-0.54 1.1,-0.39 1.19,-0.99 0.06,-0.47 -0.16,-0.76 -0.5,-1.1 -0.49,-0.51 -1.59,0.23 -1.75,-0.47 -0.06,-0.29 0,-0.47 0.13,-0.74 0.44,-0.93 2.68,1.47 2.6,0.44 -0.03,-0.35 -0.14,-0.56 -0.37,-0.83 -0.37,-0.45 -1.46,0.01 -1.39,-0.57 0.04,-0.29 0.21,-0.44 0.44,-0.61 0.42,-0.3 0.94,0.28 1.33,-0.07 0.51,-0.45 -0.39,-1.07 -0.21,-1.73 0.1,-0.4 0.16,-0.7 0.5,-0.94 0.69,-0.49 0.99,1.24 1.84,1.16 0.29,-0.03 0.43,-0.18 0.72,-0.22 1.26,-0.15 1.07,2.32 2.33,2.26 0.44,-0.02 0.64,-0.32 1.08,-0.33 0.95,-0.01 1,1.47 1.96,1.48 0.43,0 0.72,-0.03 1.07,-0.29 0.93,-0.69 -2.94,-1.52 -2,-2.21 0.54,-0.4 1.68,0.61 1.71,-0.05 0.01,-0.33 -0.18,-0.49 -0.38,-0.75 -0.72,-0.92 -3.58,0.5 -2.97,-0.5 0.17,-0.28 0.44,-0.3 0.6,-0.58 0.57,-0.99 -2.36,-0.05 -2.69,-1.13 -0.44,-1.42 3.57,0.62 3.71,-0.86 0.02,-0.27 0.02,-0.43 -0.05,-0.69 -0.15,-0.49 -0.8,-0.49 -0.85,-1 -0.09,-0.87 1.83,0.16 2.15,-0.65 0.28,-0.71 -1.47,-1.78 -0.71,-1.82 0.42,-0.02 0.53,0.43 0.93,0.5 0.41,0.07 0.68,0.02 1.05,-0.17 0.56,-0.29 0.32,-1.1 0.9,-1.33 0.94,-0.37 1.68,2.79 1.86,1.8 0.1,-0.56 -0.55,-0.83 -0.45,-1.39 0.05,-0.27 0.08,-0.45 0.28,-0.63 0.41,-0.4 0.92,0.02 1.44,0.25 1.37,0.58 2.32,1.92 1.85,3.33 -0.24,0.72 -1.08,0.74 -1.27,1.48 -0.3,1.23 0.68,3.07 1.88,2.65 0.52,-0.18 0.48,-0.88 1.01,-0.98 0.32,-0.06 0.56,-0.05 0.83,0.14 0.27,0.2 0.1,0.58 0.38,0.74 0.38,0.22 0.7,-0.1 1.07,-0.33 1.53,-0.91 -4.91,-3.62 -3.18,-3.25 0.39,0.08 0.57,0.3 0.96,0.33 0.83,0.06 2.1,-0.23 1.87,-1.04 -0.17,-0.59 -0.93,-0.35 -1.4,-0.75 -1.65,-1.4 3.34,-0.74 5.51,-0.72 0.53,0 1.25,0.58 1.35,0.06 0.06,-0.32 -0.35,-0.42 -0.38,-0.75 -0.07,-0.61 0.9,-0.12 1.6,-0.03 -0.3,-2.96 -0.49,-5.93 -0.49,-8.92 0,-15.88 12.21,-28.74 12.33,-44.6 -8.11,-3.27 -16.35,-6.21 -24.56,-9.24 -0.38,0.58 -0.12,2.03 -0.6,1.57 -0.3,-0.28 -0.05,-0.68 -0.29,-1.02 -0.23,-0.34 -0.45,-0.51 -0.84,-0.64 -0.59,-0.21 -1.02,0.53 -1.59,0.26 -0.92,-0.42 0.86,-3.15 0.02,-2.59 -0.47,0.31 -0.22,0.97 -0.7,1.28 -0.23,0.15 -0.38,0.25 -0.65,0.24 -0.57,-0.02 -0.62,-0.68 -0.82,-1.22 -0.52,-1.39 -0.21,-3.01 1.13,-3.65 0.63,-0.29 1.19,0.18 1.78,-0.02 -0.41,-0.34 -0.48,-0.52 -0.51,-0.72l-1.25 -0.22c0.07,0.37 0.04,0.48 -0.18,0.11l-1.44 -0.47c0.07,0.34 0.06,0.66 -0.24,0.87 -0.32,0.24 -0.57,0.43 -0.96,0.34 -0.36,0.37 -0.78,0.62 -1.28,0.6 -0.4,-0.03 -0.77,-0.09 -0.91,-0.46 -0.2,-0.53 1,-0.33 1.14,-0.87 0.23,-0.89 -2.12,0.22 -2.24,-0.69 -0.06,-0.38 0.07,-0.63 0.26,-0.95l-1.3 -0.37c0.8,1.38 1.21,3.53 -0.19,3.58 -1.27,0.04 -2.02,-1.22 -2.09,-2.48 -0.01,-0.25 0.12,-0.44 0.11,-0.65 -0.32,-0.38 -0.34,-0.49 -0.34,-0.6 -0.41,-0.14 -0.58,-0.04 -0.8,0.09 -0.41,0.24 -0.08,1.05 -0.55,1.08 -0.54,0.03 0.09,-0.92 -0.19,-1.38 -0.14,-0.23 -0.21,-0.43 -0.47,-0.51 -0.26,-0.07 -0.43,0.06 -0.67,0.18 -0.78,0.4 0.1,1.93 -0.75,2.1 -0.33,0.06 -0.55,0.04 -0.83,-0.11 -0.52,-0.3 -0.22,-0.93 -0.44,-1.48 -0.28,-0.7 -0.22,-1.63 -0.8,-1.83l-0.48 -0.03c-1.24,0.62 -1.21,1.87 -0.58,2.55 0.2,0.22 0.42,0.21 0.62,0.43 0.3,0.33 0.44,0.63 0.4,1.07 -0.08,0.84 -1.3,1.66 -1.9,1.06 -0.17,-0.17 -0.34,-0.31 -0.31,-0.55 0.04,-0.27 0.47,-0.2 0.51,-0.47 0.06,-0.42 -0.67,-0.14 -1,-0.41 -0.62,-0.52 -0.03,-1.37 -0.53,-2.01 -0.47,-0.6 -1.12,-1.49 -1.69,-0.98 -0.24,0.22 -0.36,0.44 -0.34,0.77 0.03,0.62 1.17,0.19 1.38,0.77 0.1,0.27 0.23,0.54 0.03,0.75 -0.23,0.24 -0.54,-0.27 -0.83,-0.12 -0.47,0.25 0.6,0.86 0.36,1.34 -0.12,0.24 -0.27,0.34 -0.51,0.47 -0.49,0.29 -1.04,0.43 -1.46,0.04 -0.54,-0.49 0.62,-1.08 0.49,-1.8 -0.17,-0.92 -1.3,-0.86 -1.67,-1.71 -0.29,-0.66 0.06,-1.25 0.47,-1.82 -2.02,-0.46 -3.12,-1.26 -1.87,-2.82 0.06,-0.47 -0.09,-0.68 -0.42,-0.63 -0.24,0.04 -0.42,0.1 -0.55,0.3 -0.16,0.25 0.16,0.49 0.03,0.75 -0.26,0.54 -1,-0.62 -1.51,-0.31 -0.4,0.24 -0.5,0.61 -0.55,1.08 -0.09,0.7 1.17,1.11 0.73,1.66 -0.19,0.23 -0.37,0.3 -0.66,0.36 -1.01,0.24 -0.53,-3.01 -1.28,-2.31 -0.25,0.24 -0.34,0.46 -0.41,0.8 -0.12,0.57 0.92,1.14 0.42,1.45 -0.25,0.15 -0.47,0.11 -0.75,0.03 -0.5,-0.13 -0.38,-0.9 -0.89,-0.99 -0.67,-0.11 -0.59,0.98 -1.22,1.25 -0.38,0.16 -0.65,0.31 -1.04,0.19 -0.82,-0.23 0.34,-1.55 -0.24,-2.17 -0.21,-0.21 -0.41,-0.22 -0.62,-0.42 -0.9,-0.89 1.15,-2.28 0.31,-3.24 -0.29,-0.33 -0.65,-0.29 -0.93,-0.63 -0.33,-0.42 -0.14,-0.89 -0.07,-1.44 -0.41,-0.43 -0.48,-0.92 -0.41,-1.46 -0.13,-0.1 -0.28,-0.17 -0.48,-0.22 -1.12,-0.3 0.65,3.25 -0.47,2.95 -0.65,-0.17 -0.58,-1.7 -1.11,-1.3 -0.26,0.19 -0.27,0.44 -0.34,0.76 -0.27,1.15 2.63,2.49 1.46,2.64 -0.33,0.04 -0.51,-0.17 -0.83,-0.12 -1.13,0.17 1.44,1.87 0.8,2.82 -0.84,1.24 -1.74,-3.18 -2.99,-2.37 -0.22,0.15 -0.35,0.25 -0.5,0.47 -0.29,0.42 0.12,0.93 -0.25,1.29 -0.63,0.61 -1.02,-1.53 -1.86,-1.27 -0.73,0.23 -0.48,2.27 -0.98,1.7 -0.27,-0.31 0,-0.68 -0.2,-1.04 -0.2,-0.37 -0.4,-0.55 -0.78,-0.72 -0.58,-0.26 -1.06,0.44 -1.61,0.12 -0.88,-0.5 1.13,-3.06 0.25,-2.58 -0.5,0.27 -0.31,0.96 -0.81,1.22 -0.24,0.12 -0.4,0.21 -0.67,0.18 -0.57,-0.07 -0.56,-0.73 -0.71,-1.29 -0.39,-1.44 0.05,-3.02 1.45,-3.53 0.72,-0.26 1.26,0.39 1.96,0.07 1.15,-0.54 1.97,-2.46 0.9,-3.13 -0.47,-0.29 -0.99,0.18 -1.4,-0.18 -0.24,-0.22 -0.39,-0.41 -0.41,-0.73 -0.02,-0.33 0.39,-0.44 0.34,-0.77 -0.07,-0.43 -0.52,-0.48 -0.93,-0.63 -1.66,-0.62 0.24,6.12 -0.56,4.53 -0.18,-0.36 -0.11,-0.63 -0.34,-0.96 -0.48,-0.69 -1.5,-1.5 -1.99,-0.82 -0.36,0.51 0.31,0.95 0.29,1.57 -0.07,2.17 -2.67,-2.15 -4.01,-3.87 -0.33,-0.42 -0.33,-1.34 -0.8,-1.09 -0.29,0.15 -0.11,0.53 -0.34,0.76 -0.63,0.62 -0.8,-1.88 -1.64,-1.58 -0.55,0.2 -0.3,1.04 -0.85,1.24 -0.28,0.1 -0.48,0.14 -0.75,0.03 -0.47,-0.19 -0.7,-0.75 -0.48,-1.22 0.11,-0.24 0.28,-0.32 0.51,-0.47 0.45,-0.3 0.88,-0.07 1.33,-0.36 0.48,-0.3 1.11,-0.56 0.93,-1.09 -0.09,-0.26 -0.2,-0.51 -0.47,-0.5 -0.33,0 -0.06,0.61 -0.34,0.77 -0.29,0.16 -0.53,0.02 -0.83,-0.12 -0.9,-0.41 0.51,-1.91 -0.25,-2.54 -0.33,-0.26 -0.59,-0.52 -1,-0.4 -0.58,0.16 0.19,1.18 -0.31,1.51 -0.23,0.15 -0.41,0.23 -0.67,0.17 -0.59,-0.12 0.56,-0.96 0.31,-1.51 -0.17,-0.36 -0.36,-0.63 -0.76,-0.68 -0.64,-0.07 -0.08,1.35 -0.7,1.5 -0.61,0.14 -0.69,-1.12 -1.3,-0.96 -0.71,0.19 0.25,1.39 -0.32,1.85 -0.56,0.46 -1.37,0.46 -1.86,-0.07 -0.27,-0.29 -0.5,-0.6 -0.34,-0.96 0.22,-0.52 0.96,0.46 1.44,0.16 0.78,-0.47 -1.68,-1.31 -1.14,-2.05 0.25,-0.34 0.54,-0.43 0.95,-0.53 0.55,-0.13 0.94,0.42 1.43,0.17 0.89,-0.46 -1.35,-1.63 -0.78,-2.45 0.38,-0.54 1.58,-0.01 1.55,-0.67 -0.03,-0.6 -1.04,-0.22 -1.37,-0.73 -0.36,-0.57 0.67,-1.63 0,-1.73 -0.27,-0.04 -0.42,0.08 -0.67,0.18 -1.65,0.62 -1.12,5.22 -2.26,3.88 -0.37,-0.44 -0.67,-0.8 -0.56,-1.36 0.12,-0.69 1.33,-0.43 1.41,-1.13 0.03,-0.29 0.06,-0.52 -0.14,-0.72 -0.36,-0.39 -0.71,0.89 -1.17,0.65 -0.54,-0.28 0.66,-1.02 0.31,-1.51 -0.17,-0.24 -0.35,-0.31 -0.62,-0.43 -0.8,-0.34 -1.84,1.25 -2.2,0.45 -0.12,-0.26 -0.17,-0.46 -0.07,-0.73 0.1,-0.25 0.35,-0.25 0.5,-0.48l1.89 -1.39c-0.57,-1.18 -0.85,-2.61 -0.8,-3.94l-0.78 0c-0.12,-0.24 -0.19,-0.5 -0.17,-0.79 0.05,-0.71 1,-0.8 1.01,-1.51 0,-0.83 -1.68,-0.88 -1.34,-1.63 0.17,-0.38 0.45,-0.53 0.84,-0.67 0.63,-0.22 1.01,0.39 1.67,0.34 0.24,-0.02 0.49,-0.06 0.74,-0.11 0.38,-0.39 0.82,-0.77 1.3,-1.18 0.36,-1.46 -1.74,-0.83 -1.87,-1.9 -0.05,-0.39 -0.1,-0.71 0.16,-1 0.37,-0.42 0.91,-0.19 1.43,0 0.86,0.31 0.48,1.72 1.15,2.1 0.37,-0.35 0.73,-0.71 1.1,-1.02 -0.29,-0.2 -0.58,-0.42 -0.53,-0.74 0.05,-0.29 0.13,-0.46 0.33,-0.67 0.4,-0.4 0.92,0.32 1.39,0.64 0.24,-0.09 0.48,-0.15 0.72,-0.15 0.13,-0.67 -2.1,-1.8 -1.27,-1.84 0.65,-0.03 0.74,0.76 1.34,1.01 0.89,0.36 1.7,0.57 2.48,0 0.68,-0.5 0.97,-1.17 0.84,-2.01 -0.06,-0.35 -0.33,-0.49 -0.34,-0.84 -0,-0.27 0.21,-0.41 0.17,-0.67 -0.11,-0.64 -1.12,-0.34 -1.68,0 -0.7,0.43 -0.05,2.59 -0.63,2.01 -0.2,-0.21 -0.08,-0.52 -0.33,-0.67 -0.35,-0.21 -0.6,0.27 -1.01,0.34 -1.58,0.27 -4.41,-0.41 -3.69,-1.85 0.58,-1.13 2.05,-1.18 3.19,-0.63 0.29,0.14 0.36,0.42 0.67,0.46 0.27,0.04 0.48,0.03 0.67,-0.17 0.17,-0.18 0.17,-0.38 0.17,-0.63 -0.01,-0.47 -0.88,-0.58 -0.67,-1.01 0.24,-0.49 0.75,0.53 1.3,0.5 0.27,-0.01 0.48,0.02 0.67,-0.17 0.19,-0.19 0.16,-0.41 0.17,-0.67 0.03,-0.87 -1.74,-0.85 -1.47,-1.67 0.1,-0.31 0.22,-0.5 0.5,-0.67 0.51,-0.31 0.91,0.26 1.51,0.33 0.83,0.11 1.71,0.72 2.14,0 0.13,-0.23 0.17,-0.4 0.17,-0.67 0,-0.93 -1.11,-1.51 -2.02,-1.3 -0.28,0.07 -0.39,0.27 -0.67,0.34 -0.43,0.1 -0.76,0.08 -1.13,-0.17 -0.7,-0.48 -0.82,-1.94 0,-2.18 0.24,-0.07 0.43,-0.14 0.63,0 0.22,0.16 -0.04,0.51 0.17,0.67 0.3,0.23 0.43,-0.38 0.74,-0.61 -0.05,-0.16 -0.06,-0.33 -0.04,-0.58 -0.9,-0.53 -1.72,-0.68 -2.74,-0.12l-3.82 0.12c-0.12,-0.24 -0.19,-0.51 -0.17,-0.79 0.05,-0.71 1,-0.8 1.01,-1.51 0,-0.82 -1.69,-0.88 -1.34,-1.63 0.17,-0.38 0.44,-0.53 0.84,-0.67 0.63,-0.23 1.01,0.39 1.68,0.33 1.16,-0.1 2.55,-0.51 2.47,-1.67 -0.07,-1.07 -2.17,-0.44 -2.31,-1.51 -0.05,-0.4 -0.09,-0.71 0.17,-1.01 0.37,-0.42 0.91,-0.19 1.43,0 0.95,0.34 0.39,2.02 1.38,2.18 0.54,0.09 1.06,0.12 1.34,-0.33 0.38,-0.6 -1.13,-0.81 -1,-1.51 0.05,-0.29 0.13,-0.47 0.33,-0.67 0.58,-0.58 1.41,1.24 2.08,0.57 0.05,-0.8 -2.06,-1.87 -1.25,-1.91 0.66,-0.03 0.74,0.76 1.34,1 0.33,-0.49 0.55,-1.03 0.81,-1.54 -0.16,-0.21 -0.07,-0.5 -0.3,-0.63 -0.35,-0.22 -0.6,0.26 -1,0.33 -1.58,0.27 -4.42,-0.41 -3.69,-1.84 0.57,-1.13 2.05,-1.18 3.19,-0.63 0.28,0.14 0.35,0.42 0.67,0.46 0.26,0.04 0.48,0.02 0.67,-0.17 0.18,-0.18 0.17,-0.37 0.17,-0.63 -0.01,-0.47 -0.87,-0.58 -0.67,-1.01 0.24,-0.49 0.76,0.53 1.3,0.5 0.27,-0.01 0.48,0.02 0.67,-0.17 0.19,-0.19 0.16,-0.4 0.17,-0.67 0.03,-0.87 -1.73,-0.85 -1.47,-1.68 0.1,-0.31 0.22,-0.5 0.5,-0.67 0.52,-0.31 0.91,0.26 1.51,0.34 0.83,0.1 1.72,0.72 2.14,0 0.14,-0.23 0.17,-0.4 0.17,-0.67 0,-0.94 -1.1,-1.52 -2.01,-1.3 -0.29,0.07 -0.39,0.27 -0.67,0.33 -0.43,0.1 -0.76,0.08 -1.13,-0.17 -0.71,-0.48 -0.82,-1.94 0,-2.18 0.23,-0.07 0.43,-0.14 0.63,0 0.22,0.16 -0.05,0.5 0.17,0.67 0.33,0.25 0.45,-0.52 0.84,-0.67 0.75,-0.29 1.21,0.63 2.01,0.5 0.75,-0.12 1.85,-0.26 1.68,-1.01 -0.07,-0.32 -0.21,-0.53 -0.5,-0.67 -0.55,-0.27 -0.73,0.93 -1.34,0.84 -0.29,-0.04 -0.58,-0.06 -0.67,-0.33 -0.1,-0.31 0.5,-0.34 0.5,-0.67 0,-0.54 -1.04,0.11 -1.34,-0.34 -0.15,-0.22 -0.16,-0.4 -0.17,-0.67 -0.01,-0.57 0.13,-1.12 0.67,-1.3 0.69,-0.23 0.65,1.07 1.34,1.3 0.89,0.29 1.38,-0.72 2.31,-0.63 1.64,0.16 1.37,3.08 3.02,2.98l0.46 -0.03c0.43,-0.97 -0.62,-0.32 -0.92,-0.77 -0.11,-0.17 -0.15,-0.31 -0.16,-0.48 -0.21,-0.67 -0.22,-0.86 -0.05,-1.07 0.41,-0.26 0.54,-0.36 0.71,-0.42 0.45,-0.15 0.59,0.35 0.83,0.78 0.65,0.14 1.4,0.57 1.61,-0.02 0.08,-0.24 0.12,-0.42 0,-0.63 -0.14,-0.26 -0.5,-0.09 -0.67,-0.33 -0.35,-0.5 1.03,-0.57 1.01,-1.17 -0.02,-0.47 -0.29,-0.73 -0.67,-1.01 -0.57,-0.42 -1.54,0.49 -1.8,-0.17 -0.11,-0.27 -0.08,-0.47 0,-0.75 0.29,-0.99 2.9,1 2.64,0 -0.08,-0.34 -0.23,-0.53 -0.5,-0.75 -0.45,-0.38 -1.44,0.25 -1.47,-0.33 -0.01,-0.29 0.13,-0.46 0.34,-0.67 0.36,-0.37 0.97,0.11 1.3,-0.29 0.42,-0.53 -0.57,-1 -0.51,-1.67 0.04,-0.41 0.05,-0.71 0.34,-1.01 0.6,-0.6 1.19,1.05 2.01,0.84 0.28,-0.07 0.39,-0.25 0.67,-0.34 1.22,-0.36 1.44,2.11 2.69,1.85 0.43,-0.09 0.58,-0.42 1.01,-0.5 0.03,-0.39 0.05,-0.68 0.33,-0.96 0.14,-0.14 0.28,-0.16 0.51,-0.21 0.46,-0.48 1.76,0.33 1.67,-0.33 -0.04,-0.33 -0.26,-0.45 -0.5,-0.67 -0.87,-0.79 -3.46,1.09 -3.02,0 0.12,-0.31 0.39,-0.37 0.5,-0.67 0.39,-1.07 -2.34,0.35 -2.85,-0.67 -0.67,-1.33 3.63,0.02 3.52,-1.46 -0.02,-0.27 -0.05,-0.43 -0.17,-0.67 -0.23,-0.46 -0.87,-0.35 -1.01,-0.84 -0.23,-0.85 1.83,-0.15 2.01,-1.01 0.16,-0.74 -1.75,-1.51 -1,-1.67 0.4,-0.09 0.59,0.33 1,0.33 0.41,0 0.68,-0.09 1.01,-0.33 0.5,-0.38 0.13,-1.15 0.67,-1.47 0.87,-0.52 2.12,2.48 2.14,1.47 0,-0.57 -0.68,-0.73 -0.67,-1.3 0,-0.27 0.01,-0.45 0.17,-0.67 0.34,-0.46 0.91,-0.13 1.46,0 1.45,0.35 2.62,1.51 2.39,2.98 0.17,0.12 0.34,0.03 0.54,-0.12 0.5,-0.37 0.13,-1.14 0.67,-1.46 -0.25,-0.89 4.12,-1.07 6.08,-1.39 0.52,-0.08 1.33,0.36 1.34,-0.17 0,-0.33 -0.42,-0.36 -0.5,-0.67 -0.23,-0.86 2.04,0.21 2.18,-0.67 0.1,-0.58 -0.76,-0.77 -0.67,-1.34 0.05,-0.29 0.11,-0.49 0.34,-0.67 0.4,-0.32 1,-0.24 1.3,0.17 0.16,0.22 0.14,0.4 0.17,0.67 0.04,0.54 -0.37,0.81 -0.34,1.34 0.03,0.56 -0.04,1.24 0.5,1.34 0.27,0.05 0.55,0.07 0.67,-0.17 0.15,-0.29 -0.5,-0.34 -0.5,-0.67 0,-0.33 0.24,-0.48 0.5,-0.67 0.8,-0.59 1.42,1.37 2.35,1 0.39,-0.15 0.74,-0.26 0.84,-0.67 0.14,-0.58 -1.12,-0.4 -1.17,-1 -0.02,-0.27 -0.01,-0.47 0.17,-0.67 0.39,-0.46 0.57,0.96 1.17,1 0.27,0.02 0.51,0.01 0.71,-0.13 0.04,-0.23 0.08,-0.41 0.22,-0.56 -0.27,-0.3 -1.06,-0.53 -0.93,-0.99 0.17,-0.61 1.32,-0.07 1.47,-0.67 0.18,-0.71 -1.34,-0.45 -1.47,-1.17 -0.12,-0.72 0.26,-1.43 0.96,-1.6 0.39,-0.09 0.77,-0.14 1.01,0.17 0.34,0.44 -0.87,0.61 -0.84,1.18 0.04,0.91 1.96,-0.83 2.35,0 0.18,0.38 0.11,0.68 0,1.09 -0.15,0.54 -0.82,0.61 -0.84,1.17 -0.03,1 2.08,-0.4 2.51,0.5 0.29,0.59 -0.76,1.38 -0.17,1.67 0.35,-0.39 0.36,-0.59 0.54,-0.8 0.5,0.04 0.62,-0.03 0.76,-0.04 0.26,-0.02 0.48,0.18 0.68,0.41l0.53 -0.17c-0.34,-0.25 -0.91,-0.47 -0.8,-0.87 0.1,-0.34 0.51,-0.31 0.88,-0.34 -0.96,-1.31 -3.26,-2.45 -1.93,-2.72 0.5,-0.11 0.92,-0.18 1.32,0.06 0.17,-0.21 0.4,-0.37 0.69,-0.44 0.38,-0.09 0.76,-0.14 1,0.17 0.35,0.44 -0.86,0.61 -0.84,1.17 0.2,-0.21 0.48,-0.46 0.85,-0.43 0.25,0.02 0.46,0.02 0.62,0.3 0.39,-0.12 0.75,-0.13 0.92,0.24 0.16,-0.7 -0.28,-1.77 0.42,-1.7 0.18,0.02 0.33,0.04 0.46,0.11 -0.01,-0.17 0.04,-0.31 0.11,-0.5 0.2,-0.53 0.52,-0.99 1.09,-0.97 0.73,0.03 0.22,1.23 0.79,1.7 0.48,0.39 1,0.18 1.54,0.12l0 4.28c0.94,0.16 1.01,-1.28 1.53,-0.94 0.44,0.3 -0.52,1.24 0,1.37 0.28,0.07 0.47,-0.07 0.71,-0.24 0.59,-0.42 -0.24,-1.36 0.31,-1.81 0.46,-0.37 0.92,-0.29 1.5,-0.17 1.72,0.35 -2.45,2.1 -2.37,3.83 0.95,-1.25 2.21,-1.8 4.02,-1.2 0.7,0.12 1.45,0.37 1.43,-0.24 -0.02,-0.57 -0.7,-0.64 -0.86,-1.2 -0.11,-0.42 -0.18,-0.72 0,-1.11 0.4,-0.85 2.36,0.94 2.4,0 0.03,-0.57 -1.21,-0.74 -0.85,-1.2 0.25,-0.32 0.63,-0.27 1.03,-0.17 0.72,0.17 1.11,0.9 0.99,1.63 -0.13,0.74 -1.68,0.47 -1.5,1.2 0.16,0.62 1.33,0.07 1.5,0.69 0.18,0.63 -1.36,0.83 -0.99,1.37 0.24,0.33 0.58,0.37 0.99,0.34 0.61,-0.04 0.8,-1.49 1.2,-1.03 0.18,0.21 0.19,0.41 0.17,0.69 -0.04,0.61 -1.34,0.43 -1.2,1.03 0.1,0.42 0.46,0.53 0.85,0.69 0.18,0.07 0.35,0.06 0.51,-0.01 -0.2,-0.28 -0.27,-0.56 -0.01,-0.81 0.3,-0.29 0.55,-0.42 0.97,-0.45 0.6,0.1 0.76,0.11 0.93,0.24 0.27,0.2 0.51,0.35 0.51,0.68 -0.19,0.48 -0.05,0.56 0.14,0.58 0.18,0.01 0.32,-0.04 0.45,-0.09 0.1,-0.28 0.08,-0.67 0.09,-1 0.03,-0.55 -0.39,-0.82 -0.34,-1.37 0.02,-0.27 0.01,-0.46 0.17,-0.68 0.31,-0.42 0.92,-0.5 1.33,-0.17 0.23,0.19 0.29,0.39 0.34,0.68 0.09,0.59 -0.79,0.78 -0.69,1.37 0.15,0.9 2.47,-0.19 2.23,0.68 -0.09,0.33 -0.52,0.35 -0.52,0.69 0.01,0.54 0.84,0.09 1.37,0.17 1.5,0.24 4.41,0.41 5.46,0.85 0.85,-1 1.71,0.59 2.47,0.14 0.24,-0.14 0.44,-0.22 0.52,-0.48 0.08,-0.27 -0.06,-0.44 -0.18,-0.68 -0.25,-0.5 -1.41,-0.46 -1.09,-0.91 0.27,-0.4 0.8,0.33 1.23,0.1 0.18,-0.39 0.1,-0.62 0.07,-0.91 -0.19,-0.47 -0.35,-0.49 -0.51,-0.6 -1.06,-0.74 -1.74,-2.08 -1.01,-3.16 0.51,-0.76 1.36,-0.42 2.1,0.3 0.59,-1.16 1.58,-1.99 2.91,-1.94 0.44,0.01 0.67,0.22 1.1,0.2 0.25,-0.01 0.48,-0.06 0.71,-0.13 -0.09,-0.16 -0.2,-0.32 -0.32,-0.47 -0.64,-0.81 -1.86,0.52 -2.63,-0.16 -0.43,-0.38 -0.89,-0.74 -0.71,-1.28 0.13,-0.38 0.44,-0.5 0.82,-0.65 1.01,-0.41 1.5,1.77 2.49,1.31 1.08,-0.51 0.76,-1.95 0.27,-3.04 -0.28,-0.62 -1.02,-0.66 -1.13,-1.33 -0.07,-0.42 -0.07,-0.74 0.18,-1.08 0.51,-0.68 1.39,0.8 2.12,0.39 0.63,-0.36 0.24,-1.25 0.85,-1.65 0.24,-0.16 0.51,-0.23 0.79,-0.24l1.79 3.24c-0.01,1.2 0.35,1.81 0.94,2.22 -0.06,-0.2 -0.04,-0.4 0.08,-0.6 0.22,-0.34 0.55,-0.37 0.95,-0.43 0.76,-0.11 0.96,0.96 1.37,1.53 -0.02,-0.5 -0.11,-1.03 -0.2,-1.5 -0.37,-1.68 -1.03,-2.46 -0.81,-3.87 0.3,-1.92 1.36,0.87 2.79,3.24 -0.18,-1.09 -0.89,-1.3 -0.83,-1.99 0.03,-0.43 0.11,-0.73 0.44,-1 0.65,-0.54 1.16,1.11 1.96,0.89 0.7,-0.19 0.54,-1.16 1.22,-1.39 0.28,-0.1 0.56,-0.11 0.83,-0.05l0.96 3.58c-0.21,0.79 -0.19,1.26 -0.04,1.67 0.6,-0.17 0.84,-0.15 1.23,-0.08 0.96,0.17 0.92,0.97 0.74,1.95l2.83 -1.98c0.68,0.05 0.8,-0.19 1.07,-0.17 0.29,0.02 0.45,0.17 0.64,0.39 1.03,0.19 1.96,0.75 1.79,1.69 -0.14,0.77 -0.66,1.17 -1.4,1.44 -0.44,0.22 -0.94,0.23 -1.17,0.35 0.19,0.07 0.42,0.1 0.59,0.24 0.77,0.17 1.07,-0.46 1.58,-0.32 0.57,0.16 0.76,0.59 1,1.13 0.41,0.93 -0.71,0.52 -1.99,0.21 0.08,0.9 -0.68,1.96 -1.29,3.05 0.48,0.09 0.57,-1.07 1.18,-1.17 1.01,-0.16 1.08,2.42 1.9,1.81 0.46,-0.34 0.12,-0.94 0.49,-1.38 0.27,-0.34 0.49,-0.57 0.91,-0.64 0.92,-0.16 0.59,2.47 1.37,1.97 0.49,-0.31 -0.08,-1.42 0.49,-1.39 0.41,0.02 0.58,0.36 0.73,0.74 0.27,0.69 -0.1,1.43 -0.77,1.74 -0.68,0.32 -1.35,-1.11 -1.84,-0.54 -0.14,0.15 -0.11,0.32 -0.04,0.5 0.65,0.03 1.12,0.05 1.62,0.48 1.1,0.94 -1.14,2.24 -0.73,3.62 0.17,0.59 0.41,1.1 0.74,1.53 0.11,-0.18 0.22,-0.37 0.45,-0.5 -0.16,-0.35 -0.62,-0.49 -0.74,-0.93 -0.11,-0.42 -0.18,-0.72 0,-1.11 0.39,-0.85 2.36,0.94 2.4,0 0.02,-0.58 -1.21,-0.75 -0.86,-1.2 0.25,-0.32 0.63,-0.26 1.03,-0.17 0.72,0.17 1.11,0.9 0.99,1.62 -0.13,0.74 -1.68,0.48 -1.5,1.2 0.16,0.62 1.33,0.07 1.5,0.69 0.07,0.26 -0.15,0.45 -0.41,0.62 0.22,0.24 0.43,0.51 0.62,0.8 0.56,-0.54 0.73,-1.03 0.99,-0.73 0.36,-0.19 0.63,-0.53 0.85,-0.9l0.27 -0.52c0.19,-0.4 0.18,-0.78 0.12,-1.15 -0.42,0.12 -0.84,0.19 -1.17,-0.11 -0.42,-0.38 -0.88,-0.75 -0.68,-1.29 0.14,-0.38 0.45,-0.49 0.83,-0.64 0.32,-0.12 0.58,0.01 0.83,0.24 0.42,-1.17 1.03,-1.8 1.79,-2.2 -0.33,-0.38 -0.84,-0.51 -0.93,-1.07 -0.06,-0.43 -0.06,-0.74 0.2,-1.08 0.52,-0.67 1.38,0.83 2.12,0.42 0.63,-0.34 0.27,-1.24 0.87,-1.63 0.25,-0.16 0.52,-0.23 0.79,-0.23l1.74 3.27c1.99,0.8 2.13,2.78 2.39,4.5 0.25,0.01 0.42,-0.04 0.66,-0.02 0.72,0.04 0.15,1.27 0.73,1.7 0.39,0.28 0.73,0.46 1.19,0.33 0.59,-0.17 0.24,-1.53 0.83,-1.35 0.28,0.09 0.24,0.49 0.53,0.55 0.25,0.04 0.42,-0.04 0.61,-0.2 0.55,-0.43 -0.25,-1.08 -0.56,-1.71 -0.25,-0.51 -1.06,-0.75 -0.76,-1.24 0.14,-0.23 0.34,-0.29 0.6,-0.37 0.84,-0.28 1.39,1.95 1.82,1.67 0.08,-0.3 0.14,-0.62 0.19,-0.94l-0.12 -0.45c-0.42,-1.64 -3.17,-0.44 -3.84,-2 -0.38,-0.87 0.45,-1.67 -0.12,-2.44 -0.44,-0.6 -1.7,-0.15 -1.69,-0.89 0,-0.58 0.49,-0.89 1.05,-1.06 0.26,-0.08 0.44,-0.12 0.71,-0.05 0.53,0.15 0.23,1.37 0.75,1.2 0.32,-0.11 0.16,-0.7 0.5,-0.7 0.3,-0.01 0.4,0.28 0.53,0.54 0.29,0.56 -0.83,1.11 -0.39,1.57 0.23,0.24 0.48,0.3 0.81,0.27 0.36,-0.03 0.51,-0.29 0.55,-0.63 0.01,-0.63 -0.05,-1 -0.1,-1.31 -0.13,-0.82 -1.17,-0.97 -1.12,-1.8 0.02,-0.43 0.74,-0.78 0.39,-1.03 -0.23,-0.16 -0.48,0.21 -0.71,0.04 -0.2,-0.14 -0.19,-0.36 -0.2,-0.61 -0.03,-0.87 1.44,-1.22 2.12,-0.69 0.36,0.28 0.48,0.59 0.52,1.05 0.03,0.3 -0.13,0.46 -0.12,0.76 0.05,0.63 0.48,1.24 1.02,1.49 0.17,-0.18 0.31,-0.4 0.38,-0.67 0.37,-1.49 -1.69,-2.29 -1.21,-3.75 0.21,-0.64 0.3,-1.29 0.97,-1.45 0.7,-0.18 0.86,1.06 1.57,0.97 0.33,-0.05 0.57,-0.15 0.78,-0.34 -0.26,-0.17 -0.46,-0.31 -0.25,-0.5 0.17,-0.17 0.36,-0.04 0.56,0.12 0.43,-0.71 -0.84,-1.36 -0.43,-2.08 -0.12,-1.09 -0.1,-1.95 0.52,-2.56 0.87,-0.87 1.97,0.34 2.56,1.69 0.14,-0.23 0.29,-0.49 0.5,-0.67 0.76,-0.67 1.36,-1.41 1.93,-2.1 -0.3,-0.01 -0.58,-0.08 -0.77,-0.33 -0.35,-0.45 -0.74,-0.9 -0.45,-1.38 0.21,-0.35 0.53,-0.41 0.93,-0.48 0.62,-0.12 0.9,0.57 1.23,1.12 0.57,-0.6 1.18,-1.09 1.96,-1.38 -0.02,-0.31 -0.08,-0.62 -0.15,-0.92 -0.15,-0.67 -0.87,-0.84 -0.85,-1.53 0.01,-0.43 0.07,-0.74 0.39,-1.03 0.62,-0.56 1.21,1.05 2.01,0.79 0.68,-0.23 0.48,-1.18 1.15,-1.45 0.27,-0.11 0.55,-0.13 0.82,-0.09l1.14 3.53c-0.2,0.94 -0.09,1.5 0.18,1.95l-0.12 -0.65c0.21,-0.66 0.01,-0.82 0.1,-1.08 0.09,-0.28 0.27,-0.4 0.53,-0.53 0.71,-0.34 0.61,1.12 1.17,1.64 0.25,-0.36 0.44,-0.75 0.9,-0.69 0.28,0.04 0.39,0.23 0.44,0.47 0.09,-0.44 0.02,-1.04 0.43,-0.96 0.52,0.12 -0.04,1.35 0.49,1.28 0.29,-0.03 0.42,-0.23 0.58,-0.48 0.4,-0.6 -0.71,-1.19 -0.36,-1.81 0.29,-0.51 0.76,-0.6 1.34,-0.7 0.58,-0.1 0.6,0.2 0.39,0.68 0.5,0.51 0.02,2.04 0.31,3.08 0.46,-0.14 0.84,0.28 1.18,0.4 -0.07,-0.29 -0.11,-0.57 0.1,-0.7 -0.14,-0.3 -0.49,-0.58 -0.46,-0.93 0.08,-1.02 2.61,-0.46 2.21,-1.4 -0.23,-0.53 -0.89,-0.35 -1.23,-0.81 -0.26,-0.35 -0.42,-0.61 -0.4,-1.04 0.06,-0.93 2.54,0.03 2.24,-0.86 -0.18,-0.54 -1.39,-0.26 -1.23,-0.81 0.12,-0.39 0.5,-0.47 0.9,-0.53 0.74,-0.09 1.36,0.44 1.5,1.17 0.14,0.74 -1.4,1.04 -0.97,1.66 0.15,0.22 0.39,0.19 0.65,0.11 0.15,-0.32 0.38,-0.53 0.74,-0.47 0.26,0.04 0.3,0.21 0.24,0.44 0.23,0.31 -0.1,0.68 -0.34,1 -0.05,0.23 -0.04,0.45 0.1,0.62 0.37,0.19 0.61,0.11 0.87,-0 0.56,-0.26 0.21,-1.68 0.75,-1.39 0.79,0.41 0.95,1.22 1.05,2.21 0.65,-0.41 0.67,-1.96 1.52,-1.72 0.32,0.09 0.6,0.14 0.72,0.46 0.12,0.31 -0.49,0.6 -0.24,0.82 0.21,0.18 0.47,0.06 0.7,-0.08 0.49,-0.3 0.17,-0.92 -0.01,-1.46 -0.17,-0.52 -0.66,-0.63 -0.81,-1.16 -0.08,-0.27 -0.16,-0.44 -0.08,-0.7 0.13,-0.5 0.68,-0.8 1.18,-0.64 0.28,0.09 0.41,0.26 0.57,0.52 0.3,0.52 -0.46,1.01 -0.15,1.53 0.46,0.78 2.23,-1.06 2.32,-0.16 0.04,0.33 -0.36,0.51 -0.23,0.82 0.2,0.5 0.81,-0.22 1.34,-0.33 2.17,-0.46 7.05,-2.13 5.68,-0.39 0.68,-0.4 1.38,-0.78 2.1,-1.06 0.16,-0.81 0.71,-1.57 1.46,-2.09 0.48,-0.33 0.91,-0.85 1.4,-0.54 0.23,0.15 0.3,0.32 0.41,0.58 0.21,0.54 -0.38,0.94 -0.17,1.48 0.48,-0.37 0.72,-2.32 1.5,-2.18 0.63,0.11 0.56,0.98 1.17,1.15 0.41,0.12 0.69,0.1 1.08,-0.05 0.39,-0.15 0.42,-0.62 0.84,-0.69 0.77,-0.11 -0.77,1.32 -0.34,1.97 0.49,0.75 2.2,-0.67 2.29,0.22 0.02,0.25 -0.11,0.41 -0.27,0.56zm-158.28 214.54l0 -0.05c0.04,-0.26 0.28,-0.36 0.28,-0.63 -0,-0.66 -1.04,-0.53 -1.65,-0.28 -0.26,0.11 -0.4,0.45 -0.49,0.82l1.86 0.14zm209.31 -108.56l0 0c0.19,0.2 0.33,0.46 0.48,0.71 -0.66,0.14 -1.66,0.35 -2.42,0.71 0.31,0.71 0.77,0.85 1.32,0.9 0.27,0.02 0.49,0.12 0.68,-0.07 0.2,-0.2 -0.1,-0.49 0.07,-0.71 0.2,-0.27 0.62,0.05 0.83,-0.2 0.14,-0.16 0.23,-0.3 0.18,-0.5 -0.06,-0.23 -0.35,-0.17 -0.5,-0.36 -0.38,-0.46 -0.28,-1.07 0.1,-1.53 0.17,-0.2 0.38,-0.21 0.61,-0.2 -0.17,-0.23 -0.24,-0.5 -0.14,-0.78 0.11,-0.3 0.47,-0.31 0.51,-0.62 0.05,-0.38 -0.32,-0.51 -0.74,-0.56 -0.28,0.43 -0.54,1.05 -0.66,1.47 -0.1,0.34 -0.01,0.57 -0.11,0.91 -0.08,0.27 -0.1,0.61 -0.22,0.82zm-175.54 -54.28l0 0c-0.24,0.3 -0.56,0.52 -0.31,0.29l0.31 -0.29zm-21.31 154.95l0 0c-0.38,0.28 -0.93,0.53 -0.55,0.81 0.19,0.14 0.37,0.13 0.61,0.1 0.32,-0.04 0.55,-0.16 0.72,-0.44 0.13,-0.22 0.19,-0.41 0.11,-0.65 -0.15,-0.46 -0.5,-0.12 -0.89,0.17zm5.79 -2.35l0 0c-0.4,-0.07 -0.82,-0.27 -1.04,0.06 -0.22,0.31 0.19,0.66 0.5,0.86 0.41,-0.02 0.64,-0.24 1.06,-0.17 0.33,0.06 0.34,0.49 0.68,0.54 0.37,0.07 0.88,0.15 0.94,-0.23 0.07,-0.4 -0.04,-0.89 -0.44,-0.96 -0.38,-0.06 -0.54,0.38 -0.91,0.32 -0.34,-0.06 -0.45,-0.38 -0.79,-0.44zm-1.64 -2.51l0 0c-0.05,-0.23 0.18,-0.41 0.04,-0.6 -0.12,-0.16 -0.29,-0.17 -0.49,-0.17 -0.33,0.01 -0.34,0.52 -0.67,0.51 -0.27,-0 -0.31,-0.41 -0.58,-0.37 -0.26,0.03 -0.33,0.26 -0.47,0.48 -0.3,0.46 -0.47,0.89 -0.23,1.38 0.33,0.68 1.55,0.99 1.9,0.33 0.12,-0.22 -0.05,-0.43 0.11,-0.63 0.28,-0.35 0.71,0.02 1.13,0.19 0.32,0.13 0.44,0.34 0.76,0.48 0.83,0.34 2.6,0.76 2.3,-0.09 -0.16,-0.44 -0.77,-0.33 -0.9,-0.78 -0.07,-0.25 0.21,-0.48 0.03,-0.66 -0.14,-0.14 -0.3,-0.09 -0.5,-0.08 -0.57,0.02 -0.61,0.86 -1.18,0.87 -0.58,0.01 -1.11,-0.28 -1.24,-0.86zm16.33 -8.19l0 0c0.12,0.36 0.58,0.35 0.68,0.72 0.07,0.27 -0.11,0.44 -0.08,0.72 0.11,0.95 1.95,-0.91 1.64,-1.81 -0.14,-0.43 -0.4,-1.06 -0.8,-0.85 -0.3,0.16 0.08,0.71 -0.23,0.84 -0.14,0.06 -0.24,0.05 -0.39,0.02 -0.36,-0.08 -0.26,-0.77 -0.63,-0.71 -0.42,0.06 -0.31,0.66 -0.18,1.07zm-318.85 -45.99l0 0c-1.84,0.04 -3.38,-0.62 -4.24,0.87 -0.8,1.36 0.42,2.25 1.06,3.27 0.92,1.48 1.15,3.15 1.31,4.85 0.12,1.29 -0.02,3.32 1.66,3.19 2.05,-0.16 1.77,-2.19 1.58,-3.78 -0.12,-0.96 -0.73,-2.08 0.48,-2.73 1.59,-0.86 2.5,-2.06 1.87,-3.84 -0.72,-2.04 -2.54,-1.93 -3.73,-1.82zm10.38 39.67l0 0c-1.87,2.61 -3.79,5.18 -5.61,7.82 -0.81,1.17 -1.87,2.25 -1.86,3.86 0.01,0.79 -0.12,1.67 0.61,2.16 0.84,0.57 1.72,0.19 2.48,-0.34 1.04,-0.72 1.72,-1.75 2.21,-2.9 1.39,-3.29 2.26,-6.72 2.16,-10.61zm-26.02 -13.61l0 0c-0.52,1.35 -0.41,2.4 0.68,3.16 0.78,0.55 1.52,0.25 2.13,-0.31 1.08,-1 1.1,-2.05 0.22,-3.26 -0.7,-0.97 -0.32,-2.18 -0.43,-3.28 -0.12,-1.18 -0.81,-1.99 -1.94,-1.86 -1.37,0.16 -1.73,1.31 -1.46,2.54 0.23,1.06 1.1,1.98 0.8,3.01zm-44.06 213.71c-0.51,1.8 2.23,2.68 4.18,1.06 2.38,-1.97 4.56,-4.21 6.66,-6.49 9.58,-10.43 18.02,-21.69 24.82,-34.15 2.54,-4.63 5.64,-8.9 6.5,-14.42 0.55,-3.59 7.35,-7.75 11.05,-7.41 2.69,0.24 5.47,-0.34 8.09,0.81 3.32,1.46 4.26,3.49 3.18,6.81 -3.82,11.69 -5.27,23.79 -6.39,35.96 -0.97,10.59 -1.94,21.18 -2.99,31.76 -0.55,5.59 -0.28,11.12 0.89,16.59 0.77,3.55 -0.54,5.81 -4.23,6.37 -5.47,0.83 -11.03,-1.31 -13.77,-6.42 -4.33,-8.07 -4.83,-16.47 -4.4,-25.22 0.33,-6.66 2.64,-13.14 1.89,-19.91 -0.12,-1.08 0.26,-2.54 -1.1,-2.86 -1.55,-0.36 -1.49,1.33 -1.98,2.22 -6.34,11.49 -13.73,22.32 -21.06,33.19 -2.77,4.11 -5.18,8.36 -10.06,10.58 -9.93,4.52 -22.13,-3.3 -21.73,-14.22 0.54,-14.74 2.14,-29.41 3.39,-44.1 0.58,-6.79 1.31,-13.57 1.55,-20.38 0.18,-5.23 3.93,-8.13 6.83,-11.49 1.52,-1.76 3.72,-0.62 5.11,1.11 2.39,2.96 3.92,6.29 4.09,10.16 0.44,9.66 1.5,43.27 -0.53,50.44zm81.74 46.49c-3.45,0.79 -4.48,-1.97 -5.89,-3.87 -1.4,-1.9 -0.17,-3.37 1.03,-4.95 9.12,-12.03 20.91,-21.06 33.13,-29.61 2.54,-1.78 5.08,-3.54 6.87,-6.17 1.69,-2.49 1.5,-4.23 -1.52,-5.49 -8.58,-3.61 -16.73,-7.91 -24.09,-13.75 -7.26,-5.76 -9.98,-13.77 -11.48,-22.22 -1.58,-8.91 1.34,-17.29 3.61,-25.93 2.69,-10.24 9.43,-17.91 14.24,-26.71 3.06,-5.6 8.53,-10.45 14.3,-13.61 5.94,-3.25 12.91,-3.04 19.6,-1.74 3.11,0.6 7,0.14 7.56,4.92 0.56,4.82 -0.84,7.18 -5.81,9.51 -2.27,1.07 -4.52,2 -7.09,1.98 -1.26,-0.01 -2.65,0.2 -3.32,1.36 -3.64,6.36 -9.64,10.99 -12.68,17.81 -4.44,10 -8.19,20.28 -9.24,31.13 -1.22,12.54 4.11,20.54 14.89,25.01 7.19,2.99 14.6,5.59 21.11,9.97 4.37,2.93 8.81,6.1 8.13,12.31 -0.54,4.94 -2.2,9.57 -7.02,11.94 -23.69,11.61 -27.29,18.8 -56.34,28.11zm155.29 -57.29c-0.36,-5.86 1.15,-11.71 3.75,-17.27 1.02,-2.18 1.33,-4.49 1.8,-6.78 0.19,-0.94 0.22,-2.04 -0.89,-2.61 -0.95,-0.48 -1.87,-0.04 -2.33,0.64 -9.02,13.51 -26.33,34.88 -38.28,46.23 -5.79,5.49 -12.8,8.45 -20.18,10.67 -9.93,2.98 -21.75,-5.02 -23.82,-15.89 -2.4,-12.55 -0.35,-24.65 3.95,-36.45 2.63,-7.21 5.15,-14.53 9.08,-21.13 3.6,-6.04 6.61,-12.48 11.4,-17.8 2.26,-2.51 4.44,-5.04 7.46,-6.62 4.04,-2.1 7.07,-5.54 11.88,-6.82 7.07,-1.87 12.06,1.26 17,4.98 2.51,1.9 1.53,4.93 -1.37,6.56 -3.13,1.76 -6.69,1.69 -10.01,2.64 -13.4,3.86 -24.01,40.99 -26.22,51.43 -1.37,6.43 -2.35,13.14 -2.48,19.84 -0.07,3.56 1.34,4.58 4.59,3.13 6.32,-2.81 11.39,-7.52 16.76,-11.65 8.63,-6.65 16.78,-13.91 25.06,-21 8.83,-7.56 31.18,-40.92 39.4,-45.49 19.4,-10 50.09,0.08 50.44,23.22 0.08,5.22 5.13,60.01 -2.34,60.71 -5.93,0.56 -11.5,-2.28 -13.99,-7.76 -3.55,-7.81 -6.2,-15.91 -6.87,-24.55 -0.08,-0.99 -0.04,-2.03 -0.36,-2.94 -0.38,-1.09 -0.46,-2.66 -2.09,-2.7 -1.37,-0.04 -1.6,1.32 -2.21,2.22 -6.58,9.71 -13.04,19.57 -21.62,27.66 -4.56,4.3 -10.28,6.2 -16.41,3.17 -5.61,-2.77 -11.79,-8.15 -11.1,-15.64zm114.91 -60.97c-0.57,5.41 1.44,11.07 1.31,16.92 -0.02,1.17 -0.04,2.71 1.56,2.99 1.36,0.23 1.79,-1.07 2.34,-2.02 3.76,-6.53 6.39,-13.7 11.15,-19.68 2.25,-2.83 4.64,-5.42 7.61,-7.56 3.53,-2.54 7.25,-2.61 10.92,-1.06 2.65,1.11 5.32,2.02 8.07,2.71 3.56,0.87 6.09,2.95 7.17,6.34 2.81,8.78 4.04,17.79 3.14,27.02 -0.05,0.5 -0.19,1 -0.12,1.47 1.71,10.86 -1.43,21.4 -2.11,32.1 -0.17,2.5 0.57,3.58 2.77,4.39 4.98,1.85 6.21,6.53 2.89,10.67 -1.41,1.76 -2.1,3.89 -4.55,5.09 -6.24,3.03 -11.76,0.63 -16.92,-2.05 -6.5,-3.38 -8.66,-9.6 -9.18,-16.74 -0.9,-12.2 2.53,-23.78 4.35,-35.6 0.73,-4.76 1.54,-9.53 1.47,-14.37 -0.02,-1.57 0.21,-3.54 -1.75,-4.1 -1.95,-0.56 -2.99,1.23 -3.67,2.54 -3.86,7.34 -7.32,14.86 -10.16,22.68 -1.97,5.44 -3.66,10.94 -5.09,16.53 -0.97,3.79 -1.13,7.74 -2.43,11.53 -1,2.9 -1.33,6 -2.8,8.8 -1.16,2.21 -0.4,4.62 -0.2,6.96 0.35,4.12 -0.43,4.77 -4.28,3.7 -1.66,-0.46 -3.33,-1.06 -5.04,-1.22 -9.13,-0.86 -11.15,-6.92 -11.93,-14.11 -1.32,-12.21 -0.29,-24.46 -0.02,-36.71 0.2,-9.26 0.93,-18.56 -0.61,-27.83 -0.73,-4.36 -0.37,-8.9 -0.47,-13.36 -0.04,-2.19 1.62,-2.57 3.24,-2.86 6.86,-1.21 13.04,3.93 13.07,10.81 0.01,1.86 0.17,3.72 0.28,6.03l0 0z"/>
   <path class="fil8" d="M702.56 329.09c-0.64,20.05 0.89,38.52 1.89,57 0.1,1.92 0.24,3.81 -0.44,5.69 -0.9,2.49 -1.15,5 -0.1,7.57 0.33,0.8 0.34,1.79 0.28,2.67 -0.43,6.3 -0.18,12.54 0.27,18.85 0.62,8.65 0.63,17.38 -0.5,26.05 -0.11,0.89 -0.37,2.08 0.07,2.66 2.64,3.54 0.84,6.83 -0.25,10.23 -1.04,3.26 -0.87,6.7 -1.21,10.05 -0.58,5.82 -2.13,11.27 -5.46,16.13 -0.57,0.83 -1.11,2.01 -1.92,2.3 -4.17,1.48 -3.7,4.85 -3.46,8.06 0.51,7 -2.07,13.56 -2.85,20.36 -0.23,1.95 -1.61,3.53 -3.68,3.17 -2.34,-0.4 -3.3,-2.37 -2.88,-4.65 0.76,-4.09 1.57,-8.18 2.66,-12.19 0.76,-2.8 0.49,-5.6 0.67,-8.4 0.09,-1.36 -0.74,-1.81 -1.75,-2.06 -2.42,-0.6 -3.71,-2.16 -3.79,-4.57 -0.09,-2.75 -1.61,-3.34 -4.01,-3.24 -4.02,0.17 -4.83,-0.56 -4.6,-4.62 0.36,-6.55 2.67,-12.77 3.54,-19.25 1.83,-13.75 3.27,-27.44 2.91,-41.43 -0.22,-8.62 0.18,-17.52 2.1,-26.18 1.06,-4.82 0.82,-9.92 1.74,-14.77 1.18,-6.17 2.07,-12.44 3.05,-18.6 1.37,-8.62 3.17,-17.23 4.04,-25.96 0.54,-5.46 1.57,-10.88 2.36,-16.32 0.25,-1.71 0.94,-3.16 2.81,-3.32 1.91,-0.17 3.46,0.33 5,1.97 3.97,4.22 4.13,9.1 3.5,12.78zm-14.24 90.51l0 0c0.1,1 0.04,2.02 1.17,2.28 0.88,0.2 1.53,-0.37 1.98,-1.04 0.38,-0.54 0.64,-1.18 0.88,-1.81 1.9,-5.07 0.95,-10.78 3.6,-15.72 0.57,-1.06 -0.14,-2.36 -1.47,-2.56 -1.61,-0.24 -1.87,1.15 -1.75,2.25 0.21,2.03 -0.29,3.92 -1.42,5.43 -2.56,3.4 -1.94,7.53 -2.99,11.16zm-2.42 50.92l0 0c4.57,-4.2 6.69,-11.91 5.26,-17.7 -3.41,5.62 -3.52,11.89 -5.26,17.7zm0.11 -30.43l0 0c-0.21,-0.75 0.62,-2.48 -0.84,-2.89 -1.31,-0.37 -1.47,1.38 -2.07,2.25 -1.47,2.1 -1.5,4.62 -1.93,7.02 -0.18,0.98 -0.76,2.07 0.79,2.38 1.08,0.22 1.79,-0.11 2.29,-1.31 0.97,-2.29 1.8,-4.56 1.75,-7.44zm-1.39 -6.8l0 0c0.33,0.92 -0.17,1.91 0.87,2.23 0.91,0.27 1.75,-0.34 1.8,-1.09 0.19,-3.17 1.42,-6.07 2.11,-9.1 0.2,-0.89 -0.32,-1.83 -1.32,-2.08 -1.11,-0.27 -1.79,0.52 -1.85,1.46 -0.19,2.99 0.08,6.03 -1.6,8.59l0 0z"/>
   <path class="fil9" d="M689.06 637.46c-7,6.71 -16.34,20.43 -14.88,29.76 1.46,9.33 10.8,-3.79 19.84,-18.97 9.05,-15.18 0,-19.84 -4.96,-10.8z"/>
  </g>
 </g>
</svg>
