<?xml version="1.0" encoding="UTF-8"?>
<svg id="Layer_1" data-name="Layer 1" xmlns="http://www.w3.org/2000/svg" viewBox="0 0 250 250">
  <defs>
    <style>
      .cls-1 {
        fill: #6d6e71;
      }
    </style>
  </defs>
  <path class="cls-1" d="M234.21,125.12c.15-59.84-48.1-109.2-108.71-109.41-60.54-.2-109.52,48.62-109.72,108.72-.21,60.21,48.16,109.7,108.89,109.85,60.6,.15,109.54-48.74,109.54-109.16m12.95-.09c0,67.53-54.8,122.35-122.37,122.22-67.8-.14-122.1-55.33-121.96-122.65C2.98,57.36,57.84,2.57,125.3,2.75c67.78,.18,121.92,55.26,121.86,122.28"/>
  <path class="cls-1" d="M177.71,137.47c-.5-.13-.66-.21-.82-.21-9.97,0-19.95,0-29.93-.03-1.22,0-1.54,.53-1.53,1.64,.03,5.53,.04,11.05,0,16.58,0,1.3,.55,1.62,1.73,1.59,3.27-.05,6.54-.07,9.81,.02,1.31,.04,2.2-.42,3.09-1.34,5.17-5.35,10.39-10.65,15.59-15.98,.66-.68,1.27-1.4,2.07-2.29m44.19-16.54c-.66,1.92-1.91,3.42-3.32,4.84-10.35,10.32-20.67,20.66-31.02,30.98-.96,.95-1.56,1.58-.12,2.72,1.29,1.03,1.86,2.63,2.09,4.32,.27,2.08,.32,4.16,.06,6.24-.6,4.82-3.52,7.44-8.4,7.49-4.91,.04-9.82,0-14.72,0-.55,0-1.08,.05-1.67,.08,.13,.83,.73,1.14,1.15,1.56,4.33,4.36,8.73,8.66,13.02,13.07,3.51,3.61,2.1,9.27-2.58,10.53-2.61,.69-4.76-.23-6.6-2.08-4.51-4.52-9.05-9-13.51-13.55-1.07-1.09-2.17-1.56-3.7-1.56-21.84,.04-43.67,.04-65.52,0-1.65,0-2.71,.58-3.74,1.79-4.23,4.99-8.53,9.92-12.81,14.87-1.57,1.81-3.47,2.94-5.93,2.58-2.35-.34-4.09-1.65-4.92-3.9-.9-2.42-.42-4.66,1.28-6.62,3.61-4.18,7.22-8.37,10.84-12.55,.84-.98,1.7-1.95,2.55-2.94,.24-.29,.69-.56,.49-.99-.2-.45-.7-.28-1.07-.28-5.41,0-10.83-.02-16.25,0-1.08,0-2.14-.07-3.2-.32-3.37-.79-5.78-3.72-5.87-7.18-.04-1.75-.03-3.49,0-5.25,.06-4.55,3.23-7.73,7.83-7.73,15.8-.03,31.6,0,47.4,0,9.09,0,18.16-.04,27.25,.03,1.5,0,1.95-.47,1.94-1.94-.05-7.62-.04-15.23-.02-22.85,.03-5.06,2.38-7.44,7.46-7.6,.56-.02,1.13,0,1.69,0h45.2c.46,0,.91-.04,1.35,0,1.49,.19,2.54-.45,3.57-1.49,4.07-4.16,8.19-8.25,12.31-12.35,4.23-4.2,8.49-4.2,12.69-.02,1.83,1.83,3.83,3.52,4.79,6.05v4.06Z"/>
  <path class="cls-1" d="M115.03,85.35c0,13.82-11.04,25.14-24.89,25.05-14.84-.12-25.02-11.85-25.02-24.96,0-13.59,10.63-25,25.11-25.04,13.8-.03,24.79,11.22,24.8,24.96"/>
  <path class="cls-1" d="M63.41,114.44c-1.4-.06-2.46-.76-2.26-1.93,.54-3.11,.74-6.39,3.09-8.91,.87-.94,1.49-1.15,2.35,.05,1.48,2.06,3.29,3.84,5.35,5.33,1.13,.82,.92,1.41,.05,2.24-1.28,1.2-2.79,1.85-4.47,2.21-1.42,.31-2.83,.68-4.11,.99"/>
  <path class="cls-1" d="M90.15,55.57c-1.35,.08-2.71,.09-4.05,.27-1.1,.14-1.37-.33-1.42-1.3-.07-1.6,.41-3,1.22-4.33,.79-1.31,1.51-2.64,2.37-3.91,.91-1.35,2.37-1.62,3.25-.44,1.81,2.43,3.69,4.87,4.08,8.04,.22,1.77-.12,2.01-1.91,1.86-1.17-.1-2.37-.02-3.55-.02v-.18"/>
  <path class="cls-1" d="M60.44,83c-.44,1.89-.04,4.19,.11,6.5,.07,1.06-.29,1.42-1.32,1.4-1.09-.03-2.15-.1-3.11-.65-1.7-.99-3.43-1.94-5.07-3.04-1.39-.93-1.64-2.37-.46-3.24,2.12-1.56,4.27-3.2,6.91-3.81,2.91-.67,3.13-.46,2.94,2.85"/>
  <path class="cls-1" d="M84.65,116.72c-.13-1.42,.29-1.94,1.84-1.75,2.52,.33,5.08,.32,7.6-.03,1.33-.18,1.62,.39,1.55,1.48-.24,3.47-2.31,6.05-4.28,8.64-.61,.79-1.81,.86-2.42,.07-1.96-2.52-3.88-5.11-4.28-8.41"/>
  <path class="cls-1" d="M119.05,59.17c-.88,2.56-.78,5.82-3.19,8.19-.85,.84-1.41,.85-2.12-.13-1.57-2.15-3.44-4.01-5.59-5.57-.86-.62-.91-1.12-.13-1.85,.83-.77,1.64-1.59,2.74-1.9,1.89-.55,3.79-1.07,5.72-1.44,1.73-.34,2.69,.6,2.57,2.7"/>
  <path class="cls-1" d="M119.59,103.04c-.43-.06-.77-.09-1.1-.15-3.19-.64-3.34-.93-1.88-3.78,.98-1.92,1.79-3.9,2.29-5.99,.27-1.12,.81-1.33,1.83-.84,1.25,.58,2.4,1.25,3.22,2.38,.96,1.33,1.98,2.62,2.88,3.98,1.08,1.65,.57,3.04-1.32,3.45-1.97,.44-4,.65-5.91,.95"/>
  <path class="cls-1" d="M119.08,111.81c0,1.63-.64,2.72-1.84,2.51-3.16-.54-6.49-.71-9.04-3.16-.95-.91-.9-1.45,.13-2.2,2.11-1.53,3.92-3.37,5.45-5.48,.67-.91,1.2-.91,2.02-.13,1.51,1.44,2.07,3.3,2.52,5.22,.28,1.2,.56,2.4,.76,3.24"/>
  <path class="cls-1" d="M72.49,115.07c.04-.55,.04-.83,.09-1.11,.5-3.19,1.05-3.47,3.84-2.04,1.81,.92,3.67,1.76,5.66,2.17,1.5,.3,1.65,1.01,1.01,2.25-.55,1.07-1.16,2.06-2.13,2.78-1.37,1-2.7,2.05-4.1,2.98-1.66,1.09-3.05,.6-3.46-1.29-.43-1.97-.65-4-.91-5.73"/>
  <path class="cls-1" d="M63.78,56.45c2.53,.86,5.73,.76,8.13,3.03,.9,.84,1.23,1.45-.02,2.35-2.08,1.48-3.85,3.31-5.37,5.36-.71,.97-1.29,1.08-2.11,.16-.72-.81-1.48-1.58-1.77-2.64-.52-1.9-1.08-3.8-1.49-5.73-.34-1.58,.67-2.61,2.63-2.53"/>
  <path class="cls-1" d="M107.62,115.11c-.31,1.94-.57,3.89-.97,5.82-.27,1.35-1.34,2.32-2.56,1.62-2.7-1.55-5.51-3.07-7.04-6.06-.67-1.31-.48-2.03,1.05-2.39,2.36-.56,4.61-1.49,6.68-2.75,1.19-.73,1.81-.47,2.22,.8,.32,.97,.65,1.92,.63,2.97"/>
  <path class="cls-1" d="M121.38,90.91c-1.51,.15-1.9-.49-1.68-1.92,.38-2.4,.39-4.83,0-7.22-.27-1.53,.36-1.95,1.71-1.85,3.32,.28,5.81,2.3,8.32,4.16,.85,.63,.89,1.91,.05,2.55-2.53,1.94-5.08,3.92-8.41,4.27"/>
  <path class="cls-1" d="M72.56,56.12c.34-2.13,.59-4.27,1.03-6.34,.27-1.25,1.3-2.2,2.49-1.55,2.79,1.53,5.6,3.13,7.14,6.17,.64,1.25,.46,1.94-1.01,2.26-2.27,.49-4.37,1.44-6.4,2.57-1.86,1.03-2.04,.99-2.72-.99-.23-.68-.35-1.41-.53-2.11"/>
  <path class="cls-1" d="M107.66,55.39c-.04,.85-.02,1.3-.09,1.75-.44,2.94-.98,3.22-3.54,1.86-1.95-1.04-3.99-1.85-6.13-2.39-1.19-.3-1.37-.88-.87-1.95,1.48-3.19,4.44-4.71,7.21-6.38,1.07-.65,2.28,.2,2.56,1.66,.39,1.93,.61,3.89,.85,5.46"/>
  <path class="cls-1" d="M60.7,67.73c.45,.08,.84,.13,1.22,.22,3.08,.65,3.18,.88,1.76,3.59-.99,1.91-1.85,3.88-2.32,5.98-.3,1.34-.92,1.44-2.03,.93-1.04-.48-2-1.07-2.71-1.97-1.1-1.42-2.21-2.85-3.21-4.35-1.08-1.63-.55-3.04,1.34-3.44,1.97-.43,4-.65,5.95-.96"/>
  <path class="cls-1" d="M60.43,102.87c-1.94-.3-3.9-.54-5.82-.93-1.48-.31-2.33-1.64-1.6-2.76,1.66-2.56,3.06-5.41,6.03-6.87,1.27-.62,2.01-.56,2.36,1.04,.54,2.37,1.47,4.62,2.77,6.68,.73,1.16,.57,1.79-.75,2.22-.98,.32-1.93,.6-2.98,.62"/>
  <path class="cls-1" d="M119.88,67.92c1.94,.3,3.91,.54,5.83,.93,1.4,.3,2.21,1.57,1.55,2.63-1.65,2.65-3.11,5.51-6.14,7-1.24,.61-1.92,.52-2.27-.99-.56-2.43-1.51-4.73-2.83-6.85-.69-1.12-.54-1.68,.71-2.1,1.02-.35,2.04-.64,3.15-.64"/>
</svg>