<?xml version="1.0" encoding="UTF-8"?>
<svg id="Layer_1" data-name="Layer 1" xmlns="http://www.w3.org/2000/svg" viewBox="0 0 250 250">
  <defs>
    <style>
      .cls-1 {
        fill: #6d6e71;
      }
    </style>
  </defs>
  <path class="cls-1" d="M234.21,125.12c.15-59.84-48.1-109.2-108.71-109.41-60.54-.2-109.52,48.62-109.72,108.72-.21,60.21,48.16,109.7,108.89,109.85,60.6,.15,109.54-48.74,109.54-109.16m12.95-.09c0,67.53-54.8,122.35-122.37,122.22-67.8-.14-122.1-55.33-121.96-122.65C2.98,57.36,57.84,2.57,125.3,2.75c67.78,.18,121.92,55.26,121.86,122.28"/>
  <path class="cls-1" d="M97.02,181.23h1.01c1.98,0,3.12-.94,3.13-2.61,0-1.64-1.03-2.63-2.98-2.63-3.19-.03-6.23-.69-9.2-1.78-1.74-.64-3.12-.13-3.68,1.28-.64,1.57,.05,2.91,1.88,3.64,3.22,1.27,6.56,1.91,9.84,2.11m-30.26-30.41c.22,6.25,2.24,11.87,5.83,16.95,.66,.93,1.48,1.74,2.81,1.41,2.03-.49,2.81-2.46,1.58-4.26-2.25-3.26-3.81-6.78-4.6-10.67-.37-1.81-.22-3.66-.58-5.46-.27-1.34-1.35-2.18-2.61-2.1-1.42,.11-2.34,.99-2.43,2.43-.04,.56,0,1.13,0,1.69m94.16,37.9c3.02,.82,5.99,1.7,8.8,2.99,2.07,.94,3.97,2.14,5.53,3.83,.35,.38,.7,.77,.97,1.21,.4,.68,.91,1.45,.51,2.24-.39,.76-1.27,.42-1.93,.42-33.9,.02-67.8,0-101.69,0-2.12,0-2.46-.57-1.37-2.48,1.37-2.4,3.64-3.75,6-4.95,2.54-1.26,5.22-2.14,7.95-2.88,.43-.12,.92-.11,1.37-.58-2.81-1.21-5.57-2.4-8.12-3.98-14.88-9.18-23.59-22.4-25.96-39.76-.22-1.62-.21-3.28-.35-4.92-.08-1.02,.26-1.38,1.34-1.37,14.81,.04,29.62,.04,44.44,.04,31.77,0,63.56,0,95.34-.04,1.45,0,1.75,.52,1.68,1.8-.72,13.97-5.82,26.01-15.7,35.98-5.1,5.14-11.01,9.05-17.71,11.79-.38,.15-.82,.19-1.1,.65"/>
  <path class="cls-1" d="M124.06,134.4H57.07c-1.08,0-2.16-.04-3.24-.03-.81,0-1.22-.32-1.22-1.16,.02-2.78,.02-5.55,0-8.32,0-.91,.41-1.25,1.29-1.25,1.93,.03,3.85,0,5.78,0,7.66,0,15.32,.09,22.98-.04,3.23-.06,6.44,.14,9.66,.05,3.38-.08,6.77-.02,10.15-.02h30.18c3.34,0,6.68,0,10.02,0s6.77,0,10.15,0c3.33,0,6.68,0,10.01,0h30.18c2.41,0,2.42,0,2.42,2.42s-.03,4.61,0,6.91c.02,1.01-.4,1.48-1.43,1.43-.47-.03-.94,0-1.41,0H124.06"/>
  <path class="cls-1" d="M157.38,119.51c-3.2,0-6.39,0-9.59,0-.39,0-.93,.18-1.11-.33-.15-.4,.29-.65,.53-.92,10.45-12.02,20.9-24.04,31.38-36.03,.78-.9,.86-1.72,.68-2.81-1.06-6.34,1.17-11.45,6.29-15.12,5.14-3.68,10.71-4.1,16.34-.99,6.16,3.41,9.13,10.51,7.33,17.22-1.87,6.94-7.95,11.69-15.02,11.54-1.51-.03-2.49,.34-3.47,1.49-7.04,8.21-14.17,16.33-21.21,24.53-.88,1.02-1.77,1.5-3.13,1.46-3-.08-6.01-.03-9.02-.03"/>
  <path class="cls-1" d="M59.31,89.28c4.03,3.81,8.53,6.88,13.9,8.54,.47,.14,1.16,.13,1.25,.73,.09,.6-.6,.79-1.01,1.03-3.23,1.88-6.56,3.49-10.41,3.58-4.4,.11-8.01-1.71-11.16-4.61-4.78-4.4-7.6-10.08-10.22-15.89-.46-1.02-.82-2.1-1.25-3.14-.34-.84-.04-1.15,.81-1.05,3.23,.38,6.46,.47,9.7,.71,4.54,.32,9.1,.61,13.51,1.85,3.82,1.07,7.38,2.56,9.82,5.91,1.74,2.38,2.35,5.07,2.23,7.98-.04,1.09-.61,.92-1.32,.7-5.44-1.68-10.77-3.64-15.83-6.34"/>
  <path class="cls-1" d="M94.42,90.93c-4.65,.02-8.42,1.94-11.56,5.26-.34,.36-.6,1.1-1.09,.96-.65-.2-.37-.98-.39-1.5-.19-7.67,2.77-12.59,9.29-15.39,2.44-1.05,5.04-1.46,7.66-1.77,4.28-.5,8.53-.05,12.79,.33,2.08,.19,2.14,.4,.98,2.08-3.1,4.48-5.66,9.31-9.01,13.63-2.11,2.72-4.37,5.3-7.41,7.03-3.9,2.23-7.78,2.06-11.68-.04-1.01-.54-.74-1.13-.34-1.83,2.03-3.59,4.94-6.24,8.69-7.95,.67-.3,1.38-.55,2.07-.82"/>
  <path class="cls-1" d="M79.24,72.23c-.31,4.35-.58,8.72-.92,13.06-.04,.6,.2,1.55-.52,1.73-.64,.17-1.07-.65-1.51-1.12-4.18-4.49-5.39-9.89-4.65-15.82,.83-6.74,3.62-12.8,6.76-18.72,.39-.74,.84-1.42,1.51-.17,3.13,5.88,5.95,11.87,6.81,18.57,.75,5.88-.17,11.35-4.39,15.88-.34,.36-.61,1.01-1.19,.82-.56-.2-.44-.89-.49-1.37-.45-4.29-.86-8.59-1.28-12.89-.04,.02-.08,.03-.12,.04"/>
  <path class="cls-1" d="M78.59,98.8c.79,2.05,1.41,3.71,2.05,5.35,1.74,4.39,3.98,8.5,7.02,12.14,.69,.82,1.48,1.57,2.2,2.36,.51,.56,.31,.85-.38,.85-2.54,0-5.07,0-7.61,0-.88,0-1.18-.7-1.5-1.31-2.26-4.36-3.17-9.01-2.8-13.89,.13-1.71,.23-3.45,1.01-5.5"/>
</svg>