<?xml version="1.0" encoding="UTF-8"?>
<svg id="Layer_1" data-name="Layer 1" xmlns="http://www.w3.org/2000/svg" viewBox="0 0 250 250">
  <defs>
    <style>
      .cls-1 {
        fill: #6d6e71;
      }
    </style>
  </defs>
  <path class="cls-1" d="M234.21,125.12c.15-59.84-48.1-109.2-108.71-109.41-60.54-.2-109.52,48.62-109.72,108.72-.21,60.21,48.16,109.7,108.89,109.85,60.6,.15,109.54-48.74,109.54-109.16m12.95-.09c0,67.53-54.8,122.35-122.37,122.22-67.8-.14-122.1-55.33-121.96-122.65C2.98,57.36,57.84,2.57,125.3,2.75c67.78,.18,121.92,55.26,121.86,122.28"/>
  <path class="cls-1" d="M95.61,210.45c-1.33-.86-1.85-2.2-2.23-3.64-2.66-9.84-5.33-19.68-8-29.51-1.79-6.64-3.59-13.27-5.39-19.9-.6-2.21,.56-3.83,2.84-3.96,.39-.02,.79,0,1.19,0h83.87c.47,0,.95-.02,1.43,.03,2.1,.21,3.19,1.81,2.64,3.83-4.44,16.35-8.86,32.71-13.3,49.06-.43,1.58-.86,3.15-2.36,4.1h-60.68Z"/>
  <path class="cls-1" d="M178.82,90.64c-.47,2.97-.91,5.93-1.86,8.8-2.24,6.8-5.82,12.63-12.19,16.34-4.55,2.65-9.53,3.46-14.73,3.06-2.64-.2-5.23-.72-7.79-1.44-1.49-.42-1.53-.47-.81-1.8,3.11-5.68,6.13-11.43,9.85-16.75,.09-.13,.14-.26,.29-.54-5.97,1.68-11.08,4.46-15.16,9.14-.14-.3-.24-.4-.22-.47,2.06-6.19,4.99-11.8,10.47-15.7,3.7-2.63,7.92-4.09,12.2-5.39,6.16-1.88,12.4-3.48,18.46-5.65,1.36-.48,1.31,.39,1.51,1.16v9.26Z"/>
  <path class="cls-1" d="M94.73,72.42c9.47,13.14,15.47,27.87,20.29,43.16,.15,.47,.61,1.08,.22,1.42-.41,.36-.91-.22-1.34-.45-8.05-4.14-15.62-8.96-22.01-15.47-6.87-7-11.14-15.45-13.87-24.77-2.44-8.32-3.85-16.85-5.22-25.39-.52-3.28-.99-6.56-1.51-9.84-.23-1.51-.17-1.65,1.43-1.51,5.71,.49,11.35,1.4,16.91,2.83,10.53,2.73,20.44,6.84,29.15,13.49,5.97,4.55,10.85,10,13.82,17.01,3.33,7.89,3.29,15.9,.82,23.99-1.49,4.87-3.72,9.4-6.42,13.7-.16,.26-.27,.66-.61,.66-.44,0-.46-.48-.59-.79-4.06-9.66-9.44-18.49-16.49-26.27-4.25-4.68-9.02-8.71-14.57-11.78"/>
  <path class="cls-1" d="M98.48,75.55c2.03,1.77,3.8,3.72,5.69,5.54,7.87,7.61,12.98,17.04,17.9,26.63,1.83,3.55,3.7,7.07,5.56,10.61,.59,1.13,.76,1.15,1.41,.03,4.66-8.09,11.52-13.84,19.48-18.42,.29-.17,.56-.47,1.05-.3-.22,.73-.73,1.28-1.14,1.88-3.52,5.21-7,10.44-9.72,16.12-1.44,3-2.63,6.09-3.09,9.43-.03,.15-.06,.3-.08,.47-.23,2.13-.18,2.19,1.97,2.19h35.55c2.88,0,3.95,1.07,3.96,3.92,0,4.74,0,9.49,0,14.23,0,2.38-1.19,3.58-3.57,3.58-31.64,0-63.28,0-94.91,0-2.46,0-3.61-1.18-3.62-3.66,0-4.82,0-9.64,0-14.46,0-2.45,1.19-3.6,3.67-3.61,12.68,0,25.36,0,38.04,.02,1.08,0,1.35-.22,1.3-1.38-.6-12.03-3.89-23.32-9.14-34.1-2.97-6.08-6.34-11.94-9.94-17.65-.17-.28-.54-.49-.35-1.04"/>
</svg>