<?xml version="1.0" encoding="UTF-8"?>
<svg id="Layer_1" data-name="Layer 1" xmlns="http://www.w3.org/2000/svg" viewBox="0 0 250 250">
  <defs>
    <style>
      .cls-1 {
        fill: #6d6e71;
      }
    </style>
  </defs>
  <path class="cls-1" d="M234.21,125.12c.15-59.84-48.1-109.2-108.71-109.41-60.54-.2-109.52,48.62-109.72,108.72-.21,60.21,48.16,109.7,108.89,109.85,60.6,.15,109.54-48.74,109.54-109.16m12.95-.09c0,67.53-54.8,122.35-122.37,122.22-67.8-.14-122.1-55.33-121.96-122.65C2.98,57.36,57.84,2.57,125.3,2.75c67.78,.18,121.92,55.26,121.86,122.28"/>
  <path class="cls-1" d="M138.6,72.12c.25,1,.95,1.25,1.49,1.63,2.45,1.69,4.78,3.52,6.94,5.56,10.39,9.77,16.92,21.7,19.79,35.64,.27,1.32,.77,1.84,2.12,1.81,3.37-.07,6.74-.02,10.11-.04,1.82,0,2.02-.26,1.42-2.03-.78-2.33-1.54-4.68-2.53-6.91-7.42-16.74-19.54-28.58-36.77-35.03-.77-.29-1.54-.68-2.58-.64m-13.68,56.1H55.32c-.9,0-1.83,.1-2.71-.23-1.63-.61-2.35-2.04-1.93-4.06,2.79-13.83,8.6-26.21,17.8-36.94,12.03-14.02,27.16-22.63,45.4-25.71,1.46-.24,2.95-.36,4.42-.47,1.19-.09,1.64-.57,1.29-1.78-.69-2.41-1.35-4.84-1.97-7.28-.61-2.43,.39-3.8,2.89-3.85,3.02-.06,6.06-.07,9.08,0,2.38,.05,3.41,1.46,2.83,3.76-.61,2.44-1.26,4.87-1.97,7.28-.39,1.3,.08,1.74,1.34,1.88,26.53,3,45.84,16.8,58.99,39.67,4.12,7.18,6.85,14.94,8.47,23.06,.62,3.12-.65,4.66-3.87,4.66-23.48,0-46.96,0-70.45,0"/>
  <path class="cls-1" d="M113.62,158.55c11.66,0,23.31,.07,34.96-.04,4.26-.04,6.34,.83,7.81,5.3,1.23,3.71-.48,7.71-3.88,9.76-1.56,.94-3.24,1.31-5.06,1.31-11.02-.04-22.05-.08-33.07-.35-1.34-.03-2.93-.28-3.15,1.71-.14,1.32,.88,1.87,3.19,1.92,10.8,.2,21.59,.38,32.37,.61,4.47,.1,8.54-1.06,12.41-3.28,8.71-5.01,17.52-9.87,26.23-14.89,4.39-2.54,9.12-2.22,13.84-1.87,1.64,.12,2.7,1.43,3.06,3.09,.39,1.77-.28,3.15-1.7,4.17-4.34,3.07-8.69,6.11-13.05,9.16-9.22,6.44-18.48,12.85-27.66,19.35-7.18,5.09-15.05,7.75-23.9,7.46-13.58-.43-27.17-.77-40.75-1.12-3.02-.08-5.46-1.17-7.54-3.42-7.44-8.01-11.42-17.65-13.57-28.19-.41-2.02-.79-4.04-1.01-6.08-.36-3.22,.91-4.59,4.13-4.59,8.29-.02,16.57,0,24.86,0h11.48"/>
  <path class="cls-1" d="M125.02,152.58H46.2c-3.83,0-4.61-.79-4.61-4.62v-8.57c0-4.37,.76-5.13,5.22-5.13,7.82,0,15.65,0,23.48,0,44.27,0,88.54,0,132.82,0,.63,0,1.25-.03,1.88,.04,2.31,.22,3.39,1.35,3.41,3.66,.03,3.66,.03,7.31,0,10.97,0,2.54-1.11,3.64-3.68,3.65-9.77,.02-19.53,0-29.3,0h-50.39"/>
  <path class="cls-1" d="M53.9,158.21c2.76,.13,5.1,.26,7.44,.31,3.25,.08,4.64,1.26,5.06,4.55,.54,4.09,1.48,8.08,2.72,12.01,2.2,6.89,5.35,13.35,9.18,19.48,.98,1.56,1.76,3.12,.76,4.94-.99,1.78-2.65,2.1-4.53,2.14-3.49,.07-6.96,.3-10.43,.49-2.07,.11-3.58-.69-4.74-2.46-5.61-8.55-8.84-17.99-10.57-28-.5-2.87-.9-5.74-1.13-8.65-.25-3.13,1.17-4.8,4.26-4.82h1.98"/>
</svg>