<?xml version="1.0" encoding="UTF-8"?>
<svg id="Layer_1" data-name="Layer 1" xmlns="http://www.w3.org/2000/svg" viewBox="0 0 250 250">
  <defs>
    <style>
      .cls-1 {
        fill: #6d6e71;
      }
    </style>
  </defs>
  <path class="cls-1" d="M234.21,125.12c.15-59.84-48.1-109.2-108.71-109.41-60.54-.2-109.52,48.62-109.72,108.72-.21,60.21,48.16,109.7,108.89,109.85,60.6,.15,109.54-48.74,109.54-109.16m12.95-.09c0,67.53-54.8,122.35-122.37,122.22-67.8-.14-122.1-55.33-121.96-122.65C2.98,57.36,57.84,2.57,125.3,2.75c67.78,.18,121.92,55.26,121.86,122.28"/>
  <path class="cls-1" d="M140.49,55.22c.13-.08,.31-.15,.45-.29,1.51-1.5,3.03-3.01,4.53-4.52,.18-.19,.31-.43,.11-.66-.32-.36-.67-.09-.93,.08-1.66,1.1-3.3,2.21-4.94,3.34-.37,.25-.75,.57-.4,1.1,.28,.4,.6,.79,1.19,.94m-11.34,11.18c-.24-.41-.59-.83-1.08-1.09-.47-.26-.76,.13-.98,.45-1.15,1.68-2.28,3.38-3.4,5.07-.19,.29-.41,.66-.07,.95,.39,.31,.63-.11,.84-.33,1.39-1.42,2.69-2.94,4.21-4.22,.22-.19,.46-.39,.47-.82m57.15,34.7c.13-.08,.35-.14,.45-.29,1.31-1.77,2.63-3.53,3.68-5.47,.14-.27,.23-.62-.07-.81-.33-.2-.56,.12-.76,.32-1.41,1.42-2.81,2.84-4.21,4.26-.29,.29-.65,.56-.28,1,.32,.38,.63,.79,1.19,.98m-11.27,10.84c-.2-.16-.61-.52-1.06-.82-.47-.32-.73,.1-.99,.37-1.41,1.41-2.8,2.82-4.19,4.24-.23,.24-.62,.47-.34,.87,.3,.4,.65,.08,.91-.09,1.74-1.16,3.47-2.32,5.2-3.49,.24-.17,.51-.32,.47-1.08m-5.3-68.9c-.1-.15-.2-.3-.31-.46-2.29-.22-4.56,.04-6.82,.41-.72,.13-1.03,.45-.39,1.08,.82,.81,1.65,1.6,2.48,2.39,.42,.4,.84,.47,1.31,.03,1.24-1.16,2.48-2.3,3.73-3.45m27.67,27.36c-1.26,1.3-2.54,2.6-3.81,3.9-.34,.34-.34,.69,0,1.04,.83,.85,1.66,1.71,2.5,2.56,.49,.5,.91,.44,1.03-.28,.43-2.33,.71-4.67,.28-7.22m-53.14,52.92c.11,.14,.21,.3,.32,.45,2.35,.22,4.66-.13,6.96-.51,.75-.13,.85-.43,.32-.96-.84-.85-1.69-1.69-2.54-2.54-.36-.38-.7-.51-1.15-.09-1.29,1.24-2.62,2.44-3.92,3.66m-27.99-27.05c1.64-1.67,2.95-3,4.26-4.34,.36-.37,.26-.72-.06-1.04-.89-.88-1.77-1.77-2.66-2.63-.33-.33-.74-.47-.85,.16-.43,2.44-.65,4.88-.68,7.84m67.31,8.14c-.27-.72-.83-1.08-1.31-1.51-.29-.25-.56-.12-.8,.12-1.48,1.49-2.97,2.97-4.43,4.47-.73,.74,.02,1.14,.43,1.59,.4,.44,.78,.99,1.46,.32,1.41-1.42,2.94-2.71,4.19-4.27,.18-.22,.31-.49,.45-.72m-47.84-47.81c-.13,.06-.3,.09-.4,.19-1.73,1.44-3.39,2.97-4.69,4.82-.56,.79,.49,1.02,.82,1.5,.3,.42,.65,.58,1.11,.13,1.44-1.45,2.91-2.88,4.36-4.33,.34-.34,.54-.76,.15-1.19-.39-.45-.71-.98-1.36-1.12m-12.02,54.42c-.69,.35-1.14,1.02-1.69,1.58-.38,.38-.21,.72,.06,1.06,1.33,1.62,2.72,3.2,4.45,4.41,1.22,.84,1.57-.58,2.25-1.07,.65-.47,.27-.9-.19-1.33-1.4-1.35-2.76-2.73-4.14-4.11-.21-.21-.34-.49-.74-.54m62.94-63.36c-.53,.63-1.11,1.24-1.59,1.93-.43,.6,.23,.88,.55,1.2,1.25,1.29,2.55,2.53,3.8,3.84,.6,.62,1.13,.81,1.72,.05,.49-.63,1.64-1,.69-2.17-1.27-1.57-2.68-2.97-4.25-4.21-.2-.15-.4-.28-.92-.64m-24.43,19.02c.02-.44-.19-.66-.39-.88-1.38-1.38-2.76-2.75-4.13-4.13-.5-.5-.95-.42-1.42,.05-1.34,1.35-2.66,2.71-4.03,4.02-.62,.6-.54,1.07,.04,1.62,1.32,1.29,2.63,2.6,3.92,3.92,.59,.61,1.08,.53,1.63-.04,1.29-1.34,2.62-2.63,3.91-3.93,.21-.21,.36-.47,.47-.64m-24.93,24.7c-.06-.11-.13-.3-.25-.44-1.48-1.49-2.96-2.97-4.44-4.44-.49-.49-.9-.19-1.27,.19-1.31,1.3-2.59,2.63-3.92,3.9-.65,.63-.65,1.12,0,1.74,1.3,1.25,2.56,2.52,3.8,3.81,.63,.65,1.13,.65,1.75,0,1.25-1.29,2.54-2.54,3.8-3.81,.24-.24,.51-.48,.56-.95m11.42-21.92c-.26,.2-.51,.36-.72,.56-1.32,1.3-2.59,2.65-3.94,3.91-.74,.69-.65,1.2,.02,1.85,1.29,1.25,2.56,2.53,3.82,3.81,.57,.59,1.03,.6,1.61-.02,1.32-1.37,2.67-2.71,4.03-4.01,.58-.56,.49-.98-.04-1.5-1.36-1.32-2.69-2.68-4.03-4.01-.21-.2-.47-.36-.74-.57m21.96,22.03c-.13-.21-.2-.39-.33-.53-1.48-1.49-2.96-2.97-4.44-4.44-.49-.49-.9-.22-1.28,.16-1.37,1.37-2.73,2.76-4.13,4.11-.48,.47-.57,.82-.02,1.34,1.37,1.3,2.71,2.65,4.01,4.01,.63,.65,1.12,.64,1.74,0,1.28-1.34,2.61-2.62,3.9-3.92,.21-.21,.35-.47,.55-.73m-16.67-33.34c-.07-.11-.15-.3-.29-.43-1.48-1.49-2.96-2.97-4.44-4.44-.48-.49-.89-.24-1.27,.15-1.38,1.37-2.73,2.77-4.14,4.1-.6,.57-.48,.97,.04,1.48,1.35,1.32,2.71,2.64,4.01,4.01,.6,.63,1.02,.57,1.59-.03,1.27-1.34,2.6-2.62,3.91-3.92,.23-.24,.54-.46,.58-.92m19.61-2.91c.24-.16,.47-.27,.65-.43,1.45-1.45,2.89-2.91,4.35-4.35,.51-.5,.27-.87-.13-1.26-1.38-1.37-2.77-2.75-4.12-4.15-.48-.5-.88-.53-1.38-.02-1.36,1.4-2.74,2.78-4.13,4.14-.54,.53-.59,.95-.02,1.51,1.3,1.25,2.54,2.54,3.82,3.82,.28,.27,.62,.48,.97,.75m21.93,11.16c-.17-.21-.36-.5-.59-.74-1.23-1.25-2.5-2.45-3.69-3.72-.74-.8-1.28-.67-1.97,.06-1.23,1.31-2.49,2.6-3.82,3.8-.7,.63-.53,.99,.04,1.54,1.4,1.35,2.79,2.72,4.13,4.13,.55,.57,.88,.39,1.33-.08,1.33-1.35,2.68-2.69,4.01-4.03,.24-.24,.54-.46,.55-.96m-71.78,22.15c.28-.21,.54-.36,.74-.56,1.38-1.37,2.74-2.77,4.14-4.12,.53-.51,.46-.91-.03-1.38-1.39-1.37-2.77-2.75-4.13-4.14-.51-.52-.94-.61-1.51-.02-1.3,1.37-2.64,2.72-4.01,4.02-.65,.61-.56,1.04,.03,1.6,1.37,1.33,2.7,2.69,4.04,4.02,.21,.21,.46,.37,.73,.57m38.49,27.81c-.09-.15-.18-.39-.34-.56-1.41-1.42-2.83-2.82-4.23-4.24-.5-.51-.94-.45-1.41,.03-1.37,1.39-2.74,2.77-4.12,4.13-.51,.51-.43,.93,.04,1.41,1.42,1.41,2.82,2.82,4.24,4.23,.24,.24,.53,.61,.89,.29,1.69-1.54,3.39-3.09,4.81-4.91,.05-.07,.06-.18,.13-.37m19.83-19.65c.12-.06,.33-.12,.47-.25,1.53-1.5,3.06-2.99,4.57-4.51,.39-.39,.13-.73-.18-1.03-1.41-1.41-2.82-2.81-4.22-4.23-.52-.53-.98-.57-1.52-.02-1.33,1.35-2.66,2.69-4.02,4.01-.61,.59-.56,1.07,.03,1.63,1.33,1.28,2.62,2.6,3.93,3.89,.24,.25,.48,.51,.95,.51m-8.42-2.28c-.19,.11-.35,.15-.45,.25-1.56,1.55-3.11,3.11-4.66,4.67-.36,.37-.23,.7,.11,1.03,1.47,1.42,2.93,2.87,4.39,4.31,.42,.41,.81,.54,1.28,.05,1.39-1.43,2.78-2.88,4.19-4.29,.5-.5,.47-.9-.03-1.38-1.39-1.36-2.76-2.76-4.14-4.13-.21-.2-.47-.34-.69-.51m-33.22,27.34c.09-.05,.24-.1,.34-.21,1.56-1.54,3.12-3.09,4.66-4.66,.51-.52,.09-.91-.26-1.26-1.23-1.25-2.48-2.46-3.68-3.73-.81-.87-1.45-.77-2.22,.07-1.1,1.22-2.27,2.39-3.48,3.5-.76,.69-.82,1.22-.07,1.94,1.34,1.27,2.62,2.61,3.93,3.91,.21,.2,.39,.47,.78,.44m-.11-43.9c-.1,.06-.26,.11-.36,.21-1.56,1.54-3.11,3.09-4.66,4.64-.53,.54-.09,.89,.27,1.25,1.3,1.3,2.63,2.58,3.9,3.92,.6,.64,1.07,.72,1.71,.04,1.3-1.38,2.65-2.71,4.01-4.02,.53-.51,.63-.95,.05-1.51-1.39-1.35-2.75-2.74-4.12-4.12-.22-.21-.43-.42-.8-.4m.25,27.2c.12-.07,.3-.16,.43-.3,1.45-1.44,2.89-2.89,4.35-4.33,.47-.47,.34-.87-.07-1.28-1.41-1.41-2.83-2.81-4.21-4.25-.56-.58-.96-.49-1.48,.04-1.32,1.36-2.64,2.72-4.02,4.01-.63,.6-.57,1.02,.03,1.6,1.37,1.31,2.69,2.66,4.03,4,.25,.24,.48,.52,.95,.5m41.46-35.6c-.21,.13-.39,.2-.53,.33-1.52,1.52-3.05,3.05-4.56,4.57-.49,.5-.18,.91,.2,1.28,1.34,1.34,2.71,2.68,4.03,4.03,.53,.55,.96,.56,1.51,0,1.35-1.41,2.73-2.79,4.14-4.13,.58-.56,.52-.95-.04-1.48-1.37-1.32-2.69-2.68-4.04-4.02-.21-.21-.45-.37-.71-.58m-16.92-5.95c.5,.02,.7-.3,.94-.54,1.32-1.3,2.6-2.64,3.95-3.9,.74-.7,.63-1.2-.05-1.85-1.27-1.2-2.52-2.43-3.71-3.71-.7-.74-1.18-.64-1.84,.05-1.23,1.31-2.51,2.58-3.82,3.81-.65,.61-.73,1.06-.04,1.7,1.35,1.26,2.64,2.61,3.95,3.91,.21,.21,.45,.38,.62,.52m-8.24,14.35c-.14,.09-.37,.21-.54,.38-1.38,1.37-2.73,2.77-4.14,4.11-.66,.65-.4,1.09,.13,1.62,1.34,1.34,2.69,2.67,3.98,4.07,.57,.61,.95,.5,1.47-.02,1.35-1.4,2.72-2.78,4.13-4.13,.58-.56,.49-.95-.05-1.47-1.36-1.31-2.69-2.67-4.03-4.01-.24-.24-.46-.55-.95-.56m-.03-33.3c-.13,.12-.31,.27-.48,.44-1.34,1.34-2.64,2.73-4.01,4.02-.75,.71-.62,1.22,.03,1.85,1.29,1.25,2.56,2.52,3.81,3.82,.57,.61,1.02,.61,1.6,0,1.28-1.33,2.58-2.63,3.92-3.92,.65-.63,.62-1.16,0-1.77-1.34-1.34-2.67-2.69-4.01-4.02-.21-.21-.4-.46-.84-.44m30.51,13.75c-.12-.21-.17-.4-.31-.53-1.54-1.56-3.09-3.11-4.66-4.65-.43-.42-.81-.15-1.15,.19-1.38,1.38-2.75,2.76-4.13,4.12-.47,.47-.56,.89-.05,1.4,1.42,1.4,2.82,2.8,4.21,4.24,.54,.56,.96,.53,1.49-.03,1.31-1.37,2.67-2.69,4.01-4.04,.21-.21,.38-.44,.59-.7m8.25,24.88c-.15-.24-.24-.47-.4-.65-1.4-1.42-2.8-2.83-4.2-4.25-.46-.47-.9-.56-1.42-.04-1.4,1.42-2.81,2.83-4.24,4.22-.49,.47-.53,.85,0,1.36,1.4,1.34,2.76,2.72,4.11,4.12,.49,.5,.89,.71,1.48,.1,1.32-1.35,2.7-2.65,4.04-4,.23-.23,.39-.56,.63-.87m-24.93,24.99c-.14-.27-.22-.52-.39-.69-1.47-1.5-2.95-2.98-4.43-4.46-.51-.5-.9-.16-1.27,.21-1.38,1.38-2.73,2.79-4.13,4.14-.56,.55-.55,.94,0,1.48,1.37,1.32,2.71,2.65,4.02,4.03,.65,.69,1.14,.56,1.74-.06,1.25-1.29,2.54-2.54,3.8-3.82,.24-.23,.42-.54,.64-.82m-16.57-16.67c-.16-.23-.27-.46-.43-.63-1.41-1.42-2.81-2.84-4.22-4.26-.6-.6-1.12-.45-1.67,.12-1.29,1.33-2.58,2.64-3.92,3.92-.64,.6-.56,1.05,.03,1.61,1.36,1.32,2.7,2.67,4.02,4.03,.5,.52,.89,.69,1.47,.08,1.34-1.41,2.75-2.76,4.12-4.14,.21-.21,.37-.46,.59-.73m19.49-19.53c.21-.13,.39-.22,.53-.35,1.52-1.51,3.03-3.03,4.55-4.54,.5-.49,.24-.87-.15-1.25-1.38-1.37-2.76-2.74-4.12-4.13-.6-.62-1.08-.5-1.63,.07-1.29,1.32-2.58,2.63-3.92,3.9-.67,.64-.63,1.1,.02,1.72,1.37,1.3,2.69,2.66,4.04,4,.21,.21,.44,.38,.69,.59m-19.78,30.93c-.03,.74-.3,1.36-.95,1.77-.66,.42-1.36,.35-1.98-.08-.53-.37-1.01-.82-1.45-1.28-.54-.56-.96-.56-1.5,0-1.28,1.33-2.58,2.64-3.92,3.92-.66,.63-.68,1.09-.02,1.73,1.33,1.27,2.64,2.58,3.92,3.92,.53,.54,.92,.61,1.49,.04,4.17-4.18,8.34-8.35,12.53-12.51,.53-.52,.46-.89-.03-1.37-1.33-1.29-2.65-2.59-3.91-3.94-.74-.8-1.25-.68-1.94,.06-1.12,1.21-2.28,2.38-3.49,3.5-.87,.81-1.08,1.46-.02,2.29,.61,.48,1.24,1.05,1.26,1.95m16.62-22.9c-.71-.05-1.33-.29-1.7-.99-.36-.68-.38-1.36,.09-1.98,.36-.47,.79-.91,1.24-1.3,.69-.62,.6-1.13-.04-1.74-1.36-1.33-2.7-2.68-4.01-4.06-.56-.6-.99-.47-1.49,.06-1.33,1.36-2.66,2.72-4.02,4.04-.53,.51-.67,.91-.09,1.48,4.18,4.16,8.36,8.33,12.53,12.52,.5,.5,.89,.49,1.37-.02,1.36-1.4,2.74-2.78,4.15-4.13,.57-.56,.51-1,0-1.51-1.32-1.3-2.65-2.58-3.93-3.92-.63-.65-1.11-.67-1.73,0-.64,.69-1.26,1.45-2.35,1.54m-33.24-10.19c-.04,.66-.27,1.25-.9,1.59-.73,.39-1.46,.37-2.11-.14-.47-.37-.91-.8-1.3-1.24-.49-.56-.91-.64-1.48-.06-1.29,1.33-2.6,2.63-3.94,3.89-.82,.78-.72,1.37,.08,2.1,1.14,1.04,2.28,2.11,3.27,3.29,.96,1.13,1.66,.95,2.49-.07,.5-.62,1.11-1.15,1.68-1.71,3.32-3.32,6.64-6.64,9.96-9.96,.52-.52,1.03-.98,.25-1.72-1.44-1.39-2.84-2.81-4.24-4.25-.44-.45-.75-.46-1.22,.03-1.28,1.34-2.6,2.63-3.95,3.89-.83,.76-1.03,1.37,0,2.12,.74,.54,1.33,1.22,1.4,2.24m-8.42,35.13c-1.21,.15-2.25-1.23-1.74-2.61,.28-.73,.86-1.21,1.42-1.7,.56-.48,.81-.96,.13-1.6-1.41-1.34-2.77-2.73-4.13-4.13-.47-.47-.85-.57-1.37-.04-1.39,1.44-2.8,2.84-4.23,4.25-.47,.47-.55,.88-.04,1.4,4.16,4.11,8.3,8.23,12.43,12.37,.64,.65,1.13,.58,1.75-.07,1.19-1.27,2.43-2.52,3.7-3.71,.79-.73,.67-1.3-.04-1.98-1.26-1.21-2.5-2.45-3.7-3.72-.66-.71-1.17-.75-1.83,0-.58,.67-1.17,1.39-2.35,1.57m72.74-33.76c-.1,10.11-3.29,19.27-8.73,27.66-8,12.36-18.77,21.36-32.77,26.23-7.95,2.76-16.08,3.62-24.36,1.58-12.54-3.09-21.4-13.12-22.9-25.98-1.43-12.14,2.02-23.08,8.43-33.22,6.98-11.04,16.47-19.3,28.42-24.55,9.58-4.2,19.53-5.8,29.86-2.93,12.03,3.33,20.04,13.19,21.71,25.37,.26,1.94,.39,3.88,.34,5.84"/>
  <path class="cls-1" d="M49.14,196.2c1.89,.08,3.2-.98,4.43-2.2,5.09-5.09,10.17-10.21,15.3-15.27,.7-.68,.94-1.37,.69-2.27-.41-1.42,.13-2.42,1.15-3.43,15.05-15.01,30.07-30.05,45.11-45.07,1.67-1.67,1.72-1.32-.04-3.05q-2.05-2.03-4.05-.02c-14.82,14.82-29.65,29.63-44.44,44.47-1.08,1.08-2.16,1.74-3.72,1.24-.73-.23-1.38,.03-1.92,.56-5.4,5.41-10.86,10.79-16.2,16.25-1.59,1.62-2,3.68-.98,5.83,.92,1.95,2.57,2.83,4.68,2.95M206,71.77c.04-11.21-3.09-20.41-10.62-27.81-5.7-5.6-12.75-8.59-20.63-9.46-14.7-1.61-27.61,3.09-39.39,11.51-6.75,4.82-12.38,10.74-16.99,17.63-2.79,4.17-5.11,8.59-6.88,13.29-.07,.19-.12,.39-.2,.56-.55,1.26-1.53,1.78-2.63,1.31-1.18-.5-1.42-1.44-1-2.61,1.33-3.84,3.06-7.5,5.14-10.99,6.89-11.63,16.21-20.78,28.07-27.28,8.66-4.74,17.91-7.54,27.8-7.65,10.55-.12,20.2,2.72,28.24,9.85,7,6.19,10.98,14.06,12.4,23.22,2.01,12.95-1.01,24.96-7.2,36.27-6.1,11.17-14.67,20.1-25.47,26.79-10.86,6.74-22.63,10.34-35.52,9.53-7.05-.45-13.66-2.51-19.62-6.39-.85-.56-1.32-.49-2.02,.2-14.98,15.02-29.98,30.03-45.01,45.01-.86,.86-1.09,1.75-.82,2.84,.23,.89,.11,1.68-.56,2.35-5.96,5.93-11.89,11.89-17.9,17.77-2.86,2.8-7.25,3.17-10.71,1.14-4.64-2.73-5.88-9.08-2.5-13.29,2.28-2.86,5.07-5.26,7.63-7.86,3.3-3.35,6.67-6.64,9.95-10,.97-.99,2-1.51,3.34-1.1,1.01,.31,1.68-.06,2.38-.77,14.99-15.01,30-30.02,45.03-45,.77-.77,.87-1.31,.25-2.27-5.18-8.15-6.99-17.12-6.3-26.68,.25-3.46,.79-6.85,1.67-10.21,.27-1.01,.84-1.7,1.99-1.69,.91,0,1.47,.5,1.77,1.34,.21,.56,.04,1.1-.11,1.62-1.26,4.88-1.68,9.84-1.53,14.87,.48,17.52,12.79,31.34,30.11,33.88,9.98,1.46,19.45-.37,28.52-4.44,14.23-6.39,24.99-16.6,32.41-30.29,4.37-8.08,6.93-16.7,6.87-25.2"/>
  <path class="cls-1" d="M142.94,185.71c-.93,.4-1.36,1.24-1.97,1.87-.52,.54-.54,.97,.21,1.4,2.5,1.46,4.97,2.97,7.46,4.47,.49,.3,.91,.37,1.31-.13,.46-.58-.13-.8-.41-1.08-1.96-1.99-3.95-3.96-5.93-5.94-.21-.21-.43-.39-.65-.59m10.82,3.39c-.14-.28-.31-.64-.51-.99-1.15-1.93-2.29-3.86-3.44-5.78-1.34-2.24-2.03-2.25-3.62-.14-.32,.43-.41,.78,0,1.17,2.11,2.11,4.23,4.23,6.34,6.34,.22,.22,.46,.43,.79,.21,.24-.17,.46-.39,.45-.82m-7.5,7.6c-.12-.34-.48-.51-.82-.71-2.13-1.27-4.26-2.55-6.42-3.81-.44-.26-.96-.8-1.46-.26-.64,.69-1.29,1.41-1.51,2.37-.05,.26,.22,.41,.46,.51,2.63,1.08,5.24,2.19,7.87,3.24,.61,.24,1.91-.68,1.88-1.34m7.94-20.77c-.77,.45-1.67,.86-2.24,1.62-.45,.6,.17,1.11,.46,1.6,1.16,1.99,2.33,3.97,3.56,5.92,.26,.42,.35,1.39,1.18,.96,.71-.37,1.32-1,.92-1.97-1.02-2.5-2.06-4.99-3.1-7.48-.13-.31-.27-.67-.78-.65m-22.75,16.83c.51,.13,.74-.13,.96-.42,.4-.56,.77-1.17,1.22-1.7,.77-.9,.49-1.44-.45-1.97-1.91-1.08-3.76-2.26-5.68-3.32-1.33-.74-2.67-2.37-3.99-1.97-1.29,.39-1.71,2.43-2.63,3.66-.65,.87-.34,1.28,.55,1.64,3.2,1.29,6.37,2.61,9.55,3.92,.18,.07,.38,.13,.47,.17m16.32-32.35c-1.15,.71-2.39,1.54-3.69,2.28-.83,.48-.95,.96-.42,1.8,1.48,2.37,2.9,4.79,4.31,7.21,1.68,2.89,1.77,2.9,4.35,.72,.57-.47,.65-.92,.39-1.56-1.37-3.28-2.72-6.57-4.09-9.85-.12-.31-.2-.71-.85-.61m-27.88,20.94c.06-.5-.2-.66-.46-.82-2.13-1.29-4.28-2.55-6.41-3.85-.75-.47-1.11-.04-1.43,.52-.97,1.68-1.9,3.39-2.89,5.06-.47,.8-.17,1.15,.59,1.42,1.13,.42,2.23,.89,3.32,1.37q3.91,1.7,6.13-1.93c.39-.64,.8-1.25,1.13-1.78m26.72-25.24c-.04-.09-.06-.19-.1-.29-.93-2.26-1.87-4.53-2.81-6.79-.33-.79-.88-.67-1.47-.34-1.66,.93-3.31,1.88-4.97,2.79-.74,.4-.84,.86-.4,1.58,1.23,2.01,2.43,4.02,3.6,6.07,.43,.75,.87,.82,1.56,.36,1.33-.89,2.71-1.72,4.06-2.57,.3-.19,.64-.34,.54-.8m-6.77,26.54c-.09-.13-.18-.31-.31-.45-2.62-2.62-5.25-5.22-7.88-7.83-.58-.59-1.06-.39-1.51,.14-1.16,1.37-2.29,2.77-3.48,4.12-.79,.91-.52,1.4,.45,1.94,2.3,1.31,4.56,2.69,6.83,4.07q2.86,1.74,5.07-.73c.33-.36,.76-.66,.83-1.27m-.19-16.63c-.1,.04-.24,.09-.37,.17-1.77,1.29-3.48,2.67-5.05,4.2-.53,.52-.17,.88,.21,1.25,2.58,2.57,5.15,5.14,7.73,7.71,.24,.24,.53,.66,.86,.4,1.08-.88,2.11-1.81,3.13-2.77,.3-.29,.04-.65-.13-.95-1.89-3.17-3.78-6.34-5.67-9.51-.15-.25-.27-.56-.7-.5m-18.23-1.7c-.22,.15-.45,.25-.61,.42-2.13,2.32-4.09,4.79-5.9,7.37-.47,.67-.21,1.08,.41,1.44,2.08,1.21,4.14,2.42,6.19,3.67,.63,.38,1.07,.35,1.52-.26,1.42-1.88,2.89-3.71,4.54-5.39,.52-.53,.39-.91-.08-1.38-1.79-1.75-3.55-3.52-5.33-5.28-.21-.21-.46-.37-.74-.59m11.29-9.74c-.13,.06-.31,.13-.48,.24-2.63,1.76-5.02,3.81-7.39,5.89-.56,.49-.47,.8,.04,1.3,1.79,1.75,3.55,3.53,5.27,5.34,.59,.61,.98,.6,1.6,.04,1.72-1.52,3.49-2.99,5.28-4.44,.56-.46,.75-.82,.34-1.5-1.26-2.04-2.48-4.11-3.73-6.16-.2-.33-.36-.74-.93-.71m29.36,56.16c3.62-.12,6.32-1.78,7.88-5.04,1.65-3.45,1.16-6.79-1.38-9.62-2.22-2.5-4.7-4.77-7.05-7.15-.57-.58-1.03-.64-1.63-.03-3.67,3.68-7.34,7.37-11.03,11.02-.57,.56-.52,.93,.03,1.47,2.26,2.2,4.44,4.46,6.71,6.66,1.78,1.73,3.91,2.74,6.48,2.69m-.43,3.92c-3-.13-5.95-1.18-8.36-3.53-2.76-2.69-5.51-5.39-8.23-8.1-.66-.65-1.42-1.09-2.26-1.43-13.57-5.55-27.13-11.09-40.7-16.64-.78-.32-1.58-.64-2.33-1.04-.91-.49-1.21-1.34-.89-2.29,.33-1,1.15-1.42,2.13-1.22,.82,.17,1.61,.54,2.39,.87,.75,.31,1.27,.28,1.72-.55,1.01-1.9,2.09-3.75,3.18-5.61,.45-.74,.25-1.16-.45-1.56-1.18-.66-2.32-1.38-3.49-2.07-1.15-.67-1.43-1.65-.91-2.81,.44-.98,1.67-1.16,2.88-.49,1.27,.71,2.53,1.44,3.75,2.21,.61,.39,1.02,.45,1.48-.23,1.87-2.78,3.98-5.39,6.27-7.84,.75-.81,.68-1.35-.19-2.07-1.15-.95-2.18-2.06-3.22-3.14-.87-.91-1.11-2.02-.21-2.95,.93-.98,2.03-.66,2.93,.19,1.13,1.07,2.25,2.14,3.3,3.28,.64,.69,1.09,.8,1.85,.12,2.46-2.2,5-4.3,7.75-6.14,.72-.47,.87-.97,.37-1.74-.76-1.16-1.47-2.38-2.14-3.61-.6-1.08-.65-2.14,.48-2.9,.97-.65,2.11-.24,2.89,.99,.7,1.09,1.34,2.22,1.98,3.36,.44,.79,.94,.87,1.71,.42,1.86-1.09,3.73-2.14,5.62-3.16,.7-.37,.78-.82,.48-1.47-.26-.59-.51-1.2-.73-1.81-.5-1.42-.14-2.49,.96-2.9,1.1-.41,2.06,.12,2.64,1.52,3.39,8.23,6.77,16.47,10.14,24.71,2.5,6.1,5.01,12.21,7.5,18.32,.31,.77,.82,1.36,1.39,1.94,2.55,2.54,5.1,5.09,7.64,7.63,3.64,3.66,4.73,9.1,2.77,13.87-1.92,4.67-6.7,7.85-12.11,7.87"/>
</svg>