<?xml version="1.0" encoding="UTF-8"?>
<svg id="Layer_1" data-name="Layer 1" xmlns="http://www.w3.org/2000/svg" viewBox="0 0 250 250">
  <defs>
    <style>
      .cls-1 {
        fill: #6d6e71;
      }
    </style>
  </defs>
  <path class="cls-1" d="M234.21,125.12c.15-59.84-48.1-109.2-108.71-109.41-60.54-.2-109.52,48.62-109.72,108.72-.21,60.21,48.16,109.7,108.89,109.85,60.6,.15,109.54-48.74,109.54-109.16m12.95-.09c0,67.53-54.8,122.35-122.37,122.22-67.8-.14-122.1-55.33-121.96-122.65C2.98,57.36,57.84,2.57,125.3,2.75c67.78,.18,121.92,55.26,121.86,122.28"/>
  <path class="cls-1" d="M151.11,132.85c-.47,6.45-1.64,12.95,.47,19.25,1.12,3.37,1.33,6.6,.4,10-.48,1.79,2,5.85,3.77,6.65,.51,.22,.9,0,1.31-.14,1.86-.7,3.8-.89,5.74-1.19,2.64-.41,5.31-.2,7.98-.67-1.69-.97-3.41-1.78-4.81-3.07-6.13-5.64-10.31-12.46-12.33-20.56-.85-3.42-1.68-6.85-2.53-10.26m-71.84,33.97c.37,.08,.68,.2,1,.21,4.44,.12,8.9,.17,13.15,1.75,.32,.12,.6,.08,.92-.08,2.22-1.11,4.1-4.96,3.52-7.45-.65-2.81-.63-5.49,.35-8.28,2.32-6.6,1.21-13.38,.88-20.12-1.02,3.43-1.78,6.91-2.74,10.33-2.75,9.91-7.72,18.23-17.08,23.64m90.17,36.29c1.07,1.21,1.5,2.36,2.39,3.28,1.63,1.68,.77,4.57-1.46,5.36-.25,.09-.61,.09-.73,.27-1.68,2.58-3.78,1.46-5.91,.77-5.93-1.92-11.93-2.66-18.19-1.55-4.76,.84-9.53-.3-14.23-1.19-2.25-.43-4.5-.91-6.76-1.29-2.33-.39-4.53,.52-6.77,.89-3.82,.62-7.58,1.56-11.46,1.73-2.15,.1-4.3,.06-6.46-.33-6.12-1.1-12,.16-17.75,2.11-1.77,.6-3.11,.75-4.58-.82-.91-.99-2.61-1.06-3.04-2.88-.25-1.09-.31-2.09,.36-2.72,1.12-1.07,1.5-2.63,2.69-3.58,.97-.77,.42-1.08-.3-1.51-8.6-5.33-16.39-11.77-24.53-17.74-3.48-2.55-3.74-5.73-3.24-9.36,.2-1.49,.69-2.93,.95-4.41,.73-4.16,3.15-6.65,7.25-7.56,.37-.08,.72-.25,1.36-.47-2.83-2.16-4.99-4.81-8.05-6.36-1.06-.54-1.41-1.42-1.24-2.44,1.04-6.7,2.79-13.1,8.22-17.79,1.66-1.43,4.3-.61,5.55,1.19,1.96,2.84,1.33,6.05,1.76,9.1,.23,1.67,.05,3.4,.08,5.11,.04,2.11,.8,2.77,2.8,2.25,1.6-.41,3.12-1.08,4.32-2.26,1.83-1.8,3.79-3.52,6.05-4.68,2.8-1.44,3.57-3.77,3.86-6.55,.62-5.87,.78-11.77,1.56-17.62,.29-2.2-1-4.18-1.28-6.33-.64-4.94-.44-9.88,.8-14.63,.9-3.49,3.29-6.56,6.64-7.91,6.78-2.75,12.34-7.4,18.53-11.05,.95-.56,1.7-1.25,1.73-2.45,.1-3.61,.06-7.2-1.12-10.69-.3-.89-.55-1.51-1.75-1.24-1.52,.36-2.37-.59-2.64-1.97-.34-1.73-.59-3.49-.77-5.24-.1-1.02-.22-2.12,1.19-2.55,.81-.24,.43-1.02,.35-1.53-.4-2.88-.38-5.73,0-8.62,.91-7.03,5.69-11.25,12.74-11.47,11-.34,15.52,6.65,16.23,15.73,.08,.99,.02,1.97,.04,2.96,0,.52-.05,1.13,.54,1.37,1.64,.66,1.43,1.99,1.24,3.32-.21,1.42-.41,2.85-.65,4.27-.17,1.01-.55,1.97-1.59,2.32-1.14,.39-1.37,1.19-1.55,2.23-.39,2.21-.37,4.44-.39,6.67-.02,3.11,1.33,5.18,4.27,6.33,3.06,1.18,6.06,2.52,9.07,3.81,2.47,1.06,4.88,2.24,6.94,4.04,1.63,1.44,3.47,2.52,5.51,3.35,2.37,.97,4.04,2.79,5.06,5.21,2.61,6.17,3.96,12.55,3.85,19.31-.09,5.35,1.81,10.43,2.92,15.61,.59,2.75,1.06,5.53,2.23,8.14,.88,1.96,2.04,3.63,3.78,4.92,2.17,1.6,4.31,3.3,5.75,5.6,1.06,1.69,2.2,1.78,3.72,.86,1.54-.95,2.12-2.59,1.31-4.18-.83-1.64-1.83-3.19-2.72-4.79-1.01-1.83-.73-2.55,1.22-3.23,3.38-1.15,5.18-.41,7.45,2.4,3.12,3.87,5.2,8.3,7.37,12.7,.63,1.26,.84,2.61,.74,4.01-.05,.77-.31,1.54-1,1.82-2.12,.86-3.56,2.84-5.93,3.33-1.31,.27-3.15,.82-3.49,1.91-.38,1.25,1.6,1.69,2.53,2.49,3.14,2.71,5.31,5.95,6.08,10.06,.04,.26,.22,.55,.15,.76-.9,3.06-.54,6.58-3.05,9.07-4.01,3.99-8.42,7.49-13.04,10.75-3.08,2.17-6.53,2.92-10.16,3.22-.98,.08-1.94,.22-3.33,.38"/>
</svg>