<?xml version="1.0" encoding="UTF-8"?>
<svg id="Layer_1" data-name="Layer 1" xmlns="http://www.w3.org/2000/svg" viewBox="0 0 250 250">
  <defs>
    <style>
      .cls-1 {
        fill: #6d6e71;
      }
    </style>
  </defs>
  <path class="cls-1" d="M234.21,125.12c.15-59.84-48.1-109.2-108.71-109.41-60.54-.2-109.52,48.62-109.72,108.72-.21,60.21,48.16,109.7,108.89,109.85,60.6,.15,109.54-48.74,109.54-109.16m12.95-.09c0,67.53-54.8,122.35-122.37,122.22-67.8-.14-122.1-55.33-121.96-122.65C2.98,57.36,57.84,2.57,125.3,2.75c67.78,.18,121.92,55.26,121.86,122.28"/>
  <path class="cls-1" d="M182.65,108.04c-.47,1.8-.96,3.59-1.42,5.39-.35,1.37-.16,1.6,1.26,1.64,.19,0,.39,0,.57,0,.93-.04,1.23-.36,1-1.25-.47-1.9-.94-3.8-1.42-5.77M53.25,166.06v-.03c.76,0,1.51,.03,2.28,0,.75-.04,1.16-.31,.89-1.2-.39-1.24-.7-2.49-.98-3.75-.85-3.88-.82-7.83-.97-11.77-.05-1.51-.09-3.02-.34-4.52-.05-.35-.12-.74-.58-.73-.41,.02-.46,.39-.5,.7-.06,.47-.12,.94-.12,1.41,0,3.09-.02,6.18,0,9.27,0,1.6-.21,3.15-.69,4.66-.55,1.71-1.09,3.42-1.68,5.13-.23,.65-.04,.87,.62,.84,.69-.03,1.38,0,2.08,0m116.65-75.77c.36,.1,.45,.13,.53,.13,7.43,0,14.84,0,22.27-.02,.23,0,.56,.08,.64-.23,.06-.24-.21-.37-.37-.5-1.85-1.59-3.66-3.21-5.22-5.08-1.93-2.3-3.77-4.68-4.75-7.57-.74-2.17,.2-3.91,2.37-4.6,1-.32,2.04-.39,3.08-.37,.62,0,1.23,0,2.1,0-1.4-1.51-2.61-2.8-3.65-4.22-1.77-2.43-3.45-4.92-4.53-7.74-.6-1.56,.12-3.43,1.57-4.22,.8-.45,1.71-.39,2.58-.44,1.27-.08,1.35-.17,.7-1.21-1.84-2.91-3.49-5.92-4.89-9.08-.1-.22-.14-.56-.41-.58-.36-.03-.39,.37-.5,.61-1.42,2.97-2.97,5.85-4.67,8.67-.15,.24-.28,.49-.41,.74-.26,.5-.13,.78,.45,.82,.57,.04,1.14,.09,1.7,.17,2.08,.3,3.2,1.88,2.77,3.93-.39,1.85-1.36,3.45-2.34,5.04-1.44,2.35-3.2,4.46-4.91,6.61-.13,.16-.37,.32-.28,.56,.11,.25,.39,.14,.6,.16,1.09,.13,2.2,.21,3.29,.37,2.5,.38,3.84,2.74,2.88,5.07-.3,.73-.67,1.43-1.08,2.1-1.73,2.82-3.86,5.3-6.18,7.64-1.04,1.05-2.11,2.07-3.32,3.23M40.57,114.38c.42,.22,.77,.17,1.1,.17,1.86-.02,3.73,.02,5.58,.14,2.89,.19,4.27,2.37,3.15,5.04-1.01,2.44-2.55,4.56-4.22,6.6-2.69,3.28-5.81,6.14-8.81,9.13-.28,.27-.66,.47-.74,.97h32.69c-.59-.49-1.02-.86-1.45-1.22-2.59-2.13-5.09-4.35-7.32-6.86-2.4-2.72-4.48-5.64-5.75-9.06-.87-2.31,.59-4.42,3.06-4.61,1.98-.16,3.97-.12,5.96-.17,.33,0,.69,.11,1.01-.16-.21-.49-.61-.82-.94-1.17-2.11-2.27-4.2-4.55-5.94-7.12-1.51-2.23-2.93-4.51-3.69-7.11-.78-2.67,.19-4.22,2.93-4.68,1.09-.18,2.21-.22,3.3-.37,1.01-.13,1.05-.19,.44-.97-2.96-3.79-5.01-8.09-7.05-12.4-.28-.6-.3-1.65-1.01-1.64-.63,0-.83,1.01-1.14,1.62-2.1,4.21-4.23,8.41-6.9,12.29-.19,.28-.57,.56-.4,.9,.18,.38,.66,.31,1.03,.31,1.24,.02,2.46,.11,3.65,.46,1.48,.42,2.18,1.34,2.32,2.87,.12,1.2-.34,2.24-.85,3.25-1.77,3.52-4.03,6.71-6.55,9.72-1.13,1.34-2.28,2.68-3.46,4.07M95.33,39.35c-.13-.21-.3-.2-.45-.2h-7.87c-.35,0-.69,.08-1,.24-4.94,2.62-9.88,5.24-14.17,8.91-4.95,4.24-9.63,8.73-13.33,14.17-1.02,1.51-1.25,3.04-.95,4.76,.51,2.84,1.39,5.57,2.35,8.28,1.97,5.52,4.67,10.63,8.59,15.05,1.49,1.68,3.25,3.07,4.81,4.69,1.05,1.09,1.28,2.39,.81,3.77-.46,1.33-1.55,1.94-2.88,2.17-1.91,.33-3.84,.13-5.76,.2-.52,.02-1.2-.19-1.44,.4-.21,.52,.35,.91,.65,1.28,2.29,2.72,4.85,5.15,7.44,7.56,1.85,1.73,3.92,3.18,5.68,5.01,.9,.95,1.56,1.98,1.09,3.41-.5,1.51-1.54,2.35-3.07,2.6-1.72,.29-3.45,.33-5.19,.37-1.58,.04-3.16-.11-4.73,.16-.26,.04-.63-.05-.73,.3-.08,.32,.22,.5,.4,.71,1.59,1.68,3.32,3.2,5.1,4.67,4.07,3.36,8.06,6.82,12.66,9.45,1.27,.73,1.95,1.75,2.12,3.15,.11,.91,.21,1.83,.21,2.74,.03,3.41,.03,6.82,0,10.23,0,1.83-.15,3.66-.48,5.46-1.38,7.55-4.09,14.63-7.76,21.35-2.97,5.44-6.71,10.31-10.78,14.96-.17,.2-.51,.4-.39,.69,.13,.3,.51,.17,.78,.17,18.06,0,36.14,0,54.2,.02,.85,0,1.31-.31,1.65-1.08,1.2-2.72,2.45-5.41,3.67-8.11,.25-.56,.5-1.09,.91-1.54,.99-1.09,2.45-1.45,3.8-.94,1.43,.56,2.16,1.65,2.18,3.23,0,.73-.13,1.43-.31,2.14-.47,1.78-1.27,3.43-1.91,5.14-.48,1.33-.41,1.44,1.03,1.45,5.56,.05,11.11,.05,16.68,.15,6.31,.12,12.63,.05,18.94,.08,7.14,.04,14.27,.11,21.41,.16,.6,0,1.1-.02,1.43-.66,3.74-7.46,6.53-15.19,6.55-23.68,0-4.08-.02-8.15-.97-12.14-2.39-10.11-7.39-18.87-14.04-26.75-6.46-7.66-14.15-13.95-22.38-19.6-6.73-4.61-14.06-8.08-21.42-11.5-5.79-2.68-11.67-5.16-17.27-8.22-4.93-2.69-9.62-5.68-13.56-9.76-4.72-4.9-6.93-10.72-6.27-17.51,.67-6.77,3.57-12.63,7.74-17.92,2.44-3.08,5.3-5.76,8.17-8.42,.43-.39,.85-.8,1.39-1.31-.38-.07-.52-.12-.67-.12-2.87,0-5.74,0-8.62,0-.5,0-.9,.21-1.31,.47-3.04,1.94-6.03,3.93-8.84,6.19-.56,.45-1.18,.85-1.83,1.18-1.65,.87-3.14,.53-4.28-.92-1.23-1.56-1.24-2.96,.04-4.43,.7-.8,1.46-1.54,2.18-2.3m86.58-11.2h.95c1.33,.35,2.13,1.27,2.68,2.48,.45,1.01,.74,2.08,.96,3.16,1.69,8.3,5.26,15.57,11.56,21.38,.67,.63,1.3,1.31,1.78,2.1,1.26,2.08,.31,4.37-2.06,4.87-1.51,.33-3.07,.26-4.61,.37-.28,.02-.63-.04-.75,.28-.13,.31,.15,.52,.33,.73,1.15,1.34,2.42,2.58,3.67,3.82,2.05,2.03,4.34,3.78,6.48,5.69,.71,.63,1.24,1.34,1.27,2.34,.06,2.22-1.48,3.92-3.76,4-1.8,.06-3.6,.03-5.4,.03-.58,0-1.16,0-1.78,0,.1,.48,.39,.65,.6,.88,2.61,2.78,5.64,5.05,8.64,7.37,1.83,1.41,3.76,2.69,5.22,4.5,1.68,2.08,.74,4.67-1.86,5.23-1.3,.28-2.63,.37-3.95,.38-3.63,.03-7.27,.04-10.9,0-.78,0-1.05,.28-1.07,1.05-.1,4.57,.12,9.09,1.28,13.53,.56,2.17,1.08,4.35,1.22,6.6,.09,1.33-.56,2.22-1.74,2.76-.61,.28-1.25,.4-1.91,.52-1.73,.3-3.47,.14-5.21,.2-.3,0-.73-.16-.88,.13-.18,.37,.27,.58,.48,.82,4.04,4.53,7.91,9.19,11.22,14.29,6.24,9.61,9.96,20.02,10.31,31.55,.2,6.88-.73,13.58-3.1,20.08-1.77,4.85-3.61,9.64-6.69,13.84-.48,.65-1.01,.94-1.83,.92-3.66-.07-7.32-.12-10.99-.13-13.55-.09-27.1,0-40.65-.17-14.11-.18-28.24-.03-42.36-.19-12.16-.14-24.32-.02-36.48-.25-2.65-.05-5.31-.08-7.94-.38-1.65-.18-2.73-1.66-2.48-3.29,.18-1.2,.86-2.09,1.75-2.84,2.4-2.05,4.76-4.16,6.92-6.46,11.94-12.75,18.58-27.58,17.75-45.34-.04-.76-.28-1.07-1.06-1.07-4.89,.02-9.79,.02-14.69,0-.79,0-1.05,.34-1.03,1.09,.03,2.14,.04,4.29,0,6.44-.04,3.08,.37,6.1,1.08,9.1,.65,2.73,1.25,5.47,1.84,8.22,.53,2.51-.9,4.44-3.44,4.56-5.21,.27-10.42,.21-15.63,0-2.96-.13-4.14-1.82-3.55-4.71,.39-1.89,.83-3.78,1.53-5.56,2.35-5.93,2.49-12.05,1.77-18.27-.06-.59-.31-.85-.89-.84-.32,0-.64,0-.95,0-5.53-.02-11.06,.06-16.58-.13-1.82-.06-3.48-.42-4.27-2.34v-2.28c.51-1.18,1.37-2.11,2.33-2.95,1.63-1.43,3.3-2.84,4.96-4.26,3.34-2.85,6.5-5.91,9.6-9.01,.17-.18,.49-.34,.41-.59-.1-.35-.48-.21-.74-.22-1.1-.06-2.21-.09-3.32-.16-1.76-.12-3.53-.09-5.28-.38-2.6-.44-3.76-3.15-2.29-5.3,.69-.99,1.5-1.87,2.32-2.75,3.07-3.31,6.33-6.44,9.29-9.86,.47-.55,.9-1.13,1.35-1.7,.35-.45,.26-.67-.33-.66-.82,0-1.64,0-2.46,0-1.14,.02-2.27-.07-3.41-.2-1.95-.22-3.88-2.72-2.4-4.93,.57-.84,1.16-1.67,1.8-2.44,1.94-2.29,3.94-4.53,5.55-7.08,3.89-6.19,6.66-12.89,8.86-19.83,.91-2.86,1.86-5.7,3.42-8.29,2.07-3.44,4.79-6.34,7.55-9.22,6.92-7.24,15.06-12.74,24.07-17.03,.48-.22,.97-.26,1.48-.26,14.88,.04,29.75-.11,44.62,.16,1.42,.03,2.83,.15,4.24,.39,1.08,.19,1.68,.82,1.95,1.91,.37,1.51-.04,2.65-1.25,3.58-1.55,1.17-3.3,1.99-4.99,2.91-4.67,2.52-8.94,5.58-12.62,9.43-4.55,4.75-8,10.1-8.71,16.84-.36,3.38,.13,6.6,2.09,9.5,1.77,2.62,4.05,4.66,6.6,6.44,6.2,4.33,12.96,7.61,19.86,10.6,9.43,4.09,18.65,8.57,27.19,14.34,2.56,1.73,5.04,3.59,7.58,5.36,1.1,.76,1.2,.65,1.67-.61,1.68-4.52,1.65-9.22,1.59-13.93-.02-1.16-.1-1.24-1.25-1.24-3.79,0-7.58,0-11.37,0-1.1,0-2.2,0-3.32-.13-1.58-.17-2.52-1.08-3.06-2.46-.56-1.44-.04-2.67,1-3.69,.92-.91,1.89-1.77,2.86-2.63,3.2-2.87,6.59-5.51,9.53-8.66,.2-.22,.52-.36,.47-.81-.76,0-1.48,0-2.2,0-1.73-.02-3.48,.14-5.17-.39-1.51-.47-2.14-1.34-2.2-2.92-.04-.93,.25-1.73,.81-2.46,1.07-1.38,2.31-2.6,3.5-3.85,1.95-2.06,3.99-4.06,5.82-6.23,.18-.22,.46-.42,.33-.73-.13-.31-.47-.28-.74-.3-.98-.06-1.95-.13-2.93-.18-2.32-.09-3.77-2.46-2.75-4.54,.48-.99,1.18-1.87,1.9-2.71,4.29-4.99,7.52-10.59,9.76-16.77,.85-2.35,1.57-4.73,2.55-7.03,.63-1.46,1.51-2.62,3.07-3.14"/>
</svg>