<?xml version="1.0" encoding="UTF-8"?>
<svg id="Layer_1" data-name="Layer 1" xmlns="http://www.w3.org/2000/svg" viewBox="0 0 250 250">
  <defs>
    <style>
      .cls-1 {
        fill: #6d6e71;
      }
    </style>
  </defs>
  <path class="cls-1" d="M234.21,125.12c.15-59.84-48.1-109.2-108.71-109.41-60.54-.2-109.52,48.62-109.72,108.72-.21,60.21,48.16,109.7,108.89,109.85,60.6,.15,109.54-48.74,109.54-109.16m12.95-.09c0,67.53-54.8,122.35-122.37,122.22-67.8-.14-122.1-55.33-121.96-122.65C2.98,57.36,57.84,2.57,125.3,2.75c67.78,.18,121.92,55.26,121.86,122.28"/>
  <path class="cls-1" d="M151.1,179.53c0,9.27-.03,18.53,.03,27.8,0,1.24-.43,1.71-1.58,2.02-9.48,2.55-19.12,3.63-28.92,3.18-6.77-.3-13.43-1.42-19.99-3.15-1.33-.36-1.73-.95-1.73-2.32,.04-18.4,.03-36.8,.02-55.2,0-1.88,0-1.94-1.84-1.82-7.21,.47-14.43,.98-21.64,1.46-4.35,.29-8.68,.56-13.02,.85-4.72,.31-9.45,.56-14.17,.98-6.05,.55-11.47-5.48-10.13-11.55,.78-3.54,2.34-6.84,3.55-10.24,1.54-4.35,3.18-8.66,4.7-13,.38-1.08,.76-1.4,1.93-.96,5.15,1.94,10.34,3.83,15.54,5.66,1.16,.4,1.46,.86,1,2.04-1.07,2.68-2.01,5.41-2.98,8.13-.13,.35-.48,.76-.19,1.08,.32,.34,.81,.12,1.24,.04,1.42-.27,2.7-.89,3.86-1.72,1.79-1.27,3.58-2.56,5.32-3.89,6.9-5.25,14.22-5.6,21.86-1.88,1.37,.66,2.71,.91,4.22,.91,17.92-.02,35.84-.02,53.77,.02,1.42,0,2.68-.26,3.97-.87,4.53-2.17,9.24-3.29,14.27-2.03,3.29,.82,6.07,2.63,8.76,4.6,1.53,1.12,3.05,2.26,4.6,3.35,1.07,.74,2.25,1.26,3.54,1.51,1.23,.23,1.46,0,1.05-1.15-.96-2.68-1.89-5.36-2.94-8-.47-1.17-.31-1.72,.98-2.17,5.21-1.81,10.38-3.72,15.55-5.65,1.05-.39,1.48-.23,1.86,.86,2.51,7.02,4.99,14.05,7.67,21,2.65,6.91-1.75,12.97-7.59,13.84-2.01,.3-4.03-.13-6.05-.24-5.93-.34-11.85-.79-17.78-1.19-7.18-.49-14.35-.99-21.51-1.48-1.94-.13-3.88-.19-5.81-.36-1.18-.11-1.45,.39-1.45,1.48,.03,9.36,.02,18.7,.02,28.06"/>
  <path class="cls-1" d="M150.55,99.31c.12,13.13-10.42,25.45-25.37,25.49-14.26,.04-25.61-11.16-25.6-25.53,0-14.2,11.2-25.48,25.51-25.49,14.89,0,25.59,12.25,25.46,25.53"/>
  <path class="cls-1" d="M80.5,104.37c0,.69,.04,1.38,0,2.06-.12,1.52-.79,2.73-2.18,3.44-3.18,1.62-6.39,3.22-9.58,4.83-.91,.46-1.81,.39-2.75,.05-4.4-1.63-8.82-3.24-13.22-4.87-1.51-.56-2.29-2.03-1.75-3.68,1.08-3.27,2.32-6.49,3.49-9.73,.22-.6,.49-.72,.99-.15,1.02,1.18,2.39,1.66,3.92,1.6,.62-.03,1.04,.18,1.48,.59,.88,.82,1.96,1.27,3.17,1.24,.83-.02,1.51,.18,2.06,.82,.13,.15,.33,.3,.53,.36,2.29,.57,4.52,1.33,6.61,2.45,.73,.39,.87-.11,.78-.77-.21-1.67-.47-3.32-.47-5.01,0-1.27,.43-2.37,1.33-3.26,.88-.88,1.94-1.33,3.18-.91,1.18,.41,1.76,1.37,1.85,2.57,.22,2.79,.39,5.58,.58,8.38h-.03Z"/>
  <path class="cls-1" d="M169.54,104.06c.16-2.37,.34-5.12,.53-7.87,.09-1.31,.65-2.33,1.93-2.8,1.11-.41,2.52,.14,3.42,1.26,.8,.99,1.13,2.13,1.03,3.38-.13,1.5-.3,2.99-.5,4.49-.1,.77,.17,1.19,.89,.82,2.06-1.09,4.33-1.62,6.45-2.49,1.16-.47,2.36-.8,3.49-1.25,2.19-.86,4.34-1.77,6.62-2.36,.23-.06,.45-.26,.65-.42,1.24-1.01,1.23-1.01,1.8,.56,.96,2.63,1.95,5.25,2.89,7.89,.94,2.63,.31,3.96-2.28,4.91-4.12,1.51-8.24,3.02-12.36,4.57-1.05,.39-2,.37-2.98-.13-3.07-1.55-6.17-3.07-9.24-4.63-1.52-.76-2.29-2.04-2.34-3.74-.02-.6,0-1.2,0-2.19"/>
  <path class="cls-1" d="M86.86,123.63c-1.24-.32-2.73-.65-3.94-1.59-1.19-.91-1.54-2.49-.96-4.11,1.4-3.89,2.84-7.76,4.27-11.65,1.06-2.87,2.11-5.73,3.18-8.6,.99-2.68,2.72-3.48,5.38-2.5,.37,.13,.74,.27,1.09,.4,2.2,.85,3.11,2.63,2.31,4.85-1.57,4.38-3.21,8.74-4.82,13.1-.9,2.47-1.79,4.95-2.72,7.4-.65,1.76-1.99,2.73-3.78,2.71"/>
  <path class="cls-1" d="M157.04,94.74c1.64-.02,2.85,.94,3.56,2.86,2.12,5.73,4.23,11.48,6.33,17.21,.42,1.14,.86,2.26,1.23,3.41,.56,1.81-.07,3.42-1.74,4.26-.92,.46-1.91,.83-2.9,1.08-1.73,.43-3.41-.67-4.15-2.67-1.71-4.61-3.4-9.22-5.09-13.83-.8-2.19-1.64-4.36-2.41-6.55-.81-2.31,.04-4.09,2.33-4.93,.92-.35,1.82-.82,2.84-.83"/>
  <path class="cls-1" d="M41.77,106.95c-1.3-.24-2.76-.64-4-1.55-1.29-.95-1.64-2.46-1.01-4.18,1.66-4.58,3.36-9.14,5.04-13.71,.81-2.18,1.59-4.36,2.42-6.54,.98-2.61,2.68-3.4,5.29-2.49,.33,.12,.65,.22,.98,.34,2.44,.91,3.32,2.69,2.44,5.12-1.58,4.37-3.21,8.74-4.81,13.1-.91,2.46-1.8,4.94-2.73,7.39-.61,1.6-1.92,2.54-3.6,2.53"/>
  <path class="cls-1" d="M207.94,106.96c-1.58-.15-2.69-.95-3.25-2.49-2-5.41-4-10.82-6-16.24-.56-1.54-1.18-3.06-1.69-4.61-.67-2.03,.16-3.79,2.13-4.63,.47-.2,.97-.36,1.46-.53,2.53-.88,4.26-.07,5.2,2.46,1.44,3.84,2.85,7.68,4.26,11.51,1.08,2.91,2.16,5.82,3.2,8.74,.82,2.33,0,4.05-2.29,4.96-.96,.38-1.91,.81-3.01,.84"/>
  <path class="cls-1" d="M72.25,97.59c.1,1.19,.19,2.18,.27,3.16,.02,.24,.13,.56-.15,.69-.36,.17-.62-.16-.71-.39-.4-1.03-.95-1.19-2.01-.75-1.08,.43-2.61-.35-3.29-1.5-.36-.61-.64-.73-1.32-.48-1.46,.53-3.02-.05-3.77-1.4-.34-.63-.59-.79-1.27-.47-1.2,.58-2.29,.07-3.21-.69-.87-.72-1.16-1.75-.85-2.81,.72-2.53,1.54-5.04,2.7-7.39,1.19-2.41,4.11-2.44,5.5-.13,.33,.56,.55,.69,1.18,.44,1.49-.58,3.03-.02,3.86,1.42,.32,.56,.55,.68,1.18,.46,1.64-.57,3.15,0,3.9,1.55,.35,.72,.65,.52,1.16,.3,1.69-.68,3.78,.38,4.1,2.02,.12,.62,0,.96-.71,.71-3.73-1.31-6.49,1.94-6.58,5.27"/>
  <path class="cls-1" d="M172.56,92.05c-.19,.03-.66,.09-1.12,.18-.31,.06-.66,.39-.93,.02-.22-.3-.03-.67,.09-.99,.53-1.49,2.44-2.27,4.1-1.6,.57,.23,.77,.18,1.05-.38,.8-1.54,2.26-2.12,3.89-1.55,.61,.21,.86,.16,1.2-.43,.85-1.49,2.33-2.01,3.96-1.39,.63,.23,.78,0,1.07-.47,1.44-2.36,4.39-2.29,5.57,.19,1.11,2.33,1.93,4.78,2.65,7.27,.31,1.12,0,2.18-.91,2.91-.9,.72-1.94,1.19-3.11,.66-.61-.29-.91-.3-1.29,.39-.8,1.47-2.45,2.02-3.97,1.35-.57-.25-.74-.21-1.04,.37-.81,1.58-2.37,2.17-4.02,1.49-.64-.25-.8-.07-1.04,.44-.21,.44-.47,1.1-1.07,.88-.47-.18-.11-.77-.09-1.17,.04-1.45,.43-2.88-.05-4.35-.76-2.29-2.54-3.82-4.92-3.84"/>
  <path class="cls-1" d="M182.72,118.3c-.02-1.49,.5-2.33,1.93-2.86,4.26-1.6,8.54-3.17,12.82-4.72,1.63-.59,3.16,.26,3.84,2.06,.7,1.85,.08,3.51-1.61,4.15-4.1,1.54-8.23,3.05-12.34,4.56-2.5,.93-4.61-.53-4.64-3.19"/>
  <path class="cls-1" d="M67.3,118.24c0,2.69-2.12,4.19-4.61,3.27-4.03-1.49-8.08-2.97-12.12-4.48-1.93-.73-2.62-2.33-1.87-4.25,.76-1.95,2.26-2.64,4.25-1.92,4.04,1.48,8.08,2.97,12.12,4.45,1.7,.63,2.22,1.34,2.22,2.92"/>
  <path class="cls-1" d="M55.44,91.28c-.71,1.34-.47,2.82-1.43,4.11-.93,1.26-1.25,2.99-1.79,4.53-.26,.74-.66,.93-1.36,.61-.36-.16-.72-.3-1.09-.41-.81-.23-.96-.7-.66-1.46,1.02-2.7,2.02-5.39,3.01-8.1,.25-.69,.64-1.06,1.34-.67s1.89,.15,1.98,1.39"/>
  <path class="cls-1" d="M201.08,99.22c.09,.44-.19,.63-.53,.77-.44,.18-.9,.31-1.32,.52-.75,.36-1.19,.15-1.46-.65-.48-1.42-.76-3.02-1.62-4.18-.94-1.28-.87-2.72-1.41-4.03-.31-.73-.05-1.15,.66-1.36,.46-.13,.9-.3,1.34-.47,.49-.18,.85-.04,1.03,.45,1.08,2.89,2.16,5.8,3.23,8.7,.03,.08,.04,.17,.06,.25"/>
  <path class="cls-1" d="M168.09,103.93c0,.99-.02,1.97,0,2.97,.03,1.07,.48,1.99,1.11,2.83,1.14,1.53,1.1,1.59-.73,2.11-.72,.21-1.03-.04-1.25-.66-1-2.74-2-5.48-3.03-8.22-.26-.7-.14-1.14,.61-1.38,.85-.28,1.69-.61,2.54-.93,.73-.29,.93,0,.87,.71-.07,.85-.09,1.71-.12,2.57"/>
  <path class="cls-1" d="M82.47,100.54c1,.4,2.17,.84,3.31,1.35,.39,.18,.2,.63,.09,.93-1.03,2.82-2.07,5.65-3.11,8.47-.15,.43-.39,.81-.94,.61-.68-.25-1.48-.27-1.95-.89-.16-.21,.18-.43,.36-.61,1.48-1.47,1.97-3.25,1.77-5.3-.13-1.28-.12-2.57-.18-3.86-.02-.37-.02-.71,.66-.71"/>
</svg>