<?xml version="1.0" encoding="UTF-8"?>
<svg id="Layer_1" data-name="Layer 1" xmlns="http://www.w3.org/2000/svg" viewBox="0 0 250 250">
  <defs>
    <style>
      .cls-1 {
        fill: #6d6e71;
      }
    </style>
  </defs>
  <path class="cls-1" d="M234.21,125.12c.15-59.84-48.1-109.2-108.71-109.41-60.54-.2-109.52,48.62-109.72,108.72-.21,60.21,48.16,109.7,108.89,109.85,60.6,.15,109.54-48.74,109.54-109.16m12.95-.09c0,67.53-54.8,122.35-122.37,122.22-67.8-.14-122.1-55.33-121.96-122.65C2.98,57.36,57.84,2.57,125.3,2.75c67.78,.18,121.92,55.26,121.86,122.28"/>
  <path class="cls-1" d="M125.66,179.26c1.8-5.09,3.49-9.7,5.66-14.12,.53-1.07,.08-1.8-.48-2.64-4.86-7.36-5.91-7.36-10.57-.02-.62,.98-.83,1.81-.35,2.94,1.9,4.43,3.7,8.89,5.74,13.84m-32.11-51.48c6.58,7.27,12.42,14.61,17.69,22.4,2.53,3.75,2.4,3.64,5.4,.26,1.68-1.89,1.54-3.02-.22-4.77-5.85-5.8-11.87-11.41-18-16.9-1.41-1.25-2.76-1.56-4.87-.99m63.9-.04c-1.85-.31-3.06-.5-4.23,.58-5.73,5.35-11.59,10.56-17.21,16.01-3.65,3.55-3.42,3.65-.24,7.69,1.33,1.68,1.99,1.55,3.08-.19,4.45-7.05,9.61-13.58,15.04-19.9,1.1-1.29,2.2-2.58,3.57-4.19m-43.2-.19c2.2,2.61,4.63,5.76,7.35,8.64,3.8,4.04,3.89,3.95,7.93-.03,1.25-1.23,2.52-2.42,3.78-3.62,1.63-1.55,3.26-3.09,5.27-4.99h-24.33Zm37.11,49.62c.29-.42,.45-.56,.49-.73,4.47-16.86,12.37-32.07,22.23-46.34,.46-.66,1.52-1.47,.82-2.24-.74-.81-2.03-.5-3.01-.13-.59,.23-1.08,.8-1.54,1.29-1.85,1.98-3.68,3.97-5.48,5.99-7.18,8.02-13.82,16.44-19.42,25.65-.75,1.24-1.58,2.47-.73,4.04,2.19,4.08,4.35,8.16,6.64,12.47m-51.65-.06c1.98-3.71,3.59-7.44,5.83-10.8,1.35-2.03,1.37-3.7,.06-5.83-7.1-11.53-15.82-21.77-24.96-31.67-1.46-1.58-3.05-1.6-5.21-.95,10.78,15.26,19.43,31.26,24.27,49.25m38.56-1.87c-3.19,7.33-5.07,14.98-6.12,22.87-.47,3.57-.67,7.13-.72,10.73-.05,5.35-1.8,7.61-5.82,7.63-4.02,.03-5.87-2.29-5.9-7.55-.09-10.66-1.98-20.99-5.73-30.99-.34-.89-.73-1.75-1.41-3.38-1.41,3.11-2.63,5.56-3.64,8.1-3.43,8.64-5.31,17.61-5.35,26.93,0,1.77-.12,3.49-1.33,4.94-2.58,3.09-7.34,2.32-8.69-1.48-.39-1.07-.53-2.28-.51-3.42,.3-27.85-9.31-52.35-25.26-74.71-.95-1.34-1.96-2.65-2.87-4.02-1.37-2.11-2.83-3.64-5.76-3.62-2.56,.02-4.53-2.57-4.67-5.13-.14-2.59,1.49-4.92,4.11-5.63,1.1-.3,2.29-.36,3.44-.37,41.98,0,83.96,0,125.93-.02,1.47,0,2.93,0,4.27,.66,2.35,1.16,3.5,3.1,3.18,5.67-.33,2.68-1.97,4.42-4.65,4.9-1.28,.22-2.37,.42-3.23,1.59-12.66,17.05-22.91,35.25-27.19,56.35-1.66,8.2-2.15,16.51-2.54,24.83-.2,4.1-1.81,6.24-4.89,6.31-3.28,.08-5.31-2.35-5.37-6.54-.19-11.51-2.72-22.46-7.89-32.78-.32-.65-.4-1.51-1.42-1.88"/>
  <path class="cls-1" d="M118.62,67.32c5.54,.05,10.95,.92,16.25,2.52,.52,.15,1.02,.34,1.53,.48,.38,.11,.46,.3,.39,.67-.19,1.07-.44,2.12-.52,3.2,0,.22-.22,.5,.12,.67,.02,0,.02,.1,0,.13-.54,.93-.4,1.98-.43,2.97-.21,5.94,.74,11.69,2.9,17.24,1.88,4.81,4.53,9.16,7.98,13.02,2.14,2.4,4.52,4.55,7.14,6.41,.33,.23,.34,.38,.03,.64-1.27,1.04-2.6,2-3.98,2.89-3.84,2.51-7.98,4.36-12.39,5.65-.41,.13-.74,.13-1.08-.22-.5-.5-1.07-.96-1.59-1.43-2.94-2.65-5.51-5.63-7.8-8.84-4.14-5.82-7.15-12.2-8.93-19.13-1.01-3.95-1.62-7.96-1.81-12.03-.21-4.7,.13-9.36,1.06-13.98,.21-1,.11-.88,1.15-.87"/>
  <path class="cls-1" d="M97.4,78.02c0-2.25-.11-4.3-.38-6.34-.04-.37,.06-.56,.41-.68,4.42-1.65,8.96-2.74,13.63-3.31,.32-.04,.48,0,.41,.4-.53,2.89-.83,5.8-.96,8.74-.34,7.6,.64,15.02,2.96,22.26,2.26,7.01,5.59,13.47,10.08,19.33,1.76,2.29,3.66,4.42,5.67,6.48,.1,.11,.31,.2,.23,.38-.06,.13-.26,.1-.39,.11-1.62,.14-3.24,.22-4.87,.18-1.51-.04-3.02-.13-4.53-.3-4.68-.55-9.17-1.76-13.47-3.68-4.33-1.93-8.26-4.48-11.8-7.63-2.36-2.09-4.47-4.4-6.36-6.92-.22-.29-.07-.46,.08-.66,1.33-1.84,2.54-3.75,3.59-5.76,2.76-5.28,4.59-10.85,5.31-16.77,.24-2,.39-4,.38-5.82"/>
  <path class="cls-1" d="M113.98,60.78c-.17,.15-.33,.04-.48,.04-.16,.02-.31,.04-.32,.22-.05,.57-.47,.59-.9,.63-2.17,.17-4.31,.47-6.44,.87-3.23,.61-6.41,1.45-9.49,2.6-.4,.14-.56,.09-.67-.33-.78-2.96-1.85-5.81-3.2-8.55-.85-1.73-1.75-3.43-2.87-5.01-.41-.57-.35-.88,.18-1.43,.73-.76,1.45-1.52,2.16-2.29,1.16-1.25,2.44-2.37,3.76-3.47,1.13-.93,2.3-1.8,3.51-2.64,1.61-1.12,4.97-3,6.78-3.81,3.95-1.77,8.07-2.96,12.36-3.58,3.49-.51,6.98-.63,10.49-.31,.21,.02,.52-.04,.61,.16,.08,.2-.21,.32-.34,.47-.82,.88-1.67,1.75-2.47,2.64-3.29,3.69-6.12,7.7-8.47,12.05-1.87,3.47-3.4,7.07-4.64,10.8-.18,.53,.13,.71,.45,.95"/>
  <path class="cls-1" d="M137.21,35.19c.18,.05,.42,.13,.67,.19,3.84,1.12,7.49,2.72,10.91,4.8,1.02,.63,2.03,1.25,3.01,1.94,.79,.56,1.51,1.21,2.29,1.81,.25,.2,.23,.3-.03,.48-2.22,1.61-4.32,3.38-6.21,5.38-3.54,3.72-6.36,7.92-8.38,12.65-.27,.63-.55,1.25-.78,1.9-.13,.36-.28,.47-.66,.33-2.85-1-5.77-1.73-8.75-2.25-2.34-.41-4.69-.73-7.06-.85-.83-.04-1.66-.08-2.48-.13-.35-.02-.48-.12-.35-.5,.9-2.6,1.96-5.12,3.2-7.57,2.12-4.22,4.75-8.1,7.81-11.69,1.93-2.26,4.03-4.34,6.29-6.26,.27-.23,.28-.23,.52-.22"/>
  <path class="cls-1" d="M141.81,79.85c0-2.4,.21-4.47,.54-6.54,.06-.4,.18-.5,.58-.31,3.53,1.67,6.82,3.73,9.95,6.06,3.02,2.24,5.73,4.82,8.27,7.59,2.52,2.75,4.69,5.75,6.62,8.93,.18,.29,.14,.53,.04,.81-1.09,2.72-2.41,5.31-3.95,7.8-1.14,1.83-2.49,3.49-3.79,5.21-.31,.4-.71,.73-1.04,1.11-.2,.23-.37,.22-.61,.06-2.21-1.52-4.26-3.23-6.14-5.15-3.06-3.14-5.43-6.71-7.23-10.69-1.46-3.21-2.4-6.58-2.88-10.08-.23-1.69-.39-3.39-.37-4.79"/>
  <path class="cls-1" d="M170.96,79.59c.05,2.71-.24,5.38-.7,8.04-.04,.18,0,.47-.17,.51-.23,.06-.28-.25-.39-.4-1.35-1.73-2.69-3.47-4.17-5.1-1.52-1.68-3.12-3.29-4.8-4.8-3.59-3.23-7.5-6.02-11.73-8.38-1.5-.82-3-1.62-4.58-2.28-.35-.14-.42-.26-.27-.65,1.03-2.66,2.33-5.17,3.9-7.55,1.29-1.98,2.8-3.77,4.44-5.48,1.8-1.85,3.81-3.44,5.9-4.91,.3-.21,.46-.16,.68,.09,2.46,2.72,4.57,5.68,6.32,8.9,2.74,5.04,4.49,10.41,5.2,16.11,.24,1.96,.42,3.93,.37,5.91"/>
  <path class="cls-1" d="M91.51,77.93c-.1,8.11-2.24,15.63-6.53,22.53-.09,.13-.15,.28-.23,.42-.08,.13-.14,.31-.32,.31-.16,0-.19-.2-.25-.31-.65-1.19-1.2-2.44-1.72-3.68-1.79-4.27-2.83-8.72-3.32-13.31-.02-.21,.02-.43-.04-.62-.25-.83,.16-1.31,.76-1.81,3.4-2.85,7-5.38,10.93-7.43,.5-.27,.57-.23,.6,.36,.05,1.17,.17,2.36,.13,3.54"/>
  <path class="cls-1" d="M79.3,73.87c.35-2.78,.9-5.45,1.73-8.05,1.05-3.32,2.42-6.49,4.18-9.48q.31-.52,.62,0c1.94,3.37,3.37,6.94,4.36,10.69,.12,.47,0,.67-.42,.88-2.48,1.2-4.88,2.55-7.18,4.09-.98,.66-1.94,1.35-2.9,2.03-.1,.06-.21,.2-.34,.1-.09-.07-.04-.21-.04-.25"/>
</svg>