<?xml version="1.0" encoding="UTF-8"?>
<svg id="Layer_1" data-name="Layer 1" xmlns="http://www.w3.org/2000/svg" viewBox="0 0 250 250">
  <defs>
    <style>
      .cls-1 {
        fill: #6d6e71;
      }
    </style>
  </defs>
  <path class="cls-1" d="M234.21,125.12c.15-59.84-48.1-109.2-108.71-109.41-60.54-.2-109.52,48.62-109.72,108.72-.21,60.21,48.16,109.7,108.89,109.85,60.6,.15,109.54-48.74,109.54-109.16m12.95-.09c0,67.53-54.8,122.35-122.37,122.22-67.8-.14-122.1-55.33-121.96-122.65C2.98,57.36,57.84,2.57,125.3,2.75c67.78,.18,121.92,55.26,121.86,122.28"/>
  <path class="cls-1" d="M119.29,62.92c-1.95-1.92-4.5-2.49-4.49-5.33,0-2.52,1.92-3.58,4.01-4.26,1.65-.54,1.86-1.97,2.5-3.27,1.69-3.48,5.01-3.63,7.09-.39,.85,1.33,1.19,2.82,2.79,3.78,5.34,3.21,5.22,5.29-1.49,9.52,3.48,0,5.78-.07,8.07,.02,2.84,.1,4.1,1.42,2.13,3.94-2.75,3.53-3.02,5.73,2.29,6.34,1.45,.18,2.9,2.01,2.32,3.24-2.55,5.39,.45,10.99-1.63,16.76-6.11,16.9-5.65,34.2-.03,51.33,.88,2.69,2.12,4.76,4.71,6.36,4.84,3,5.24,8.03,.86,11.6-2.4,1.96-1.81,3.17-.42,5.12,2.63,3.67,5.01,7.53,7.63,11.21,1.77,2.48,2.06,4.72-.48,6.77-2.33,1.87-1.65,3.22,.35,4.9,2.31,1.96,2.85,4.64,1.7,7.5-1.13,2.8-3.25,4.52-6.29,4.53-17.28,.06-34.55,.07-51.84,0-2.99-.02-5.2-1.73-6.4-4.46-1.23-2.8-.72-5.59,1.55-7.53,2.22-1.91,2.09-3.32,.04-5.02-2.42-2.01-1.85-4.08-.25-6.35,2.68-3.84,5.16-7.81,7.83-11.66,1.3-1.85,1.41-3.09-.41-4.93-4.33-4.36-3.83-8.92,1.26-11.97,2.49-1.51,3.51-3.63,4.33-6.1,5.78-17.46,5.59-34.92-.14-52.34-1.06-3.23-2.58-6.34-.39-9.7,.56-.87,.39-1.85-.17-2.75-2.67-4.23-.81-6.45,3.47-7.06,3.19-.45,2.79-1.61,1.51-3.76-3.38-5.72-3.18-5.97,3.73-6.04,1.43,0,2.84,0,4.27,0"/>
  <path class="cls-1" d="M179.57,189.98c-4.84,0-9.69,.06-14.53-.03-3.11-.05-5.57-.9-2.82-4.53,1.64-2.16,.94-3.83-.33-5.67-1.46-2.12-2.76-4.37-4.32-6.42-3.03-3.99-5.07-7.62-2.15-13.03,2.04-3.77,.51-8.16-2.66-11.56-2.95-3.15-2.76-6.01,1.11-7.46,4.61-1.73,5.82-5.25,6.61-9.26,.65-3.32,.95-6.7,1.37-10.06,.43-3.51-.31-6.4-3.01-9.17-7.89-8.09-7.6-20.12,.25-27.82,7.6-7.46,19.79-7.68,27.68-.5,7.92,7.2,8.66,19.61,1.47,27.95-2.12,2.47-4.4,4.5-3.97,8.29,.71,6.25,.84,12.62,4.32,18.15,.6,.95,2.11,1.36,3.23,1.95,5.02,2.64,6.31,7.63,2.32,11.45-2.67,2.56-2.14,4.1-.04,6.32,1.66,1.76,3.05,3.75,4.6,5.62,2.53,3.03,5.39,5.91,.67,9.57-1.71,1.32-.24,2.51,.87,3.5,2.4,2.16,3.24,4.83,2.05,7.87-1.25,3.21-3.93,4.53-7.23,4.8-.31,.03-.65,.04-.97,.04h-14.52"/>
  <path class="cls-1" d="M70.04,189.98c-4.85,0-9.69,.03-14.53,0-3.23-.03-6.27-.8-7.6-4.1-1.3-3.23-.99-6.47,2-8.75,1.94-1.48,1.43-2.63-.03-3.84-2.97-2.48-2.37-4.87-.07-7.43,1.73-1.92,3.29-3.99,4.9-6,2.15-2.68,5.04-4.77,.31-8.37-3.49-2.64-1.93-8.61,2.58-10.32,4.04-1.54,5.39-4.3,6.04-7.92,.76-4.28,1.33-8.6,2.03-12.9,.47-2.88-.91-4.81-2.82-6.79-7-7.22-8.26-15.83-3.74-23.91,4.28-7.62,12.98-11.72,21.32-10.05,8.86,1.77,15.26,8.77,16.28,18.16,.68,6.2-1.69,11.47-6.11,15.66-2.51,2.37-3.38,4.91-2.8,8.21,.62,3.49,.89,7.04,1.59,10.51,.81,3.98,1.86,7.53,6.6,9.21,3.89,1.38,3.9,4.08,1.01,7.49-3.57,4.24-4.64,8.92-1.76,13.84,1.59,2.7,1.18,4.72-.52,7.05-2.1,2.86-3.96,5.9-5.95,8.84-1.72,2.54-3.65,4.65-.65,7.99,2.16,2.4-.56,3.29-2.58,3.33-5.17,.13-10.33,.04-15.5,.04v.04Z"/>
</svg>