<?xml version="1.0" encoding="UTF-8"?>
<svg id="Layer_1" data-name="Layer 1" xmlns="http://www.w3.org/2000/svg" viewBox="0 0 250 250">
  <defs>
    <style>
      .cls-1 {
        fill: #6d6e71;
      }
    </style>
  </defs>
  <path class="cls-1" d="M234.21,125.12c.15-59.84-48.1-109.2-108.71-109.41-60.54-.2-109.52,48.62-109.72,108.72-.21,60.21,48.16,109.7,108.89,109.85,60.6,.15,109.54-48.74,109.54-109.16m12.95-.09c0,67.53-54.8,122.35-122.37,122.22-67.8-.14-122.1-55.33-121.96-122.65C2.98,57.36,57.84,2.57,125.3,2.75c67.78,.18,121.92,55.26,121.86,122.28"/>
  <path class="cls-1" d="M134.04,38.1c-5.77,.02-10.35,4.59-10.34,10.34,0,5.73,4.65,10.4,10.33,10.38,5.73-.02,10.39-4.72,10.38-10.46-.02-5.66-4.68-10.27-10.37-10.26m-.04,29.99h-52.81c-.66,0-1.46,.19-1.77-.7-.3-.85,.38-1.26,.89-1.7,8.42-7.29,16.85-14.58,25.27-21.86,6.64-5.75,13.29-11.5,19.93-17.25,2.49-2.16,4.96-4.33,7.46-6.48,.89-.77,1.3-.73,2.16,.03,4.88,4.22,9.77,8.44,14.65,12.67,6.26,5.42,12.52,10.85,18.78,16.27,6.45,5.59,12.9,11.17,19.35,16.76,.23,.2,.47,.4,.65,.65,.44,.65,.09,1.46-.68,1.59-.3,.05-.61,.04-.91,.04h-52.97"/>
  <path class="cls-1" d="M134.09,113.16c-7.79,0-15.58-.05-23.37,.03-2.82,.03-4.46-1.93-4.44-4.41,.08-11.23,.04-22.46,.04-33.68,0-2.68,1.55-4.25,4.22-4.25h46.82c2.97,0,4.44,1.49,4.44,4.47v33.43c0,2.89-1.51,4.4-4.41,4.4-7.76,0-15.53,0-23.29,0Z"/>
  <path class="cls-1" d="M164.54,127.17v-51.98c0-2.82,1.53-4.34,4.37-4.35h6.65c2.66,0,4.22,1.59,4.23,4.25,0,14.39,0,28.78-.03,43.16,0,.84,.28,1.38,.88,1.93,4.72,4.25,9.41,8.52,14.11,12.78,5.05,4.58,10.11,9.15,15.15,13.73,3.64,3.3,7.3,6.55,10.89,9.89,2.45,2.28,3.51,5.22,3.54,8.51,.04,5.88,.02,11.76,0,17.63,0,1.12-.44,1.78-1.2,1.95-1.15,.24-2.01-.49-2.02-1.79-.03-2.41,0-4.82,0-7.24,0-3.43-.04-6.87,0-10.3,.04-2.98-1.13-5.3-3.35-7.27-4.67-4.14-9.25-8.37-13.86-12.55-5.6-5.09-11.21-10.17-16.81-15.25-2.16-1.95-4.31-3.92-6.47-5.86-.2-.18-.39-.54-.65-.43-.35,.13-.19,.54-.19,.82,0,11.7,0,23.4,0,35.1,0,6.77-.03,13.53,.02,20.29,.03,2.31-1.81,4.18-4.07,4.05-2.24-.12-4.49-.02-6.73-.03-2.53,0-4.44-1.87-4.45-4.39-.03-2.46,0-4.94,0-7.4v-45.24"/>
  <path class="cls-1" d="M103.57,127.26c0,17.38-.02,34.76,.02,52.14,0,2.58-1.95,5.02-4.84,4.84-2.02-.13-4.04-.02-6.07-.03-2.28-.02-4.09-1.59-4.35-3.88-.25-2.15-.08-4.32-.09-6.48-.03-7.37,0-14.74,0-22.12V76.83c0-.7,0-1.39,.03-2.08,.07-2.22,1.6-3.83,3.84-3.88,2.55-.06,5.1-.06,7.65,0,2.25,.04,3.79,1.7,3.8,4.01,.02,4.46,0,8.92,0,13.39v39"/>
  <path class="cls-1" d="M85.57,141.65c0,2.66-.02,5.32,0,7.98,0,.99-.33,1.62-1.25,2.11-8.23,4.43-16.43,8.9-24.63,13.35-10.79,5.86-21.58,11.72-32.36,17.58-1.22,.65-1.7,.4-1.69-.97,.04-3.77-.13-7.54,.29-11.3,.47-4.31,1.64-8.41,3.5-12.33,3.28-6.86,8.11-12.35,14.59-16.31,2.21-1.35,4.64-2.37,6.97-3.52,8.89-4.41,17.78-8.81,26.68-13.21,1.88-.93,3.77-1.86,5.66-2.79,1.37-.66,2.13-.23,2.21,1.3,.05,1.06,0,2.11,.02,3.16,.03,.88-.35,1.42-1.16,1.82-7.23,3.63-14.45,7.29-21.67,10.93-5.99,3.02-11.98,6.05-17.97,9.07-.22,.12-.44,.23-.65,.36-.82,.47-1.13,1.24-.76,1.93,.39,.72,1.14,.92,2.02,.49,1.5-.73,2.98-1.49,4.46-2.23,5.67-2.86,11.33-5.73,17-8.58,5.46-2.76,10.92-5.53,16.39-8.28,1.52-.77,2.33-.27,2.34,1.44,0,2.66,0,5.32,0,7.98"/>
  <path class="cls-1" d="M182.52,168.76v-13.47c0-1.6,.38-1.98,1.93-1.98h6.74c1.23,0,1.57,.34,1.57,1.6,0,2.63,0,5.27,0,7.89,0,1.32,.49,1.82,1.8,1.82,3.15,0,6.32,0,9.47,0,1.32,0,1.69,.36,1.69,1.67,0,2.61,0,5.22,0,7.81,0,1.33,.48,1.82,1.79,1.83,3.16,0,6.32,0,9.48,0,1.33,0,1.67,.34,1.68,1.68,0,1.83,0,3.66,0,5.49,0,1.17-.22,1.4-1.42,1.39-8.15-.04-16.29-.1-24.44-.14-2.71-.02-5.43-.02-8.14-.04-1.75,0-2.15-.43-2.15-2.17v-13.39"/>
  <path class="cls-1" d="M134.09,144.34h25.36c1.83,0,2.35,.53,2.35,2.38,0,.64,.02,1.28,0,1.92-.05,1.2-.66,1.83-1.86,1.9-.33,.03-.67,0-1,0-11.92,0-23.84,0-35.74,0-4.79,0-9.59,0-14.37,0-2.01,0-2.49-.49-2.49-2.51,0-.47,0-.94,0-1.42,0-1.78,.49-2.29,2.25-2.29h25.52"/>
  <path class="cls-1" d="M161.79,128.74v10.48c0,1.77-.57,2.35-2.34,2.36-2.66,0-5.32,0-7.98,0-1.58,0-2.17-.6-2.18-2.17,0-7.1,0-14.19,0-21.29,0-1.64,.6-2.21,2.21-2.21,2.71,0,5.43,0,8.15,0,1.51,0,2.13,.62,2.14,2.11,0,3.58,0,7.15,0,10.73"/>
  <path class="cls-1" d="M146.53,128.78v10.56c0,1.64-.54,2.21-2.18,2.22-2.69,0-5.38,0-8.06,0-1.59,0-2.19-.62-2.19-2.25,0-7.04,0-14.09,0-21.12,0-1.71,.59-2.3,2.29-2.3,2.69,0,5.38,0,8.07,0,1.48,0,2.04,.57,2.05,2.07,0,3.61,0,7.21,0,10.82h0Z"/>
  <path class="cls-1" d="M118.95,128.68v-10.65c0-1.59,.56-2.14,2.16-2.14,2.72,0,5.44,0,8.15,0,1.51,0,2.11,.61,2.11,2.13v21.37c0,1.53-.58,2.15-2.1,2.16-2.75,.02-5.49,.02-8.24,0-1.52,0-2.09-.61-2.09-2.15v-10.73"/>
  <path class="cls-1" d="M106.31,128.76v-10.8c0-1.47,.6-2.06,2.07-2.07,1.92,0,3.83,0,5.73,0,1.43,0,2.09,.65,2.1,2.09,0,7.18,0,14.35,0,21.52,0,1.39-.64,2.04-2.03,2.06-1.93,.02-3.87,.02-5.82,0-1.5-.02-2.05-.6-2.05-2.09v-10.72"/>
  <path class="cls-1" d="M134.09,42.86c3.07,0,5.59,2.56,5.56,5.65-.04,3.04-2.62,5.58-5.61,5.55-3.1-.04-5.61-2.57-5.59-5.64,.02-3.1,2.52-5.56,5.65-5.56"/>
</svg>